<svg width="72" height="72" viewBox="0 0 72 72" fill="none" xmlns="http://www.w3.org/2000/svg">
<path d="M60.46 26.26C60.2849 25.7779 59.9652 25.3616 59.5446 25.0681C59.124 24.7745 58.623 24.618 58.11 24.62H13.89C13.3848 24.6276 12.8937 24.7881 12.4816 25.0804C12.0694 25.3726 11.7554 25.7829 11.5811 26.2572C11.4068 26.7315 11.3803 27.2474 11.505 27.737C11.6298 28.2267 11.9 28.667 12.28 29L32.78 46.18C33.6814 46.9388 34.8218 47.3549 36 47.3549C37.1783 47.3549 38.3186 46.9388 39.22 46.18L59.72 29C60.1066 28.6722 60.3844 28.2345 60.5165 27.7452C60.6487 27.2559 60.629 26.7379 60.46 26.26Z" fill="black"/>
</svg>
