<svg width="1366" height="768" viewBox="0 0 1366 768" fill="none" xmlns="http://www.w3.org/2000/svg">
<g clip-path="url(#clip0_1_3)">
<rect width="1366" height="768" fill="#0096FA"/>
<g style="mix-blend-mode:soft-light">
<path d="M1214 64C1214 520.74 843.74 891 387 891C-69.7395 891 -440 520.74 -440 64C-440 -392.74 -69.7395 -763 387 -763C843.74 -763 1214 -392.74 1214 64ZM-26.5 64C-26.5 292.37 158.63 477.5 387 477.5C615.37 477.5 800.5 292.37 800.5 64C800.5 -164.37 615.37 -349.5 387 -349.5C158.63 -349.5 -26.5 -164.37 -26.5 64Z" fill="url(#paint0_radial_1_3)"/>
</g>
<path fill-rule="evenodd" clip-rule="evenodd" d="M81.7423 306.177C78.8581 304.25 75.4671 303.221 71.9983 303.221C67.3467 303.221 62.8856 305.069 59.5965 308.358C56.3073 311.648 54.4595 316.109 54.4595 320.76C54.4595 324.229 55.4881 327.62 57.4153 330.504C59.3425 333.388 62.0817 335.636 65.2865 336.964C68.4913 338.291 72.0177 338.639 75.4199 337.962C78.8221 337.285 81.9473 335.615 84.4001 333.162C86.853 330.709 88.5234 327.584 89.2001 324.182C89.8769 320.78 89.5295 317.253 88.2021 314.048C86.8746 310.844 84.6266 308.104 81.7423 306.177ZM57.6867 299.341C61.923 296.511 66.9034 295 71.9983 295C78.8303 295 85.3825 297.714 90.2135 302.545C95.0444 307.376 97.7585 313.928 97.7585 320.76C97.7585 325.855 96.2477 330.836 93.4171 335.072C90.5865 339.308 86.5633 342.61 81.8563 344.559C77.1492 346.509 71.9697 347.019 66.9727 346.025C61.9758 345.031 57.3857 342.578 53.7831 338.975C50.1805 335.373 47.7271 330.783 46.7331 325.786C45.7391 320.789 46.2493 315.609 48.199 310.902C50.1487 306.195 53.4505 302.172 57.6867 299.341ZM46.5687 405H97.4313C99.4343 405.007 101.419 404.618 103.271 403.855C105.123 403.092 106.805 401.97 108.222 400.553C109.638 399.137 110.76 397.454 111.523 395.602C112.286 393.751 112.675 391.766 112.668 389.763C112.654 380.086 108.803 370.81 101.961 363.968C95.1183 357.125 85.8421 353.275 76.1655 353.26H67.8345C58.1579 353.275 48.8817 357.125 42.0392 363.968C35.1968 370.81 31.3463 380.086 31.3318 389.763C31.3246 391.766 31.7137 393.751 32.4769 395.602C33.2401 397.454 34.3621 399.137 35.7784 400.553C37.1948 401.97 38.8773 403.092 40.7292 403.855C42.5811 404.618 44.5657 405.007 46.5687 405ZM47.8526 369.781C53.1532 364.48 60.3383 361.496 67.8345 361.482H76.1655C83.6617 361.496 90.8468 364.48 96.1474 369.781C101.448 375.082 104.432 382.267 104.447 389.763C104.447 391.624 103.708 393.408 102.392 394.724C101.076 396.039 99.2919 396.778 97.4313 396.778H46.5687C44.7081 396.778 42.9236 396.039 41.608 394.724C40.2923 393.408 39.5532 391.624 39.5532 389.763C39.5676 382.267 42.5519 375.082 47.8526 369.781Z" fill="white"/>
<rect x="-27" y="251" width="198" height="198" rx="99" stroke="white" stroke-width="2"/>
<rect x="697" y="174" width="213" height="222" rx="23" stroke="white" stroke-width="2"/>
<rect x="426" y="535" width="484" height="327" rx="23" stroke="white" stroke-width="2"/>
<path d="M296.517 413.66C290.357 413.66 285.637 412.1 282.357 408.98C279.117 405.86 277.497 401.2 277.497 395V370.7H288.537V395.12C288.537 398.2 289.217 400.52 290.577 402.08C291.937 403.64 293.917 404.42 296.517 404.42C299.077 404.42 301.037 403.64 302.397 402.08C303.757 400.52 304.437 398.2 304.437 395.12V370.7H315.297V395C315.297 401.2 313.697 405.86 310.497 408.98C307.337 412.1 302.677 413.66 296.517 413.66ZM317.287 413L337.087 370.7H345.787L365.587 413H354.547L350.887 404.42H331.987L328.327 413H317.287ZM341.347 382.22L335.587 395.96H347.227L341.467 382.22H341.347ZM368.149 413V370.7H379.189V413H368.149ZM185.805 473V430.7H203.325C210.645 430.7 216.325 432.54 220.365 436.22C224.405 439.9 226.425 445.1 226.425 451.82C226.425 458.54 224.405 463.76 220.365 467.48C216.325 471.16 210.645 473 203.325 473H185.805ZM196.845 464.06H202.605C206.805 464.06 209.905 463.06 211.905 461.06C213.945 459.02 214.965 455.94 214.965 451.82C214.965 447.7 213.945 444.64 211.905 442.64C209.865 440.64 206.765 439.64 202.605 439.64H196.845V464.06ZM248.333 473.66C244.733 473.66 241.613 473.04 238.973 471.8C236.373 470.52 234.373 468.72 232.973 466.4C231.573 464.08 230.873 461.34 230.873 458.18C230.873 455.18 231.533 452.52 232.853 450.2C234.213 447.88 236.053 446.08 238.373 444.8C240.733 443.48 243.413 442.82 246.413 442.82C249.373 442.82 251.933 443.44 254.093 444.68C256.293 445.92 257.973 447.7 259.133 450.02C260.333 452.3 260.933 454.98 260.933 458.06V460.4H241.073C241.433 462.32 242.233 463.7 243.473 464.54C244.713 465.38 246.433 465.8 248.633 465.8C250.153 465.8 251.733 465.58 253.373 465.14C255.053 464.66 256.533 463.98 257.813 463.1L260.453 470.12C258.933 471.2 257.073 472.06 254.873 472.7C252.673 473.34 250.493 473.66 248.333 473.66ZM246.893 449.72C245.293 449.72 243.973 450.2 242.933 451.16C241.933 452.12 241.293 453.52 241.013 455.36H252.173C252.053 453.48 251.533 452.08 250.613 451.16C249.733 450.2 248.493 449.72 246.893 449.72ZM277.294 473.66C274.574 473.66 272.054 473.38 269.734 472.82C267.454 472.26 265.514 471.48 263.914 470.48L266.374 463.58C267.854 464.42 269.574 465.12 271.534 465.68C273.494 466.2 275.434 466.46 277.354 466.46C278.834 466.46 279.894 466.26 280.534 465.86C281.174 465.42 281.494 464.86 281.494 464.18C281.494 463.58 281.274 463.14 280.834 462.86C280.434 462.54 279.854 462.3 279.094 462.14L272.434 461.06C269.954 460.66 268.034 459.76 266.674 458.36C265.314 456.96 264.634 455.14 264.634 452.9C264.634 450.82 265.214 449.04 266.374 447.56C267.534 446.04 269.154 444.88 271.234 444.08C273.314 443.24 275.694 442.82 278.374 442.82C280.494 442.82 282.594 443.08 284.674 443.6C286.754 444.08 288.574 444.88 290.134 446L287.494 452.78C286.334 451.98 284.894 451.32 283.174 450.8C281.454 450.24 279.914 449.96 278.554 449.96C276.914 449.96 275.754 450.2 275.074 450.68C274.394 451.12 274.054 451.66 274.054 452.3C274.054 453.38 274.794 454.04 276.274 454.28L282.934 455.42C285.494 455.82 287.454 456.7 288.814 458.06C290.214 459.38 290.914 461.18 290.914 463.46C290.914 466.7 289.674 469.22 287.194 471.02C284.714 472.78 281.414 473.66 277.294 473.66ZM295 438.38V428.72H306.22V438.38H295ZM295.3 473V443.48H305.98V473H295.3ZM326.815 484.46C323.855 484.46 321.075 484.18 318.475 483.62C315.915 483.06 313.715 482.14 311.875 480.86L314.635 473.66C316.155 474.58 317.955 475.3 320.035 475.82C322.155 476.34 324.075 476.6 325.795 476.6C328.235 476.6 330.055 476.08 331.255 475.04C332.495 474.04 333.115 472.46 333.115 470.3V467.54C332.275 468.98 331.015 470.12 329.335 470.96C327.655 471.8 325.855 472.22 323.935 472.22C321.295 472.22 318.995 471.62 317.035 470.42C315.075 469.18 313.535 467.46 312.415 465.26C311.335 463.06 310.795 460.48 310.795 457.52C310.795 454.56 311.335 451.98 312.415 449.78C313.535 447.58 315.075 445.88 317.035 444.68C318.995 443.44 321.295 442.82 323.935 442.82C325.935 442.82 327.755 443.26 329.395 444.14C331.075 444.98 332.295 446.1 333.055 447.5V443.48H343.495V469.04C343.495 474.2 342.055 478.06 339.175 480.62C336.295 483.18 332.175 484.46 326.815 484.46ZM327.235 464.36C328.995 464.36 330.395 463.76 331.435 462.56C332.475 461.36 332.995 459.68 332.995 457.52C332.995 455.36 332.475 453.68 331.435 452.48C330.395 451.28 328.995 450.68 327.235 450.68C325.515 450.68 324.135 451.28 323.095 452.48C322.055 453.68 321.535 455.36 321.535 457.52C321.535 459.68 322.055 461.36 323.095 462.56C324.135 463.76 325.515 464.36 327.235 464.36ZM349.733 473V443.48H360.113V447.5C361.153 445.98 362.493 444.82 364.133 444.02C365.773 443.22 367.613 442.82 369.653 442.82C373.173 442.82 375.773 443.86 377.453 445.94C379.173 448.02 380.033 451.22 380.033 455.54V473H369.353V455.96C369.353 454.16 369.033 452.88 368.393 452.12C367.793 451.36 366.893 450.98 365.693 450.98C364.093 450.98 362.813 451.5 361.853 452.54C360.893 453.54 360.413 454.9 360.413 456.62V473H349.733ZM189.982 533.66C186.662 533.66 183.482 533.26 180.442 532.46C177.402 531.62 174.902 530.52 172.942 529.16L176.002 520.58C177.842 521.82 180.002 522.8 182.482 523.52C184.962 524.24 187.462 524.6 189.982 524.6C192.622 524.6 194.462 524.26 195.502 523.58C196.582 522.86 197.122 521.98 197.122 520.94C197.122 520.02 196.742 519.28 195.982 518.72C195.262 518.16 193.962 517.68 192.082 517.28L185.062 515.78C177.462 514.14 173.662 510.16 173.662 503.84C173.662 501.08 174.402 498.66 175.882 496.58C177.402 494.5 179.502 492.9 182.182 491.78C184.862 490.62 187.982 490.04 191.542 490.04C194.462 490.04 197.222 490.46 199.822 491.3C202.462 492.1 204.602 493.2 206.242 494.6L203.182 502.64C201.662 501.52 199.902 500.66 197.902 500.06C195.902 499.42 193.742 499.1 191.422 499.1C189.182 499.1 187.462 499.5 186.262 500.3C185.062 501.06 184.462 502.06 184.462 503.3C184.462 504.18 184.822 504.9 185.542 505.46C186.262 506.02 187.542 506.5 189.382 506.9L196.342 508.4C204.062 510.04 207.922 513.92 207.922 520.04C207.922 522.8 207.182 525.2 205.702 527.24C204.222 529.28 202.142 530.86 199.462 531.98C196.782 533.1 193.622 533.66 189.982 533.66ZM213.897 543.8L219.837 530.96L207.777 503.48H218.997L225.477 520.22L232.197 503.48H242.757L224.697 543.8H213.897ZM255.732 533.66C253.012 533.66 250.492 533.38 248.172 532.82C245.892 532.26 243.952 531.48 242.352 530.48L244.812 523.58C246.292 524.42 248.012 525.12 249.972 525.68C251.932 526.2 253.872 526.46 255.792 526.46C257.272 526.46 258.332 526.26 258.972 525.86C259.612 525.42 259.932 524.86 259.932 524.18C259.932 523.58 259.712 523.14 259.272 522.86C258.872 522.54 258.292 522.3 257.532 522.14L250.872 521.06C248.392 520.66 246.472 519.76 245.112 518.36C243.752 516.96 243.072 515.14 243.072 512.9C243.072 510.82 243.652 509.04 244.812 507.56C245.972 506.04 247.592 504.88 249.672 504.08C251.752 503.24 254.132 502.82 256.812 502.82C258.932 502.82 261.032 503.08 263.112 503.6C265.192 504.08 267.012 504.88 268.572 506L265.932 512.78C264.772 511.98 263.332 511.32 261.612 510.8C259.892 510.24 258.352 509.96 256.992 509.96C255.352 509.96 254.192 510.2 253.512 510.68C252.832 511.12 252.492 511.66 252.492 512.3C252.492 513.38 253.232 514.04 254.712 514.28L261.372 515.42C263.932 515.82 265.892 516.7 267.252 518.06C268.652 519.38 269.352 521.18 269.352 523.46C269.352 526.7 268.112 529.22 265.632 531.02C263.152 532.78 259.852 533.66 255.732 533.66ZM288.924 533.66C284.444 533.66 281.124 532.62 278.964 530.54C276.804 528.46 275.724 525.32 275.724 521.12V511.34H270.204V503.48H275.724V494.9H286.404V503.48H294.804V511.34H286.404V520.76C286.404 523.64 287.864 525.08 290.784 525.08C291.264 525.08 291.784 525.04 292.344 524.96C292.944 524.84 293.604 524.68 294.324 524.48L295.764 532.16C294.844 532.64 293.764 533 292.524 533.24C291.284 533.52 290.084 533.66 288.924 533.66ZM314.778 533.66C311.178 533.66 308.058 533.04 305.418 531.8C302.818 530.52 300.818 528.72 299.418 526.4C298.018 524.08 297.318 521.34 297.318 518.18C297.318 515.18 297.978 512.52 299.298 510.2C300.658 507.88 302.498 506.08 304.818 504.8C307.178 503.48 309.858 502.82 312.858 502.82C315.818 502.82 318.378 503.44 320.538 504.68C322.738 505.92 324.418 507.7 325.578 510.02C326.778 512.3 327.378 514.98 327.378 518.06V520.4H307.518C307.878 522.32 308.678 523.7 309.918 524.54C311.158 525.38 312.878 525.8 315.078 525.8C316.598 525.8 318.178 525.58 319.818 525.14C321.498 524.66 322.978 523.98 324.258 523.1L326.898 530.12C325.378 531.2 323.518 532.06 321.318 532.7C319.118 533.34 316.938 533.66 314.778 533.66ZM313.338 509.72C311.738 509.72 310.418 510.2 309.378 511.16C308.378 512.12 307.738 513.52 307.458 515.36H318.618C318.498 513.48 317.978 512.08 317.058 511.16C316.178 510.2 314.938 509.72 313.338 509.72ZM332.099 533V503.48H342.479V507.44C343.399 506.04 344.619 504.92 346.139 504.08C347.699 503.24 349.479 502.82 351.479 502.82C353.479 502.82 355.199 503.26 356.639 504.14C358.119 505.02 359.239 506.38 359.999 508.22C360.999 506.5 362.359 505.18 364.079 504.26C365.799 503.3 367.699 502.82 369.779 502.82C373.219 502.82 375.759 503.86 377.399 505.94C379.079 507.98 379.919 511.18 379.919 515.54V533H369.239V515.84C369.239 514.12 368.979 512.88 368.459 512.12C367.939 511.36 367.079 510.98 365.879 510.98C364.399 510.98 363.259 511.5 362.459 512.54C361.699 513.58 361.319 515.06 361.319 516.98V533H350.639V515.84C350.639 514.12 350.379 512.88 349.859 512.12C349.339 511.36 348.479 510.98 347.279 510.98C345.839 510.98 344.719 511.5 343.919 512.54C343.159 513.58 342.779 515.06 342.779 516.98V533H332.099Z" fill="white"/>
<line x1="1" y1="656" x2="135" y2="656" stroke="white" stroke-width="2" stroke-linecap="round"/>
<path d="M85.2859 43.2451L85.2856 43.2358C82.0696 -47.2253 105.42 -144.413 184.316 -194.141C233.023 -224.357 304.323 -235.893 373.519 -235.893C420.149 -235.893 465.959 -230.958 503.698 -222.744L503.705 -222.743C591.654 -203.933 654.694 -144.317 672.269 -53.6193L674.232 -53.9998L672.269 -53.6192C690.751 41.7273 681.85 155.748 626.626 236.794L626.62 236.803L626.614 236.812C605.381 268.71 575.362 296.666 546.368 323.668C540.357 329.265 534.39 334.822 528.555 340.364C493.103 373.33 456.036 406.299 419.758 438.459L419.705 438.506L419.655 438.557C418.255 439.989 416.32 441.254 413.829 441.254H413.824H413.82H413.815H413.81H413.806H413.801H413.797H413.792H413.787H413.783H413.778H413.774H413.769H413.765H413.76H413.756H413.751H413.747H413.743H413.738H413.734H413.73H413.725H413.721H413.717H413.712H413.708H413.704H413.7H413.695H413.691H413.687H413.683H413.679H413.675H413.671H413.666H413.662H413.658H413.654H413.65H413.646H413.642H413.638H413.634H413.63H413.626H413.622H413.618H413.615H413.611H413.607H413.603H413.599H413.595H413.591H413.588H413.584H413.58H413.576H413.573H413.569H413.565H413.561H413.558H413.554H413.55H413.547H413.543H413.54H413.536H413.532H413.529H413.525H413.522H413.518H413.515H413.511H413.508H413.504H413.501H413.497H413.494H413.49H413.487H413.484H413.48H413.477H413.473H413.47H413.467H413.463H413.46H413.457H413.453H413.45H413.447H413.444H413.44H413.437H413.434H413.431H413.427H413.424H413.421H413.418H413.415H413.411H413.408H413.405H413.402H413.399H413.396H413.393H413.39H413.387H413.384H413.38H413.377H413.374H413.371H413.368H413.365H413.362H413.359H413.356H413.353H413.351H413.348H413.345H413.342H413.339H413.336H413.333H413.33H413.327H413.324H413.321H413.319H413.316H413.313H413.31H413.307H413.304H413.302H413.299H413.296H413.293H413.29H413.288H413.285H413.282H413.279H413.277H413.274H413.271H413.268H413.266H413.263H413.26H413.258H413.255H413.252H413.25H413.247H413.244H413.242H413.239H413.236H413.234H413.231H413.229H413.226H413.223H413.221H413.218H413.216H413.213H413.21H413.208H413.205H413.203H413.2H413.198H413.195H413.192H413.19H413.187H413.185H413.182H413.18H413.177H413.175H413.172H413.17H413.167H413.165H413.162H413.16H413.157H413.155H413.152H413.15H413.148H413.145H413.143H413.14H413.138H413.135H413.133H413.13H413.128H413.126H413.123H413.121H413.118H413.116H413.113H413.111H413.109H413.106H413.104H413.101H413.099H413.097H413.094H413.092H413.089H413.087H413.085H413.082H413.08H413.078H413.075H413.073H413.07H413.068H413.066H413.063H413.061H413.059H413.056H413.054H413.051H413.049H413.047H413.044H413.042H413.04H413.037H413.035H413.033H413.03H413.028H413.025H413.023H413.021H413.018H413.016H413.014H413.011H413.009H413.007H413.004H413.002H412.999H412.997H412.995H412.992H412.99H412.988H412.985H412.983H412.98H412.978H412.976H412.973H412.971H412.969H412.966H412.964H412.961H412.959H412.957H412.954H412.952H412.949H412.947H412.945H412.942H412.94H412.937H412.935H412.933H412.93H412.928H412.925H412.923H412.921H412.918H412.916H412.913H412.911H412.908H412.906H412.903H412.901H412.899H412.896H412.894H412.891H412.889H412.886H412.884H412.881H412.879H412.876H412.874H412.871H412.869H412.866H412.864H412.861H412.859H412.856H412.854H412.851H412.849H412.846H412.843H412.841H412.838H412.836H412.833H412.831H412.828H412.825H412.823H412.82H412.818H412.815H412.812H412.81H412.807H412.804H412.802H412.799H412.796H412.794H412.791H412.788H412.786H412.783H412.78H412.778H412.775H412.772H412.769H412.767H412.764H412.761H412.758H412.756H412.753H412.75H412.747H412.744H412.742H412.739H412.736H412.733H412.73H412.728H412.725H412.722H412.719H412.716H412.713H412.71H412.707H412.704H412.701H412.699H412.696H412.693H412.69H412.687H412.684H412.681H412.678H412.675H412.672H412.669H412.666H412.663H412.659H412.656H412.653H412.65H412.647H412.644H412.641H412.638H412.635H412.631H412.628H412.625H412.622H412.619H412.615H412.612H412.609H412.606H412.603H412.599H412.596H412.593H412.589H412.586H412.583H412.579H412.576H412.573H412.569H412.566H412.563H412.559H412.556H412.552H412.549H412.545H412.542H412.538H412.535H412.531H412.528H412.524H412.521H412.517H412.514H412.51H412.507H412.503H412.499H412.496H412.492H412.488H412.485H412.481H412.477H412.473H412.47H412.466H412.462H412.458H412.455H412.451H412.447H412.443H412.439H412.435H412.432H412.428H412.424H412.42H412.416H412.412H412.408H412.404H412.4H412.396H412.392H412.388H412.384H412.38H412.376H412.371H412.367H412.363H412.359H412.355H412.351H412.346H412.342H412.338H412.334H412.329H412.325H412.321H412.316H412.312H412.308H412.303H412.299H412.295H412.29H412.286H412.281H412.277H412.272H412.268H412.263H412.259H412.254H412.25H412.245H412.24H412.236H412.231H412.226H412.222H412.217C405.377 441.254 400.511 435.673 400.511 429.235V350.07C400.511 344.723 396.268 341.473 392.062 341.473C355.579 341.473 310.833 335.318 268.801 322.287C226.739 309.246 187.607 289.385 162.144 262.119L162.138 262.113L162.132 262.106C107.797 204.895 87.6976 121.363 85.2859 43.2451Z" stroke="white" stroke-width="4"/>
<circle cx="664" cy="154" r="17" stroke="white" stroke-width="4"/>
<circle cx="664" cy="154" r="7" fill="white" stroke="white" stroke-width="4"/>
<circle cx="1272" cy="657" r="38" stroke="white" stroke-width="4"/>
<rect x="1153" y="610" width="166" height="94" rx="47" stroke="white" stroke-width="2"/>
<path d="M754.789 71.4453C758.474 71.4453 761.163 72.168 762.855 73.6133C764.561 75.0456 765.414 77.1029 765.414 79.7852C765.414 80.9961 765.212 82.1484 764.809 83.2422C764.418 84.3229 763.78 85.2799 762.895 86.1133C762.009 86.9336 760.844 87.5846 759.398 88.0664C757.966 88.5352 756.208 88.7695 754.125 88.7695H750.648V100H747.328V71.4453H754.789ZM754.477 74.2773H750.648V85.918H753.754C755.577 85.918 757.094 85.7227 758.305 85.332C759.529 84.9414 760.447 84.3099 761.059 83.4375C761.671 82.5521 761.977 81.3802 761.977 79.9219C761.977 78.0208 761.371 76.6081 760.16 75.6836C758.949 74.7461 757.055 74.2773 754.477 74.2773ZM774.164 100H770.902V69.6094H774.164V100ZM789.027 78.2422C791.579 78.2422 793.474 78.8151 794.711 79.9609C795.948 81.1068 796.566 82.9362 796.566 85.4492V100H794.203L793.578 96.8359H793.422C792.823 97.6172 792.198 98.2747 791.547 98.8086C790.896 99.3294 790.141 99.7266 789.281 100C788.435 100.26 787.393 100.391 786.156 100.391C784.854 100.391 783.695 100.163 782.68 99.707C781.677 99.2513 780.883 98.5612 780.297 97.6367C779.724 96.7122 779.438 95.5404 779.438 94.1211C779.438 91.9857 780.284 90.3451 781.977 89.1992C783.669 88.0534 786.247 87.4284 789.711 87.3242L793.402 87.168V85.8594C793.402 84.0104 793.005 82.7148 792.211 81.9727C791.417 81.2305 790.297 80.8594 788.852 80.8594C787.732 80.8594 786.664 81.0221 785.648 81.3477C784.633 81.6732 783.669 82.0573 782.758 82.5L781.762 80.0391C782.725 79.5443 783.832 79.1211 785.082 78.7695C786.332 78.418 787.647 78.2422 789.027 78.2422ZM793.363 89.4531L790.102 89.5898C787.432 89.694 785.551 90.1302 784.457 90.8984C783.363 91.6667 782.816 92.7539 782.816 94.1602C782.816 95.3841 783.188 96.2891 783.93 96.875C784.672 97.4609 785.655 97.7539 786.879 97.7539C788.78 97.7539 790.336 97.2266 791.547 96.1719C792.758 95.1172 793.363 93.5352 793.363 91.4258V89.4531ZM811.82 100.391C809.893 100.391 808.194 99.9935 806.723 99.1992C805.251 98.4049 804.105 97.194 803.285 95.5664C802.465 93.9388 802.055 91.888 802.055 89.4141C802.055 86.8229 802.484 84.707 803.344 83.0664C804.216 81.4128 805.414 80.1888 806.938 79.3945C808.461 78.6003 810.193 78.2031 812.133 78.2031C813.201 78.2031 814.229 78.3138 815.219 78.5352C816.221 78.7435 817.042 79.0104 817.68 79.3359L816.703 82.0508C816.052 81.7904 815.297 81.556 814.438 81.3477C813.591 81.1393 812.797 81.0352 812.055 81.0352C810.57 81.0352 809.333 81.3542 808.344 81.9922C807.367 82.6302 806.632 83.5677 806.137 84.8047C805.655 86.0417 805.414 87.5651 805.414 89.375C805.414 91.1068 805.648 92.5846 806.117 93.8086C806.599 95.0326 807.309 95.9701 808.246 96.6211C809.197 97.2591 810.382 97.5781 811.801 97.5781C812.934 97.5781 813.956 97.4609 814.867 97.2266C815.779 96.9792 816.605 96.6927 817.348 96.3672V99.2578C816.632 99.6224 815.831 99.9023 814.945 100.098C814.073 100.293 813.031 100.391 811.82 100.391ZM830.668 78.2031C832.491 78.2031 834.053 78.6068 835.355 79.4141C836.658 80.2214 837.654 81.3542 838.344 82.8125C839.034 84.2578 839.379 85.9505 839.379 87.8906V89.9023H824.594C824.633 92.4154 825.258 94.3294 826.469 95.6445C827.68 96.9596 829.385 97.6172 831.586 97.6172C832.94 97.6172 834.138 97.4935 835.18 97.2461C836.221 96.9987 837.302 96.6341 838.422 96.1523V99.0039C837.341 99.4857 836.267 99.8372 835.199 100.059C834.145 100.28 832.895 100.391 831.449 100.391C829.392 100.391 827.595 99.974 826.059 99.1406C824.535 98.2943 823.35 97.0573 822.504 95.4297C821.658 93.8021 821.234 91.8099 821.234 89.4531C821.234 87.1484 821.618 85.1562 822.387 83.4766C823.168 81.7839 824.262 80.4818 825.668 79.5703C827.087 78.6589 828.754 78.2031 830.668 78.2031ZM830.629 80.8594C828.897 80.8594 827.517 81.4258 826.488 82.5586C825.46 83.6914 824.848 85.2734 824.652 87.3047H835.98C835.967 86.0286 835.766 84.9089 835.375 83.9453C834.997 82.9688 834.418 82.2135 833.637 81.6797C832.855 81.1328 831.853 80.8594 830.629 80.8594ZM848.129 69.6094V78.6914C848.129 79.2122 848.116 79.7396 848.09 80.2734C848.064 80.7943 848.018 81.276 847.953 81.7188H848.168C848.611 80.9635 849.171 80.332 849.848 79.8242C850.538 79.3034 851.319 78.9128 852.191 78.6523C853.064 78.3789 853.988 78.2422 854.965 78.2422C856.684 78.2422 858.116 78.5156 859.262 79.0625C860.421 79.6094 861.286 80.4557 861.859 81.6016C862.445 82.7474 862.738 84.2318 862.738 86.0547V100H859.535V86.2695C859.535 84.4857 859.125 83.151 858.305 82.2656C857.497 81.3802 856.254 80.9375 854.574 80.9375C852.986 80.9375 851.716 81.2435 850.766 81.8555C849.828 82.4544 849.151 83.3398 848.734 84.5117C848.331 85.6836 848.129 87.1159 848.129 88.8086V100H844.887V69.6094H848.129ZM887.875 89.2578C887.875 91.0156 887.647 92.5846 887.191 93.9648C886.736 95.3451 886.078 96.5104 885.219 97.4609C884.359 98.4115 883.318 99.1406 882.094 99.6484C880.883 100.143 879.509 100.391 877.973 100.391C876.54 100.391 875.225 100.143 874.027 99.6484C872.842 99.1406 871.814 98.4115 870.941 97.4609C870.082 96.5104 869.411 95.3451 868.93 93.9648C868.461 92.5846 868.227 91.0156 868.227 89.2578C868.227 86.9141 868.624 84.9219 869.418 83.2812C870.212 81.6276 871.345 80.3711 872.816 79.5117C874.301 78.6393 876.065 78.2031 878.109 78.2031C880.062 78.2031 881.768 78.6393 883.227 79.5117C884.698 80.3841 885.837 81.6471 886.645 83.3008C887.465 84.9414 887.875 86.9271 887.875 89.2578ZM871.586 89.2578C871.586 90.9766 871.814 92.4674 872.27 93.7305C872.725 94.9935 873.428 95.9701 874.379 96.6602C875.329 97.3503 876.553 97.6953 878.051 97.6953C879.535 97.6953 880.753 97.3503 881.703 96.6602C882.667 95.9701 883.376 94.9935 883.832 93.7305C884.288 92.4674 884.516 90.9766 884.516 89.2578C884.516 87.5521 884.288 86.0807 883.832 84.8438C883.376 83.5938 882.673 82.6302 881.723 81.9531C880.772 81.276 879.542 80.9375 878.031 80.9375C875.805 80.9375 874.171 81.6732 873.129 83.1445C872.1 84.6159 871.586 86.6536 871.586 89.2578ZM896.742 100H893.48V69.6094H896.742V100ZM911.215 100.391C908.507 100.391 906.358 99.4661 904.77 97.6172C903.194 95.7682 902.406 93.0208 902.406 89.375C902.406 85.6901 903.214 82.9102 904.828 81.0352C906.443 79.1471 908.591 78.2031 911.273 78.2031C912.406 78.2031 913.396 78.3529 914.242 78.6523C915.089 78.9518 915.818 79.3555 916.43 79.8633C917.042 80.3581 917.556 80.9245 917.973 81.5625H918.207C918.155 81.1589 918.103 80.6055 918.051 79.9023C917.999 79.1992 917.973 78.6263 917.973 78.1836V69.6094H921.215V100H918.598L918.109 96.9531H917.973C917.569 97.5911 917.055 98.1706 916.43 98.6914C915.818 99.2122 915.082 99.6289 914.223 99.9414C913.376 100.241 912.374 100.391 911.215 100.391ZM911.723 97.6953C914.014 97.6953 915.635 97.0443 916.586 95.7422C917.536 94.4401 918.012 92.5065 918.012 89.9414V89.3555C918.012 86.6341 917.556 84.5443 916.645 83.0859C915.746 81.6276 914.105 80.8984 911.723 80.8984C909.73 80.8984 908.24 81.6667 907.25 83.2031C906.26 84.7266 905.766 86.8099 905.766 89.4531C905.766 92.0833 906.254 94.1146 907.23 95.5469C908.22 96.9792 909.717 97.6953 911.723 97.6953ZM936.332 78.2031C938.155 78.2031 939.717 78.6068 941.02 79.4141C942.322 80.2214 943.318 81.3542 944.008 82.8125C944.698 84.2578 945.043 85.9505 945.043 87.8906V89.9023H930.258C930.297 92.4154 930.922 94.3294 932.133 95.6445C933.344 96.9596 935.049 97.6172 937.25 97.6172C938.604 97.6172 939.802 97.4935 940.844 97.2461C941.885 96.9987 942.966 96.6341 944.086 96.1523V99.0039C943.005 99.4857 941.931 99.8372 940.863 100.059C939.809 100.28 938.559 100.391 937.113 100.391C935.056 100.391 933.259 99.974 931.723 99.1406C930.199 98.2943 929.014 97.0573 928.168 95.4297C927.322 93.8021 926.898 91.8099 926.898 89.4531C926.898 87.1484 927.283 85.1562 928.051 83.4766C928.832 81.7839 929.926 80.4818 931.332 79.5703C932.751 78.6589 934.418 78.2031 936.332 78.2031ZM936.293 80.8594C934.561 80.8594 933.181 81.4258 932.152 82.5586C931.124 83.6914 930.512 85.2734 930.316 87.3047H941.645C941.632 86.0286 941.43 84.9089 941.039 83.9453C940.661 82.9688 940.082 82.2135 939.301 81.6797C938.52 81.1328 937.517 80.8594 936.293 80.8594ZM960.277 78.2031C960.707 78.2031 961.156 78.2292 961.625 78.2812C962.094 78.3203 962.51 78.3789 962.875 78.457L962.465 81.4648C962.113 81.3737 961.723 81.3021 961.293 81.25C960.863 81.1979 960.46 81.1719 960.082 81.1719C959.223 81.1719 958.409 81.3477 957.641 81.6992C956.885 82.0378 956.221 82.5326 955.648 83.1836C955.076 83.8216 954.626 84.5964 954.301 85.5078C953.975 86.4062 953.812 87.4089 953.812 88.5156V100H950.551V78.5938H953.246L953.598 82.5391H953.734C954.177 81.7448 954.711 81.0221 955.336 80.3711C955.961 79.707 956.684 79.1797 957.504 78.7891C958.337 78.3984 959.262 78.2031 960.277 78.2031Z" fill="white"/>
<path d="M1011.17 78L999.333 90L987.5 78" stroke="white" stroke-width="4" stroke-linecap="round"/>
<rect x="719.5" y="37" width="314.667" height="94" rx="15" stroke="white" stroke-width="2"/>
<path fill-rule="evenodd" clip-rule="evenodd" d="M224.311 642.158C223.609 641.747 222.813 641.527 222 641.52C221.187 641.527 220.39 641.747 219.688 642.158C218.986 642.568 218.404 643.155 218 643.86L211.8 654.52L205.7 665.18C205.291 665.888 205.075 666.69 205.073 667.507C205.07 668.324 205.282 669.127 205.686 669.837C206.091 670.547 206.674 671.139 207.378 671.553C208.082 671.968 208.883 672.191 209.7 672.2H234.3C235.117 672.191 235.917 671.968 236.621 671.553C237.325 671.139 237.909 670.547 238.313 669.837C238.718 669.127 238.929 668.324 238.927 667.507C238.924 666.69 238.708 665.888 238.3 665.18L232.14 654.52L226 643.86C225.595 643.155 225.013 642.568 224.311 642.158ZM218.151 639.541C219.321 638.867 220.649 638.514 222 638.52C223.35 638.514 224.678 638.867 225.848 639.541C227.018 640.216 227.988 641.189 228.66 642.36L234.8 653L240.96 663.68C241.634 664.848 241.989 666.173 241.989 667.522C241.988 668.871 241.633 670.196 240.957 671.364C240.282 672.532 239.312 673.501 238.143 674.175C236.974 674.848 235.649 675.202 234.3 675.2H209.7C208.351 675.202 207.025 674.848 205.857 674.175C204.688 673.501 203.717 672.532 203.042 671.364C202.367 670.196 202.011 668.871 202.011 667.522C202.01 666.173 202.365 664.848 203.04 663.68L209.2 653L215.34 642.36C216.011 641.189 216.982 640.216 218.151 639.541ZM223.46 651.48C223.041 651.159 222.528 650.985 222 650.985C221.472 650.985 220.959 651.159 220.54 651.48C220.339 651.675 220.186 651.913 220.092 652.177C219.999 652.441 219.967 652.722 220 653L220.78 661.24C220.803 661.578 220.945 661.896 221.18 662.14C221.42 662.361 221.734 662.483 222.06 662.483C222.386 662.483 222.7 662.361 222.94 662.14C223.178 661.89 223.319 661.564 223.34 661.22L224.1 653.22V652.88C224.105 652.614 224.05 652.35 223.939 652.107C223.828 651.865 223.665 651.651 223.46 651.48ZM220.52 664.32C220.146 664.714 219.938 665.236 219.938 665.78C219.938 666.323 220.146 666.846 220.52 667.24C220.911 667.613 221.43 667.821 221.97 667.821C222.51 667.821 223.03 667.613 223.42 667.24C223.795 666.846 224.003 666.323 224.003 665.78C224.003 665.236 223.795 664.714 223.42 664.32C223.234 664.123 223.009 663.966 222.759 663.859C222.51 663.752 222.242 663.697 221.97 663.697C221.699 663.697 221.431 663.752 221.181 663.859C220.932 663.966 220.707 664.123 220.52 664.32Z" fill="white"/>
<path d="M276.609 662.258C276.609 664.016 276.382 665.585 275.926 666.965C275.47 668.345 274.812 669.51 273.953 670.461C273.094 671.411 272.052 672.141 270.828 672.648C269.617 673.143 268.243 673.391 266.707 673.391C265.275 673.391 263.96 673.143 262.762 672.648C261.577 672.141 260.548 671.411 259.676 670.461C258.816 669.51 258.146 668.345 257.664 666.965C257.195 665.585 256.961 664.016 256.961 662.258C256.961 659.914 257.358 657.922 258.152 656.281C258.947 654.628 260.079 653.371 261.551 652.512C263.035 651.639 264.799 651.203 266.844 651.203C268.797 651.203 270.503 651.639 271.961 652.512C273.432 653.384 274.572 654.647 275.379 656.301C276.199 657.941 276.609 659.927 276.609 662.258ZM260.32 662.258C260.32 663.977 260.548 665.467 261.004 666.73C261.46 667.993 262.163 668.97 263.113 669.66C264.064 670.35 265.288 670.695 266.785 670.695C268.27 670.695 269.487 670.35 270.438 669.66C271.401 668.97 272.111 667.993 272.566 666.73C273.022 665.467 273.25 663.977 273.25 662.258C273.25 660.552 273.022 659.081 272.566 657.844C272.111 656.594 271.408 655.63 270.457 654.953C269.507 654.276 268.276 653.938 266.766 653.938C264.539 653.938 262.905 654.673 261.863 656.145C260.835 657.616 260.32 659.654 260.32 662.258ZM300.672 662.258C300.672 664.016 300.444 665.585 299.988 666.965C299.533 668.345 298.875 669.51 298.016 670.461C297.156 671.411 296.115 672.141 294.891 672.648C293.68 673.143 292.306 673.391 290.77 673.391C289.337 673.391 288.022 673.143 286.824 672.648C285.639 672.141 284.611 671.411 283.738 670.461C282.879 669.51 282.208 668.345 281.727 666.965C281.258 665.585 281.023 664.016 281.023 662.258C281.023 659.914 281.421 657.922 282.215 656.281C283.009 654.628 284.142 653.371 285.613 652.512C287.098 651.639 288.862 651.203 290.906 651.203C292.859 651.203 294.565 651.639 296.023 652.512C297.495 653.384 298.634 654.647 299.441 656.301C300.262 657.941 300.672 659.927 300.672 662.258ZM284.383 662.258C284.383 663.977 284.611 665.467 285.066 666.73C285.522 667.993 286.225 668.97 287.176 669.66C288.126 670.35 289.35 670.695 290.848 670.695C292.332 670.695 293.549 670.35 294.5 669.66C295.464 668.97 296.173 667.993 296.629 666.73C297.085 665.467 297.312 663.977 297.312 662.258C297.312 660.552 297.085 659.081 296.629 657.844C296.173 656.594 295.47 655.63 294.52 654.953C293.569 654.276 292.339 653.938 290.828 653.938C288.602 653.938 286.967 654.673 285.926 656.145C284.897 657.616 284.383 659.654 284.383 662.258ZM316.336 651.203C319.005 651.203 321.134 652.121 322.723 653.957C324.311 655.793 325.105 658.553 325.105 662.238C325.105 664.673 324.741 666.717 324.012 668.371C323.283 670.025 322.254 671.275 320.926 672.121C319.611 672.967 318.055 673.391 316.258 673.391C315.125 673.391 314.129 673.241 313.27 672.941C312.41 672.642 311.674 672.238 311.062 671.73C310.451 671.223 309.943 670.669 309.539 670.07H309.305C309.344 670.578 309.389 671.19 309.441 671.906C309.507 672.622 309.539 673.247 309.539 673.781V682.57H306.277V651.594H308.953L309.383 654.758H309.539C309.956 654.107 310.464 653.514 311.062 652.98C311.661 652.434 312.391 652.004 313.25 651.691C314.122 651.366 315.151 651.203 316.336 651.203ZM315.77 653.938C314.285 653.938 313.087 654.224 312.176 654.797C311.277 655.37 310.62 656.229 310.203 657.375C309.786 658.508 309.565 659.934 309.539 661.652V662.277C309.539 664.087 309.734 665.617 310.125 666.867C310.529 668.117 311.186 669.068 312.098 669.719C313.022 670.37 314.259 670.695 315.809 670.695C317.137 670.695 318.243 670.337 319.129 669.621C320.014 668.905 320.672 667.909 321.102 666.633C321.544 665.344 321.766 663.866 321.766 662.199C321.766 659.673 321.271 657.668 320.281 656.184C319.305 654.686 317.801 653.938 315.77 653.938ZM344.617 667.141C344.617 668.508 344.272 669.66 343.582 670.598C342.905 671.522 341.928 672.219 340.652 672.688C339.389 673.156 337.879 673.391 336.121 673.391C334.624 673.391 333.328 673.273 332.234 673.039C331.141 672.805 330.184 672.473 329.363 672.043V669.055C330.236 669.484 331.277 669.875 332.488 670.227C333.699 670.578 334.936 670.754 336.199 670.754C338.048 670.754 339.389 670.454 340.223 669.855C341.056 669.257 341.473 668.443 341.473 667.414C341.473 666.828 341.303 666.314 340.965 665.871C340.639 665.415 340.086 664.979 339.305 664.562C338.523 664.133 337.443 663.664 336.062 663.156C334.695 662.635 333.51 662.121 332.508 661.613C331.518 661.092 330.75 660.461 330.203 659.719C329.669 658.977 329.402 658.013 329.402 656.828C329.402 655.018 330.132 653.632 331.59 652.668C333.061 651.691 334.988 651.203 337.371 651.203C338.66 651.203 339.865 651.333 340.984 651.594C342.117 651.841 343.172 652.18 344.148 652.609L343.055 655.207C342.169 654.829 341.225 654.51 340.223 654.25C339.22 653.99 338.198 653.859 337.156 653.859C335.659 653.859 334.507 654.107 333.699 654.602C332.905 655.096 332.508 655.773 332.508 656.633C332.508 657.297 332.69 657.844 333.055 658.273C333.432 658.703 334.031 659.107 334.852 659.484C335.672 659.862 336.753 660.305 338.094 660.812C339.435 661.307 340.594 661.822 341.57 662.355C342.547 662.876 343.296 663.514 343.816 664.27C344.35 665.012 344.617 665.969 344.617 667.141ZM352.762 665.07H350.633L349.734 644.445H353.66L352.762 665.07ZM349.344 670.969C349.344 670.057 349.565 669.413 350.008 669.035C350.451 668.645 351.004 668.449 351.668 668.449C352.319 668.449 352.866 668.645 353.309 669.035C353.764 669.413 353.992 670.057 353.992 670.969C353.992 671.867 353.764 672.525 353.309 672.941C352.866 673.345 352.319 673.547 351.668 673.547C351.004 673.547 350.451 673.345 350.008 672.941C349.565 672.525 349.344 671.867 349.344 670.969Z" fill="white"/>
<rect x="159" y="610" width="237" height="94" rx="15" stroke="white" stroke-width="2"/>
<path d="M977.244 629V607.85H991.074V610.91H981.084V616.88H990.444V619.94H981.084V629H977.244ZM993.489 611.18V607.52H997.689V611.18H993.489ZM993.729 629V614.33H997.479V629H993.729ZM1006.48 629.3C1004.74 629.3 1003.45 628.83 1002.61 627.89C1001.79 626.93 1001.38 625.53 1001.38 623.69V607.85H1005.13V623.51C1005.13 625.31 1005.89 626.21 1007.41 626.21C1007.63 626.21 1007.85 626.2 1008.07 626.18C1008.29 626.16 1008.5 626.12 1008.7 626.06L1008.64 629.03C1007.92 629.21 1007.2 629.3 1006.48 629.3ZM1017.3 629.3C1013.42 629.3 1011.48 627.38 1011.48 623.54V617.15H1008.66V614.33H1011.48V609.95H1015.23V614.33H1019.67V617.15H1015.23V623.33C1015.23 624.29 1015.44 625.01 1015.86 625.49C1016.28 625.97 1016.96 626.21 1017.9 626.21C1018.18 626.21 1018.47 626.18 1018.77 626.12C1019.07 626.04 1019.38 625.96 1019.7 625.88L1020.27 628.64C1019.91 628.84 1019.45 629 1018.89 629.12C1018.35 629.24 1017.82 629.3 1017.3 629.3ZM1029.17 629.3C1027.51 629.3 1026.08 628.99 1024.88 628.37C1023.68 627.75 1022.75 626.87 1022.09 625.73C1021.45 624.59 1021.13 623.24 1021.13 621.68C1021.13 620.16 1021.44 618.83 1022.06 617.69C1022.7 616.55 1023.57 615.66 1024.67 615.02C1025.79 614.36 1027.06 614.03 1028.48 614.03C1030.56 614.03 1032.2 614.69 1033.4 616.01C1034.62 617.33 1035.23 619.13 1035.23 621.41V622.52H1024.73C1025.01 625.14 1026.51 626.45 1029.23 626.45C1030.05 626.45 1030.87 626.33 1031.69 626.09C1032.51 625.83 1033.26 625.43 1033.94 624.89L1034.99 627.41C1034.29 627.99 1033.41 628.45 1032.35 628.79C1031.29 629.13 1030.23 629.3 1029.17 629.3ZM1028.63 616.58C1027.53 616.58 1026.64 616.92 1025.96 617.6C1025.28 618.28 1024.87 619.2 1024.73 620.36H1032.11C1032.03 619.14 1031.69 618.21 1031.09 617.57C1030.51 616.91 1029.69 616.58 1028.63 616.58ZM1038.2 629V614.33H1041.86V616.91C1042.58 615.17 1044.12 614.21 1046.48 614.03L1047.62 613.94L1047.86 617.12L1045.7 617.33C1043.24 617.57 1042.01 618.83 1042.01 621.11V629H1038.2Z" fill="white"/>
<path fill-rule="evenodd" clip-rule="evenodd" d="M1078.08 608.399C1075.99 606.998 1073.52 606.25 1071 606.25C1067.62 606.254 1064.38 607.599 1061.99 609.989C1059.6 612.379 1058.25 615.62 1058.25 619C1058.25 621.522 1059 623.987 1060.4 626.084C1061.8 628.18 1063.79 629.814 1066.12 630.779C1068.45 631.744 1071.01 631.997 1073.49 631.505C1075.96 631.013 1078.23 629.799 1080.02 628.016C1081.8 626.232 1083.01 623.961 1083.51 621.487C1084 619.014 1083.74 616.451 1082.78 614.121C1081.81 611.791 1080.18 609.8 1078.08 608.399ZM1062.67 606.528C1065.13 604.88 1068.03 604 1071 604C1074.98 604 1078.79 605.58 1081.61 608.393C1084.42 611.206 1086 615.022 1086 619C1086 621.967 1085.12 624.867 1083.47 627.334C1081.82 629.8 1079.48 631.723 1076.74 632.858C1074 633.994 1070.98 634.291 1068.07 633.712C1065.16 633.133 1062.49 631.704 1060.39 629.607C1058.3 627.509 1056.87 624.836 1056.29 621.926C1055.71 619.017 1056.01 616.001 1057.14 613.26C1058.28 610.519 1060.2 608.176 1062.67 606.528ZM1076.29 615.295L1072.59 619L1076.29 622.705C1076.51 622.916 1076.62 623.202 1076.62 623.5C1076.62 623.798 1076.51 624.084 1076.29 624.295C1076.08 624.506 1075.8 624.624 1075.5 624.624C1075.2 624.624 1074.92 624.506 1074.7 624.295L1071 620.59L1067.29 624.295C1067.08 624.506 1066.8 624.624 1066.5 624.624C1066.2 624.624 1065.92 624.506 1065.7 624.295C1065.49 624.084 1065.38 623.798 1065.38 623.5C1065.38 623.202 1065.49 622.916 1065.7 622.705L1069.41 619L1065.7 615.295C1065.51 615.082 1065.4 614.8 1065.4 614.508C1065.41 614.217 1065.53 613.939 1065.73 613.733C1065.94 613.527 1066.22 613.409 1066.51 613.403C1066.8 613.398 1067.08 613.506 1067.29 613.705L1071 617.41L1074.7 613.705C1074.92 613.506 1075.2 613.398 1075.49 613.403C1075.78 613.409 1076.06 613.527 1076.27 613.733C1076.47 613.939 1076.59 614.217 1076.6 614.508C1076.6 614.8 1076.49 615.082 1076.29 615.295Z" fill="white"/>
<rect x="959" y="592" width="142" height="54" rx="27" stroke="white" stroke-width="2"/>
<path d="M985.812 214.156C988.76 214.156 990.911 214.734 992.266 215.891C993.63 217.036 994.312 218.682 994.312 220.828C994.312 221.797 994.151 222.719 993.828 223.594C993.516 224.458 993.005 225.224 992.297 225.891C991.589 226.547 990.656 227.068 989.5 227.453C988.354 227.828 986.948 228.016 985.281 228.016H982.5V237H979.844V214.156H985.812ZM985.562 216.422H982.5V225.734H984.984C986.443 225.734 987.656 225.578 988.625 225.266C989.604 224.953 990.339 224.448 990.828 223.75C991.318 223.042 991.562 222.104 991.562 220.938C991.562 219.417 991.078 218.286 990.109 217.547C989.141 216.797 987.625 216.422 985.562 216.422ZM1006.48 219.562C1006.83 219.562 1007.19 219.583 1007.56 219.625C1007.94 219.656 1008.27 219.703 1008.56 219.766L1008.23 222.172C1007.95 222.099 1007.64 222.042 1007.3 222C1006.95 221.958 1006.63 221.938 1006.33 221.938C1005.64 221.938 1004.99 222.078 1004.38 222.359C1003.77 222.63 1003.24 223.026 1002.78 223.547C1002.32 224.057 1001.96 224.677 1001.7 225.406C1001.44 226.125 1001.31 226.927 1001.31 227.812V237H998.703V219.875H1000.86L1001.14 223.031H1001.25C1001.6 222.396 1002.03 221.818 1002.53 221.297C1003.03 220.766 1003.61 220.344 1004.27 220.031C1004.93 219.719 1005.67 219.562 1006.48 219.562ZM1014.39 219.875V237H1011.8V219.875H1014.39ZM1013.12 213.469C1013.55 213.469 1013.92 213.609 1014.22 213.891C1014.53 214.161 1014.69 214.589 1014.69 215.172C1014.69 215.745 1014.53 216.172 1014.22 216.453C1013.92 216.734 1013.55 216.875 1013.12 216.875C1012.68 216.875 1012.3 216.734 1012 216.453C1011.71 216.172 1011.56 215.745 1011.56 215.172C1011.56 214.589 1011.71 214.161 1012 213.891C1012.3 213.609 1012.68 213.469 1013.12 213.469ZM1038.48 219.562C1040.37 219.562 1041.79 220.057 1042.75 221.047C1043.71 222.026 1044.19 223.604 1044.19 225.781V237H1041.62V225.906C1041.62 224.521 1041.32 223.484 1040.72 222.797C1040.12 222.099 1039.24 221.75 1038.06 221.75C1036.41 221.75 1035.2 222.229 1034.45 223.188C1033.7 224.146 1033.33 225.557 1033.33 227.422V237H1030.75V225.906C1030.75 224.979 1030.61 224.208 1030.34 223.594C1030.08 222.979 1029.69 222.521 1029.16 222.219C1028.64 221.906 1027.97 221.75 1027.17 221.75C1026.04 221.75 1025.12 221.984 1024.44 222.453C1023.75 222.922 1023.25 223.62 1022.94 224.547C1022.64 225.464 1022.48 226.594 1022.48 227.938V237H1019.89V219.875H1021.98L1022.38 222.297H1022.52C1022.86 221.703 1023.29 221.203 1023.81 220.797C1024.33 220.391 1024.92 220.083 1025.56 219.875C1026.21 219.667 1026.9 219.562 1027.62 219.562C1028.93 219.562 1030.02 219.807 1030.89 220.297C1031.78 220.776 1032.42 221.51 1032.81 222.5H1032.95C1033.52 221.51 1034.29 220.776 1035.27 220.297C1036.24 219.807 1037.32 219.562 1038.48 219.562ZM1055.92 219.594C1057.96 219.594 1059.48 220.052 1060.47 220.969C1061.46 221.885 1061.95 223.349 1061.95 225.359V237H1060.06L1059.56 234.469H1059.44C1058.96 235.094 1058.46 235.62 1057.94 236.047C1057.42 236.464 1056.81 236.781 1056.12 237C1055.45 237.208 1054.61 237.312 1053.62 237.312C1052.58 237.312 1051.66 237.13 1050.84 236.766C1050.04 236.401 1049.41 235.849 1048.94 235.109C1048.48 234.37 1048.25 233.432 1048.25 232.297C1048.25 230.589 1048.93 229.276 1050.28 228.359C1051.64 227.443 1053.7 226.943 1056.47 226.859L1059.42 226.734V225.688C1059.42 224.208 1059.1 223.172 1058.47 222.578C1057.83 221.984 1056.94 221.688 1055.78 221.688C1054.89 221.688 1054.03 221.818 1053.22 222.078C1052.41 222.339 1051.64 222.646 1050.91 223L1050.11 221.031C1050.88 220.635 1051.77 220.297 1052.77 220.016C1053.77 219.734 1054.82 219.594 1055.92 219.594ZM1059.39 228.562L1056.78 228.672C1054.65 228.755 1053.14 229.104 1052.27 229.719C1051.39 230.333 1050.95 231.203 1050.95 232.328C1050.95 233.307 1051.25 234.031 1051.84 234.5C1052.44 234.969 1053.22 235.203 1054.2 235.203C1055.72 235.203 1056.97 234.781 1057.94 233.938C1058.91 233.094 1059.39 231.828 1059.39 230.141V228.562ZM1075.08 219.562C1075.42 219.562 1075.78 219.583 1076.16 219.625C1076.53 219.656 1076.86 219.703 1077.16 219.766L1076.83 222.172C1076.55 222.099 1076.23 222.042 1075.89 222C1075.55 221.958 1075.22 221.938 1074.92 221.938C1074.23 221.938 1073.58 222.078 1072.97 222.359C1072.36 222.63 1071.83 223.026 1071.38 223.547C1070.92 224.057 1070.56 224.677 1070.3 225.406C1070.04 226.125 1069.91 226.927 1069.91 227.812V237H1067.3V219.875H1069.45L1069.73 223.031H1069.84C1070.2 222.396 1070.62 221.818 1071.12 221.297C1071.62 220.766 1072.2 220.344 1072.86 220.031C1073.53 219.719 1074.27 219.562 1075.08 219.562ZM1077.69 219.875H1080.47L1084.25 229.812C1084.47 230.396 1084.67 230.958 1084.86 231.5C1085.05 232.031 1085.21 232.542 1085.36 233.031C1085.51 233.521 1085.62 233.995 1085.7 234.453H1085.81C1085.96 233.932 1086.17 233.25 1086.44 232.406C1086.71 231.552 1087 230.682 1087.31 229.797L1090.89 219.875H1093.69L1086.23 239.516C1085.84 240.568 1085.38 241.484 1084.84 242.266C1084.32 243.047 1083.69 243.646 1082.94 244.062C1082.19 244.49 1081.28 244.703 1080.22 244.703C1079.73 244.703 1079.3 244.672 1078.92 244.609C1078.55 244.557 1078.22 244.495 1077.95 244.422V242.344C1078.18 242.396 1078.46 242.443 1078.78 242.484C1079.11 242.526 1079.46 242.547 1079.81 242.547C1080.46 242.547 1081.02 242.422 1081.48 242.172C1081.96 241.932 1082.38 241.578 1082.72 241.109C1083.06 240.641 1083.36 240.083 1083.61 239.438L1084.55 237.031L1077.69 219.875ZM1105.12 214.156H1111.59C1114.45 214.156 1116.59 214.583 1118.03 215.438C1119.47 216.292 1120.19 217.745 1120.19 219.797C1120.19 220.682 1120.02 221.479 1119.67 222.188C1119.34 222.885 1118.85 223.464 1118.2 223.922C1117.56 224.38 1116.76 224.698 1115.81 224.875V225.031C1116.81 225.188 1117.7 225.474 1118.47 225.891C1119.24 226.307 1119.84 226.891 1120.28 227.641C1120.72 228.391 1120.94 229.344 1120.94 230.5C1120.94 231.906 1120.61 233.094 1119.95 234.062C1119.31 235.031 1118.39 235.766 1117.2 236.266C1116.02 236.755 1114.61 237 1112.98 237H1105.12V214.156ZM1107.78 223.953H1112.16C1114.15 223.953 1115.52 223.625 1116.28 222.969C1117.05 222.312 1117.44 221.354 1117.44 220.094C1117.44 218.792 1116.98 217.854 1116.06 217.281C1115.16 216.708 1113.71 216.422 1111.72 216.422H1107.78V223.953ZM1107.78 226.188V234.734H1112.53C1114.56 234.734 1116 234.339 1116.84 233.547C1117.69 232.745 1118.11 231.667 1118.11 230.312C1118.11 229.448 1117.92 228.708 1117.53 228.094C1117.16 227.479 1116.54 227.01 1115.69 226.688C1114.84 226.354 1113.71 226.188 1112.3 226.188H1107.78ZM1139.56 219.875V237H1137.44L1137.06 234.594H1136.92C1136.57 235.188 1136.11 235.688 1135.55 236.094C1134.98 236.5 1134.35 236.802 1133.64 237C1132.94 237.208 1132.2 237.312 1131.41 237.312C1130.05 237.312 1128.92 237.094 1128 236.656C1127.08 236.219 1126.39 235.542 1125.92 234.625C1125.46 233.708 1125.23 232.531 1125.23 231.094V219.875H1127.86V230.906C1127.86 232.333 1128.18 233.401 1128.83 234.109C1129.47 234.807 1130.46 235.156 1131.78 235.156C1133.05 235.156 1134.06 234.917 1134.81 234.438C1135.57 233.958 1136.12 233.255 1136.45 232.328C1136.79 231.391 1136.95 230.245 1136.95 228.891V219.875H1139.56ZM1150.58 235.188C1151.01 235.188 1151.44 235.151 1151.89 235.078C1152.34 235.005 1152.7 234.917 1152.98 234.812V236.828C1152.68 236.964 1152.26 237.078 1151.72 237.172C1151.19 237.266 1150.67 237.312 1150.16 237.312C1149.25 237.312 1148.43 237.156 1147.69 236.844C1146.95 236.521 1146.35 235.979 1145.91 235.219C1145.47 234.458 1145.25 233.406 1145.25 232.062V221.906H1142.81V220.641L1145.27 219.625L1146.3 215.906H1147.86V219.875H1152.88V221.906H1147.86V231.984C1147.86 233.057 1148.1 233.859 1148.59 234.391C1149.09 234.922 1149.76 235.188 1150.58 235.188ZM1161.98 235.188C1162.41 235.188 1162.85 235.151 1163.3 235.078C1163.74 235.005 1164.11 234.917 1164.39 234.812V236.828C1164.09 236.964 1163.67 237.078 1163.12 237.172C1162.59 237.266 1162.07 237.312 1161.56 237.312C1160.66 237.312 1159.83 237.156 1159.09 236.844C1158.35 236.521 1157.76 235.979 1157.31 235.219C1156.88 234.458 1156.66 233.406 1156.66 232.062V221.906H1154.22V220.641L1156.67 219.625L1157.7 215.906H1159.27V219.875H1164.28V221.906H1159.27V231.984C1159.27 233.057 1159.51 233.859 1160 234.391C1160.5 234.922 1161.16 235.188 1161.98 235.188ZM1182.62 228.406C1182.62 229.812 1182.44 231.068 1182.08 232.172C1181.71 233.276 1181.19 234.208 1180.5 234.969C1179.81 235.729 1178.98 236.312 1178 236.719C1177.03 237.115 1175.93 237.312 1174.7 237.312C1173.56 237.312 1172.51 237.115 1171.55 236.719C1170.6 236.312 1169.78 235.729 1169.08 234.969C1168.39 234.208 1167.85 233.276 1167.47 232.172C1167.09 231.068 1166.91 229.812 1166.91 228.406C1166.91 226.531 1167.22 224.938 1167.86 223.625C1168.49 222.302 1169.4 221.297 1170.58 220.609C1171.77 219.911 1173.18 219.562 1174.81 219.562C1176.38 219.562 1177.74 219.911 1178.91 220.609C1180.08 221.307 1180.99 222.318 1181.64 223.641C1182.3 224.953 1182.62 226.542 1182.62 228.406ZM1169.59 228.406C1169.59 229.781 1169.78 230.974 1170.14 231.984C1170.51 232.995 1171.07 233.776 1171.83 234.328C1172.59 234.88 1173.57 235.156 1174.77 235.156C1175.95 235.156 1176.93 234.88 1177.69 234.328C1178.46 233.776 1179.03 232.995 1179.39 231.984C1179.76 230.974 1179.94 229.781 1179.94 228.406C1179.94 227.042 1179.76 225.865 1179.39 224.875C1179.03 223.875 1178.46 223.104 1177.7 222.562C1176.94 222.021 1175.96 221.75 1174.75 221.75C1172.97 221.75 1171.66 222.339 1170.83 223.516C1170.01 224.693 1169.59 226.323 1169.59 228.406ZM1195.22 219.562C1197.25 219.562 1198.79 220.062 1199.83 221.062C1200.87 222.052 1201.39 223.646 1201.39 225.844V237H1198.83V226.016C1198.83 224.589 1198.5 223.521 1197.84 222.812C1197.2 222.104 1196.2 221.75 1194.86 221.75C1192.96 221.75 1191.63 222.286 1190.86 223.359C1190.09 224.432 1189.7 225.99 1189.7 228.031V237H1187.11V219.875H1189.2L1189.59 222.344H1189.73C1190.1 221.74 1190.56 221.234 1191.12 220.828C1191.69 220.411 1192.32 220.099 1193.02 219.891C1193.71 219.672 1194.45 219.562 1195.22 219.562Z" fill="white"/>
<rect x="937" y="182" width="306" height="86" rx="43" stroke="white" stroke-width="2"/>
<rect x="1071" y="-139" width="328" height="284" rx="23" stroke="white" stroke-width="2"/>
<path d="M1295.49 237.385V237.385L1295.5 237.385C1296.25 237.381 1296.98 237.097 1297.53 236.588L1297.53 236.588L1297.54 236.579L1313.92 221.139L1313.93 221.129L1313.94 221.118C1314.5 220.556 1314.81 219.793 1314.81 218.998C1314.81 218.203 1314.5 217.441 1313.94 216.878L1313.94 216.877C1313.37 216.316 1312.61 216 1311.82 216C1311.03 216 1310.27 216.311 1309.71 216.866L1295.46 230.27L1289.48 224.719L1289.43 224.669L1289.37 224.629C1288.77 224.216 1288.05 224.034 1287.32 224.117C1286.6 224.2 1285.94 224.542 1285.45 225.08C1284.96 225.617 1284.68 226.314 1284.67 227.04C1284.65 227.766 1284.9 228.473 1285.37 229.029L1285.41 229.075L1285.45 229.116L1293.45 236.583L1293.45 236.583L1293.46 236.588C1294.01 237.097 1294.74 237.381 1295.49 237.385Z" fill="white" stroke="white" stroke-width="2"/>
<rect x="1267" y="193" width="64" height="64" rx="9" stroke="white" stroke-width="2"/>
<path d="M711.675 655.993C709.99 654.005 707.893 652.409 705.531 651.315C703.168 650.221 700.596 649.656 697.994 649.658H690.398C693.984 636.185 693.936 627.345 690.398 622.664C689.353 621.364 687.995 620.352 686.451 619.724C684.908 619.095 683.23 618.871 681.576 619.071C679.166 619.135 676.865 620.095 675.122 621.764C673.378 623.432 672.316 625.691 672.141 628.101C669.735 640.496 663.899 651.964 655.299 661.193C653.578 657.451 650.628 654.413 646.941 652.587C643.255 650.76 639.055 650.256 635.043 651.157C631.03 652.059 627.447 654.312 624.892 657.541C622.337 660.77 620.964 664.779 621.002 668.899V695.846C620.97 698.227 621.413 700.59 622.303 702.797C623.193 705.005 624.514 707.012 626.187 708.702C627.861 710.393 629.854 711.732 632.049 712.641C634.245 713.551 636.6 714.013 638.976 714H639.212C642.739 713.989 646.184 712.933 649.114 710.964C652.044 708.996 654.327 706.203 655.676 702.937L658.365 704.545C662.993 707.293 668.272 708.746 673.651 708.752H694.267C698.532 708.772 702.665 707.263 705.918 704.498C709.171 701.732 711.33 697.892 712.005 693.671L715.732 670.79C716.188 668.177 716.061 665.494 715.359 662.936C714.658 660.377 713.4 658.006 711.675 655.993ZM649.968 695.846C649.968 698.709 648.836 701.456 646.82 703.485C644.805 705.514 642.069 706.66 639.212 706.672H638.976C636.114 706.66 633.374 705.515 631.35 703.488C629.327 701.46 628.185 698.714 628.172 695.846V668.899C628.172 666.003 629.321 663.225 631.364 661.177C633.408 659.129 636.18 657.979 639.07 657.979C641.96 657.979 644.732 659.129 646.776 661.177C648.82 663.225 649.968 666.003 649.968 668.899V695.846ZM708.75 669.419L705.023 692.253C704.627 694.821 703.322 697.16 701.347 698.844C699.373 700.528 696.859 701.444 694.267 701.425H673.651C669.547 701.433 665.519 700.322 661.998 698.21L657.28 695.279V668.805C661.196 666.205 673.462 654.339 679.265 629.425C679.287 629.22 679.287 629.014 679.265 628.81C679.264 628.454 679.336 628.102 679.474 627.775C679.613 627.447 679.816 627.151 680.071 626.904C680.327 626.657 680.629 626.464 680.961 626.336C681.292 626.209 681.646 626.15 682.001 626.163C683.982 626.163 684.595 626.777 684.831 627.061C685.681 628.196 688.134 633.254 682.661 651.597C682.374 652.132 682.231 652.734 682.247 653.342C682.263 653.95 682.436 654.543 682.751 655.063C683.065 655.584 683.509 656.013 684.04 656.309C684.57 656.604 685.168 656.756 685.775 656.75H698.135C699.714 656.75 701.274 657.094 702.707 657.757C704.14 658.421 705.412 659.389 706.435 660.594C707.458 661.799 708.207 663.212 708.631 664.736C709.055 666.26 709.144 667.858 708.891 669.419H708.75Z" fill="white"/>
<circle cx="1034" cy="844" r="164.5" stroke="white" stroke-linecap="round" stroke-linejoin="round" stroke-dasharray="10 10"/>
<path d="M1366.5 292L398.404 292H382.349C373.871 292 369.239 301.888 374.666 308.401L413.5 355.009V544C413.5 557.255 424.245 568 437.5 568H1366.5L1366.5 292Z" fill="#141414"/>
<path d="M520.846 466.364C511.174 466.364 502.866 464.504 495.922 460.784C488.978 457.064 483.646 451.815 479.926 445.036C476.288 438.257 474.47 430.321 474.47 421.228C474.47 412.135 476.288 404.24 479.926 397.544C483.646 390.765 488.978 385.516 495.922 381.796C502.866 378.076 511.174 376.216 520.846 376.216C526.632 376.216 532.212 377.125 537.586 378.944C542.959 380.68 547.299 382.995 550.606 385.888L543.786 403.868C540.148 401.223 536.511 399.28 532.874 398.04C529.236 396.717 525.516 396.056 521.714 396.056C514.026 396.056 508.239 398.247 504.354 402.628C500.468 406.927 498.526 413.127 498.526 421.228C498.526 429.412 500.468 435.695 504.354 440.076C508.239 444.375 514.026 446.524 521.714 446.524C525.516 446.524 529.236 445.904 532.874 444.664C536.511 443.341 540.148 441.357 543.786 438.712L550.606 456.692C547.299 459.585 542.959 461.941 537.586 463.76C532.212 465.496 526.632 466.364 520.846 466.364ZM586.859 466.364C580.08 466.364 574.17 465.083 569.127 462.52C564.084 459.957 560.158 456.279 557.347 451.484C554.536 446.689 553.131 441.027 553.131 434.496C553.131 427.883 554.536 422.22 557.347 417.508C560.158 412.713 564.084 409.035 569.127 406.472C574.17 403.909 580.08 402.628 586.859 402.628C593.638 402.628 599.548 403.909 604.591 406.472C609.634 409.035 613.519 412.713 616.247 417.508C619.058 422.22 620.463 427.883 620.463 434.496C620.463 441.027 619.058 446.689 616.247 451.484C613.519 456.279 609.634 459.957 604.591 462.52C599.548 465.083 593.638 466.364 586.859 466.364ZM586.859 450.12C590.166 450.12 592.894 448.88 595.043 446.4C597.192 443.92 598.267 439.952 598.267 434.496C598.267 428.957 597.192 424.989 595.043 422.592C592.894 420.112 590.166 418.872 586.859 418.872C583.47 418.872 580.7 420.112 578.551 422.592C576.402 424.989 575.327 428.957 575.327 434.496C575.327 439.952 576.402 443.92 578.551 446.4C580.7 448.88 583.47 450.12 586.859 450.12ZM630.825 465V403.992H652.277V412.176C654.178 409.283 656.7 406.968 659.841 405.232C663.065 403.496 666.744 402.628 670.877 402.628C675.01 402.628 678.565 403.537 681.541 405.356C684.6 407.175 686.914 409.985 688.485 413.788C690.552 410.233 693.362 407.505 696.917 405.604C700.472 403.62 704.398 402.628 708.697 402.628C715.806 402.628 721.056 404.777 724.445 409.076C727.917 413.292 729.653 419.905 729.653 428.916V465H707.581V429.536C707.581 425.981 707.044 423.419 705.969 421.848C704.894 420.277 703.117 419.492 700.637 419.492C697.578 419.492 695.222 420.567 693.569 422.716C691.998 424.865 691.213 427.924 691.213 431.892V465H669.141V429.536C669.141 425.981 668.604 423.419 667.529 421.848C666.454 420.277 664.677 419.492 662.197 419.492C659.221 419.492 656.906 420.567 655.253 422.716C653.682 424.865 652.897 427.924 652.897 431.892V465H630.825ZM742.468 487.32V403.992H763.92V412.3C765.573 409.324 768.094 406.968 771.484 405.232C774.873 403.496 778.593 402.628 782.644 402.628C787.852 402.628 792.44 403.909 796.408 406.472C800.458 409.035 803.6 412.713 805.832 417.508C808.146 422.22 809.304 427.883 809.304 434.496C809.304 441.027 808.188 446.689 805.956 451.484C803.724 456.279 800.582 459.957 796.532 462.52C792.564 465.083 787.934 466.364 782.644 466.364C778.841 466.364 775.286 465.579 771.98 464.008C768.756 462.437 766.276 460.329 764.54 457.684V487.32H742.468ZM775.7 450.12C779.006 450.12 781.734 448.88 783.884 446.4C786.033 443.92 787.108 439.952 787.108 434.496C787.108 428.957 786.033 424.989 783.884 422.592C781.734 420.112 779.006 418.872 775.7 418.872C772.31 418.872 769.541 420.112 767.392 422.592C765.242 424.989 764.168 428.957 764.168 434.496C764.168 439.952 765.242 443.92 767.392 446.4C769.541 448.88 772.31 450.12 775.7 450.12ZM850.238 466.364C843.459 466.364 837.549 465.083 832.506 462.52C827.463 459.957 823.537 456.279 820.726 451.484C817.915 446.689 816.51 441.027 816.51 434.496C816.51 427.883 817.915 422.22 820.726 417.508C823.537 412.713 827.463 409.035 832.506 406.472C837.549 403.909 843.459 402.628 850.238 402.628C857.017 402.628 862.927 403.909 867.97 406.472C873.013 409.035 876.898 412.713 879.626 417.508C882.437 422.22 883.842 427.883 883.842 434.496C883.842 441.027 882.437 446.689 879.626 451.484C876.898 456.279 873.013 459.957 867.97 462.52C862.927 465.083 857.017 466.364 850.238 466.364ZM850.238 450.12C853.545 450.12 856.273 448.88 858.422 446.4C860.571 443.92 861.646 439.952 861.646 434.496C861.646 428.957 860.571 424.989 858.422 422.592C856.273 420.112 853.545 418.872 850.238 418.872C846.849 418.872 844.079 420.112 841.93 422.592C839.781 424.989 838.706 428.957 838.706 434.496C838.706 439.952 839.781 443.92 841.93 446.4C844.079 448.88 846.849 450.12 850.238 450.12ZM893.956 465V403.992H915.408V412.3C917.557 409.159 920.326 406.761 923.716 405.108C927.105 403.455 930.908 402.628 935.124 402.628C942.398 402.628 947.772 404.777 951.244 409.076C954.798 413.375 956.576 419.988 956.576 428.916V465H934.504V429.784C934.504 426.064 933.842 423.419 932.52 421.848C931.28 420.277 929.42 419.492 926.94 419.492C923.633 419.492 920.988 420.567 919.004 422.716C917.02 424.783 916.028 427.593 916.028 431.148V465H893.956ZM1002.39 466.364C994.947 466.364 988.499 465.083 983.043 462.52C977.67 459.875 973.536 456.155 970.643 451.36C967.75 446.565 966.303 440.903 966.303 434.372C966.303 428.172 967.667 422.675 970.395 417.88C973.206 413.085 977.008 409.365 981.803 406.72C986.68 403.992 992.219 402.628 998.419 402.628C1004.54 402.628 1009.83 403.909 1014.29 406.472C1018.84 409.035 1022.31 412.713 1024.71 417.508C1027.19 422.22 1028.43 427.759 1028.43 434.124V438.96H987.383C988.127 442.928 989.78 445.78 992.343 447.516C994.906 449.252 998.46 450.12 1003.01 450.12C1006.15 450.12 1009.41 449.665 1012.8 448.756C1016.28 447.764 1019.33 446.359 1021.98 444.54L1027.44 459.048C1024.29 461.28 1020.45 463.057 1015.9 464.38C1011.36 465.703 1006.85 466.364 1002.39 466.364ZM999.411 416.888C996.104 416.888 993.376 417.88 991.227 419.864C989.16 421.848 987.838 424.741 987.259 428.544H1010.32C1010.08 424.659 1009 421.765 1007.1 419.864C1005.28 417.88 1002.72 416.888 999.411 416.888ZM1037.94 465V403.992H1059.39V412.3C1061.54 409.159 1064.31 406.761 1067.7 405.108C1071.09 403.455 1074.89 402.628 1079.1 402.628C1086.38 402.628 1091.75 404.777 1095.22 409.076C1098.78 413.375 1100.56 419.988 1100.56 428.916V465H1078.48V429.784C1078.48 426.064 1077.82 423.419 1076.5 421.848C1075.26 420.277 1073.4 419.492 1070.92 419.492C1067.61 419.492 1064.97 420.567 1062.98 422.716C1061 424.783 1060.01 427.593 1060.01 431.148V465H1037.94ZM1145.13 466.364C1135.87 466.364 1129.01 464.215 1124.54 459.916C1120.08 455.617 1117.85 449.128 1117.85 440.448V420.236H1106.44V403.992H1117.85V386.26H1139.92V403.992H1157.28V420.236H1139.92V439.704C1139.92 445.656 1142.94 448.632 1148.97 448.632C1149.96 448.632 1151.04 448.549 1152.2 448.384C1153.44 448.136 1154.8 447.805 1156.29 447.392L1159.26 463.264C1157.36 464.256 1155.13 465 1152.57 465.496C1150 466.075 1147.52 466.364 1145.13 466.364ZM1190.24 466.364C1184.62 466.364 1179.41 465.785 1174.61 464.628C1169.9 463.471 1165.89 461.859 1162.58 459.792L1167.67 445.532C1170.73 447.268 1174.28 448.715 1178.33 449.872C1182.38 450.947 1186.39 451.484 1190.36 451.484C1193.42 451.484 1195.61 451.071 1196.93 450.244C1198.26 449.335 1198.92 448.177 1198.92 446.772C1198.92 445.532 1198.46 444.623 1197.55 444.044C1196.73 443.383 1195.53 442.887 1193.96 442.556L1180.19 440.324C1175.07 439.497 1171.1 437.637 1168.29 434.744C1165.48 431.851 1164.07 428.089 1164.07 423.46C1164.07 419.161 1165.27 415.483 1167.67 412.424C1170.07 409.283 1173.41 406.885 1177.71 405.232C1182.01 403.496 1186.93 402.628 1192.47 402.628C1196.85 402.628 1201.19 403.165 1205.49 404.24C1209.79 405.232 1213.55 406.885 1216.77 409.2L1211.32 423.212C1208.92 421.559 1205.94 420.195 1202.39 419.12C1198.83 417.963 1195.65 417.384 1192.84 417.384C1189.45 417.384 1187.05 417.88 1185.65 418.872C1184.24 419.781 1183.54 420.897 1183.54 422.22C1183.54 424.452 1185.07 425.816 1188.13 426.312L1201.89 428.668C1207.18 429.495 1211.23 431.313 1214.04 434.124C1216.94 436.852 1218.38 440.572 1218.38 445.284C1218.38 451.98 1215.82 457.188 1210.7 460.908C1205.57 464.545 1198.75 466.364 1190.24 466.364Z" fill="white"/>
<path d="M1221.53 336.427C1221.26 335.18 1222.21 334 1223.48 334H1235.52C1236.79 334 1237.74 335.18 1237.47 336.427L1231.32 364.535C1231.13 365.39 1230.38 366 1229.5 366C1228.62 366 1227.87 365.39 1227.68 364.535L1221.53 336.427Z" fill="#0096FA"/>
<path d="M1261.29 345.092C1261.98 344.017 1263.48 343.854 1264.38 344.757L1272.89 353.264C1273.79 354.167 1273.63 355.673 1272.56 356.362L1248.33 371.889C1247.6 372.362 1246.63 372.257 1246.01 371.638C1245.39 371.019 1245.29 370.052 1245.76 369.314L1261.29 345.092Z" fill="#0096FA"/>
<path d="M1281.57 380.531C1282.82 380.258 1284 381.208 1284 382.485L1284 394.515C1284 395.792 1282.82 396.742 1281.57 396.469L1253.47 390.321C1252.61 390.133 1252 389.376 1252 388.5C1252 387.624 1252.61 386.867 1253.47 386.679L1281.57 380.531Z" fill="#0096FA"/>
</g>
<defs>
<radialGradient id="paint0_radial_1_3" cx="0" cy="0" r="1" gradientUnits="userSpaceOnUse" gradientTransform="translate(387 64) rotate(90) scale(827)">
<stop stop-color="white" stop-opacity="0.8"/>
<stop offset="1" stop-color="white" stop-opacity="0"/>
</radialGradient>
<clipPath id="clip0_1_3">
<rect width="1366" height="768" fill="white"/>
</clipPath>
</defs>
</svg>
