<svg width="52" height="70" viewBox="0 0 52 70" fill="none" xmlns="http://www.w3.org/2000/svg">
<path d="M17.9571 -2C10.3304 -2 2.43773 -0.795308 -2.97187 2.38853C-11.7514 7.63755 -14.3232 17.8774 -13.9684 27.3429C-13.7024 35.5176 -11.4853 44.2947 -5.45496 50.3181C0.220692 56.0834 11.9267 58.6649 19.9968 58.6649C20.3515 58.6649 20.7063 58.9231 20.7063 59.3533V67.6141C20.7063 68.3885 21.327 69.0769 22.2139 69.0769C22.3025 69.0769 22.3025 69.0769 22.3912 69.0769C22.7459 69.0769 23.012 68.9048 23.1893 68.7327C27.18 65.3768 31.2594 61.9348 35.1614 58.4928C38.8861 55.1369 43.1428 51.6949 45.9806 47.6506C52.0997 39.1317 53.0752 27.1708 51.0355 17.189C49.0845 7.63755 42.0786 1.35593 32.3236 -0.623209C28.1556 -1.4837 23.1007 -2 17.9571 -2Z" fill="#80E3EB"/>
</svg>
