<svg width="72" height="72" viewBox="0 0 72 72" fill="none" xmlns="http://www.w3.org/2000/svg">
<path fill-rule="evenodd" clip-rule="evenodd" d="M21.495 14.2723C25.7954 11.4046 30.8503 9.87606 36.02 9.88001C42.9454 9.89324 49.5831 12.65 54.4782 17.5462C59.3733 22.4424 62.1266 29.0785 62.1345 36C62.1345 41.1669 60.6013 46.2177 57.7287 50.5136C54.8561 54.8094 50.7733 58.1573 45.9966 60.1337C41.22 62.11 35.9642 62.6261 30.8941 61.6166C25.8239 60.6072 21.1672 58.1175 17.513 54.4626C13.8589 50.8076 11.3714 46.1516 10.3652 41.0835C9.35908 36.0154 9.87948 30.7629 11.8606 25.9905C13.8417 21.218 17.1946 17.14 21.495 14.2723ZM23.7185 54.4018C27.3608 56.83 31.6418 58.124 36.02 58.12C41.8848 58.1094 47.506 55.7749 51.6511 51.6283C55.7963 47.4817 58.127 41.8615 58.1323 36C58.1323 31.6242 56.8338 27.3468 54.4009 23.7087C51.9681 20.0707 48.5104 17.2355 44.465 15.5619C40.4197 13.8883 35.9686 13.4514 31.6749 14.3065C27.3811 15.1616 23.4375 17.2704 20.343 20.3659C17.2486 23.4614 15.1423 27.4047 14.2905 31.6969C13.4388 35.9891 13.88 40.4373 15.5582 44.4788C17.2364 48.5204 20.0763 51.9737 23.7185 54.4018ZM34.5673 24.8497C34.8591 25.0011 35.1181 25.2085 35.3296 25.46L42.2635 33.74C42.7944 34.3735 43.0853 35.1736 43.0853 36C43.0853 36.8264 42.7944 37.6264 42.2635 38.26L35.3296 46.54C34.9024 47.0479 34.2908 47.3653 33.6294 47.4225C32.9679 47.4797 32.3108 47.272 31.8027 46.845C31.2945 46.418 30.9769 45.8067 30.9196 45.1456C30.8624 44.4846 31.0703 43.8279 31.4975 43.32L37.6309 36L31.4975 28.68C31.286 28.4285 31.126 28.1378 31.0269 27.8246C30.9277 27.5113 30.8913 27.1816 30.9196 26.8543C30.948 26.527 31.0405 26.2084 31.1921 25.9169C31.3436 25.6253 31.5511 25.3664 31.8027 25.155C32.0543 24.9436 32.3451 24.7837 32.6585 24.6846C32.972 24.5855 33.3018 24.5491 33.6294 24.5774C33.9569 24.6058 34.2756 24.6983 34.5673 24.8497Z" fill="black"/>
</svg>
