<svg width="72" height="72" viewBox="0 0 72 72" fill="none" xmlns="http://www.w3.org/2000/svg">
<path fill-rule="evenodd" clip-rule="evenodd" d="M36.4501 46.26H36.1601C33.3142 46.2547 30.5865 45.1212 28.5751 43.1079C26.5637 41.0946 25.4327 38.3659 25.4301 35.52V22C25.4248 20.5866 25.6983 19.1861 26.2349 17.8785C26.7716 16.5709 27.5608 15.382 28.5574 14.3798C29.5541 13.3776 30.7386 12.5818 32.0431 12.0379C33.3477 11.494 34.7467 11.2126 36.1601 11.21H36.4501C37.8635 11.2126 39.2625 11.494 40.567 12.0379C41.8716 12.5818 43.0561 13.3776 44.0527 14.3798C45.0493 15.382 45.8386 16.5709 46.3752 17.8785C46.9118 19.1861 47.1853 20.5866 47.1801 22V35.52C47.1774 38.3659 46.0464 41.0946 44.035 43.1079C42.0236 45.1212 39.2959 46.2547 36.4501 46.26ZM31.4819 17.3219C30.241 18.5628 29.5427 20.2451 29.5401 22V35.52C29.5427 37.2749 30.241 38.9572 31.4819 40.1981C32.7229 41.4391 34.4051 42.1374 36.1601 42.14H36.4501C38.205 42.1374 39.8873 41.4391 41.1282 40.1981C42.3691 38.9572 43.0674 37.2749 43.0701 35.52V22C43.0674 20.2451 42.3691 18.5628 41.1282 17.3219C39.8873 16.081 38.205 15.3827 36.4501 15.38H36.1601C34.4051 15.3827 32.7229 16.081 31.4819 17.3219ZM50.8834 31.1134C51.2698 30.7271 51.7937 30.51 52.3401 30.51C52.8838 30.51 53.4052 30.726 53.7897 31.1104C54.1741 31.4949 54.3901 32.0163 54.3901 32.56V38.56C54.3901 47.17 47.2401 54.19 38.3101 54.56V59.93C38.3101 60.4604 38.0994 60.9692 37.7243 61.3442C37.3492 61.7193 36.8405 61.93 36.3101 61.93C35.7797 61.93 35.2709 61.7193 34.8959 61.3442C34.5208 60.9692 34.3101 60.4604 34.3101 59.93V54.57C25.3701 54.19 18.2201 47.17 18.2201 38.57V32.57C18.2004 32.2881 18.239 32.0051 18.3333 31.7388C18.4277 31.4724 18.5758 31.2282 18.7686 31.0216C18.9613 30.8149 19.1946 30.6501 19.4537 30.5374C19.7129 30.4247 19.9925 30.3666 20.2751 30.3666C20.5577 30.3666 20.8373 30.4247 21.0965 30.5374C21.3556 30.6501 21.5888 30.8149 21.7816 31.0216C21.9743 31.2282 22.1225 31.4724 22.2169 31.7388C22.3112 32.0051 22.3498 32.2881 22.3301 32.57V38.57C22.3301 45.14 28.0501 50.49 35.0501 50.49H37.5601C44.5801 50.49 50.2801 45.14 50.2801 38.57V32.57C50.2801 32.0237 50.4971 31.4997 50.8834 31.1134Z" fill="black"/>
</svg>
