<svg width="72" height="72" viewBox="0 0 72 72" fill="none" xmlns="http://www.w3.org/2000/svg">
<path fill-rule="evenodd" clip-rule="evenodd" d="M21.4884 14.282C25.7838 11.4119 30.8338 9.88 35.9999 9.88C42.9249 9.88794 49.564 12.6424 54.4608 17.5391C59.3575 22.4359 62.112 29.075 62.1199 36C62.1199 41.1661 60.588 46.2161 57.7179 50.5115C54.8478 54.8069 50.7684 58.1548 45.9956 60.1317C41.2228 62.1087 35.9709 62.626 30.9041 61.6181C25.8374 60.6103 21.1832 58.1226 17.5303 54.4696C13.8773 50.8167 11.3896 46.1625 10.3818 41.0958C9.37394 36.029 9.8912 30.7771 11.8682 26.0043C13.8451 21.2315 17.193 17.1521 21.4884 14.282ZM23.7107 54.3921C27.3483 56.8227 31.625 58.12 35.9999 58.12C41.8649 58.1147 47.4881 55.7825 51.6352 51.6354C55.7824 47.4882 58.1146 41.865 58.1199 36C58.1199 31.6251 56.8226 27.3484 54.392 23.7108C51.9614 20.0732 48.5068 17.238 44.4649 15.5638C40.423 13.8896 35.9754 13.4515 31.6845 14.305C27.3936 15.1585 23.4522 17.2653 20.3587 20.3588C17.2652 23.4523 15.1584 27.3937 14.3049 31.6846C13.4514 35.9755 13.8895 40.4231 15.5637 44.465C17.2379 48.5069 20.0731 51.9615 23.7107 54.3921ZM35.6899 23.52C37.345 23.5183 38.9962 23.6791 40.6199 24C42.421 24.3138 44.0827 25.1723 45.3808 26.4597C46.679 27.7471 47.5512 29.4016 47.8799 31.2C48.7199 35.45 47.9999 39.72 45.9999 42.6C45.0838 43.8229 44.0376 44.9428 42.8799 45.94L42.2699 46.5C40.8699 47.81 39.4299 49.06 38.3299 50C38.0185 50.2616 37.6348 50.4221 37.2299 50.46H37.0599C36.5295 50.46 36.0207 50.2493 35.6457 49.8742C35.2706 49.4992 35.0599 48.9905 35.0599 48.46V46.89C32.2299 46.67 28.8199 45.67 26.9499 43.67C24.4599 41.08 23.8399 37.5 23.7699 34.95C23.6299 30.49 25.1599 27.03 28.0699 25.23C30.3599 23.81 33.4799 23.52 35.6899 23.52Z" fill="black"/>
</svg>
