<svg width="72" height="72" viewBox="0 0 72 72" fill="none" xmlns="http://www.w3.org/2000/svg">
<path fill-rule="evenodd" clip-rule="evenodd" d="M14.1299 15.5401H57.8699C58.3969 15.5375 58.9191 15.639 59.4068 15.8388C59.8944 16.0387 60.3377 16.3329 60.7112 16.7046C61.0848 17.0763 61.3812 17.5181 61.5835 18.0047C61.7858 18.4913 61.8899 19.0131 61.8899 19.5401V46.8301C61.8899 47.891 61.4685 48.9084 60.7183 49.6585C59.9682 50.4087 58.9507 50.8301 57.8899 50.8301H40.8899C40.5721 51.8768 39.9261 52.7936 39.0474 53.4451C38.1687 54.0966 37.1038 54.4483 36.0099 54.4483C34.916 54.4483 33.8511 54.0966 32.9724 53.4451C32.0936 52.7936 31.4477 51.8768 31.1299 50.8301H14.1299C13.069 50.8301 12.0516 50.4087 11.3015 49.6585C10.5513 48.9084 10.1299 47.891 10.1299 46.8301V19.5401C10.1299 18.4792 10.5513 17.4618 11.3015 16.7117C12.0516 15.9615 13.069 15.5401 14.1299 15.5401ZM40.4499 46.8301H57.8699V19.5401H14.1299V46.8301H31.5499C31.9884 46.0337 32.6327 45.3695 33.4154 44.9069C34.1982 44.4444 35.0907 44.2004 35.9999 44.2004C36.9091 44.2004 37.8016 44.4444 38.5844 44.9069C39.3671 45.3695 40.0113 46.0337 40.4499 46.8301ZM51.9999 35.6799H19.9999C19.3368 35.6799 18.701 35.4165 18.2321 34.9477C17.7633 34.4789 17.4999 33.843 17.4999 33.1799C17.4999 32.5169 17.7633 31.881 18.2321 31.4122C18.701 30.9433 19.3368 30.6799 19.9999 30.6799H51.9999C52.6629 30.6799 53.2988 30.9433 53.7676 31.4122C54.2365 31.881 54.4999 32.5169 54.4999 33.1799C54.4999 33.843 54.2365 34.4789 53.7676 34.9477C53.2988 35.4165 52.6629 35.6799 51.9999 35.6799Z" fill="black"/>
</svg>
