<svg width="72" height="72" viewBox="0 0 72 72" fill="none" xmlns="http://www.w3.org/2000/svg">
<path d="M56.88 19.73H48.68V17.1C48.68 15.6997 48.1237 14.3567 47.1335 13.3665C46.1433 12.3763 44.8003 11.82 43.4 11.82H28.64C27.9457 11.8187 27.2581 11.9543 26.6163 12.219C25.9746 12.4838 25.3913 12.8725 24.9 13.3629C24.4086 13.8534 24.0188 14.4359 23.7528 15.0771C23.4869 15.7184 23.35 16.4058 23.35 17.1V19.73H15.15C13.9052 19.7326 12.7123 20.229 11.833 21.1101C10.9538 21.9913 10.46 23.1852 10.46 24.43V40.8C10.4605 41.5259 10.6068 42.2442 10.8903 42.9124C11.1737 43.5806 11.5885 44.1851 12.11 44.69V53.69C12.1126 55.1496 12.6943 56.5485 13.7273 57.5797C14.7604 58.6109 16.1603 59.19 17.62 59.19H54.42C55.8778 59.1874 57.2753 58.607 58.3061 57.5762C59.337 56.5453 59.9173 55.1479 59.92 53.69V44.69C60.4428 44.1856 60.8591 43.5814 61.1443 42.9133C61.4294 42.2451 61.5776 41.5265 61.58 40.8V24.43C61.5773 23.1843 61.0813 21.9904 60.2004 21.1095C59.3196 20.2287 58.1257 19.7326 56.88 19.73ZM28.22 17.1C28.22 16.9886 28.2642 16.8818 28.343 16.803C28.4217 16.7243 28.5286 16.68 28.64 16.68H43.4C43.5114 16.68 43.6182 16.7243 43.6969 16.803C43.7757 16.8818 43.82 16.9886 43.82 17.1V19.73H28.22V17.1ZM15.32 24.6H56.72V40.8C56.7184 40.8964 56.6941 40.9911 56.6489 41.0763C56.6037 41.1614 56.5389 41.2347 56.46 41.29L56.32 41.34C56.2522 41.3781 56.1773 41.4019 56.1 41.41L39.05 43.52C39.05 42.7151 38.7302 41.9431 38.161 41.3739C37.5919 40.8048 36.8199 40.485 36.015 40.485C35.21 40.485 34.4381 40.8048 33.8689 41.3739C33.2997 41.9431 32.98 42.7151 32.98 43.52L15.86 41.41C15.7115 41.3907 15.575 41.3183 15.4757 41.2061C15.3764 41.094 15.3211 40.9497 15.32 40.8V24.6ZM54.42 54.32H17.62C17.4502 54.32 17.2874 54.2526 17.1674 54.1325C17.0474 54.0125 16.98 53.8497 16.98 53.68V46.46L33.16 48.46C33.3524 49.0676 33.7333 49.5982 34.2476 49.9747C34.7618 50.3513 35.3826 50.5542 36.02 50.5542C36.6573 50.5542 37.2781 50.3513 37.7924 49.9747C38.3066 49.5982 38.6875 49.0676 38.88 48.46L55.06 46.46V53.69C55.0573 53.858 54.9888 54.0182 54.869 54.1361C54.7493 54.254 54.588 54.32 54.42 54.32Z" fill="black"/>
</svg>
