<svg width="72" height="72" viewBox="0 0 72 72" fill="none" xmlns="http://www.w3.org/2000/svg">
<path fill-rule="evenodd" clip-rule="evenodd" d="M14.6501 26.2603H56.7701C58.1147 26.2603 59.4043 26.7945 60.3551 27.7453C61.3059 28.6961 61.8401 29.9857 61.8401 31.3303V44.8003C61.8374 46.1432 61.3021 47.4302 60.3516 48.3789C59.4011 49.3275 58.113 49.8603 56.7701 49.8603H52.2701C51.7582 49.8603 51.2673 49.657 50.9054 49.295C50.5434 48.9331 50.3401 48.4422 50.3401 47.9303C50.3401 47.4184 50.5434 46.9275 50.9054 46.5656C51.2673 46.2037 51.7582 46.0003 52.2701 46.0003H56.7701C56.9307 46.003 57.0902 45.9736 57.2393 45.914C57.3884 45.8544 57.5241 45.7657 57.6386 45.6531C57.7531 45.5404 57.844 45.4062 57.9061 45.258C57.9682 45.1099 58.0001 44.9509 58.0001 44.7903V31.3303C58.0001 31.1697 57.9682 31.0107 57.9061 30.8626C57.844 30.7145 57.7531 30.5802 57.6386 30.4676C57.5241 30.3549 57.3884 30.2662 57.2393 30.2066C57.0902 30.147 56.9307 30.1177 56.7701 30.1203H14.6501C14.3292 30.1203 14.0214 30.2478 13.7945 30.4747C13.5676 30.7016 13.4401 31.0094 13.4401 31.3303V44.7903C13.4427 45.1095 13.5714 45.4147 13.798 45.6395C14.0246 45.8642 14.3309 45.9903 14.6501 45.9903H25.3001C25.8119 45.9903 26.3028 46.1937 26.6648 46.5556C27.0267 46.9175 27.2301 47.4084 27.2301 47.9203C27.2301 48.4322 27.0267 48.9231 26.6648 49.285C26.3028 49.647 25.8119 49.8503 25.3001 49.8503H14.6501C13.3072 49.8503 12.0191 49.3175 11.0686 48.3689C10.1181 47.4202 9.58273 46.1332 9.58008 44.7903V31.3303C9.58008 29.9857 10.1142 28.6961 11.065 27.7453C12.0159 26.7945 13.3054 26.2603 14.6501 26.2603ZM33.0535 34.1288C33.3396 34.1758 33.606 34.3047 33.8203 34.5L46.0103 45.63C46.2263 45.829 46.3791 46.087 46.4498 46.372C46.5205 46.6571 46.5059 46.9566 46.408 47.2334C46.31 47.5103 46.1329 47.7523 45.8987 47.9294C45.6645 48.1066 45.3834 48.2111 45.0903 48.23L41.3603 48.46L43.8303 54.1C43.9146 54.2813 43.9615 54.4778 43.9683 54.6776C43.9751 54.8775 43.9415 55.0767 43.8697 55.2633C43.7978 55.45 43.6891 55.6202 43.5501 55.7639C43.411 55.9077 43.2445 56.022 43.0603 56.1L41.0003 57C40.82 57.0835 40.6248 57.1303 40.4262 57.1377C40.2277 57.1451 40.0296 57.113 39.8435 57.0433C39.6574 56.9735 39.487 56.8674 39.3423 56.7312C39.1975 56.595 39.0813 56.4315 39.0003 56.25L36.5403 50.62L33.8403 53.2C33.628 53.4006 33.3616 53.5348 33.074 53.5862C32.7864 53.6375 32.4901 53.6038 32.2214 53.4891C31.9527 53.3744 31.7234 53.1837 31.5615 52.9405C31.3997 52.6973 31.3124 52.4121 31.3103 52.12V35.6C31.3121 35.31 31.3978 35.0268 31.5572 34.7846C31.7165 34.5423 31.9426 34.3515 32.2082 34.2351C32.4738 34.1187 32.7674 34.0818 33.0535 34.1288Z" fill="black"/>
</svg>
