<svg width="72" height="72" viewBox="0 0 72 72" fill="none" xmlns="http://www.w3.org/2000/svg">
<path d="M60.38 62.08H11.62C11.0896 62.08 10.5809 61.8693 10.2058 61.4943C9.83071 61.1192 9.62 60.6105 9.62 60.08V11.92C9.62 11.3896 9.83071 10.8809 10.2058 10.5058C10.5809 10.1308 11.0896 9.92004 11.62 9.92004C12.1504 9.92004 12.6591 10.1308 13.0342 10.5058C13.4093 10.8809 13.62 11.3896 13.62 11.92V58.08H60.38C60.9104 58.08 61.4191 58.2908 61.7942 58.6658C62.1693 59.0409 62.38 59.5496 62.38 60.08C62.38 60.6105 62.1693 61.1192 61.7942 61.4943C61.4191 61.8693 60.9104 62.08 60.38 62.08Z" fill="black"/>
<path opacity="0.5" d="M38.5 21.1899H19.85C19.1869 21.1899 18.551 20.9265 18.0822 20.4577C17.6134 19.9889 17.35 19.353 17.35 18.6899C17.35 18.0269 17.6134 17.391 18.0822 16.9222C18.551 16.4533 19.1869 16.1899 19.85 16.1899H38.5C39.163 16.1899 39.7989 16.4533 40.2677 16.9222C40.7366 17.391 41 18.0269 41 18.6899C41 19.353 40.7366 19.9889 40.2677 20.4577C39.7989 20.9265 39.163 21.1899 38.5 21.1899Z" fill="black"/>
<path opacity="0.5" d="M48.27 32.16H19.85C19.1869 32.16 18.551 31.8966 18.0822 31.4278C17.6134 30.959 17.35 30.3231 17.35 29.66C17.35 28.997 17.6134 28.3611 18.0822 27.8923C18.551 27.4234 19.1869 27.16 19.85 27.16H48.27C48.933 27.16 49.5689 27.4234 50.0377 27.8923C50.5066 28.3611 50.77 28.997 50.77 29.66C50.77 30.3231 50.5066 30.959 50.0377 31.4278C49.5689 31.8966 48.933 32.16 48.27 32.16Z" fill="black"/>
<path opacity="0.5" d="M51.41 54.11H19.85C19.1869 54.11 18.551 53.8466 18.0822 53.3778C17.6134 52.9089 17.35 52.273 17.35 51.61C17.35 50.9469 17.6134 50.3111 18.0822 49.8422C18.551 49.3734 19.1869 49.11 19.85 49.11H51.41C52.073 49.11 52.7089 49.3734 53.1777 49.8422C53.6466 50.3111 53.91 50.9469 53.91 51.61C53.91 52.273 53.6466 52.9089 53.1777 53.3778C52.7089 53.8466 52.073 54.11 51.41 54.11Z" fill="black"/>
<path opacity="0.5" d="M42.77 43.13H19.85C19.1869 43.13 18.551 42.8666 18.0822 42.3978C17.6134 41.9289 17.35 41.293 17.35 40.63C17.35 39.967 17.6134 39.3311 18.0822 38.8622C18.551 38.3934 19.1869 38.13 19.85 38.13H42.77C43.433 38.13 44.0689 38.3934 44.5377 38.8622C45.0066 39.3311 45.27 39.967 45.27 40.63C45.27 41.293 45.0066 41.9289 44.5377 42.3978C44.0689 42.8666 43.433 43.13 42.77 43.13Z" fill="black"/>
</svg>
