<svg width="72" height="72" viewBox="0 0 72 72" fill="none" xmlns="http://www.w3.org/2000/svg">
<path fill-rule="evenodd" clip-rule="evenodd" d="M22.5099 10.91H52.7499C55.2925 10.9127 57.7302 11.9239 59.5281 13.7218C61.326 15.5197 62.3373 17.9574 62.3399 20.5V51.5C62.3373 54.0426 61.326 56.4804 59.5281 58.2783C57.7302 60.0762 55.2925 61.0874 52.7499 61.09H22.5099C21.2501 61.09 20.042 60.5896 19.1512 59.6988C18.2604 58.808 17.7599 57.5998 17.7599 56.34V52.88H11.6599C10.9969 52.88 10.361 52.6166 9.89215 52.1478C9.4233 51.679 9.15991 51.0431 9.15991 50.38C9.15991 49.717 9.4233 49.0811 9.89215 48.6123C10.361 48.1434 10.9969 47.88 11.6599 47.88H17.7599V37.58H11.6599C10.9969 37.58 10.361 37.3166 9.89215 36.8478C9.4233 36.379 9.15991 35.7431 9.15991 35.08C9.15991 34.417 9.4233 33.7811 9.89215 33.3123C10.361 32.8434 10.9969 32.58 11.6599 32.58H17.7599V22.28H11.6599C10.9969 22.28 10.361 22.0166 9.89215 21.5478C9.4233 21.079 9.15991 20.4431 9.15991 19.78C9.15991 19.117 9.4233 18.4811 9.89215 18.0123C10.361 17.5434 10.9969 17.28 11.6599 17.28H17.7599V15.66C17.7599 14.4003 18.2604 13.1921 19.1512 12.3013C20.042 11.4105 21.2501 10.91 22.5099 10.91ZM56.7026 55.4528C57.751 54.4044 58.3399 52.9826 58.3399 51.5V20.5C58.3399 19.0175 57.751 17.5956 56.7026 16.5473C55.6543 15.499 54.2325 14.91 52.7499 14.91H22.5099C22.311 14.91 22.1202 14.9891 21.9796 15.1297C21.8389 15.2704 21.7599 15.4611 21.7599 15.66V56.34C21.7599 56.5389 21.8389 56.7297 21.9796 56.8704C22.1202 57.011 22.311 57.09 22.5099 57.09H52.7499C54.2325 57.09 55.6543 56.5011 56.7026 55.4528ZM39.2399 36.09C40.4147 36.09 41.5632 35.7416 42.54 35.0889C43.5168 34.4362 44.2782 33.5085 44.7278 32.4231C45.1774 31.3377 45.295 30.1434 45.0658 28.9911C44.8366 27.8389 44.2709 26.7805 43.4401 25.9497C42.6094 25.119 41.551 24.5533 40.3988 24.3241C39.2465 24.0949 38.0522 24.2125 36.9668 24.6621C35.8814 25.1117 34.9537 25.873 34.301 26.8499C33.6483 27.8267 33.2999 28.9751 33.2999 30.15C33.2999 30.93 33.4536 31.7024 33.7521 32.4231C34.0506 33.1438 34.4881 33.7986 35.0397 34.3502C35.5913 34.9018 36.2461 35.3393 36.9668 35.6378C37.6875 35.9363 38.4599 36.09 39.2399 36.09ZM40.3799 38.3399H38.0999C35.7342 38.3399 33.4654 39.2797 31.7925 40.9525C30.1197 42.6254 29.1799 44.8942 29.1799 47.2599V49.2599C29.1799 49.5464 29.2937 49.8211 29.4963 50.0236C29.6988 50.2261 29.9735 50.3399 30.2599 50.3399H48.2599C48.5464 50.3399 48.8211 50.2261 49.0236 50.0236C49.2261 49.8211 49.3399 49.5464 49.3399 49.2599V47.2599C49.3399 46.0852 49.1079 44.922 48.6571 43.8371C48.2064 42.7523 47.5457 41.7672 46.7132 40.9384C45.8807 40.1095 44.8926 39.4533 43.8058 39.0074C42.7189 38.5615 41.5547 38.3347 40.3799 38.3399Z" fill="black"/>
</svg>
