<svg width="72" height="72" viewBox="0 0 72 72" fill="none" xmlns="http://www.w3.org/2000/svg">
<path d="M62.52 42.52L59.52 24.29C59.2363 22.5006 58.3227 20.8714 56.9439 19.6961C55.565 18.5208 53.8117 17.8767 52 17.88H38.7299C35.7328 17.8783 32.7915 18.6906 30.22 20.23L29.81 20.48C29.6076 19.766 29.1778 19.1376 28.5858 18.69C27.9939 18.2424 27.2721 18.0002 26.53 18H13.85C12.949 18.0027 12.0858 18.3617 11.4487 18.9988C10.8117 19.6358 10.4526 20.4991 10.45 21.4V44.19C10.4526 45.0909 10.8117 45.9542 11.4487 46.5913C12.0858 47.2283 12.949 47.5874 13.85 47.59H26.53C27.186 47.5923 27.8288 47.4046 28.3806 47.0497C28.9324 46.6949 29.3698 46.1879 29.6399 45.59C31.8599 48.12 35.2699 53.13 37.2999 61.65C37.4086 63.0635 38.0312 64.3883 39.0501 65.374C40.069 66.3598 41.4136 66.9382 42.83 67C43.0132 67.0098 43.1968 67.0098 43.38 67C44.2784 67.0341 45.1723 66.8574 45.9901 66.4841C46.808 66.1107 47.5271 65.5511 48.09 64.85C50.16 62.25 50.3 57.69 48.49 50.62H55.65C56.6556 50.6132 57.6481 50.3897 58.5596 49.9648C59.4712 49.5399 60.2805 48.9235 60.9324 48.1577C61.5843 47.3919 62.0636 46.4946 62.3375 45.527C62.6115 44.5593 62.6737 43.5439 62.52 42.55V42.52ZM25.94 43.59H14.45V22H25.94V43.59ZM57.1399 44.91C56.9536 45.1221 56.7246 45.2923 56.4678 45.4095C56.2109 45.5267 55.9322 45.5882 55.65 45.59H45.1699C44.7501 45.5898 44.337 45.6954 43.9687 45.8969C43.6003 46.0985 43.2887 46.3895 43.0625 46.7432C42.8364 47.0969 42.7029 47.5019 42.6745 47.9208C42.6461 48.3397 42.7236 48.759 42.9 49.14C45.9 59.14 44.3599 61.47 44.1699 61.7C43.9799 61.93 43.9199 62.01 43.1699 61.96C42.8499 61.96 42.35 61.91 42.29 61.17C42.2821 61.0016 42.2586 60.8342 42.22 60.67C38.9 46.57 32 40.28 29.94 39.12V26.22L32.79 24.52C34.5839 23.4432 36.6376 22.8761 38.7299 22.88H52C52.627 22.8767 53.2346 23.0976 53.7132 23.5029C54.1918 23.9081 54.5098 24.471 54.61 25.09L57.61 43.32C57.654 43.6033 57.6346 43.8928 57.5534 44.1678C57.4721 44.4427 57.3309 44.6962 57.1399 44.91Z" fill="black"/>
</svg>
