<svg width="72" height="72" viewBox="0 0 72 72" fill="none" xmlns="http://www.w3.org/2000/svg">
<path fill-rule="evenodd" clip-rule="evenodd" d="M34.45 44.35L34.34 44.27L23.85 34.93C23.5857 34.7178 23.3672 34.454 23.208 34.1547C23.0487 33.8554 22.952 33.5269 22.9238 33.189C22.8955 32.8512 22.9362 32.5111 23.0434 32.1895C23.1507 31.8679 23.3222 31.5715 23.5476 31.3183C23.773 31.065 24.0476 30.8603 24.3546 30.7165C24.6616 30.5727 24.9946 30.4928 25.3334 30.4818C25.6723 30.4707 26.0098 30.5287 26.3256 30.6521C26.6413 30.7756 26.9286 30.962 27.17 31.2L33.5 36.83V17.23C33.5 16.5669 33.7634 15.9311 34.2323 15.4622C34.7011 14.9934 35.337 14.73 36 14.73C36.6631 14.73 37.299 14.9934 37.7678 15.4622C38.2367 15.9311 38.5 16.5669 38.5 17.23V36.83L44.83 31.2C45.3247 30.7584 45.9745 30.5314 46.6365 30.5689C47.2985 30.6064 47.9185 30.9054 48.36 31.4C48.8016 31.8946 49.0286 32.5444 48.9911 33.2064C48.9536 33.8684 48.6547 34.4884 48.16 34.93L37.66 44.27L37.55 44.35C37.5125 44.3831 37.4724 44.4132 37.43 44.44L37.34 44.5C37.2668 44.5492 37.1899 44.5926 37.11 44.63L36.99 44.69H36.93L36.64 44.77H36.57H36.47C36.3137 44.7852 36.1563 44.7852 36 44.77C35.8437 44.7852 35.6863 44.7852 35.53 44.77H35.43H35.36L35.07 44.69H35.01L34.89 44.63C34.8101 44.5926 34.7332 44.5492 34.66 44.5L34.57 44.44C34.5277 44.4132 34.4876 44.3831 34.45 44.35ZM56.8358 41.2458C57.2109 40.8707 57.7196 40.66 58.25 40.66C58.7804 40.66 59.2891 40.8707 59.6642 41.2458C60.0393 41.6208 60.25 42.1295 60.25 42.66V54.77C60.25 55.3004 60.0393 55.8091 59.6642 56.1842C59.2891 56.5593 58.7804 56.77 58.25 56.77H13.75C13.2196 56.77 12.7109 56.5593 12.3358 56.1842C11.9607 55.8091 11.75 55.3004 11.75 54.77V42.66C11.75 42.1295 11.9607 41.6208 12.3358 41.2458C12.7109 40.8707 13.2196 40.66 13.75 40.66C14.2804 40.66 14.7891 40.8707 15.1642 41.2458C15.5393 41.6208 15.75 42.1295 15.75 42.66V52.77H56.25V42.66C56.25 42.1295 56.4607 41.6208 56.8358 41.2458Z" fill="black"/>
</svg>
