<svg width="72" height="72" viewBox="0 0 72 72" fill="none" xmlns="http://www.w3.org/2000/svg">
<path fill-rule="evenodd" clip-rule="evenodd" d="M26.78 54.78L18.65 54.07C17.5501 53.9784 16.5186 53.4986 15.74 52.7163C14.9614 51.934 14.4864 50.9003 14.4 49.8L13.68 41.67C13.6191 40.999 13.7057 40.3228 13.9338 39.6888C14.1618 39.0549 14.5257 38.4784 15 38C20.46 32.53 33.55 19.28 41 11.73C41.8524 10.8519 43.0165 10.3453 44.24 10.32C44.8533 10.3189 45.4607 10.4394 46.0272 10.6746C46.5936 10.9097 47.1078 11.2548 47.54 11.69L57.02 21.18C57.4566 21.6115 57.8032 22.1254 58.0398 22.6918C58.2764 23.2583 58.3982 23.8661 58.3982 24.48C58.3982 25.0938 58.2764 25.7016 58.0398 26.2681C57.8032 26.8345 57.4566 27.3484 57.02 27.78C55.25 29.52 53.17 31.54 50.94 33.69C50.8678 33.8106 50.7805 33.9216 50.68 34.02C50.5614 34.1339 50.4306 34.2345 50.29 34.32L42.29 42.02C37.54 46.57 33.06 50.87 30.45 53.44C30.0217 53.8671 29.5132 54.2054 28.9538 54.4353C28.3943 54.6653 27.7949 54.7824 27.19 54.78C27.0535 54.7902 26.9165 54.7902 26.78 54.78ZM44.0343 14.3934C43.9569 14.4278 43.8874 14.4776 43.83 14.54C42.38 16 40.73 17.68 39 19.48L49.24 29.76C51.08 28.01 52.77 26.37 54.24 24.92C54.3005 24.8596 54.3484 24.7879 54.3812 24.7089C54.4139 24.63 54.4308 24.5454 54.4308 24.46C54.4308 24.3745 54.4139 24.2899 54.3812 24.211C54.3484 24.132 54.3005 24.0603 54.24 24L44.75 14.54C44.6889 14.4771 44.6158 14.427 44.5351 14.3926C44.4544 14.3583 44.3677 14.3404 44.28 14.34C44.1953 14.3408 44.1117 14.359 44.0343 14.3934ZM36.15 22.33L17.83 40.85H17.86C17.7952 40.9168 17.7463 40.9973 17.7169 41.0856C17.6874 41.1739 17.6782 41.2676 17.69 41.36L18.4 49.49C18.4157 49.6428 18.4843 49.7853 18.5938 49.893C18.7033 50.0007 18.847 50.0668 19 50.08L27.13 50.8C27.223 50.8097 27.3171 50.7986 27.4053 50.7675C27.4935 50.7363 27.5737 50.6859 27.64 50.62C30.0257 48.2433 33.942 44.4925 38.2019 40.4125C38.6381 39.9947 39.0779 39.5735 39.52 39.15C41.82 36.95 44.16 34.71 46.39 32.56L36.15 22.33ZM14 57.66H58C58.5304 57.66 59.0391 57.8707 59.4142 58.2458C59.7893 58.6209 60 59.1296 60 59.66C60 60.1905 59.7893 60.6992 59.4142 61.0742C59.0391 61.4493 58.5304 61.66 58 61.66H14C13.4696 61.66 12.9609 61.4493 12.5858 61.0742C12.2107 60.6992 12 60.1905 12 59.66C12 59.1296 12.2107 58.6209 12.5858 58.2458C12.9609 57.8707 13.4696 57.66 14 57.66Z" fill="black"/>
</svg>
