<svg width="72" height="72" viewBox="0 0 72 72" fill="none" xmlns="http://www.w3.org/2000/svg">
<path fill-rule="evenodd" clip-rule="evenodd" d="M21.4884 14.282C25.7838 11.4119 30.8338 9.88 35.9999 9.88C42.9249 9.88794 49.564 12.6424 54.4608 17.5391C59.3575 22.4359 62.112 29.075 62.1199 36C62.1199 41.1661 60.588 46.2161 57.7179 50.5115C54.8478 54.8069 50.7684 58.1548 45.9956 60.1317C41.2228 62.1087 35.9709 62.626 30.9041 61.6181C25.8374 60.6103 21.1832 58.1226 17.5303 54.4696C13.8773 50.8167 11.3896 46.1625 10.3818 41.0958C9.37394 36.029 9.8912 30.7771 11.8682 26.0043C13.8451 21.2315 17.193 17.1521 21.4884 14.282ZM23.7107 54.3921C27.3483 56.8227 31.625 58.12 35.9999 58.12C41.8649 58.1147 47.4881 55.7825 51.6352 51.6354C55.7824 47.4882 58.1146 41.865 58.1199 36C58.1199 31.6251 56.8226 27.3484 54.392 23.7108C51.9614 20.0732 48.5068 17.238 44.4649 15.5638C40.423 13.8896 35.9754 13.4515 31.6845 14.305C27.3936 15.1585 23.4522 17.2653 20.3587 20.3588C17.2652 23.4523 15.1584 27.3937 14.3049 31.6846C13.4514 35.9755 13.8895 40.4231 15.5637 44.465C17.2379 48.5069 20.0731 51.9615 23.7107 54.3921ZM44.2606 26.3871C44.5635 26.513 44.8385 26.6975 45.0699 26.93C45.3024 27.1614 45.4869 27.4364 45.6128 27.7393C45.7387 28.0422 45.8035 28.367 45.8035 28.695C45.8035 29.023 45.7387 29.3478 45.6128 29.6507C45.4869 29.9536 45.3024 30.2287 45.0699 30.46L39.5399 36L45.0699 41.54C45.3024 41.7714 45.4869 42.0464 45.6128 42.3493C45.7387 42.6522 45.8035 42.977 45.8035 43.305C45.8035 43.633 45.7387 43.9578 45.6128 44.2607C45.4869 44.5636 45.3024 44.8387 45.0699 45.07C44.8407 45.3044 44.5669 45.4907 44.2646 45.6177C43.9624 45.7448 43.6378 45.8102 43.3099 45.81C42.9807 45.8093 42.6548 45.7436 42.3511 45.6166C42.0474 45.4896 41.7717 45.3038 41.5399 45.07L35.9999 39.54L30.4599 45.07C30.2281 45.3038 29.9525 45.4896 29.6487 45.6166C29.345 45.7436 29.0191 45.8093 28.6899 45.81C28.362 45.8102 28.0374 45.7448 27.7352 45.6177C27.4329 45.4907 27.1592 45.3044 26.9299 45.07C26.6974 44.8387 26.5129 44.5636 26.387 44.2607C26.2611 43.9578 26.1963 43.633 26.1963 43.305C26.1963 42.977 26.2611 42.6522 26.387 42.3493C26.5129 42.0464 26.6974 41.7714 26.9299 41.54L32.4599 36L26.9299 30.46C26.5042 29.9837 26.2769 29.3625 26.2948 28.724C26.3126 28.0854 26.5743 27.4779 27.026 27.0261C27.4777 26.5744 28.0853 26.3127 28.7238 26.2949C29.3624 26.277 29.9836 26.5043 30.4599 26.93L35.9999 32.46L41.5399 26.93C41.7713 26.6975 42.0463 26.513 42.3492 26.3871C42.6521 26.2612 42.9769 26.1964 43.3049 26.1964C43.6329 26.1964 43.9577 26.2612 44.2606 26.3871Z" fill="black"/>
</svg>
