<svg width="72" height="72" viewBox="0 0 72 72" fill="none" xmlns="http://www.w3.org/2000/svg">
<path d="M36 9.88C30.834 9.88 25.7839 11.4119 21.4885 14.282C17.1931 17.1521 13.8452 21.2315 11.8683 26.0043C9.89132 30.7771 9.37406 36.029 10.3819 41.0958C11.3898 46.1625 13.8774 50.8167 17.5304 54.4696C21.1833 58.1226 25.8375 60.6103 30.9043 61.6181C35.971 62.626 41.2229 62.1087 45.9957 60.1317C50.7685 58.1548 54.8479 54.8069 57.718 50.5115C60.5881 46.2161 62.12 41.1661 62.12 36C62.1121 29.075 59.3576 22.4359 54.4609 17.5391C49.5641 12.6424 42.925 9.88794 36 9.88ZM36 13.88C41.0012 13.876 45.8545 15.576 49.76 18.7L18.7 49.76C16.1049 46.5062 14.4813 42.5856 14.0162 38.4497C13.5511 34.3138 14.2633 30.1306 16.071 26.3817C17.8786 22.6327 20.7081 19.4704 24.2338 17.2587C27.7595 15.047 31.838 13.8758 36 13.88ZM36 58.12C30.9988 58.1241 26.1455 56.424 22.24 53.3L53.3 22.24C55.8951 25.4938 57.5187 29.4144 57.9838 33.5503C58.4489 37.6862 57.7367 41.8694 55.9291 45.6183C54.1215 49.3673 51.292 52.5296 47.7663 54.7413C44.2406 56.953 40.162 58.1242 36 58.12Z" fill="black"/>
</svg>
