<svg width="72" height="72" viewBox="0 0 72 72" fill="none" xmlns="http://www.w3.org/2000/svg">
<path fill-rule="evenodd" clip-rule="evenodd" d="M57.64 25.06C57.6446 25.1032 57.6446 25.1468 57.64 25.19C57.6686 25.2478 57.692 25.3081 57.71 25.37V55.25C57.71 56.7379 57.119 58.1648 56.0669 59.2169C55.0148 60.2689 53.5879 60.86 52.1 60.86H20C18.5293 60.8602 17.1173 60.2829 16.0681 59.2524C15.0188 58.2218 14.4162 56.8205 14.39 55.35V16.85C14.39 15.3621 14.9811 13.9352 16.0331 12.8831C17.0852 11.831 18.5121 11.24 20 11.24H45.27C45.422 11.2395 45.5734 11.2597 45.72 11.3C45.7531 11.2942 45.7869 11.2942 45.82 11.3C45.9776 11.3391 46.129 11.3996 46.27 11.48H46.34C46.4925 11.5807 46.6304 11.7018 46.75 11.84L57.26 24.13V24.18C57.3584 24.3033 57.4423 24.4375 57.51 24.58C57.5685 24.7355 57.612 24.8962 57.64 25.06ZM47.5991 22.9909C47.7242 23.116 47.8931 23.1874 48.07 23.19L51.24 23.26L47.33 18.67L47.4 22.52C47.4026 22.6969 47.474 22.8658 47.5991 22.9909ZM53.1885 56.3284C53.4904 56.0265 53.66 55.617 53.66 55.19L53.68 27.33L48 27.2C46.7891 27.1821 45.6324 26.6944 44.7742 25.8399C43.9159 24.9854 43.4232 23.8309 43.4 22.62L43.26 15.14H20C19.573 15.14 19.1635 15.3096 18.8616 15.6116C18.5596 15.9135 18.39 16.323 18.39 16.75V55.19C18.39 55.617 18.5596 56.0265 18.8616 56.3284C19.1635 56.6304 19.573 56.8 20 56.8H52.05C52.477 56.8 52.8865 56.6304 53.1885 56.3284ZM37.18 27.88V33.16H47.24C47.6378 33.16 48.0193 33.318 48.3006 33.5993C48.5819 33.8806 48.74 34.2622 48.74 34.66V48.54C48.74 48.9378 48.5819 49.3194 48.3006 49.6007C48.0193 49.882 47.6378 50.04 47.24 50.04H24.11C23.7122 50.04 23.3306 49.882 23.0493 49.6007C22.768 49.3194 22.61 48.9378 22.61 48.54V27.88C22.61 27.4822 22.768 27.1006 23.0493 26.8193C23.3306 26.538 23.7122 26.38 24.11 26.38H35.68C36.0778 26.38 36.4593 26.538 36.7406 26.8193C37.022 27.1006 37.18 27.4822 37.18 27.88ZM45.74 40.25V36.16H37.18V40.25H45.74ZM34.18 36.16H25.61V40.25H34.18V36.16ZM34.18 33.16V29.38H25.61V33.16H34.18ZM34.18 43.25H25.61V47H34.18V43.25ZM37.18 43.25V47H45.74V43.25H37.18Z" fill="black"/>
</svg>
