<svg width="72" height="72" viewBox="0 0 72 72" fill="none" xmlns="http://www.w3.org/2000/svg">
<path fill-rule="evenodd" clip-rule="evenodd" d="M57.64 25.06C57.6446 25.1032 57.6446 25.1468 57.64 25.19C57.6686 25.2478 57.692 25.308 57.71 25.37V55.25C57.71 56.7378 57.119 58.1648 56.0669 59.2169C55.0148 60.2689 53.5879 60.86 52.1 60.86H20C18.5276 60.8602 17.1142 60.2815 16.0646 59.2488C15.0151 58.2161 14.4136 56.8122 14.39 55.34V16.84C14.39 15.3521 14.9811 13.9252 16.0331 12.8731C17.0852 11.821 18.5121 11.23 20 11.23H45.27C45.4253 11.2303 45.5799 11.2504 45.73 11.29H45.82C45.9794 11.3281 46.1315 11.3923 46.27 11.48H46.33C46.4875 11.5779 46.6292 11.6993 46.75 11.84L57.26 24.13V24.18C57.3584 24.3033 57.4423 24.4375 57.51 24.58C57.5685 24.7355 57.612 24.8962 57.64 25.06ZM48.07 23.21L51.24 23.28L47.33 18.69L47.4 22.54C47.4026 22.7169 47.474 22.8858 47.5991 23.0109C47.7242 23.136 47.8931 23.2074 48.07 23.21ZM20 56.86H52.05C52.3828 56.8593 52.707 56.7549 52.9777 56.5614C53.2483 56.3678 53.4519 56.0947 53.56 55.78L38.26 42.58C38.1544 42.5064 38.0287 42.467 37.9 42.467C37.7713 42.467 37.6457 42.5064 37.54 42.58L29.89 49.17L33.02 51.86C33.2507 52.0203 33.445 52.2275 33.5903 52.4679C33.7356 52.7083 33.8286 52.9767 33.8633 53.2555C33.8979 53.5343 33.8735 53.8172 33.7915 54.0859C33.7095 54.3546 33.5718 54.603 33.3874 54.815C33.203 55.0269 32.976 55.1976 32.7213 55.316C32.4665 55.4344 32.1897 55.4978 31.9088 55.502C31.6279 55.5063 31.3492 55.4513 31.091 55.3407C30.8328 55.23 30.6007 55.0663 30.41 54.86L22.49 48.03C22.3824 47.9614 22.2576 47.925 22.13 47.925C22.0025 47.925 21.8776 47.9614 21.77 48.03C21.6835 48.1086 21.5897 48.1789 21.49 48.24L18.39 50.08V55.25C18.39 55.677 18.5596 56.0865 18.8616 56.3884C19.1635 56.6904 19.573 56.86 20 56.86ZM40.82 39.52L53.66 50.58L53.68 27.33L48 27.2C46.7891 27.1821 45.6324 26.6944 44.7742 25.8399C43.9159 24.9854 43.4232 23.8309 43.4 22.62L43.26 15.14H20C19.7844 15.1333 19.5697 15.17 19.3685 15.2479C19.1674 15.3258 18.9839 15.4433 18.8291 15.5935C18.6743 15.7437 18.5512 15.9234 18.4672 16.1221C18.3832 16.3208 18.3399 16.5343 18.34 16.75V45.43L19.27 44.87C20.1067 44.2361 21.1332 43.9039 22.1827 43.9275C23.2321 43.9511 24.2427 44.3291 25.05 45L26.78 46.52L34.88 39.52C35.7121 38.8216 36.7637 38.4388 37.85 38.4388C38.9363 38.4388 39.9879 38.8216 40.82 39.52ZM27.46 23.0701C28.2792 23.0705 29.0964 23.1509 29.9 23.3101C30.7092 23.4383 31.4579 23.817 32.0409 24.3927C32.6238 24.9685 33.0117 25.7125 33.15 26.5201C33.58 28.3677 33.2676 30.3103 32.28 31.9301C31.7244 32.6357 31.0978 33.2825 30.41 33.8601C29.75 34.4801 29.05 35.0901 28.36 35.6901C28.3144 35.704 28.2656 35.704 28.22 35.6901C28.1863 35.6914 28.1527 35.6859 28.1212 35.674C28.0898 35.662 28.061 35.6438 28.0367 35.6205C28.0124 35.5971 27.9931 35.5691 27.9799 35.5381C27.9667 35.5071 27.96 35.4737 27.96 35.4401V33.9701C27.96 33.9534 27.9566 33.937 27.95 33.9217C27.9434 33.9065 27.9336 33.8927 27.9214 33.8815C27.9092 33.8702 27.8947 33.8616 27.879 33.8562C27.8633 33.8507 27.8466 33.8487 27.83 33.8501C26.2442 33.8888 24.6959 33.3644 23.46 32.3701C22.496 31.2313 21.9774 29.7819 22 28.2901C21.8935 27.4533 22.0093 26.6033 22.3358 25.8256C22.6624 25.0479 23.1881 24.3699 23.86 23.8601C24.9694 23.284 26.2113 23.0114 27.46 23.0701Z" fill="black"/>
</svg>
