<svg width="72" height="72" viewBox="0 0 72 72" fill="none" xmlns="http://www.w3.org/2000/svg">
<path fill-rule="evenodd" clip-rule="evenodd" d="M57.64 25.06C57.6446 25.1032 57.6446 25.1468 57.64 25.19C57.6686 25.2478 57.692 25.3081 57.71 25.37V55.25C57.71 56.7379 57.119 58.1648 56.0669 59.2169C55.0148 60.2689 53.5879 60.86 52.1 60.86H20C18.5293 60.8602 17.1173 60.2829 16.0681 59.2524C15.0188 58.2218 14.4162 56.8205 14.39 55.35V16.85C14.39 15.3621 14.9811 13.9352 16.0331 12.8831C17.0852 11.831 18.5121 11.24 20 11.24H45.27C45.422 11.2395 45.5734 11.2597 45.72 11.3C45.7531 11.2942 45.7869 11.2942 45.82 11.3C45.9776 11.3391 46.129 11.3996 46.27 11.48H46.33C46.4875 11.5779 46.6292 11.6993 46.75 11.84L57.26 24.13V24.18C57.3584 24.3033 57.4423 24.4375 57.51 24.58C57.5685 24.7355 57.612 24.8962 57.64 25.06ZM47.5991 22.9909C47.7242 23.116 47.8931 23.1874 48.07 23.19L51.24 23.26L47.33 18.67L47.4 22.52C47.4026 22.6969 47.474 22.8658 47.5991 22.9909ZM53.1885 56.3284C53.4904 56.0265 53.66 55.617 53.66 55.19L53.68 27.33L48 27.2C46.7891 27.1821 45.6324 26.6944 44.7742 25.8399C43.9159 24.9854 43.4232 23.8309 43.4 22.62L43.26 15.14H20C19.573 15.14 19.1635 15.3096 18.8616 15.6116C18.5596 15.9135 18.39 16.323 18.39 16.75V55.19C18.39 55.617 18.5596 56.0265 18.8616 56.3284C19.1635 56.6304 19.573 56.8 20 56.8H52.05C52.477 56.8 52.8865 56.6304 53.1885 56.3284ZM35.25 28.06C36.5 31.84 37.58 35.1 39 37C39.59 37.71 40.12 38.37 40.62 39C44.97 39.42 48.58 41.08 49.37 43C49.5709 43.5961 49.5488 44.2447 49.3079 44.8258C49.067 45.4068 48.6237 45.8808 48.06 46.16C46.44 47.08 43.64 46.92 39.13 41.92C37.722 41.8668 36.3125 41.9775 34.93 42.25C33.85 42.47 32.9 42.69 32.06 42.91C30.36 45.84 28.1 48.28 26.18 48.91C25.83 49.0344 25.4615 49.0987 25.09 49.1C24.4282 49.1048 23.7876 48.8664 23.29 48.43C22.9096 48.042 22.6417 47.558 22.5148 47.0297C22.388 46.5013 22.4071 45.9484 22.57 45.43C23.13 43.33 25.59 41.65 30.05 40.33C30.6699 39.1283 31.1304 37.8508 31.42 36.53C32.0177 33.159 32.0514 29.7121 31.52 26.33C31.4447 25.954 31.5162 25.5634 31.7199 25.2385C31.9236 24.9136 32.244 24.6791 32.6152 24.5831C32.9865 24.487 33.3804 24.5369 33.7161 24.7223C34.0517 24.9077 34.3036 25.2146 34.42 25.58C34.5861 26.0668 34.7456 26.547 34.9024 27.0188C35.0193 27.3709 35.1347 27.7182 35.25 28.06ZM25.67 45.83C26.015 45.4238 26.432 45.0848 26.9 44.83C26.5351 45.2153 26.1217 45.5514 25.67 45.83ZM33.73 39.38L34.37 39.25C35.1599 39.0953 35.9578 38.9851 36.76 38.92C36.7137 38.8692 36.6703 38.8157 36.63 38.76C35.8499 37.6725 35.1989 36.4979 34.69 35.26C34.61 35.87 34.51 36.48 34.39 37.1C34.223 37.8744 34.0025 38.6362 33.73 39.38Z" fill="black"/>
</svg>
