<svg width="72" height="72" viewBox="0 0 72 72" fill="none" xmlns="http://www.w3.org/2000/svg">
<path d="M55.89 58.09H16.11C14.3869 58.0874 12.7351 57.4017 11.5167 56.1833C10.2983 54.9649 9.61263 53.3131 9.60999 51.59V20.87C9.61263 18.6165 10.509 16.456 12.1025 14.8625C13.696 13.269 15.8565 12.3726 18.11 12.37H32.73C34.2082 12.37 35.6259 12.9565 36.6721 14.0008C37.7183 15.0451 38.3073 16.4618 38.31 17.94V20.21H55.89C57.6131 20.2126 59.2648 20.8983 60.4833 22.1167C61.7017 23.3351 62.3873 24.9869 62.39 26.71V51.59C62.3873 53.3131 61.7017 54.9649 60.4833 56.1833C59.2648 57.4017 57.6131 58.0874 55.89 58.09ZM18.11 17.37C17.1817 17.37 16.2915 17.7387 15.6351 18.3951C14.9787 19.0515 14.61 19.9417 14.61 20.87V51.59C14.61 51.9878 14.768 52.3694 15.0493 52.6507C15.3306 52.932 15.7122 53.09 16.11 53.09H55.89C56.2878 53.09 56.6693 52.932 56.9506 52.6507C57.2319 52.3694 57.39 51.9878 57.39 51.59V26.71C57.39 26.3122 57.2319 25.9306 56.9506 25.6493C56.6693 25.368 56.2878 25.21 55.89 25.21H35.81C35.4813 25.2113 35.1556 25.1476 34.8517 25.0224C34.5478 24.8972 34.2717 24.7131 34.0393 24.4807C33.8069 24.2483 33.6228 23.9722 33.4976 23.6683C33.3724 23.3644 33.3087 23.0387 33.31 22.71V17.94C33.3074 17.7879 33.2451 17.6429 33.1366 17.5363C33.0281 17.4297 32.8821 17.37 32.73 17.37H18.11Z" fill="black"/>
</svg>
