<svg width="72" height="72" viewBox="0 0 72 72" fill="none" xmlns="http://www.w3.org/2000/svg">
<path fill-rule="evenodd" clip-rule="evenodd" d="M53.7101 13.92L54.7101 15.76C55.7223 17.703 56.2176 19.8738 56.1484 22.0636C56.0792 24.2534 55.4477 26.3885 54.3148 28.2637C53.1818 30.1389 51.5855 31.6911 49.6792 32.771C47.773 33.8509 45.6209 34.4222 43.4301 34.43L34.0001 51.6C34.3641 53.1175 34.2998 54.7062 33.8142 56.1893C33.3287 57.6724 32.441 58.9916 31.2501 60C29.9504 61.0855 28.3546 61.7555 26.6696 61.9231C24.9846 62.0907 23.2881 61.7482 21.8001 60.94C20.3742 60.159 19.2067 58.9798 18.4401 57.5462C17.6734 56.1126 17.3409 54.4868 17.483 52.8674C17.6251 51.2479 18.2357 49.7049 19.2403 48.4267C20.2449 47.1486 21.6 46.1907 23.1401 45.67L32.5801 28.49C31.4014 26.6384 30.7198 24.5143 30.6012 22.3226C30.4825 20.1309 30.9308 17.9456 31.9027 15.9776C32.8747 14.0096 34.3374 12.3254 36.1499 11.0874C37.9624 9.84941 40.0633 9.09949 42.2501 8.91L44.3101 8.73C44.6258 8.69792 44.9442 8.75381 45.2301 8.89147C45.516 9.02913 45.7583 9.2432 45.9301 9.51C46.1028 9.77591 46.2005 10.0835 46.2128 10.4004C46.2251 10.7172 46.1516 11.0315 46.0001 11.31L41.3201 19.79L46.0001 22.35L50.6701 13.91C50.8185 13.6294 51.0421 13.3956 51.3159 13.2349C51.5896 13.0742 51.9027 12.9929 52.2201 13C52.5271 13.01 52.8262 13.1001 53.0876 13.2615C53.349 13.4229 53.5636 13.65 53.7101 13.92ZM47.3669 30.0235C48.8692 29.3075 50.1516 28.2011 51.0801 26.82C51.8867 25.6201 52.4002 24.2474 52.5791 22.8127C52.758 21.378 52.5973 19.9213 52.1101 18.56L48.2401 25.56C48.1313 25.7624 47.9833 25.9411 47.8047 26.0857C47.626 26.2303 47.4204 26.3378 47.1998 26.4021C46.9791 26.4663 46.7479 26.4859 46.5196 26.4598C46.2913 26.4337 46.0705 26.3624 45.8701 26.25L38.1201 22C37.9181 21.8921 37.7396 21.7451 37.5949 21.5676C37.4502 21.3902 37.3421 21.1858 37.277 20.9662C37.2119 20.7467 37.191 20.5164 37.2156 20.2888C37.2401 20.0611 37.3096 19.8406 37.4201 19.64L41.2801 12.59C39.7596 12.9342 38.3504 13.6564 37.1831 14.6897C36.0157 15.7229 35.1277 17.0339 34.6013 18.5013C34.075 19.9688 33.9272 21.5452 34.1717 23.0849C34.4162 24.6246 35.045 26.0778 36.0001 27.31C36.2141 27.5781 36.3436 27.9038 36.3721 28.2457C36.4006 28.5875 36.3268 28.9302 36.1601 29.23L25.8601 48C25.745 48.2196 25.5849 48.4123 25.3901 48.5657C25.1954 48.7191 24.9705 48.8296 24.7301 48.89C23.7734 49.1159 22.9074 49.6261 22.2461 50.3534C21.5848 51.0807 21.1591 51.9911 21.0249 52.9649C20.8907 53.9388 21.0544 54.9304 21.4944 55.8094C21.9344 56.6885 22.6301 57.4138 23.4901 57.89C24.3549 58.3661 25.3439 58.5681 26.3261 58.4693C27.3083 58.3705 28.2373 57.9756 28.99 57.3368C29.7426 56.698 30.2834 55.8456 30.5406 54.8925C30.7978 53.9394 30.7592 52.9307 30.4301 52C30.3429 51.7664 30.3076 51.5165 30.3266 51.2679C30.3456 51.0192 30.4184 50.7777 30.5401 50.56L40.8401 31.79C41.0055 31.4912 41.2544 31.247 41.5562 31.0872C41.8581 30.9274 42.1999 30.8589 42.5401 30.89C44.1976 31.0387 45.8646 30.7394 47.3669 30.0235ZM25.7477 52.2828C26.001 52.2585 26.2558 52.3098 26.4801 52.43C26.78 52.5968 27.0026 52.8746 27.0998 53.2037C27.197 53.5329 27.1612 53.887 27.0001 54.19C26.8772 54.4128 26.6911 54.5943 26.4653 54.7116C26.2395 54.829 25.984 54.8769 25.731 54.8493C25.478 54.8218 25.2388 54.7201 25.0435 54.5569C24.8482 54.3938 24.7055 54.1765 24.6334 53.9324C24.5613 53.6884 24.563 53.4285 24.6383 53.1854C24.7136 52.9423 24.859 52.7269 25.0564 52.5663C25.2538 52.4057 25.4943 52.307 25.7477 52.2828Z" fill="black"/>
</svg>
