<svg width="72" height="72" viewBox="0 0 72 72" fill="none" xmlns="http://www.w3.org/2000/svg">
<path d="M58.3701 12.17C57.9928 12.0258 57.5806 11.9993 57.1879 12.0939C56.7952 12.1885 56.4404 12.3998 56.1701 12.7C55.8901 13.01 49.1701 20.21 40.3601 14.7C29.5201 8 22.5501 10.74 20.0001 12.29H14.3501C13.8928 12.2899 13.4537 12.4688 13.1266 12.7883C12.7995 13.1079 12.6105 13.5428 12.6001 14V59.57C12.6001 60.0341 12.7845 60.4792 13.1127 60.8074C13.4408 61.1356 13.886 61.32 14.3501 61.32H20.6301C21.0942 61.32 21.5393 61.1356 21.8675 60.8074C22.1957 60.4792 22.3801 60.0341 22.3801 59.57V37.86C24.2701 36.86 29.6101 35.11 38.2501 40.46C40.8601 42.1474 43.8925 43.0658 47.0001 43.11C49.285 43.0712 51.5385 42.572 53.6261 41.6425C55.7137 40.713 57.5925 39.3721 59.1501 37.7C59.4739 37.3328 59.6518 36.8596 59.6501 36.37V14C59.6429 13.6023 59.5173 13.2157 59.2893 12.8897C59.0613 12.5637 58.7413 12.3131 58.3701 12.17ZM18.8801 57.82H16.1001V15.82H18.8801V57.82ZM55.6501 35.54C53.9001 37.16 47.9201 41.75 40.3601 37.06C35.0401 33.76 30.6401 32.74 27.2501 32.74C25.7995 32.7346 24.3554 32.9332 22.9601 33.33V15.25C25.2401 14.25 30.3801 13.25 38.2601 18.13C40.8364 19.836 43.8538 20.7549 46.9437 20.7745C50.0337 20.794 53.0624 19.9133 55.6601 18.24L55.6501 35.54Z" fill="black"/>
</svg>
