<svg width="72" height="72" viewBox="0 0 72 72" fill="none" xmlns="http://www.w3.org/2000/svg">
<path d="M55.44 31.9399C54.8432 31.9399 54.2709 32.177 53.849 32.599C53.427 33.0209 53.19 33.5932 53.19 34.1899V55.5599H44.69V43.9999C44.6163 41.9075 43.7333 39.9253 42.227 38.4711C40.7207 37.0169 38.7087 36.2041 36.615 36.2041C34.5212 36.2041 32.5092 37.0169 31.0029 38.4711C29.4966 39.9253 28.6136 41.9075 28.54 43.9999V55.5599H19.84V34.1899C19.84 33.5932 19.6029 33.0209 19.181 32.599C18.759 32.177 18.1867 31.9399 17.59 31.9399C16.9932 31.9399 16.4209 32.177 15.999 32.599C15.577 33.0209 15.34 33.5932 15.34 34.1899V55.8099C15.34 56.9371 15.7877 58.0181 16.5848 58.8151C17.3818 59.6122 18.4628 60.0599 19.59 60.0599H29.79C30.6441 60.0468 31.4591 59.699 32.0594 59.0912C32.6597 58.4834 32.9974 57.6642 33 56.8099V43.9999C33.0484 43.0845 33.4462 42.2225 34.1113 41.5916C34.7764 40.9608 35.6582 40.6091 36.575 40.6091C37.4917 40.6091 38.3735 40.9608 39.0386 41.5916C39.7038 42.2225 40.1015 43.0845 40.15 43.9999V56.8099C40.1526 57.6711 40.4959 58.4962 41.1048 59.1051C41.7137 59.714 42.5388 60.0573 43.4 60.0599H53.4C54.5271 60.0599 55.6081 59.6122 56.4052 58.8151C57.2022 58.0181 57.65 56.9371 57.65 55.8099V34.1899C57.6501 33.6001 57.4185 33.0338 57.0052 32.6129C56.5918 32.1921 56.0297 31.9504 55.44 31.9399Z" fill="black"/>
<path d="M62.53 30.5199L37.85 12.3799C37.4658 12.1069 37.0063 11.9602 36.535 11.9602C36.0637 11.9602 35.6041 12.1069 35.22 12.3799L9.50999 30.4899C9.1187 30.7653 8.82538 31.1582 8.67264 31.6117C8.51991 32.0651 8.5157 32.5555 8.66064 33.0115C8.80558 33.4675 9.09212 33.8654 9.47863 34.1474C9.86514 34.4295 10.3315 34.581 10.81 34.5799C11.2715 34.5763 11.7211 34.4334 12.1 34.1699L36.49 16.9999L59.86 34.1399C60.0969 34.3254 60.3687 34.4615 60.6591 34.5401C60.9496 34.6187 61.2529 34.6383 61.551 34.5976C61.8492 34.5569 62.1361 34.4569 62.3949 34.3034C62.6537 34.1498 62.8791 33.946 63.0577 33.7038C63.2364 33.4616 63.3646 33.1861 63.4348 32.8935C63.5051 32.6009 63.5159 32.2972 63.4667 32.0003C63.4175 31.7035 63.3092 31.4195 63.1483 31.1652C62.9874 30.9109 62.7772 30.6915 62.53 30.5199Z" fill="black"/>
</svg>
