<svg width="72" height="72" viewBox="0 0 72 72" fill="none" xmlns="http://www.w3.org/2000/svg">
<path fill-rule="evenodd" clip-rule="evenodd" d="M62.1701 50.47C61.6996 50.0939 61.1733 49.7936 60.6101 49.58V45.58C60.6101 45.0496 60.3993 44.5409 60.0243 44.1658C59.6492 43.7907 59.1405 43.58 58.6101 43.58H52.0001C52.7873 41.9828 53.3461 40.2828 53.6601 38.53H59.5001C60.0305 38.53 60.5392 38.3193 60.9143 37.9442C61.2893 37.5692 61.5001 37.0605 61.5001 36.53C61.5001 35.9996 61.2893 35.4909 60.9143 35.1158C60.5392 34.7407 60.0305 34.53 59.5001 34.53H54.0001C54.0444 32.6756 53.8902 30.8217 53.5401 29C53.4801 28.68 53.4001 28.36 53.3201 28.05H58.6101C59.1405 28.05 59.6492 27.8393 60.0243 27.4642C60.3993 27.0892 60.6101 26.5805 60.6101 26.05V22C61.1745 21.7846 61.701 21.4808 62.1701 21.1C63.0276 20.3967 63.6575 19.455 63.98 18.3939C64.3026 17.3328 64.3034 16.1999 63.9824 15.1383C63.6613 14.0767 63.0328 13.1341 62.1763 12.4296C61.3198 11.7251 60.2736 11.2902 59.1701 11.18C57.6956 11.0373 56.2243 11.4825 55.0764 12.4189C53.9284 13.3552 53.1966 14.7069 53.0401 16.18C52.9119 17.4077 53.1923 18.6435 53.8377 19.6957C54.4832 20.7479 55.4576 21.5578 56.6101 22V24H51.4901C49.8375 21.6263 47.4303 19.8816 44.6601 19.05V15.74C44.6601 15.2096 44.4493 14.7009 44.0743 14.3258C43.6992 13.9507 43.1905 13.74 42.6601 13.74C42.1296 13.74 41.6209 13.9507 41.2458 14.3258C40.8708 14.7009 40.6601 15.2096 40.6601 15.74V18.28C39.7901 18.16 38.9001 18.07 38.0001 18.02V12.65C38.0001 12.1196 37.7893 11.6109 37.4143 11.2358C37.0392 10.8607 36.5305 10.65 36.0001 10.65C35.4696 10.65 34.9609 10.8607 34.5858 11.2358C34.2108 11.6109 34.0001 12.1196 34.0001 12.65V18C33.2175 18 32.3925 18.1187 31.5564 18.239L31.5563 18.239L31.3401 18.27V15.74C31.3401 15.2096 31.1293 14.7009 30.7543 14.3258C30.3792 13.9507 29.8705 13.74 29.3401 13.74C28.8096 13.74 28.3009 13.9507 27.9258 14.3258C27.5508 14.7009 27.3401 15.2096 27.3401 15.74V19.26C26.4672 19.5634 25.6291 19.959 24.8401 20.44C23.0627 21.5634 21.6138 23.1365 20.6401 25H15.3901V23C16.303 22.663 17.1103 22.0903 17.7301 21.34C18.4331 20.482 18.8659 19.4347 18.9739 18.3307C19.0819 17.2267 18.8601 16.1155 18.3367 15.1375C17.8132 14.1595 17.0116 13.3586 16.0331 12.8361C15.0546 12.3135 13.9432 12.0928 12.8393 12.2018C11.7354 12.3108 10.6886 12.7446 9.83117 13.4484C8.97375 14.1522 8.34423 15.0944 8.02217 16.1559C7.70011 17.2174 7.69996 18.3505 8.02175 19.4121C8.34354 20.4737 8.97283 21.416 9.83006 22.12C10.3018 22.4968 10.8277 22.8002 11.3901 23.02V27.02C11.3901 27.5505 11.6008 28.0592 11.9758 28.4342C12.3509 28.8093 12.8596 29.02 13.3901 29.02H19.1601C18.755 30.8206 18.5803 32.6654 18.6401 34.51C18.6401 34.83 18.6401 35.15 18.6901 35.51H12.5301C11.9996 35.51 11.4909 35.7207 11.1158 36.0958C10.7408 36.4709 10.5301 36.9796 10.5301 37.51C10.5301 38.0405 10.7408 38.5492 11.1158 38.9242C11.4909 39.2993 11.9996 39.51 12.5301 39.51H19.2801C19.6971 41.266 20.371 42.9508 21.2801 44.51H13.3901C12.8596 44.51 12.3509 44.7207 11.9758 45.0958C11.6008 45.4709 11.3901 45.9796 11.3901 46.51V50.51C10.2137 50.9665 9.22522 51.8056 8.58373 52.8922C7.94224 53.9788 7.68509 55.2497 7.85367 56.5002C8.02225 57.7507 8.60676 58.9081 9.51309 59.786C10.4194 60.6639 11.5948 61.2113 12.8501 61.34H13.4101C14.4715 61.3371 15.5104 61.033 16.4059 60.4632C17.3015 59.8934 18.017 59.0812 18.4694 58.1209C18.9218 57.1607 19.0924 56.0918 18.9616 55.0384C18.8307 53.985 18.4037 52.9904 17.7301 52.17C17.1103 51.4198 16.303 50.847 15.3901 50.51V48.51H24.5001C24.6296 48.5253 24.7605 48.5253 24.8901 48.51C27.984 50.4507 31.5148 51.5852 35.1601 51.81V54.29C35.1601 55.007 35.4442 55.6948 35.9503 56.2028C36.4563 56.7107 37.1431 56.9974 37.8601 57H38.1101C38.6658 56.9487 39.1926 56.7289 39.6201 56.37C41.2201 55 43.3201 53.18 45.3801 51.26L46.2601 50.45C47.2601 49.55 48.2601 48.62 49.1601 47.63H56.6101V49.63C55.468 50.0609 54.4976 50.8525 53.8461 51.8848C53.1946 52.9171 52.8976 54.1337 53.0001 55.35C53.1364 56.7364 53.7827 58.0227 54.8138 58.9595C55.8448 59.8963 57.187 60.4168 58.5801 60.42C58.7633 60.43 58.9469 60.43 59.1301 60.42C60.2336 60.3098 61.2798 59.875 62.1363 59.1704C62.9928 58.4659 63.6213 57.5233 63.9424 56.4617C64.2634 55.4002 64.2626 54.2672 63.94 53.2061C63.6175 52.145 62.9876 51.2033 62.1301 50.5L62.1701 50.47ZM58.7601 15.2C58.9711 15.2197 59.1761 15.2811 59.3633 15.3806C59.5504 15.4802 59.7158 15.616 59.8501 15.78C59.9913 15.9473 60.0963 16.1422 60.1583 16.3522C60.2202 16.5622 60.2379 16.7828 60.2101 17C60.1763 17.3852 60.0034 17.7449 59.7236 18.0118C59.4438 18.2787 59.0764 18.4345 58.6901 18.45H58.4501C58.0244 18.4089 57.6325 18.2004 57.3605 17.8703C57.0886 17.5403 56.959 17.1157 57.0001 16.69C57.0412 16.2644 57.2497 15.8724 57.5798 15.6005C57.9098 15.3286 58.3344 15.1989 58.7601 15.24V15.2ZM12.1501 16.71C12.2843 16.546 12.4497 16.4102 12.6369 16.3106C12.824 16.2111 13.029 16.1497 13.2401 16.13H13.4001C13.7659 16.1354 14.1188 16.266 14.4001 16.5C14.7349 16.7666 14.9506 17.1549 15.0001 17.58C15.0404 18.0054 14.911 18.4296 14.6401 18.76C14.5074 18.9258 14.3423 19.0627 14.1549 19.1625C13.9675 19.2622 13.7616 19.3226 13.5501 19.34H13.4901H13.3101C12.9654 19.3279 12.6346 19.2013 12.3701 18.98C12.2071 18.847 12.072 18.6831 11.9725 18.4978C11.873 18.3125 11.811 18.1093 11.7901 17.9C11.7514 17.4717 11.8804 17.0451 12.1501 16.71ZM15.0001 55.9C14.9689 56.2057 14.851 56.4962 14.6601 56.737C14.4693 56.9778 14.2135 57.159 13.9229 57.2592C13.6324 57.3593 13.3193 57.3742 13.0206 57.3021C12.7219 57.23 12.45 57.0739 12.2372 56.8523C12.0243 56.6306 11.8793 56.3527 11.8193 56.0513C11.7593 55.75 11.7868 55.4377 11.8986 55.1515C12.0104 54.8652 12.2017 54.6169 12.45 54.4359C12.6984 54.2549 12.9933 54.1488 13.3001 54.13H13.5501C13.9758 54.1755 14.3665 54.3867 14.6378 54.7178C14.9091 55.049 15.0393 55.4737 15.0001 55.9ZM43.5601 47.42L42.6501 48.25C41.4601 49.36 40.2601 50.43 39.1601 51.4V50.17C39.1601 49.8601 39.099 49.5532 38.9804 49.2669C38.8618 48.9806 38.688 48.7204 38.4688 48.5013C38.2497 48.2821 37.9895 48.1083 37.7032 47.9897C37.4169 47.8711 37.11 47.81 36.8001 47.81C33.2501 47.81 28.3001 46.59 26.1301 44.33C23.4101 41.5 22.7301 37.33 22.6401 34.33C22.5501 31.33 23.0001 26.28 27.0001 23.84C29.0001 22.62 32.1301 21.96 35.9401 21.96C38.0687 21.9558 40.1925 22.1635 42.2801 22.58C44.1069 22.8604 45.8008 23.7038 47.1255 24.9926C48.4502 26.2815 49.3397 27.9516 49.6701 29.77C50.4501 33.77 50.3201 39.35 47.6001 43.23C46.4031 44.7637 45.0491 46.168 43.5601 47.42ZM59.8501 55.83C59.6504 56.0762 59.3825 56.258 59.08 56.3526C58.7774 56.4472 58.4537 56.4504 58.1493 56.3618C57.845 56.2732 57.5736 56.0966 57.3691 55.8544C57.1647 55.6122 57.0363 55.3149 57.0001 55C56.9794 54.7892 57.0005 54.5764 57.0622 54.3737C57.1239 54.1711 57.2251 53.9826 57.3598 53.8191C57.4945 53.6556 57.6601 53.5203 57.8472 53.4209C58.0343 53.3215 58.2392 53.2601 58.4501 53.24H58.6901C59.0335 53.2579 59.3626 53.3839 59.6301 53.6C59.7941 53.7342 59.9299 53.8997 60.0294 54.0868C60.129 54.2739 60.1904 54.479 60.2101 54.69C60.244 55.1025 60.1147 55.5118 59.8501 55.83ZM39.15 29.1799H33.53C32.57 29.1799 31.6492 29.5613 30.9703 30.2402C30.2914 30.9191 29.91 31.8398 29.91 32.7999V38.4199C29.9206 39.3731 30.3066 40.2836 30.9843 40.9538C31.6621 41.6241 32.5768 42 33.53 41.9999H39.15C40.1101 41.9999 41.0309 41.6185 41.7098 40.9397C42.3886 40.2608 42.77 39.34 42.77 38.3799V32.7999C42.77 31.8398 42.3886 30.9191 41.7098 30.2402C41.0309 29.5613 40.1101 29.1799 39.15 29.1799ZM39.27 38.4199C39.27 38.4518 39.2574 38.4823 39.2349 38.5048C39.2124 38.5273 39.1819 38.5399 39.15 38.5399H33.53C33.4982 38.5399 33.4677 38.5273 33.4452 38.5048C33.4227 38.4823 33.41 38.4518 33.41 38.4199V32.7999C33.41 32.7681 33.4227 32.7376 33.4452 32.7151C33.4677 32.6926 33.4982 32.6799 33.53 32.6799H39.15C39.1819 32.6799 39.2124 32.6926 39.2349 32.7151C39.2574 32.7376 39.27 32.7681 39.27 32.7999V38.4199ZM35.6979 34.0818C35.904 34.0105 36.1226 33.9827 36.34 34C36.736 34.0316 37.1056 34.2112 37.3752 34.5031C37.6447 34.795 37.7944 35.1777 37.7944 35.575C37.7944 35.9723 37.6447 36.355 37.3752 36.6469C37.1056 36.9388 36.736 37.1184 36.34 37.15C36.1226 37.1673 35.904 37.1395 35.6979 37.0682C35.4918 36.9969 35.3027 36.8837 35.1425 36.7358C34.9823 36.5878 34.8544 36.4083 34.767 36.2086C34.6795 36.0088 34.6344 35.7931 34.6344 35.575C34.6344 35.3569 34.6795 35.1412 34.767 34.9414C34.8544 34.7417 34.9823 34.5622 35.1425 34.4142C35.3027 34.2663 35.4918 34.1531 35.6979 34.0818Z" fill="black"/>
</svg>
