<svg width="72" height="72" viewBox="0 0 72 72" fill="none" xmlns="http://www.w3.org/2000/svg">
<path fill-rule="evenodd" clip-rule="evenodd" d="M33.82 37.53L14.71 31V30.99C13.8005 30.6807 13.0106 30.0943 12.4513 29.3133C11.892 28.5322 11.5912 27.5957 11.5912 26.635C11.5912 25.6743 11.892 24.7378 12.4513 23.9567C13.0106 23.1757 13.8005 22.5893 14.71 22.28L31.59 16.55C33.6633 15.8394 35.9096 15.8114 38 16.47L57.19 22.46C58.1062 22.7434 58.9109 23.3062 59.4916 24.0695C60.0722 24.8328 60.3998 25.7585 60.4284 26.7171C60.4571 27.6757 60.1854 28.6193 59.6513 29.416C59.1173 30.2126 58.3476 30.8224 57.45 31.16L40.82 37.42C38.5696 38.2653 36.0958 38.3042 33.82 37.53ZM33 20.82L16.16 26.56V26.55C16.1366 26.5662 16.1198 26.5902 16.1125 26.6177C16.1051 26.6451 16.1078 26.6743 16.12 26.7L35.27 33.25C36.5509 33.6854 37.9429 33.6642 39.21 33.19L55.87 26.92C55.887 26.8987 55.8963 26.8723 55.8963 26.845C55.8963 26.8177 55.887 26.7913 55.87 26.77L36.61 20.77C35.4314 20.4063 34.1681 20.4238 33 20.82ZM57.17 33.28C56.889 33.1937 56.5937 33.1639 56.3011 33.1922C56.0085 33.2204 55.7244 33.3063 55.4651 33.4448C55.2058 33.5832 54.9765 33.7716 54.7902 33.999C54.604 34.2265 54.4646 34.4885 54.38 34.77C54.2051 35.3442 54.2647 35.9643 54.5458 36.4947C54.8269 37.025 55.3066 37.4224 55.88 37.6C55.8963 37.6235 55.9051 37.6514 55.9051 37.68C55.9051 37.7086 55.8963 37.7365 55.88 37.76L39.21 44C37.9441 44.4774 36.552 44.5022 35.27 44.07L16.12 37.53C16.1055 37.4879 16.1055 37.4421 16.12 37.4H16.17C16.4504 37.3048 16.7092 37.1553 16.9318 36.96C17.1544 36.7648 17.3364 36.5276 17.4673 36.262C17.5982 35.9964 17.6756 35.7077 17.6949 35.4122C17.7143 35.1167 17.6752 34.8204 17.58 34.54C17.4848 34.2596 17.3353 34.0007 17.14 33.7782C16.9448 33.5556 16.7076 33.3736 16.442 33.2427C16.1764 33.1117 15.8877 33.0344 15.5922 33.0151C15.2967 32.9957 15.0004 33.0348 14.72 33.13C13.8105 33.4393 13.0206 34.0257 12.4613 34.8067C11.902 35.5878 11.6012 36.5243 11.6012 37.485C11.6012 38.4457 11.902 39.3822 12.4613 40.1633C13.0206 40.9443 13.8105 41.5307 14.72 41.84L33.83 48.36C36.1036 49.1441 38.5797 49.1087 40.83 48.26L57.43 42C58.3276 41.6623 59.0973 41.0526 59.6314 40.256C60.1654 39.4593 60.4371 38.5157 60.4084 37.5571C60.3798 36.5985 60.0522 35.6728 59.4716 34.9095C58.8909 34.1462 58.0862 33.5834 57.17 33.3V33.28ZM57.17 44.8401C56.889 44.7538 56.5937 44.7239 56.3011 44.7522C56.0085 44.7805 55.7244 44.8663 55.4651 45.0048C55.2058 45.1433 54.9765 45.3317 54.7902 45.5591C54.604 45.7865 54.4646 46.0485 54.38 46.3301C54.2048 46.9056 54.2641 47.527 54.5451 48.059C54.826 48.591 55.3059 48.9903 55.88 49.17C55.897 49.1913 55.9063 49.2178 55.9063 49.245C55.9063 49.2723 55.897 49.2988 55.88 49.32L39.21 55.5801C37.942 56.0494 36.5516 56.0705 35.27 55.64L16.12 49.09C16.1055 49.0479 16.1055 49.0022 16.12 48.96H16.17C16.4504 48.8648 16.7092 48.7153 16.9318 48.5201C17.1544 48.3248 17.3364 48.0876 17.4673 47.8221C17.5982 47.5565 17.6756 47.2677 17.6949 46.9723C17.7143 46.6768 17.6752 46.3804 17.58 46.1C17.4848 45.8197 17.3353 45.5608 17.14 45.3382C16.9448 45.1156 16.7076 44.9337 16.442 44.8027C16.1764 44.6718 15.8877 44.5945 15.5922 44.5751C15.2967 44.5558 15.0004 44.5948 14.72 44.6901C13.8105 44.9994 13.0206 45.5857 12.4613 46.3668C11.902 47.1478 11.6012 48.0844 11.6012 49.045C11.6012 50.0057 11.902 50.9423 12.4613 51.7233C13.0206 52.5044 13.8105 53.0907 14.72 53.4001L33.83 59.93C34.9066 60.2915 36.0344 60.4772 37.17 60.48C38.4131 60.48 39.646 60.2564 40.81 59.82L57.44 53.5601C58.3376 53.2224 59.1073 52.6126 59.6413 51.816C60.1754 51.0194 60.4471 50.0758 60.4184 49.1172C60.3898 48.1585 60.0622 47.2328 59.4816 46.4695C58.9009 45.7062 58.0962 45.1435 57.18 44.8601L57.17 44.8401Z" fill="black"/>
</svg>
