<svg width="72" height="72" viewBox="0 0 72 72" fill="none" xmlns="http://www.w3.org/2000/svg">
<path d="M36 61.8697C29.2203 61.7365 22.7633 58.9497 18.0158 54.108C13.2682 49.2662 10.6089 42.7557 10.6089 35.9747C10.6089 29.1937 13.2682 22.6832 18.0158 17.8415C22.7633 12.9997 29.2203 10.2129 36 10.0797C39.4571 10.0612 42.8823 10.7415 46.07 12.0797C46.4331 12.2327 46.7625 12.4557 47.0394 12.736C47.3163 13.0163 47.5353 13.3484 47.6839 13.7133C47.8325 14.0783 47.9077 14.4689 47.9053 14.8629C47.903 15.2569 47.823 15.6466 47.67 16.0097C47.517 16.3728 47.294 16.7022 47.0137 16.9792C46.7334 17.2561 46.4013 17.4751 46.0364 17.6236C45.6714 17.7722 45.2808 17.8475 44.8868 17.8451C44.4928 17.8427 44.1031 17.7627 43.74 17.6097C41.2897 16.5825 38.6568 16.062 36 16.0797C32.0637 16.0738 28.2141 17.2353 24.9381 19.4175C21.662 21.5996 19.1067 24.7043 17.5953 28.3389C16.084 31.9734 15.6844 35.9746 16.4473 39.8362C17.2101 43.6979 19.101 47.2466 21.8809 50.0334C24.6608 52.8203 28.2047 54.7201 32.0644 55.4927C35.9241 56.2652 39.9263 55.8757 43.5646 54.3735C47.2029 52.8713 50.314 50.3238 52.5044 47.0532C54.6948 43.7827 55.866 39.936 55.87 35.9997C55.87 35.2041 56.1861 34.441 56.7487 33.8784C57.3113 33.3158 58.0743 32.9997 58.87 32.9997C59.6656 32.9997 60.4287 33.3158 60.9913 33.8784C61.5539 34.441 61.87 35.2041 61.87 35.9997C61.8541 42.856 59.1235 49.4269 54.2753 54.2751C49.4272 59.1232 42.8563 61.8539 36 61.8697Z" fill="url(#paint0_linear)"/>
<path d="M36 61.8697C29.2203 61.7365 22.7633 58.9497 18.0158 54.108C13.2682 49.2662 10.6089 42.7557 10.6089 35.9747C10.6089 29.1937 13.2682 22.6832 18.0158 17.8415C22.7633 12.9997 29.2203 10.2129 36 10.0797C39.4571 10.0612 42.8823 10.7415 46.07 12.0797C46.4331 12.2327 46.7625 12.4557 47.0394 12.736C47.3163 13.0163 47.5353 13.3484 47.6839 13.7133C47.8325 14.0783 47.9077 14.4689 47.9053 14.8629C47.903 15.2569 47.823 15.6466 47.67 16.0097C47.517 16.3728 47.294 16.7022 47.0137 16.9792C46.7334 17.2561 46.4013 17.4751 46.0364 17.6236C45.6714 17.7722 45.2808 17.8475 44.8868 17.8451C44.4928 17.8427 44.1031 17.7627 43.74 17.6097C41.2897 16.5825 38.6568 16.062 36 16.0797C32.0637 16.0738 28.2141 17.2353 24.9381 19.4175C21.662 21.5996 19.1067 24.7043 17.5953 28.3389C16.084 31.9734 15.6844 35.9746 16.4473 39.8362C17.2101 43.6979 19.101 47.2466 21.8809 50.0334C24.6608 52.8203 28.2047 54.7201 32.0644 55.4927C35.9241 56.2652 39.9263 55.8757 43.5646 54.3735C47.2029 52.8713 50.314 50.3238 52.5044 47.0532C54.6948 43.7827 55.866 39.936 55.87 35.9997C55.87 35.2041 56.1861 34.441 56.7487 33.8784C57.3113 33.3158 58.0743 32.9997 58.87 32.9997C59.6656 32.9997 60.4287 33.3158 60.9913 33.8784C61.5539 34.441 61.87 35.2041 61.87 35.9997C61.8541 42.856 59.1235 49.4269 54.2753 54.2751C49.4272 59.1232 42.8563 61.8539 36 61.8697Z" fill="url(#paint1_linear)"/>
<defs>
<linearGradient id="paint0_linear" x1="15" y1="50.0002" x2="52" y2="36.0002" gradientUnits="userSpaceOnUse">
<stop offset="0.296412"/>
<stop offset="1" stop-opacity="0"/>
</linearGradient>
<linearGradient id="paint1_linear" x1="39" y1="33.0002" x2="55" y2="42.0002" gradientUnits="userSpaceOnUse">
<stop/>
<stop offset="0.584615" stop-opacity="0"/>
</linearGradient>
</defs>
</svg>
