<svg width="72" height="72" viewBox="0 0 72 72" fill="none" xmlns="http://www.w3.org/2000/svg">
<path fill-rule="evenodd" clip-rule="evenodd" d="M59.36 24.2899C57.93 17.0499 52.79 11.9899 45.26 10.4199C42.0047 9.7589 38.6917 9.42391 35.37 9.41992C30.96 9.41992 24.77 9.99992 20.28 12.7799C14.64 16.2899 11.69 22.9999 12 31.7999C12.15 36.7999 13.36 43.9099 18.23 48.9899C22.09 52.9899 29.41 54.9899 35.23 55.3299V59.5599C35.23 60.3556 35.546 61.1186 36.1086 61.6812C36.6712 62.2439 37.4343 62.5599 38.23 62.5599C38.3163 62.5698 38.4036 62.5698 38.49 62.5599C39.1078 62.509 39.6947 62.268 40.17 61.8699C42.4 59.9499 45.34 57.3999 48.22 54.7199L49.48 53.5599C51.8097 51.5722 53.9185 49.3394 55.77 46.8999C59.66 41.1999 61 32.7499 59.36 24.2899ZM52.36 44.5899C50.6714 46.7839 48.7576 48.7949 46.65 50.5899L45.37 51.7699C43.2 53.7699 41 55.7699 39.1 57.3699V53.8699C39.1 53.2069 38.8366 52.571 38.3677 52.1022C37.8989 51.6333 37.263 51.3699 36.6 51.3699C31.45 51.3699 24.25 49.5699 21.04 46.2199C17.04 42.0599 16.04 36.0199 15.91 31.6799C15.78 27.3399 16.45 19.8499 22.34 16.1999C25.22 14.4199 29.83 13.4399 35.34 13.4399C38.3854 13.4324 41.424 13.7306 44.41 14.3299C50.41 15.5799 54.28 19.3899 55.41 25.0699C56.91 32.4799 55.77 39.7799 52.4 44.5899H52.36ZM36 20.8499C35.3264 20.8225 34.6668 21.0472 34.15 21.4799C33.9093 21.6866 33.7186 21.9452 33.5921 22.2361C33.4657 22.5271 33.4068 22.843 33.42 23.1599V23.4999L34.68 36.6999C34.6863 37.0748 34.8367 37.4329 35.1 37.6999C35.222 37.808 35.3647 37.8903 35.5193 37.9418C35.674 37.9934 35.8375 38.0131 36 37.9999C36.1588 38.0041 36.3169 37.9761 36.4646 37.9177C36.6124 37.8593 36.7469 37.7716 36.86 37.6599C37.1218 37.3911 37.275 37.0349 37.29 36.6599L38.54 23.4899V23.1199C38.5529 22.8039 38.4949 22.4891 38.3703 22.1984C38.2457 21.9077 38.0577 21.6485 37.82 21.4399C37.3035 21.0318 36.6577 20.8224 36 20.8499ZM35.0221 40.2329C35.3322 40.1072 35.6654 40.0482 35.9999 40.0599C36.3328 40.049 36.6643 40.1083 36.9727 40.2341C37.2812 40.3599 37.5596 40.5493 37.7899 40.7899C38.2519 41.2814 38.5091 41.9305 38.5091 42.6049C38.5091 43.2794 38.2519 43.9285 37.7899 44.4199C37.3099 44.8884 36.6657 45.1507 35.9949 45.1507C35.3242 45.1507 34.68 44.8884 34.1999 44.4199C33.7424 43.9263 33.4882 43.278 33.4882 42.6049C33.4882 41.9318 33.7424 41.2836 34.1999 40.7899C34.4318 40.5485 34.7119 40.3587 35.0221 40.2329Z" fill="black"/>
</svg>
