<svg width="72" height="72" viewBox="0 0 72 72" fill="none" xmlns="http://www.w3.org/2000/svg">
<path d="M38.16 62.79C37.3644 62.79 36.6013 62.4739 36.0387 61.9113C35.4761 61.3487 35.16 60.5856 35.16 59.79V55.49C29.34 55.19 21.94 53.16 18.04 49.1C13.13 44 11.91 36.84 11.76 31.76C11.49 22.92 14.47 16.12 20.15 12.6C24.67 9.79999 30.92 9.20999 35.36 9.20999C38.7185 9.20663 42.0687 9.54165 45.36 10.21C52.95 11.8 58.14 16.9 59.58 24.21C61.27 32.74 59.88 41.26 55.87 46.99C54.0045 49.4484 51.8788 51.6982 49.53 53.7L48.26 54.88C45.37 57.56 42.4 60.14 40.13 62.09C39.656 62.4917 39.069 62.7362 38.45 62.79H38.16ZM35.36 13.21C29.81 13.21 25.16 14.21 22.25 16C16.3 19.69 15.62 27.38 15.75 31.64C15.88 35.9 16.89 42.13 20.93 46.33C24.21 49.74 31.32 51.53 36.65 51.53C37.3088 51.5299 37.9413 51.7888 38.4109 52.2509C38.8805 52.7131 39.1495 53.3412 39.16 54V57.58C41.08 55.91 43.33 53.93 45.51 51.9C45.93 51.5 46.37 51.11 46.81 50.71C48.9371 48.8974 50.8677 46.8663 52.57 44.65C56 39.82 57.12 32.45 55.64 25C54.5 19.27 50.55 15.42 44.52 14.15C41.5055 13.5329 38.437 13.218 35.36 13.21Z" fill="black"/>
</svg>
