<svg width="72" height="72" viewBox="0 0 72 72" fill="none" xmlns="http://www.w3.org/2000/svg">
<path fill-rule="evenodd" clip-rule="evenodd" d="M18.8199 30.58C17.7479 30.58 16.7 30.8978 15.8087 31.4934C14.9174 32.0889 14.2227 32.9354 13.8125 33.9258C13.4023 34.9162 13.2949 36.006 13.504 37.0573C13.7132 38.1087 14.2294 39.0745 14.9874 39.8325C15.7454 40.5905 16.7111 41.1067 17.7625 41.3158C18.8139 41.5249 19.9037 41.4176 20.894 41.0074C21.8844 40.5972 22.7309 39.9025 23.3265 39.0111C23.922 38.1198 24.2399 37.0719 24.2399 36C24.2399 34.5625 23.6689 33.1839 22.6524 32.1674C21.636 31.151 20.2574 30.58 18.8199 30.58ZM35.9999 41.42C38.9933 41.42 41.4199 38.9933 41.4199 36C41.4199 33.0066 38.9933 30.58 35.9999 30.58C33.0065 30.58 30.5799 33.0066 30.5799 36C30.5799 38.9933 33.0065 41.42 35.9999 41.42ZM58.5999 36C58.5999 38.9933 56.1733 41.42 53.1799 41.42C50.1865 41.42 47.7599 38.9933 47.7599 36C47.7599 33.0066 50.1865 30.58 53.1799 30.58C56.1733 30.58 58.5999 33.0066 58.5999 36Z" fill="black"/>
</svg>
