<svg width="72" height="72" viewBox="0 0 72 72" fill="none" xmlns="http://www.w3.org/2000/svg">
<path d="M62.2801 37.21C62.3139 37.1589 62.3439 37.1054 62.3701 37.05C62.4006 37.0021 62.4274 36.952 62.4501 36.9V36.82L62.5101 36.64C62.5101 36.64 62.5101 36.54 62.5101 36.49C62.5101 36.44 62.5101 36.43 62.5101 36.4C62.515 36.3401 62.515 36.2799 62.5101 36.22C62.5101 36.16 62.5101 36.1 62.5101 36.04V36C62.5101 35.94 62.5101 35.88 62.5101 35.82C62.515 35.7601 62.515 35.6999 62.5101 35.64C62.5101 35.64 62.5101 35.58 62.5101 35.56C62.5101 35.54 62.5101 35.45 62.5101 35.4L62.4501 35.22V35.14C62.4274 35.088 62.4006 35.0378 62.3701 34.99C62.3439 34.9346 62.3139 34.8811 62.2801 34.83V34.76L62.1601 34.62L62.0001 34.47L53.3201 25.06C52.9156 24.6211 52.3534 24.3608 51.757 24.3364C51.1607 24.312 50.579 24.5255 50.1401 24.93C49.7012 25.3344 49.4409 25.8967 49.4165 26.4931C49.3921 27.0894 49.6056 27.6711 50.0101 28.11L55.2101 33.75H38.2101V16.75L43.8901 22C44.3026 22.3851 44.8458 22.5995 45.4101 22.6C45.8646 22.6022 46.3091 22.4668 46.6851 22.2116C47.0611 21.9563 47.351 21.5931 47.5166 21.1699C47.6822 20.7467 47.7157 20.2832 47.6128 19.8406C47.5099 19.3979 47.2754 18.9968 46.9401 18.69L37.5301 9.99999L37.4201 9.91999L37.2801 9.79999H37.2101L37.0001 9.62999L36.8601 9.54999H36.7801L36.6001 9.48999H36.4501H36.3501H36.1701H35.7501H35.5701H35.4701H35.3201L35.1501 9.54999H35.0601L35.0001 9.62999L34.8301 9.71999H34.7601L34.6201 9.81999L34.5101 9.90999L25.1001 18.59C24.8762 18.7876 24.6934 19.0274 24.5622 19.2957C24.431 19.564 24.3539 19.8555 24.3353 20.1536C24.3167 20.4516 24.357 20.7505 24.4539 21.033C24.5509 21.3154 24.7025 21.5761 24.9001 21.8C25.0977 22.0239 25.3375 22.2067 25.6058 22.3379C25.8741 22.4691 26.1656 22.5462 26.4637 22.5648C26.7618 22.5834 27.0606 22.5431 27.3431 22.4461C27.6256 22.3492 27.8862 22.1976 28.1101 22L33.7501 16.8V33.8H16.7501L22.0001 28.11C22.4045 27.6711 22.6181 27.0894 22.5937 26.4931C22.5693 25.8967 22.309 25.3344 21.8701 24.93C21.4312 24.5255 20.8495 24.312 20.2532 24.3364C19.6568 24.3608 19.0946 24.6211 18.6901 25.06L10.0001 34.47L9.92009 34.58L9.80009 34.72V34.79C9.76633 34.8411 9.73626 34.8946 9.71009 34.95C9.67956 34.9978 9.65282 35.048 9.63009 35.1V35.18L9.57009 35.36C9.57009 35.36 9.57009 35.46 9.57009 35.52C9.57009 35.58 9.57009 35.52 9.57009 35.6C9.56518 35.6599 9.56518 35.7201 9.57009 35.78C9.57009 35.84 9.57009 35.9 9.57009 35.96V36C9.57009 36.06 9.57009 36.12 9.57009 36.18C9.56518 36.2399 9.56518 36.3001 9.57009 36.36C9.57009 36.36 9.57009 36.42 9.57009 36.45C9.57009 36.48 9.57009 36.55 9.57009 36.6L9.63009 36.78V36.86C9.65282 36.912 9.67956 36.9621 9.71009 37.01C9.73626 37.0654 9.76633 37.1189 9.80009 37.17V37.24L9.92009 37.38L10.0001 37.49L18.6801 46.9C18.8923 47.1279 19.1492 47.3095 19.4349 47.4334C19.7205 47.5573 20.0287 47.6208 20.3401 47.62C20.9033 47.6232 21.4466 47.4123 21.8601 47.03C22.2886 46.6284 22.5431 46.0752 22.5693 45.4885C22.5954 44.9018 22.3912 44.3281 22.0001 43.89L16.8001 38.25H33.8001V55.25L28.1601 50.05C27.7212 49.6455 27.1395 49.432 26.5432 49.4564C25.9468 49.4808 25.3845 49.7411 24.9801 50.18C24.5756 50.6189 24.3621 51.2005 24.3865 51.7969C24.4109 52.3933 24.6712 52.9555 25.1101 53.36L34.4701 62L34.6101 62.1C34.6454 62.1386 34.6858 62.1722 34.7301 62.2H34.7801L34.9901 62.31L35.0901 62.37C35.1703 62.4056 35.2541 62.4325 35.3401 62.45L35.5001 62.5C35.6432 62.5103 35.7869 62.5103 35.9301 62.5C36.0733 62.5098 36.2169 62.5098 36.3601 62.5L36.5201 62.45C36.6061 62.4325 36.6899 62.4056 36.7701 62.37L36.8701 62.31L37.0801 62.2H37.1301C37.1744 62.1722 37.2148 62.1386 37.2501 62.1L37.3901 62L46.8001 53.32C47.06 53.1362 47.278 52.8993 47.4396 52.625C47.6012 52.3507 47.7027 52.0452 47.7375 51.7288C47.7723 51.4123 47.7395 51.0921 47.6413 50.7893C47.5432 50.4864 47.3819 50.2078 47.1681 49.972C46.9543 49.7361 46.6929 49.5482 46.4011 49.4209C46.1093 49.2935 45.7939 49.2295 45.4755 49.2331C45.1572 49.2367 44.8432 49.3078 44.5544 49.4417C44.2656 49.5756 44.0085 49.7693 43.8001 50.01L38.1601 55.21V38.21H55.1601L49.9601 43.85C49.7598 44.0673 49.6042 44.3219 49.5023 44.5994C49.4005 44.8768 49.3542 45.1716 49.3663 45.4669C49.3784 45.7622 49.4485 46.0523 49.5727 46.3205C49.6969 46.5887 49.8727 46.8298 50.0901 47.03C50.5036 47.4123 51.0469 47.6232 51.6101 47.62C51.9215 47.6208 52.2296 47.5573 52.5153 47.4334C52.801 47.3095 53.0579 47.1279 53.2701 46.9L62.0001 37.53L62.0801 37.42L62.2001 37.28L62.2801 37.21Z" fill="black"/>
</svg>
