<svg width="72" height="72" viewBox="0 0 72 72" fill="none" xmlns="http://www.w3.org/2000/svg">
<path d="M52.9 36.9999L37.9 21.9999L35.1 19.1799L26.76 10.8299C26.2891 10.3738 25.658 10.1209 25.0025 10.1257C24.3469 10.1304 23.7195 10.3925 23.2553 10.8553C22.7911 11.3182 22.5273 11.9449 22.5207 12.6004C22.5141 13.2559 22.7652 13.8878 23.22 14.3599L28.22 19.3599L10.67 36.9999C9.79308 37.8824 9.3009 39.0759 9.3009 40.3199C9.3009 41.564 9.79308 42.7575 10.67 43.6399L28.46 61.3999C28.895 61.8378 29.4122 62.1852 29.982 62.4223C30.5518 62.6594 31.1628 62.7815 31.78 62.7815C32.3971 62.7815 33.0082 62.6594 33.578 62.4223C34.1478 62.1852 34.665 61.8378 35.1 61.3999L52.9 43.6099C53.7702 42.7301 54.2583 41.5425 54.2583 40.3049C54.2583 39.0674 53.7702 37.8798 52.9 36.9999ZM31.78 57.6499L14.42 40.2899L31.78 22.9299L49.15 40.2899L31.78 57.6499Z" fill="black"/>
<path opacity="0.5" d="M52.1799 40.79L11.8199 40.53L29.9999 58.71C30.2025 58.9135 30.4433 59.075 30.7084 59.1852C30.9735 59.2953 31.2578 59.3521 31.5449 59.3521C31.8321 59.3521 32.1164 59.2953 32.3815 59.1852C32.6466 59.075 32.8874 58.9135 33.0899 58.71C37.8799 54 52.1799 40 52.1799 40.79Z" fill="black"/>
<path opacity="0.5" d="M56.42 43.93C56.2803 43.7567 56.1036 43.617 55.9029 43.521C55.7022 43.425 55.4825 43.3751 55.26 43.3751C55.0374 43.3751 54.8178 43.425 54.617 43.521C54.4163 43.617 54.2396 43.7567 54.1 43.93C52.94 45.4 51.33 47.74 51.33 49.41C51.33 50.4523 51.744 51.4519 52.481 52.1889C53.218 52.9259 54.2177 53.34 55.26 53.34C56.3023 53.34 57.3019 52.9259 58.0389 52.1889C58.7759 51.4519 59.19 50.4523 59.19 49.41C59.19 47.74 57.58 45.4 56.42 43.93Z" fill="black"/>
</svg>
