<svg width="72" height="72" viewBox="0 0 72 72" fill="none" xmlns="http://www.w3.org/2000/svg">
<path fill-rule="evenodd" clip-rule="evenodd" d="M21.4885 57.718C25.7839 60.5881 30.834 62.12 36 62.12C42.925 62.1121 49.5641 59.3576 54.4609 54.4609C59.3576 49.5641 62.1121 42.925 62.12 36C62.12 30.834 60.5881 25.7839 57.718 21.4885C54.8479 17.1931 50.7685 13.8452 45.9957 11.8683C41.2229 9.89132 35.971 9.37406 30.9043 10.3819C25.8375 11.3898 21.1833 13.8774 17.5304 17.5304C13.8774 21.1833 11.3898 25.8375 10.3819 30.9043C9.37406 35.971 9.89132 41.2229 11.8683 45.9957C13.8452 50.7685 17.1931 54.8479 21.4885 57.718ZM23.7108 17.6079C27.3484 15.1773 31.6251 13.88 36 13.88C41.865 13.8853 47.4882 16.2175 51.6354 20.3647C55.7825 24.5118 58.1147 30.1351 58.12 36C58.12 40.3749 56.8227 44.6516 54.3921 48.2892C51.9615 51.9268 48.5069 54.762 44.465 56.4362C40.4231 58.1104 35.9755 58.5485 31.6846 57.695C27.3938 56.8415 23.4524 54.7348 20.3588 51.6412C17.2653 48.5477 15.1586 44.6063 14.305 40.3154C13.4515 36.0246 13.8896 31.577 15.5638 27.5351C17.238 23.4932 20.0732 20.0385 23.7108 17.6079ZM34.49 37.5C34.4669 37.9621 34.6047 38.418 34.88 38.79C35.0185 38.9474 35.1919 39.0701 35.3865 39.1482C35.581 39.2264 35.7911 39.2578 36 39.24C36.3598 39.2488 36.7122 39.1361 37 38.92C37.2815 38.6927 37.4671 38.3679 37.52 38.01C37.6258 37.6022 37.832 37.2274 38.12 36.92C38.5422 36.4774 38.9932 36.0631 39.47 35.68C40.1 35.13 40.61 34.65 41 34.26C41.4054 33.8417 41.7428 33.3626 42 32.84C42.2682 32.2713 42.4016 31.6485 42.39 31.02C42.3958 30.1568 42.1222 29.3148 41.61 28.62C41.0576 27.8856 40.3187 27.3125 39.47 26.96C38.4866 26.5449 37.4272 26.3405 36.36 26.36C35.3108 26.3613 34.2682 26.5267 33.27 26.85C32.2873 27.157 31.3617 27.6232 30.53 28.23C30.2601 28.4231 30.035 28.6721 29.87 28.96C29.7295 29.2494 29.6609 29.5684 29.67 29.89C29.6549 30.4008 29.8215 30.9004 30.14 31.3C30.272 31.4785 30.4437 31.6239 30.6415 31.7245C30.8394 31.8252 31.058 31.8784 31.28 31.88C31.8037 31.83 32.3078 31.6551 32.75 31.37L33.39 31.05C33.8212 30.7934 34.2727 30.5726 34.74 30.39C35.1298 30.2414 35.5429 30.1635 35.96 30.16C36.382 30.1361 36.7993 30.2598 37.14 30.51C37.2813 30.6211 37.394 30.7644 37.4688 30.9279C37.5436 31.0914 37.5783 31.2704 37.57 31.45C37.5753 31.8295 37.4674 32.202 37.26 32.52C36.9867 32.9288 36.6789 33.3136 36.34 33.67C35.8217 34.1874 35.3714 34.7687 35 35.4C34.6489 36.0432 34.473 36.7674 34.49 37.5ZM33.44 43.045C33.44 43.7323 33.7051 44.3931 34.18 44.89C34.4154 45.1335 34.6985 45.3259 35.0117 45.4549C35.3249 45.584 35.6614 45.647 36 45.64C36.3543 45.662 36.7094 45.6112 37.0434 45.4907C37.3773 45.3703 37.6831 45.1827 37.9418 44.9396C38.2005 44.6964 38.4066 44.4029 38.5475 44.0771C38.6885 43.7512 38.7612 43.4 38.7612 43.045C38.7612 42.69 38.6885 42.3387 38.5475 42.0129C38.4066 41.687 38.2005 41.3935 37.9418 41.1504C37.6831 40.9072 37.3773 40.7197 37.0434 40.5992C36.7094 40.4788 36.3543 40.428 36 40.45C35.6614 40.4429 35.3249 40.5059 35.0117 40.635C34.6985 40.764 34.4154 40.9564 34.18 41.2C33.7051 41.6968 33.44 42.3576 33.44 43.045Z" fill="black"/>
</svg>
