<svg width="72" height="72" viewBox="0 0 72 72" fill="none" xmlns="http://www.w3.org/2000/svg">
<path fill-rule="evenodd" clip-rule="evenodd" d="M56.5851 9.08283C58.3062 10.7788 59.4635 12.9634 59.9 15.34C61 21 60.09 26.59 57.4 30.37C56.1825 31.9846 54.7908 33.4602 53.25 34.77L52.45 35.51C50.59 37.24 48.7 38.89 47.25 40.12C46.8355 40.4793 46.3169 40.6966 45.77 40.74H45.54C44.8389 40.7373 44.1675 40.457 43.6727 39.9603C43.1779 39.4636 42.9 38.7911 42.9 38.09V36.09C39.21 35.77 34.67 34.41 32.21 31.84C28.92 28.42 28.1 23.69 28 20.32C27.84 14.42 29.86 9.85998 33.71 7.47998C36.73 5.60998 40.85 5.20998 43.78 5.20998C45.963 5.20773 48.1407 5.42549 50.28 5.85998C52.6627 6.2616 54.8641 7.38682 56.5851 9.08283ZM50.57 31.85C51.8861 30.73 53.0825 29.4767 54.14 28.11C56.56 24.65 56.68 19.65 56 16.11C55.705 14.5092 54.9202 13.0395 53.7541 11.9039C52.588 10.7682 51.0981 10.0226 49.49 9.76998C47.6201 9.39465 45.7173 9.20705 43.81 9.20998C40.38 9.20998 37.55 9.80998 35.81 10.88C32.33 13.04 31.93 17.54 32.02 20.2C32.11 22.86 32.7 26.57 35.11 29.08C37.04 31.08 41.44 32.16 44.6 32.16C45.2153 32.16 45.8054 32.4044 46.2405 32.8395C46.6756 33.2746 46.92 33.8647 46.92 34.48V35.16C47.4035 34.7356 47.8927 34.2882 48.397 33.827L48.3972 33.8268L48.3988 33.8253C48.8328 33.4284 49.2778 33.0213 49.74 32.61L50.57 31.85ZM50.29 44.4601C49.7596 44.4601 49.2509 44.6708 48.8758 45.0458C48.5007 45.4209 48.29 45.9296 48.29 46.4601V49.9401H15.64V22.1801H22.39C22.9204 22.1801 23.4292 21.9693 23.8042 21.5943C24.1793 21.2192 24.39 20.7105 24.39 20.1801C24.39 19.6496 24.1793 19.1409 23.8042 18.7658C23.4292 18.3908 22.9204 18.1801 22.39 18.1801H15.64C14.5791 18.1801 13.5617 18.6015 12.8116 19.3516C12.0614 20.1018 11.64 21.1192 11.64 22.1801V62.7901C11.64 63.8509 12.0614 64.8683 12.8116 65.6185C13.5617 66.3686 14.5791 66.7901 15.64 66.7901H48.29C49.3509 66.7901 50.3683 66.3686 51.1184 65.6185C51.8686 64.8683 52.29 63.8509 52.29 62.7901V46.4601C52.29 45.9296 52.0793 45.4209 51.7042 45.0458C51.3292 44.6708 50.8204 44.4601 50.29 44.4601ZM15.64 62.7901V53.9401H48.29V62.7901H15.64ZM31.96 60.18C32.9099 60.18 33.68 59.4099 33.68 58.46C33.68 57.5101 32.9099 56.74 31.96 56.74C31.0101 56.74 30.24 57.5101 30.24 58.46C30.24 59.4099 31.0101 60.18 31.96 60.18ZM51.65 16.42H38C37.5359 16.42 37.0907 16.6044 36.7626 16.9326C36.4344 17.2608 36.25 17.7059 36.25 18.17C36.25 18.6342 36.4344 19.0793 36.7626 19.4075C37.0907 19.7357 37.5359 19.92 38 19.92H51.65C52.1141 19.92 52.5592 19.7357 52.8874 19.4075C53.2156 19.0793 53.4 18.6342 53.4 18.17C53.4 17.7059 53.2156 17.2608 52.8874 16.9326C52.5592 16.6044 52.1141 16.42 51.65 16.42ZM38 22.17H44.83C45.2941 22.17 45.7392 22.3544 46.0674 22.6826C46.3956 23.0108 46.58 23.4559 46.58 23.92C46.58 24.3842 46.3956 24.8293 46.0674 25.1575C45.7392 25.4857 45.2941 25.67 44.83 25.67H38C37.5359 25.67 37.0907 25.4857 36.7626 25.1575C36.4344 24.8293 36.25 24.3842 36.25 23.92C36.25 23.4559 36.4344 23.0108 36.7626 22.6826C37.0907 22.3544 37.5359 22.17 38 22.17Z" fill="black"/>
</svg>
