<svg width="72" height="72" viewBox="0 0 72 72" fill="none" xmlns="http://www.w3.org/2000/svg">
<path fill-rule="evenodd" clip-rule="evenodd" d="M33.3 62.21C32.7667 62.2092 32.239 62.1017 31.7478 61.8939C31.2567 61.6861 30.812 61.3822 30.44 61L11 41.56C10.6179 41.188 10.314 40.7434 10.1062 40.2522C9.89837 39.7611 9.79088 39.2333 9.79004 38.7C9.79288 38.1655 9.90124 37.6369 10.1089 37.1444C10.3165 36.6519 10.6194 36.2052 11 35.83L35.83 11C36.2237 10.6099 36.6928 10.304 37.2086 10.1011C37.7243 9.89827 38.2761 9.80261 38.83 9.82L57.83 10.28C58.8823 10.2799 59.8922 10.6945 60.6409 11.4338C61.3897 12.1732 61.8169 13.1778 61.83 14.23L62.29 33.23C62.3122 33.7846 62.2188 34.3377 62.0156 34.8541C61.8125 35.3706 61.5041 35.8392 61.11 36.23L60.78 36.55L36.17 61C35.7969 61.3834 35.3506 61.688 34.8576 61.8958C34.3647 62.1037 33.835 62.2105 33.3 62.21ZM38.7 13.79L38.33 14.13L13.8 38.66L33.27 58.2L58.2 33.34L57.75 12.25V14.25L38.7 13.79ZM48 28.8C47.1782 28.793 46.3722 28.5738 45.66 28.1636C44.9478 27.7534 44.3537 27.1662 43.9353 26.4589C43.5168 25.7515 43.2882 24.9481 43.2717 24.1264C43.2551 23.3047 43.4511 22.4927 43.8407 21.7691C44.2302 21.0454 44.8002 20.4347 45.4952 19.9961C46.1903 19.5576 46.9868 19.306 47.8077 19.2659C48.6285 19.2257 49.4459 19.3983 50.1804 19.767C50.9149 20.1357 51.5417 20.6878 52 21.37C52.5331 22.1565 52.8181 23.0848 52.8181 24.035C52.8181 24.9852 52.5331 25.9135 52 26.7C51.5569 27.3514 50.9601 27.8838 50.2625 28.25C49.5649 28.6163 48.7879 28.8051 48 28.8ZM48 23.27C47.8922 23.2577 47.783 23.2682 47.6796 23.301C47.5762 23.3339 47.4808 23.3882 47.3999 23.4604C47.3189 23.5326 47.2541 23.6212 47.2097 23.7202C47.1654 23.8192 47.1424 23.9265 47.1424 24.035C47.1424 24.1435 47.1654 24.2508 47.2097 24.3498C47.2541 24.4489 47.3189 24.5374 47.3999 24.6096C47.4808 24.6818 47.5762 24.7361 47.6796 24.769C47.783 24.8018 47.8922 24.8123 48 24.8C48.1298 24.7988 48.2572 24.7652 48.3707 24.7024C48.4842 24.6395 48.5802 24.5493 48.65 24.44C48.7207 24.3238 48.7593 24.191 48.762 24.0551C48.7646 23.9191 48.7313 23.7849 48.6652 23.666C48.5992 23.5472 48.5028 23.4479 48.386 23.3783C48.2692 23.3088 48.136 23.2714 48 23.27ZM34.48 48.89C34.1514 48.8911 33.8258 48.8272 33.522 48.7019C33.2182 48.5766 32.9422 48.3925 32.71 48.16L23.84 39.29C23.3705 38.8206 23.1068 38.1839 23.1068 37.52C23.1068 36.8561 23.3705 36.2194 23.84 35.75C24.3094 35.2806 24.9461 35.0168 25.61 35.0168C26.2738 35.0168 26.9105 35.2806 27.38 35.75L36.25 44.62C36.6005 44.9697 36.8393 45.4155 36.9362 45.9011C37.033 46.3866 36.9835 46.89 36.7939 47.3473C36.6043 47.8047 36.2832 48.1955 35.8712 48.4701C35.4593 48.7447 34.9751 48.8909 34.48 48.89ZM39.4812 43.6965C39.785 43.8235 40.1108 43.8893 40.4401 43.89C40.7679 43.8902 41.0925 43.8248 41.3948 43.6977C41.697 43.5706 41.9708 43.3844 42.2001 43.15C42.4326 42.9186 42.6171 42.6436 42.743 42.3407C42.8689 42.0378 42.9337 41.713 42.9337 41.385C42.9337 41.057 42.8689 40.7322 42.743 40.4293C42.6171 40.1264 42.4326 39.8514 42.2001 39.62L33.3301 30.75C33.1034 30.4965 32.8274 30.2918 32.519 30.1486C32.2105 30.0054 31.8761 29.9266 31.5361 29.9171C31.1962 29.9076 30.8579 29.9675 30.5419 30.0933C30.2259 30.219 29.9389 30.4079 29.6984 30.6484C29.4579 30.8888 29.2691 31.1758 29.1433 31.4918C29.0176 31.8078 28.9577 32.1461 28.9672 32.4861C28.9767 32.826 29.0555 33.1605 29.1987 33.4689C29.3419 33.7774 29.5465 34.0534 29.8001 34.28L38.6701 43.15C38.9018 43.3838 39.1775 43.5696 39.4812 43.6965Z" fill="black"/>
</svg>
