<svg width="72" height="72" viewBox="0 0 72 72" fill="none" xmlns="http://www.w3.org/2000/svg">
<path fill-rule="evenodd" clip-rule="evenodd" d="M52.0501 30.05H54.6601C55.3231 30.05 55.959 30.3134 56.4279 30.7822C56.8967 31.2511 57.1601 31.887 57.1601 32.55V53.22C57.1574 55.7202 56.1631 58.1172 54.3952 59.8851C52.6273 61.653 50.2303 62.6474 47.7301 62.65H24.2701C21.7699 62.6474 19.3729 61.653 17.605 59.8851C15.8371 58.1172 14.8427 55.7202 14.8401 53.22V32.55C14.8401 31.887 15.1035 31.2511 15.5723 30.7822C16.0412 30.3134 16.677 30.05 17.3401 30.05H47.0501V25.4C47.0528 22.6951 46.0632 20.0831 44.2689 18.0589C42.4745 16.0348 40 14.7391 37.3143 14.4174C34.6285 14.0957 31.918 14.7703 29.6964 16.3134C27.4748 17.8565 25.8963 20.1609 25.2601 22.79C25.1036 23.4345 24.6975 23.9904 24.1312 24.3355C23.5648 24.6805 22.8846 24.7865 22.2401 24.63C21.5956 24.4735 21.0397 24.0674 20.6946 23.5011C20.3496 22.9347 20.2436 22.2545 20.4001 21.61C21.3239 17.7911 23.6165 14.4438 26.8434 12.2022C30.0702 9.96065 34.0072 8.9806 37.9084 9.44775C41.8096 9.91491 45.4039 11.7968 48.0103 14.7369C50.6166 17.677 52.054 21.471 52.0501 25.4V30.05ZM50.8597 56.3496C51.6899 55.5194 52.1574 54.3941 52.1601 53.22V35.05H19.8401V53.22C19.8427 54.3941 20.3103 55.5194 21.1405 56.3496C21.9707 57.1798 23.096 57.6474 24.2701 57.65H47.7301C48.9042 57.6474 50.0294 57.1798 50.8597 56.3496ZM40.2201 46.35C40.2201 48.6806 38.3307 50.57 36.0001 50.57C33.6694 50.57 31.7801 48.6806 31.7801 46.35C31.7801 44.0194 33.6694 42.13 36.0001 42.13C38.3307 42.13 40.2201 44.0194 40.2201 46.35Z" fill="black"/>
</svg>
