<svg width="72" height="72" viewBox="0 0 72 72" fill="none" xmlns="http://www.w3.org/2000/svg">
<path d="M9.99999 36C9.98997 36.7419 10.1291 37.4783 10.4091 38.1654C10.6891 38.8525 11.1043 39.4764 11.63 40L32.32 60.64C33.0147 61.4361 33.9961 61.925 35.05 62C36.32 62 37.8 61 37.8 58.38V45.75C42.2253 46.1122 46.4521 47.7437 49.9731 50.4487C53.4941 53.1538 56.1597 56.8174 57.65 61C57.754 61.2977 57.9479 61.5557 58.205 61.7382C58.4621 61.9208 58.7697 62.0188 59.085 62.0188C59.4003 62.0188 59.7078 61.9208 59.9649 61.7382C60.222 61.5557 60.416 61.2977 60.52 61C61.8588 57.2205 62.3054 53.1825 61.8247 49.2017C61.3441 45.221 59.9492 41.4054 57.7493 38.0531C55.5493 34.7009 52.6038 31.9029 49.1431 29.8779C45.6824 27.8529 41.8002 26.6557 37.8 26.38V13.62C37.8 11 36.32 10 35.05 10C33.9961 10.075 33.0147 10.5639 32.32 11.36L11.63 32.05C11.1103 32.5677 10.6986 33.1835 10.4188 33.8615C10.139 34.5396 9.99665 35.2665 9.99999 36Z" fill="black"/>
</svg>
