<svg width="72" height="72" viewBox="0 0 72 72" fill="none" xmlns="http://www.w3.org/2000/svg">
<path d="M35.9999 9.86548C30.8347 9.86548 25.7855 11.3977 21.4905 14.2686C17.1955 17.1394 13.8476 21.2198 11.8701 25.9941C9.89253 30.7684 9.3741 36.0222 10.3803 41.0912C11.3865 46.1603 13.8723 50.817 17.5232 54.4728C21.1741 58.1286 25.8264 60.6192 30.8919 61.6299C35.9573 62.6406 41.2086 62.1259 45.9817 60.1509C50.7549 58.1759 54.8356 54.8293 57.7082 50.5341C60.5807 46.2389 62.1159 41.1881 62.1199 36.02C62.1172 29.0877 59.3651 22.4397 54.4678 17.536C49.5705 12.6322 42.9284 9.87343 35.9999 9.86548ZM46.5399 35.3296L38.2599 42.2735C37.624 42.8002 36.8254 43.0901 35.9999 43.0939C35.1723 43.0924 34.3718 42.7982 33.7399 42.2635L25.4599 35.3296C25.2084 35.1181 25.001 34.859 24.8496 34.5673C24.6982 34.2756 24.6057 33.9569 24.5773 33.6293C24.549 33.3018 24.5854 32.972 24.6845 32.6585C24.7836 32.3451 24.9435 32.0543 25.1549 31.8027C25.3663 31.551 25.6252 31.3436 25.9168 31.192C26.2084 31.0405 26.5269 30.948 26.8542 30.9196C27.1815 30.8913 27.5112 30.9277 27.8245 31.0269C28.1377 31.126 28.4284 31.2859 28.6799 31.4975L35.9999 37.6409L43.3299 31.4975C43.5796 31.2737 43.8717 31.1025 44.1889 30.9939C44.5061 30.8854 44.8419 30.8418 45.1762 30.8657C45.5106 30.8897 45.8367 30.9806 46.1352 31.1332C46.4338 31.2858 46.6986 31.4969 46.9139 31.754C47.1292 32.0111 47.2907 32.3088 47.3887 32.6296C47.4867 32.9503 47.5192 33.2875 47.4843 33.6211C47.4494 33.9547 47.3478 34.2779 47.1856 34.5714C47.0233 34.8649 46.8037 35.1227 46.5399 35.3296Z" fill="black"/>
</svg>
