<svg width="72" height="72" viewBox="0 0 72 72" fill="none" xmlns="http://www.w3.org/2000/svg">
<path fill-rule="evenodd" clip-rule="evenodd" d="M52.1629 31.9561C51.7227 32.2357 51.2114 32.3828 50.69 32.38H21.31C20.7886 32.3828 20.2773 32.2357 19.8371 31.9561C19.397 31.6766 19.0464 31.2765 18.8272 30.8033C18.6081 30.3302 18.5295 29.804 18.6009 29.2875C18.6723 28.771 18.8907 28.2859 19.23 27.89L32.85 11.89C33.2242 11.4119 33.7022 11.0252 34.248 10.7593C34.7938 10.4934 35.3929 10.3552 36 10.3552C36.6071 10.3552 37.2062 10.4934 37.752 10.7593C38.2978 11.0252 38.7758 11.4119 39.15 11.89L52.77 27.89C53.1093 28.2859 53.3277 28.771 53.3991 29.2875C53.4705 29.804 53.3919 30.3302 53.1728 30.8033C52.9536 31.2765 52.603 31.6766 52.1629 31.9561ZM19.8371 40.0439C20.2773 39.7643 20.7886 39.6172 21.31 39.62H50.69C51.2114 39.6172 51.7227 39.7643 52.1629 40.0439C52.603 40.3234 52.9536 40.7235 53.1728 41.1967C53.3919 41.6698 53.4705 42.196 53.3991 42.7125C53.3277 43.229 53.1093 43.7141 52.77 44.11L39.15 60.11C38.7758 60.5881 38.2978 60.9748 37.752 61.2407C37.2062 61.5066 36.6071 61.6448 36 61.6448C35.3929 61.6448 34.7938 61.5066 34.248 61.2407C33.7022 60.9748 33.2242 60.5881 32.85 60.11L19.23 44.11C18.8907 43.7141 18.6723 43.229 18.6009 42.7125C18.5295 42.196 18.6081 41.6698 18.8272 41.1967C19.0464 40.7235 19.397 40.3234 19.8371 40.0439Z" fill="black" fill-opacity="0.3"/>
</svg>
