<svg width="72" height="72" viewBox="0 0 72 72" fill="none" xmlns="http://www.w3.org/2000/svg">
<path d="M35.9999 9.86548C30.8347 9.86548 25.7855 11.3977 21.4905 14.2686C17.1955 17.1394 13.8476 21.2198 11.8701 25.9941C9.89253 30.7684 9.3741 36.0222 10.3803 41.0912C11.3865 46.1603 13.8723 50.817 17.5232 54.4728C21.1741 58.1286 25.8264 60.6192 30.8919 61.6299C35.9573 62.6406 41.2086 62.1259 45.9817 60.1509C50.7549 58.1759 54.8356 54.8293 57.7082 50.5341C60.5807 46.2389 62.1159 41.1881 62.1199 36.02C62.1172 29.0877 59.3651 22.4397 54.4678 17.536C49.5705 12.6322 42.9284 9.87343 35.9999 9.86548ZM46.8499 40.1923C46.6398 40.4449 46.3818 40.6534 46.0908 40.8059C45.7998 40.9583 45.4816 41.0516 45.1544 41.0804C44.8272 41.1093 44.4976 41.073 44.1844 40.9738C43.8713 40.8747 43.5809 40.7145 43.3299 40.5025L35.9999 34.3591L28.6699 40.5025C28.2258 40.887 27.6571 41.0968 27.0699 41.0928C26.5554 41.0947 26.0529 40.9376 25.631 40.6432C25.209 40.3488 24.8881 39.9312 24.712 39.4476C24.5359 38.9639 24.5132 38.4377 24.6471 37.9407C24.7809 37.4436 25.0648 37 25.4599 36.6704L33.7399 29.7265C34.3743 29.1975 35.174 28.9078 35.9999 28.9078C36.8258 28.9078 37.6255 29.1975 38.2599 29.7265L46.5399 36.6704C47.0452 37.098 47.3612 37.7079 47.4193 38.3675C47.4773 39.0271 47.2727 39.6829 46.8499 40.1923Z" fill="black"/>
</svg>
