<svg width="72" height="72" viewBox="0 0 72 72" fill="none" xmlns="http://www.w3.org/2000/svg">
<path d="M36 9.88C30.8339 9.88 25.7839 11.4119 21.4885 14.282C17.1931 17.1521 13.8452 21.2315 11.8683 26.0043C9.89129 30.7771 9.37403 36.029 10.3819 41.0958C11.3897 46.1625 13.8774 50.8167 17.5304 54.4696C21.1833 58.1226 25.8374 60.6103 30.9042 61.6181C35.971 62.626 41.2229 62.1087 45.9957 60.1317C50.7685 58.1548 54.8479 54.8069 57.718 50.5115C60.5881 46.2161 62.12 41.1661 62.12 36C62.112 29.075 59.3576 22.4359 54.4608 17.5391C49.5641 12.6424 42.925 9.88794 36 9.88ZM38.07 49.16C37.5121 49.6919 36.7708 49.9886 36 49.9886C35.2292 49.9886 34.4879 49.6919 33.93 49.16C33.4021 48.592 33.1087 47.8454 33.1087 47.07C33.1087 46.2946 33.4021 45.548 33.93 44.98C34.4819 44.4365 35.2254 44.1318 36 44.1318C36.7746 44.1318 37.5181 44.4365 38.07 44.98C38.5979 45.548 38.8913 46.2946 38.8913 47.07C38.8913 47.8454 38.5979 48.592 38.07 49.16ZM38.93 25.09L37.49 40.26C37.4644 40.6855 37.2911 41.0887 37 41.4C36.727 41.6502 36.3702 41.7889 36 41.7889C35.6297 41.7889 35.2729 41.6502 35 41.4C34.7089 41.0887 34.5356 40.6855 34.51 40.26L33.07 25.05V24.66C33.0556 24.2943 33.1236 23.9301 33.269 23.5943C33.4144 23.2585 33.6335 22.9597 33.91 22.72C34.5218 22.2529 35.2702 21.9998 36.04 21.9998C36.8097 21.9998 37.5582 22.2529 38.17 22.72C38.4447 22.9606 38.6619 23.2599 38.8055 23.5956C38.9492 23.9314 39.0156 24.2951 39 24.66L38.93 25.09Z" fill="black"/>
</svg>
