<svg width="72" height="72" viewBox="0 0 72 72" fill="none" xmlns="http://www.w3.org/2000/svg">
<path d="M55.89 20.21H38.31V18C38.31 16.5201 37.7221 15.1008 36.6756 14.0544C35.6292 13.0079 34.2099 12.42 32.73 12.42H18.11C15.8565 12.4227 13.696 13.3191 12.1025 14.9126C10.509 16.506 9.61263 18.6665 9.60999 20.92V51.59C9.61263 53.3131 10.2983 54.9649 11.5167 56.1833C12.7351 57.4017 14.3869 58.0874 16.11 58.09H55.89C57.6131 58.0874 59.2648 57.4017 60.4833 56.1833C61.7017 54.9649 62.3873 53.3131 62.39 51.59V26.71C62.3873 24.9869 61.7017 23.3352 60.4833 22.1168C59.2648 20.8984 57.6131 20.2127 55.89 20.21Z" fill="black"/>
</svg>
