<svg width="72" height="72" viewBox="0 0 72 72" fill="none" xmlns="http://www.w3.org/2000/svg">
<path d="M61.83 25C61.3735 22.2086 60.1138 19.6107 58.2049 17.5235C56.296 15.4364 53.8204 13.9504 51.0808 13.2472C48.3411 12.544 45.456 12.654 42.7778 13.5637C40.0997 14.4735 37.7445 16.1436 36 18.37C34.2555 16.1436 31.9003 14.4735 29.2222 13.5637C26.544 12.654 23.6588 12.544 20.9192 13.2472C18.1796 13.9504 15.704 15.4364 13.7951 17.5235C11.8862 19.6107 10.6265 22.2086 10.17 25C9.48869 29.481 10.5634 34.052 13.17 37.76C14.9944 40.5788 17.0623 43.2323 19.35 45.69C23.4156 49.7876 27.7884 53.5686 32.43 57L34.77 58.82C35.1218 59.093 35.5547 59.2408 36 59.24C36.4453 59.2408 36.8782 59.093 37.23 58.82L39.57 57C44.2158 53.5626 48.5919 49.7749 52.66 45.67C54.9501 43.2143 57.0181 40.5606 58.84 37.74C61.4361 34.035 62.5068 29.4731 61.83 25Z" fill="black"/>
</svg>
