<svg width="72" height="72" viewBox="0 0 72 72" fill="none" xmlns="http://www.w3.org/2000/svg">
<path opacity="0.3" d="M56.22 41.11L54.75 40.65L40.61 46C38.4486 46.8076 36.0744 46.843 33.89 46.1L17.26 40.4L15.67 40.94C14.784 41.2392 14.0142 41.8088 13.4689 42.5685C12.9236 43.3283 12.6303 44.2399 12.6303 45.175C12.6303 46.1102 12.9236 47.0218 13.4689 47.7815C14.0142 48.5412 14.784 49.1108 15.67 49.41L33.89 55.63C34.9225 55.9872 36.0074 56.1697 37.1 56.17C38.2987 56.1669 39.4873 55.9502 40.61 55.53L56.46 49.53C57.3311 49.2023 58.0783 48.6108 58.5971 47.838C59.1159 47.0652 59.3806 46.1498 59.3542 45.2194C59.3277 44.289 59.0115 43.3901 58.4497 42.648C57.8878 41.906 57.1083 41.3578 56.22 41.08V41.11Z" fill="black"/>
<path d="M56.22 22L37.9 16.29C35.8877 15.6559 33.7251 15.6839 31.73 16.37L15.67 21.83C14.784 22.1292 14.0142 22.6988 13.4689 23.4585C12.9236 24.2183 12.6303 25.1299 12.6303 26.065C12.6303 27.0002 12.9236 27.9118 13.4689 28.6715C14.0142 29.4312 14.784 30.0008 15.67 30.3L33.89 36.52C34.9225 36.8772 36.0074 37.0597 37.1 37.06C38.2987 37.0569 39.4873 36.8402 40.61 36.42L56.46 30.42C57.3205 30.0862 58.0566 29.4941 58.5671 28.7251C59.0777 27.9561 59.3376 27.048 59.3113 26.1253C59.285 25.2027 58.9737 24.3108 58.4202 23.5722C57.8667 22.8335 57.0981 22.2843 56.22 22Z" fill="black"/>
<path opacity="0.6" d="M56.22 31.55L54.76 31.09L40.61 36.42C39.4873 36.8401 38.2987 37.0568 37.1 37.06C36.0074 37.0596 34.9225 36.8771 33.89 36.52L17.26 30.85L15.67 31.39C14.784 31.6892 14.0142 32.2588 13.4689 33.0185C12.9236 33.7782 12.6303 34.6898 12.6303 35.625C12.6303 36.5601 12.9236 37.4717 13.4689 38.2315C14.0142 38.9912 14.784 39.5608 15.67 39.86L33.89 46.08C36.0744 46.8229 38.4486 46.7876 40.61 45.98L56.46 39.98C57.3348 39.6543 58.0856 39.063 58.6073 38.289C59.129 37.515 59.3952 36.5971 59.3688 35.6641C59.3423 34.731 59.0244 33.8297 58.4597 33.0865C57.895 32.3433 57.1118 31.7955 56.22 31.52V31.55Z" fill="black"/>
</svg>
