<svg width="72" height="72" viewBox="0 0 72 72" fill="none" xmlns="http://www.w3.org/2000/svg">
<path fill-rule="evenodd" clip-rule="evenodd" d="M56.6599 26.3199H57.5599C58.0861 26.3186 58.6073 26.4211 59.0937 26.6215C59.5802 26.822 60.0223 27.1164 60.3948 27.488C60.7673 27.8595 61.0629 28.3009 61.2645 28.7869C61.4662 29.2729 61.5699 29.7938 61.5699 30.3199V37.7899C61.5699 38.8508 61.1485 39.8682 60.3984 40.6184C59.6482 41.3685 58.6308 41.7899 57.5699 41.7899H55.4199C54.8895 41.7899 54.3808 41.5792 54.0057 41.2042C53.6307 40.8291 53.4199 40.3204 53.4199 39.7899V31.8499C53.4199 27.2325 51.5857 22.8042 48.3207 19.5392C45.0557 16.2742 40.6274 14.4399 36.0099 14.4399C31.3925 14.4399 26.9642 16.2742 23.6992 19.5392C20.4342 22.8042 18.5999 27.2325 18.5999 31.8499V39.8199V50.5699C18.5999 51.3899 18.8899 55.5699 23.5999 55.5699H28.9999C29.3295 54.8042 29.8745 54.1507 30.5687 53.6891C31.2629 53.2275 32.0763 52.9777 32.9099 52.9699H38.7099C39.2914 52.9419 39.8725 53.0322 40.418 53.2354C40.9636 53.4385 41.4622 53.7504 41.8836 54.152C42.305 54.5535 42.6406 55.0365 42.8698 55.5716C43.099 56.1067 43.2172 56.6828 43.2172 57.2649C43.2172 57.8471 43.099 58.4232 42.8698 58.9583C42.6406 59.4934 42.305 59.9763 41.8836 60.3779C41.4622 60.7795 40.9636 61.0914 40.418 61.2945C39.8725 61.4977 39.2914 61.588 38.7099 61.5599H32.8899C32.1684 61.5579 31.4591 61.3735 30.828 61.0238C30.1968 60.6741 29.6643 60.1706 29.2799 59.5599H23.5799C16.9899 59.5599 14.5799 54.1799 14.5799 50.5599V41.7899H14.4399C13.3791 41.7899 12.3617 41.3685 11.6115 40.6184C10.8614 39.8682 10.4399 38.8508 10.4399 37.7899V30.3199C10.4399 29.2591 10.8614 28.2417 11.6115 27.4915C12.3617 26.7414 13.3791 26.3199 14.4399 26.3199H15.3399C16.5525 21.7665 19.2354 17.7412 22.9716 14.8698C26.7077 11.9984 31.2878 10.4417 35.9999 10.4417C40.7121 10.4417 45.2922 11.9984 49.0283 14.8698C52.7645 17.7412 55.4474 21.7665 56.6599 26.3199ZM27.7554 21.721C30.1958 20.0903 33.065 19.22 36 19.22C39.935 19.2226 43.7081 20.787 46.4906 23.5694C49.273 26.3519 50.8374 30.125 50.84 34.06C50.84 36.995 49.9697 39.8642 48.3391 42.3046C46.7084 44.7451 44.3907 46.6471 41.6791 47.7703C38.9674 48.8935 35.9836 49.1874 33.1049 48.6148C30.2262 48.0422 27.582 46.6288 25.5066 44.5534C23.4312 42.478 22.0178 39.8338 21.4452 36.9551C20.8726 34.0764 21.1665 31.0926 22.2897 28.3809C23.4129 25.6693 25.315 23.3516 27.7554 21.721ZM41.8411 42.8701C43.439 41.8276 44.6643 40.3042 45.34 38.52C45.75 37.17 45.71 36.52 45.39 36.52C42.4116 36.9724 39.4026 37.193 36.39 37.18H36.05C33.0375 37.1936 30.0284 36.9729 27.05 36.52C26.67 36.52 26.63 37.17 27.05 38.52C27.7258 40.3042 28.951 41.8276 30.549 42.8701C32.1469 43.9126 34.0348 44.4203 35.94 44.32H36.45C38.3553 44.4203 40.2432 43.9126 41.8411 42.8701Z" fill="black"/>
</svg>
