<svg width="72" height="72" viewBox="0 0 72 72" fill="none" xmlns="http://www.w3.org/2000/svg">
<path fill-rule="evenodd" clip-rule="evenodd" d="M16.03 10.98H55.46C58.2932 10.98 60.59 13.2768 60.59 16.11V28.54C60.59 31.3732 58.2932 33.67 55.46 33.67H16.03C13.1968 33.67 10.9 31.3732 10.9 28.54V16.11C10.9 13.2768 13.1968 10.98 16.03 10.98ZM15.96 37.29H56.05C58.8446 37.29 61.11 39.5554 61.11 42.35V55.96C61.11 58.7545 58.8446 61.02 56.05 61.02H15.96C13.1655 61.02 10.9 58.7545 10.9 55.96V42.35C10.9 39.5554 13.1655 37.29 15.96 37.29Z" fill="black"/>
</svg>
