<svg width="72" height="72" viewBox="0 0 72 72" fill="none" xmlns="http://www.w3.org/2000/svg">
<path d="M56.22 31.6L20.09 14.3C19.1926 13.8725 18.1882 13.7222 17.205 13.8682C16.2217 14.0143 15.3044 14.4501 14.57 15.12C13.8798 15.7159 13.3856 16.5062 13.1518 17.3876C12.9181 18.269 12.9558 19.2004 13.26 20.06C15.0817 24.4264 17.1483 28.6865 19.45 32.82C19.6295 33.1312 19.8896 33.3883 20.2028 33.5642C20.516 33.7402 20.8708 33.8285 21.23 33.82L38 33.71C38.4767 33.7005 38.9458 33.8309 39.3492 34.085C39.7526 34.3391 40.0727 34.7059 40.27 35.14C40.4443 35.52 40.5213 35.9374 40.4941 36.3546C40.4668 36.7718 40.3362 37.1757 40.114 37.5299C39.8918 37.884 39.585 38.1773 39.2212 38.3833C38.8574 38.5893 38.448 38.7016 38.03 38.71L21 38.88C20.6476 38.8786 20.301 38.9703 19.9955 39.1459C19.6899 39.3216 19.4362 39.5748 19.26 39.88C17.0912 43.7522 15.1318 47.7379 13.39 51.82C13.0693 52.6838 13.019 53.6248 13.2458 54.5179C13.4727 55.411 13.9659 56.2139 14.66 56.82C15.5929 57.67 16.8079 58.1439 18.07 58.15C18.808 58.1509 19.5365 57.9833 20.2 57.66L56.2 40.41C57.0334 40.0093 57.7367 39.3813 58.2289 38.5985C58.7211 37.8156 58.9822 36.9097 58.9822 35.985C58.9822 35.0603 58.7211 34.1543 58.2289 33.3715C57.7367 32.5887 57.0334 31.9607 56.2 31.56L56.22 31.6Z" fill="black"/>
</svg>
