<svg width="72" height="72" viewBox="0 0 72 72" fill="none" xmlns="http://www.w3.org/2000/svg">
<path d="M61.75 14.2C61.7368 13.1478 61.3096 12.1432 60.5609 11.4038C59.8122 10.6645 58.8022 10.2499 57.75 10.25L38.75 9.79C38.1959 9.77142 37.6438 9.86654 37.1278 10.0695C36.6119 10.2724 36.143 10.5789 35.75 10.97L11 35.83C10.2422 36.5909 9.81668 37.6211 9.81668 38.695C9.81668 39.7689 10.2422 40.7991 11 41.56L30.44 61C31.2022 61.7554 32.2319 62.1792 33.305 62.1792C34.3781 62.1792 35.4078 61.7554 36.17 61L60.7 36.5L61.03 36.17C61.4206 35.7767 61.7268 35.3077 61.9297 34.7918C62.1326 34.2759 62.228 33.7241 62.21 33.17L61.75 14.2ZM36.25 48.2C35.7797 48.6678 35.1433 48.9303 34.48 48.9303C33.8167 48.9303 33.1803 48.6678 32.71 48.2L23.84 39.33C23.6075 39.0976 23.4232 38.8216 23.2974 38.5179C23.1716 38.2142 23.1068 37.8887 23.1068 37.56C23.1068 37.2313 23.1716 36.9058 23.2974 36.6021C23.4232 36.2984 23.6075 36.0224 23.84 35.79C24.0724 35.5576 24.3484 35.3732 24.6521 35.2474C24.9558 35.1216 25.2813 35.0568 25.61 35.0568C25.9387 35.0568 26.2642 35.1216 26.5679 35.2474C26.8716 35.3732 27.1475 35.5576 27.38 35.79L36.25 44.66C36.7081 45.1273 36.9646 45.7556 36.9646 46.41C36.9646 47.0644 36.7081 47.6927 36.25 48.16V48.2ZM42.25 43.2C42.02 43.4349 41.7454 43.6216 41.4423 43.749C41.1392 43.8764 40.8138 43.9421 40.485 43.9421C40.1562 43.9421 39.8307 43.8764 39.5277 43.749C39.2246 43.6216 38.95 43.4349 38.72 43.2L29.8 34.28C29.5464 34.0534 29.3418 33.7774 29.1986 33.4689C29.0554 33.1604 28.9766 32.826 28.9671 32.4861C28.9576 32.1461 29.0175 31.8078 29.1433 31.4918C29.269 31.1758 29.4579 30.8888 29.6983 30.6484C29.9388 30.4079 30.2258 30.219 30.5418 30.0933C30.8578 29.9675 31.1961 29.9076 31.5361 29.9171C31.876 29.9266 32.2104 30.0054 32.5189 30.1486C32.8273 30.2918 33.1033 30.4965 33.33 30.75L42.2 39.62C42.4325 39.8514 42.617 40.1264 42.7429 40.4293C42.8688 40.7322 42.9336 41.057 42.9336 41.385C42.9336 41.713 42.8688 42.0378 42.7429 42.3407C42.617 42.6436 42.4325 42.9186 42.2 43.15L42.25 43.2ZM51.17 26.2C50.7184 26.8762 50.0612 27.3892 49.2956 27.6633C48.5301 27.9373 47.6966 27.9579 46.9185 27.7219C46.1403 27.4859 45.4587 27.006 44.9743 26.3528C44.4898 25.6997 44.2283 24.9081 44.2283 24.095C44.2283 23.2818 44.4898 22.4903 44.9743 21.8372C45.4587 21.184 46.1403 20.7041 46.9185 20.4681C47.6966 20.2321 48.5301 20.2527 49.2956 20.5267C50.0612 20.8008 50.7184 21.3138 51.17 21.99C51.5649 22.6121 51.7705 23.3356 51.7616 24.0724C51.7527 24.8092 51.5298 25.5276 51.12 26.14L51.17 26.2Z" fill="black"/>
</svg>
