<svg width="72" height="72" viewBox="0 0 72 72" fill="none" xmlns="http://www.w3.org/2000/svg">
<path d="M35.9999 9.38C30.735 9.38 25.5883 10.9412 21.2106 13.8663C16.833 16.7913 13.421 20.9488 11.4062 25.813C9.39142 30.6771 8.86425 36.0295 9.89139 41.1933C10.9185 46.3571 13.4538 51.1003 17.1767 54.8232C20.8996 58.5461 25.6428 61.0814 30.8066 62.1085C35.9704 63.1356 41.3228 62.6085 46.1869 60.5937C51.0511 58.5789 55.2086 55.1669 58.1336 50.7893C61.0587 46.4116 62.6199 41.2649 62.6199 36C62.6119 28.9424 59.8048 22.1761 54.8143 17.1856C49.8238 12.1951 43.0575 9.38795 35.9999 9.38ZM44.9999 37.59L34.1699 46.43C33.8683 46.6754 33.5034 46.8304 33.1175 46.8771C32.7315 46.9238 32.3402 46.8604 31.9887 46.6941C31.6373 46.5278 31.3401 46.2654 31.1315 45.9373C30.9229 45.6092 30.8114 45.2288 30.8099 44.84V27.16C30.8114 26.7712 30.9229 26.3908 31.1315 26.0627C31.3401 25.7346 31.6373 25.4723 31.9887 25.306C32.3402 25.1397 32.7315 25.0762 33.1175 25.1229C33.5034 25.1696 33.8683 25.3246 34.1699 25.57L44.9999 34.41C45.2445 34.5967 45.4428 34.8372 45.5792 35.113C45.7157 35.3888 45.7867 35.6923 45.7867 36C45.7867 36.3077 45.7157 36.6112 45.5792 36.887C45.4428 37.1628 45.2445 37.4034 44.9999 37.59Z" fill="black"/>
</svg>
