<svg width="72" height="72" viewBox="0 0 72 72" fill="none" xmlns="http://www.w3.org/2000/svg">
<path d="M37.28 5.06995C31.3466 5.06995 25.5464 6.82942 20.6129 10.1259C15.6795 13.4223 11.8343 18.1077 9.56366 23.5894C7.29303 29.0712 6.69893 35.1032 7.85648 40.9227C9.01404 46.7421 11.8713 52.0876 16.0668 56.2831C20.2624 60.4787 25.6079 63.3359 31.4273 64.4935C37.2468 65.6511 43.2788 65.057 48.7605 62.7863C54.2423 60.5157 58.9277 56.6705 62.2241 51.7371C65.5206 46.8036 67.28 41.0034 67.28 35.0699C67.28 27.1135 64.1193 19.4828 58.4932 13.8567C52.8672 8.23065 45.2365 5.06995 37.28 5.06995ZM37.68 31.2799C38.8099 31.2799 39.8934 31.7288 40.6923 32.5277C41.4912 33.3266 41.94 34.4101 41.94 35.5399C41.94 35.9378 41.782 36.3193 41.5007 36.6006C41.2194 36.8819 40.8379 37.0399 40.44 37.0399C40.0422 37.0399 39.6607 36.8819 39.3794 36.6006C39.0981 36.3193 38.94 35.9378 38.94 35.5399C38.9374 35.2066 38.8038 34.8876 38.5681 34.6519C38.3324 34.4162 38.0134 34.2826 37.68 34.2799C37.2822 34.2799 36.9007 34.1219 36.6194 33.8406C36.3381 33.5593 36.18 33.1778 36.18 32.7799C36.18 32.3821 36.3381 32.0006 36.6194 31.7193C36.9007 31.438 37.2822 31.2799 37.68 31.2799ZM37.51 27.9999C37.51 27.6021 37.6681 27.2206 37.9494 26.9393C38.2307 26.658 38.6122 26.4999 39.01 26.4999C41.0584 26.5026 43.022 27.3182 44.4695 28.7675C45.917 30.2169 46.73 32.1816 46.73 34.2299C46.73 34.6278 46.572 35.0093 46.2907 35.2906C46.0094 35.5719 45.6279 35.7299 45.23 35.7299C44.8322 35.7299 44.4507 35.5719 44.1694 35.2906C43.8881 35.0093 43.73 34.6278 43.73 34.2299C43.7367 33.6051 43.6191 32.9851 43.3843 32.406C43.1494 31.8269 42.8019 31.3002 42.3619 30.8565C41.9219 30.4127 41.3981 30.0608 40.821 29.8211C40.2439 29.5813 39.625 29.4586 39 29.4599C38.6108 29.4575 38.2377 29.3038 37.9597 29.0314C37.6817 28.7589 37.5204 28.3891 37.51 27.9999ZM48.66 49.8499L47.33 51.1799C46.4427 52.0731 45.2569 52.6072 44 52.6799C41.23 52.8099 36.14 51.6799 29 44.5599C21.49 37.0499 20.46 31.5599 20.59 28.8299C20.6612 27.6973 21.1451 26.63 21.95 25.8299L23.27 24.5099C24.0673 23.6842 25.1597 23.2088 26.3073 23.1882C27.4548 23.1676 28.5637 23.6034 29.39 24.3999L32.1 27.1099C32.3843 27.3892 32.61 27.7222 32.7641 28.0896C32.9182 28.4571 32.9976 28.8515 32.9976 29.2499C32.9976 29.6484 32.9182 30.0428 32.7641 30.4102C32.61 30.7777 32.3843 31.1107 32.1 31.3899L30.18 33.3099C29.893 33.6001 29.732 33.9918 29.732 34.3999C29.732 34.8081 29.893 35.1998 30.18 35.4899L37.68 42.9799C37.8222 43.123 37.9913 43.2365 38.1775 43.3139C38.3637 43.3913 38.5634 43.4312 38.765 43.4312C38.9667 43.4312 39.1664 43.3913 39.3526 43.3139C39.5388 43.2365 39.7079 43.123 39.85 42.9799L41.78 40.9999C42.0593 40.7157 42.3923 40.49 42.7597 40.3359C43.1272 40.1818 43.5216 40.1024 43.92 40.1024C44.3185 40.1024 44.7129 40.1818 45.0803 40.3359C45.4478 40.49 45.7808 40.7157 46.06 40.9999L48.77 43.6999C49.169 44.1097 49.4828 44.5945 49.6934 45.1262C49.9039 45.6579 50.0071 46.2261 49.9968 46.7979C49.9866 47.3697 49.8632 47.9338 49.6338 48.4576C49.4043 48.9815 49.0734 49.4547 48.66 49.8499ZM51.41 35.6599C51.0122 35.6599 50.6307 35.5019 50.3494 35.2206C50.0681 34.9393 49.91 34.5578 49.91 34.1599C49.9048 31.284 48.7599 28.5273 46.7263 26.4937C44.6927 24.4601 41.936 23.3152 39.06 23.3099C38.6622 23.3099 38.2807 23.1519 37.9994 22.8706C37.7181 22.5893 37.56 22.2078 37.56 21.8099C37.56 21.4121 37.7181 21.0306 37.9994 20.7493C38.2807 20.468 38.6622 20.3099 39.06 20.3099C42.7325 20.3126 46.2537 21.7726 48.8505 24.3694C51.4473 26.9662 52.9074 30.4875 52.91 34.1599C52.91 34.5578 52.752 34.9393 52.4707 35.2206C52.1894 35.5019 51.8079 35.6599 51.41 35.6599Z" fill="black"/>
</svg>
