<svg width="72" height="72" viewBox="0 0 72 72" fill="none" xmlns="http://www.w3.org/2000/svg">
<path d="M59.72 43L39.22 25.79C38.3186 25.0312 37.1782 24.6151 36 24.6151C34.8218 24.6151 33.6814 25.0312 32.78 25.79L12.28 43C11.8887 43.3304 11.6084 43.773 11.4769 44.268C11.3454 44.7629 11.369 45.2863 11.5446 45.7673C11.7203 46.2484 12.0394 46.6639 12.4589 46.9577C12.8783 47.2515 13.3779 47.4094 13.89 47.41H58.11C58.6221 47.4094 59.1217 47.2515 59.5411 46.9577C59.9606 46.6639 60.2797 46.2484 60.4554 45.7673C60.631 45.2863 60.6546 44.7629 60.5231 44.268C60.3916 43.773 60.1113 43.3304 59.72 43Z" fill="black"/>
</svg>
