<svg width="72" height="72" viewBox="0 0 72 72" fill="none" xmlns="http://www.w3.org/2000/svg">
<path d="M36.0201 9.88001C30.8504 9.87606 25.7956 11.4046 21.4951 14.2723C17.1947 17.14 13.8418 21.218 11.8607 25.9905C9.87959 30.7629 9.35919 36.0154 10.3653 41.0835C11.3715 46.1516 13.859 50.8076 17.5131 54.4626C21.1673 58.1175 25.824 60.6072 30.8942 61.6166C35.9643 62.6261 41.2201 62.11 45.9967 60.1337C50.7734 58.1573 54.8562 54.8094 57.7288 50.5136C60.6014 46.2177 62.1346 41.1669 62.1346 36C62.1267 29.0785 59.3735 22.4424 54.4783 17.5462C49.5832 12.65 42.9455 9.89324 36.0201 9.88001ZM42.2936 38.26L35.3498 46.54C35.1137 46.8192 34.8195 47.0435 34.4877 47.1973C34.1558 47.351 33.7944 47.4304 33.4287 47.43C32.843 47.4332 32.2754 47.2275 31.8278 46.85C31.5752 46.6399 31.3667 46.3819 31.2143 46.091C31.0618 45.8 30.9685 45.4817 30.9397 45.1545C30.9109 44.8273 30.9471 44.4977 31.0463 44.1846C31.1455 43.8714 31.3057 43.581 31.5176 43.33L37.631 36L31.4976 28.67C31.0972 28.1593 30.9111 27.5131 30.9787 26.8678C31.0463 26.2225 31.3622 25.6287 31.8597 25.2119C32.3573 24.7952 32.9974 24.5881 33.645 24.6344C34.2925 24.6806 34.8966 24.9767 35.3298 25.46L42.2736 33.74C42.8026 34.3744 43.0924 35.1742 43.0924 36C43.0924 36.8259 42.8026 37.6256 42.2736 38.26H42.2936Z" fill="black"/>
</svg>
