<svg width="72" height="72" viewBox="0 0 72 72" fill="none" xmlns="http://www.w3.org/2000/svg">
<path d="M35.44 27C34.4573 27.1093 33.5306 27.5127 32.781 28.1575C32.0314 28.8022 31.4939 29.6582 31.2389 30.6135C30.9838 31.5688 31.0232 32.5788 31.3517 33.5113C31.6802 34.4439 32.2826 35.2555 33.08 35.84C33.4216 36.0952 33.7002 36.4253 33.8944 36.8049C34.0885 37.1846 34.1931 37.6037 34.2 38.03H37.8C37.7984 37.6106 37.8953 37.1967 38.0829 36.8215C38.2705 36.4463 38.5435 36.1204 38.88 35.87C39.4769 35.4406 39.9696 34.8825 40.3219 34.2371C40.6742 33.5916 40.877 32.8753 40.9154 32.141C40.9538 31.4067 40.8268 30.6731 40.5437 29.9945C40.2607 29.3158 39.8288 28.7094 39.28 28.22C38.7644 27.7539 38.1548 27.4038 37.4924 27.1934C36.8299 26.9829 36.1301 26.917 35.44 27Z" fill="black"/>
<path fill-rule="evenodd" clip-rule="evenodd" d="M50.2056 20.0457C52.1727 21.986 53.4971 24.4831 54 27.2C55.28 33.65 54.22 40.11 51.19 44.52C49.7964 46.3723 48.2035 48.0658 46.44 49.57L45.51 50.42C43.36 52.41 41.18 54.3 39.51 55.73C39.044 56.1306 38.4626 56.3723 37.85 56.42C37.7736 56.4295 37.6963 56.4295 37.62 56.42C36.8243 56.42 36.0612 56.1039 35.4986 55.5413C34.936 54.9787 34.62 54.2156 34.62 53.42V50.99C30.29 50.63 25.13 49.12 22.29 46.12C18.53 42.2 17.59 36.77 17.48 32.92C17.27 26.21 19.58 20.94 23.98 18.21C27.45 16.06 32.18 15.61 35.53 15.61C38.0382 15.6115 40.5402 15.8593 43 16.35C45.7234 16.8155 48.2385 18.1055 50.2056 20.0457ZM39.8628 37.7732C39.9081 37.6775 39.9757 37.5941 40.06 37.53L40.02 37.43C41.198 36.5684 42.0735 35.3564 42.5213 33.9673C42.969 32.5782 42.9661 31.083 42.5129 29.6957C42.0597 28.3083 41.1795 27.0997 39.998 26.2428C38.8166 25.3858 37.3945 24.9244 35.935 24.9244C34.4754 24.9244 33.0533 25.3858 31.8719 26.2428C30.6904 27.0997 29.8102 28.3083 29.357 29.6957C28.9038 31.083 28.9009 32.5782 29.3486 33.9673C29.7964 35.3564 30.6719 36.5684 31.85 37.43C31.9465 37.5019 32.0248 37.5955 32.0787 37.7031C32.1325 37.8108 32.1603 37.9296 32.16 38.05V39.05C32.1589 39.3003 32.2519 39.5419 32.4203 39.7271C32.5888 39.9122 32.8206 40.0275 33.07 40.05V41.4C33.07 41.6466 33.1679 41.8832 33.3423 42.0576C33.5168 42.232 33.7533 42.33 34 42.33H37.97C38.2149 42.3274 38.4489 42.2282 38.6211 42.0541C38.7934 41.88 38.89 41.6449 38.89 41.4V40.08C39.1393 40.0575 39.3711 39.9422 39.5396 39.7571C39.7081 39.5719 39.801 39.3303 39.8 39.08V38.08C39.796 37.9742 39.8176 37.869 39.8628 37.7732ZM57.8601 24.77C57.4279 24.771 57.0071 24.6321 56.6605 24.3739C56.3139 24.1158 56.0603 23.7523 55.9376 23.338C55.8148 22.9236 55.8296 22.4807 55.9797 22.0754C56.1298 21.6702 56.4071 21.3245 56.7701 21.09L59.0001 19.61C59.2227 19.4636 59.4719 19.3624 59.7336 19.3123C59.9953 19.2622 60.2643 19.2641 60.5252 19.318C60.7861 19.3719 61.0339 19.4766 61.2543 19.6262C61.4748 19.7758 61.6636 19.9674 61.8101 20.19C61.9565 20.4126 62.0576 20.6618 62.1077 20.9235C62.1578 21.1852 62.1559 21.4542 62.102 21.7151C62.0482 21.976 61.9434 22.2238 61.7938 22.4443C61.6442 22.6647 61.4527 22.8536 61.2301 23L59.0001 24.44C58.6622 24.6628 58.2647 24.7779 57.8601 24.77ZM62.5 33H59.79C59.2596 33 58.7509 32.7893 58.3758 32.4142C58.0008 32.0391 57.79 31.5304 57.79 31C57.79 30.4696 58.0008 29.9609 58.3758 29.5858C58.7509 29.2107 59.2596 29 59.79 29H62.5C63.0305 29 63.5392 29.2107 63.9143 29.5858C64.2893 29.9609 64.5 30.4696 64.5 31C64.5 31.5304 64.2893 32.0391 63.9143 32.4142C63.5392 32.7893 63.0305 33 62.5 33ZM58.72 42.42C59.0209 42.6067 59.366 42.7103 59.72 42.72V42.7C60.1546 42.6992 60.5771 42.5569 60.9236 42.2945C61.2702 42.0322 61.5218 41.6641 61.6404 41.246C61.7591 40.8279 61.7383 40.3825 61.5813 39.9772C61.4242 39.572 61.1394 39.2289 60.77 39L58.46 37.6C58.0101 37.3483 57.4805 37.2801 56.9816 37.4095C56.4826 37.5389 56.0529 37.8559 55.7821 38.2945C55.5112 38.733 55.4201 39.2592 55.5278 39.7633C55.6354 40.2673 55.9336 40.7104 56.36 41L58.72 42.42ZM12.21 33H9.5C8.96957 33 8.46086 32.7893 8.08579 32.4142C7.71071 32.0391 7.5 31.5304 7.5 31C7.5 30.4696 7.71071 29.9609 8.08579 29.5858C8.46086 29.2107 8.96957 29 9.5 29H12.21C12.7404 29 13.2491 29.2107 13.6242 29.5858C13.9993 29.9609 14.21 30.4696 14.21 31C14.21 31.5304 13.9993 32.0391 13.6242 32.4142C13.2491 32.7893 12.7404 33 12.21 33ZM13.0401 24.44C13.3666 24.6552 13.749 24.7699 14.1401 24.77H14.1701C14.6022 24.771 15.0231 24.6321 15.3696 24.3739C15.7162 24.1158 15.9698 23.7523 16.0925 23.338C16.2153 22.9236 16.2005 22.4807 16.0504 22.0754C15.9003 21.6702 15.6231 21.3245 15.2601 21.09L13.0001 19.61C12.5505 19.3143 12.0019 19.2092 11.4749 19.318C11.214 19.3719 10.9662 19.4766 10.7458 19.6262C10.5253 19.7758 10.3365 19.9674 10.1901 20.19C10.0436 20.4126 9.94248 20.6618 9.89239 20.9235C9.84229 21.1852 9.84423 21.4542 9.89809 21.7151C9.95194 21.976 10.0567 22.2238 10.2063 22.4443C10.3559 22.6647 10.5475 22.8536 10.7701 23L13.0401 24.44ZM12.2801 42.72C11.8497 42.7087 11.4344 42.5588 11.096 42.2927C10.7576 42.0265 10.5141 41.6582 10.4018 41.2425C10.2895 40.8269 10.3143 40.3861 10.4725 39.9857C10.6307 39.5853 10.9139 39.2466 11.2801 39.02L13.5901 37.6C13.8134 37.4484 14.0651 37.3435 14.33 37.2917C14.5949 37.2399 14.8676 37.2423 15.1315 37.2986C15.3955 37.355 15.6454 37.4643 15.866 37.6198C16.0866 37.7753 16.2735 37.9739 16.4153 38.2035C16.5572 38.4332 16.6511 38.6892 16.6914 38.9561C16.7316 39.223 16.7175 39.4953 16.6497 39.7566C16.5819 40.0179 16.462 40.2628 16.297 40.4765C16.1321 40.6902 15.9257 40.8683 15.6901 41L13.3801 42.42C13.0503 42.6246 12.6681 42.7289 12.2801 42.72Z" fill="black"/>
</svg>
