<svg width="72" height="72" viewBox="0 0 72 72" fill="none" xmlns="http://www.w3.org/2000/svg">
<path d="M36 9.88001C30.8331 9.87606 25.7811 11.4046 21.4831 14.2723C17.185 17.14 13.834 21.218 11.854 25.9905C9.87398 30.7629 9.35386 36.0154 10.3594 41.0835C11.365 46.1516 13.8511 50.8076 17.5033 54.4626C21.1554 58.1175 25.8095 60.6072 30.8769 61.6166C35.9442 62.6261 41.1971 62.11 45.9711 60.1337C50.745 58.1573 54.8256 54.8094 57.6966 50.5136C60.5676 46.2177 62.1 41.1669 62.1 36C62.0921 29.0785 59.3403 22.4424 54.4479 17.5462C49.5555 12.65 42.9215 9.89324 36 9.88001ZM49.63 32.13L35 45.94C34.1431 46.7299 33.0204 47.1685 31.855 47.1685C30.6896 47.1685 29.5669 46.7299 28.71 45.94L22.2 39.94C21.7133 39.4891 21.4257 38.8634 21.4004 38.2005C21.3751 37.5375 21.6141 36.8917 22.065 36.405C22.5159 35.9183 23.1416 35.6307 23.8045 35.6054C24.4675 35.5801 25.1133 35.8191 25.6 36.27L31.81 42L46.21 28.45C46.6985 28.032 47.3293 27.8183 47.9712 27.8533C48.6132 27.8882 49.2171 28.1692 49.6573 28.6377C50.0975 29.1063 50.3403 29.7264 50.3352 30.3693C50.3302 31.0122 50.0776 31.6285 49.63 32.09V32.13Z" fill="black"/>
</svg>
