<svg width="72" height="72" viewBox="0 0 72 72" fill="none" xmlns="http://www.w3.org/2000/svg">
<path d="M62.71 29.42C62.4539 28.5904 61.9706 27.8492 61.3149 27.2801C60.6592 26.711 59.8573 26.3369 59 26.2L46.16 24.2L40.51 12.5C40.1347 11.7115 39.544 11.0452 38.8061 10.578C38.0682 10.1109 37.2133 9.86198 36.34 9.86C35.4721 9.85814 34.621 10.0987 33.8825 10.5545C33.1439 11.0104 32.5474 11.6634 32.16 12.44L26.31 24.04L13.35 25.82C12.4768 25.9327 11.6531 26.2895 10.9735 26.8494C10.294 27.4092 9.78611 28.1494 9.50831 28.9849C9.23051 29.8203 9.19403 30.7173 9.40306 31.5726C9.61209 32.4278 10.0582 33.2068 10.69 33.82L19.92 42.96L17.62 55.75C17.4628 56.6103 17.5498 57.4974 17.8712 58.3108C18.1926 59.1242 18.7354 59.8312 19.4381 60.3518C20.1409 60.8723 20.9754 61.1856 21.8471 61.2559C22.7189 61.3263 23.5928 61.1511 24.37 60.75L35.92 54.75L47.36 60.9C48.1303 61.3161 49.0023 61.5068 49.876 61.4502C50.7497 61.3936 51.5898 61.092 52.3 60.58C53.0165 60.0736 53.5752 59.3748 53.9114 58.5644C54.2476 57.7539 54.3477 56.8649 54.2 56L52.11 43.2L61.48 34.2C62.113 33.599 62.564 32.832 62.7816 31.9867C62.9991 31.1413 62.9743 30.2519 62.71 29.42Z" fill="black"/>
</svg>
