<svg width="72" height="72" viewBox="0 0 72 72" fill="none" xmlns="http://www.w3.org/2000/svg">
<path d="M35.74 9.88C30.574 9.88 25.5239 11.4119 21.2285 14.282C16.9331 17.1521 13.5852 21.2315 11.6083 26.0043C9.63131 30.7771 9.11404 36.029 10.1219 41.0958C11.1297 46.1625 13.6174 50.8167 17.2704 54.4696C20.9233 58.1226 25.5775 60.6103 30.6442 61.6181C35.711 62.626 40.9629 62.1087 45.7357 60.1317C50.5085 58.1548 54.5879 54.8069 57.458 50.5115C60.3281 46.2161 61.86 41.1661 61.86 36C61.8521 29.075 59.0976 22.4359 54.2009 17.5391C49.3041 12.6424 42.665 9.88794 35.74 9.88ZM38.26 46.88C38.2766 47.1767 38.2268 47.4733 38.1144 47.7483C38.002 48.0234 37.8297 48.2699 37.61 48.47C37.157 48.8391 36.5837 49.0278 36 49C35.4181 49.0223 34.8495 48.822 34.41 48.44C34.194 48.238 34.0254 47.9907 33.9165 47.7157C33.8075 47.4408 33.7609 47.1451 33.78 46.85V33C33.7596 32.7077 33.8057 32.4146 33.9149 32.1427C34.024 31.8708 34.1933 31.6271 34.41 31.43C34.8598 31.0721 35.4264 30.894 36 30.93C36.5844 30.9087 37.1566 31.1006 37.61 31.47C37.8261 31.66 37.9967 31.8962 38.1092 32.161C38.2217 32.4258 38.2732 32.7126 38.26 33V46.88ZM37.93 27.08C37.3966 27.542 36.7046 27.7787 36 27.74C35.2927 27.7761 34.5985 27.5399 34.06 27.08C33.8263 26.8559 33.6424 26.5852 33.5201 26.2855C33.3977 25.9857 33.3398 25.6636 33.35 25.34C33.3368 25.019 33.3935 24.699 33.5161 24.402C33.6387 24.1051 33.8243 23.8383 34.06 23.62C34.615 23.1983 35.2929 22.9699 35.99 22.9699C36.6871 22.9699 37.365 23.1983 37.92 23.62C38.1621 23.8342 38.3533 24.0998 38.4796 24.3974C38.6059 24.695 38.6641 25.017 38.65 25.34C38.6608 25.6646 38.6022 25.9877 38.478 26.2878C38.3539 26.5879 38.167 26.858 37.93 27.08Z" fill="black"/>
</svg>
