<svg width="72" height="72" viewBox="0 0 72 72" fill="none" xmlns="http://www.w3.org/2000/svg">
<path fill-rule="evenodd" clip-rule="evenodd" d="M14.9 10.98H29.59C31.7992 10.98 33.59 12.7708 33.59 14.98V29.67C33.59 31.8791 31.7992 33.67 29.59 33.67H14.9C12.6909 33.67 10.9 31.8791 10.9 29.67V14.98C10.9 12.7708 12.6909 10.98 14.9 10.98ZM41.89 10.98H56.58C58.7892 10.98 60.58 12.7708 60.58 14.98V29.67C60.58 31.8791 58.7892 33.67 56.58 33.67H41.89C39.6809 33.67 37.89 31.8791 37.89 29.67V14.98C37.89 12.7708 39.6809 10.98 41.89 10.98ZM30.63 37.29H14.9C12.6909 37.29 10.9 39.0808 10.9 41.29V57.02C10.9 59.2291 12.6909 61.02 14.9 61.02H30.63C32.8392 61.02 34.63 59.2291 34.63 57.02V41.29C34.63 39.0808 32.8392 37.29 30.63 37.29ZM41.38 37.29H57.11C59.3191 37.29 61.11 39.0808 61.11 41.29V57.02C61.11 59.2291 59.3191 61.02 57.11 61.02H41.38C39.1709 61.02 37.38 59.2291 37.38 57.02V41.29C37.38 39.0808 39.1709 37.29 41.38 37.29Z" fill="black"/>
</svg>
