<svg width="72" height="72" viewBox="0 0 72 72" fill="none" xmlns="http://www.w3.org/2000/svg">
<path d="M46.54 10.79H25.46C23.1248 10.7444 20.8666 11.6259 19.1799 13.2414C17.4931 14.857 16.5151 17.075 16.46 19.41V55.41C16.4621 56.4093 16.7264 57.3905 17.2266 58.2557C17.7267 59.1208 18.4451 59.8395 19.31 60.34C20.2337 60.8811 21.2815 61.1746 22.3519 61.1921C23.4223 61.2096 24.479 60.9506 25.42 60.44C25.4798 60.4124 25.5368 60.3789 25.59 60.34L36 53.21L46.41 60.35C46.4632 60.3889 46.5202 60.4224 46.58 60.45C47.498 60.957 48.5313 61.2188 49.58 61.21C50.688 61.2105 51.7759 60.9135 52.73 60.35C53.5963 59.8511 54.3158 59.1327 54.8161 58.2672C55.3164 57.4017 55.5799 56.4197 55.58 55.42V19.42C55.554 18.2595 55.2995 17.1155 54.831 16.0534C54.3624 14.9914 53.6891 14.0321 52.8494 13.2306C52.0098 12.429 51.0204 11.8009 49.9377 11.3821C48.8551 10.9633 47.7005 10.7621 46.54 10.79Z" fill="black"/>
</svg>
