<svg width="72" height="72" viewBox="0 0 72 72" fill="none" xmlns="http://www.w3.org/2000/svg">
<path d="M42 27.05H38.3C38.1759 27.0368 38.0504 27.0499 37.9316 27.0883C37.8129 27.1268 37.7035 27.1898 37.6107 27.2732C37.5179 27.3567 37.4437 27.4588 37.3929 27.5728C37.3421 27.6868 37.3158 27.8102 37.3158 27.935C37.3158 28.0599 37.3421 28.1833 37.3929 28.2973C37.4437 28.4113 37.5179 28.5134 37.6107 28.5968C37.7035 28.6803 37.8129 28.7433 37.9316 28.7818C38.0504 28.8202 38.1759 28.8333 38.3 28.82H42C42.2185 28.7968 42.4207 28.6935 42.5676 28.5301C42.7145 28.3667 42.7958 28.1548 42.7958 27.935C42.7958 27.7153 42.7145 27.5033 42.5676 27.34C42.4207 27.1766 42.2185 27.0733 42 27.05Z" fill="#2C2A46"/>
<path d="M35 46.5099C34.8137 46.508 34.631 46.5614 34.4751 46.6635C34.3192 46.7656 34.1972 46.9117 34.1245 47.0832C34.0518 47.2548 34.0318 47.4441 34.0669 47.6271C34.102 47.8101 34.1908 47.9785 34.3218 48.111C34.4529 48.2435 34.6203 48.334 34.803 48.3711C34.9856 48.4082 35.1751 48.3901 35.3474 48.3193C35.5198 48.2485 35.6672 48.128 35.7709 47.9732C35.8746 47.8184 35.93 47.6363 35.93 47.4499C35.9301 47.2024 35.8324 46.9648 35.6583 46.7888C35.4841 46.6128 35.2476 46.5126 35 46.5099Z" fill="#2C2A46"/>
<path d="M35.66 4.87C29.7266 4.87 23.9264 6.62946 18.9929 9.92591C14.0595 13.2223 10.2143 17.9077 7.94366 23.3895C5.67303 28.8713 5.07893 34.9033 6.23649 40.7227C7.39405 46.5421 10.2513 51.8876 14.4468 56.0832C18.6424 60.2788 23.9879 63.136 29.8073 64.2936C35.6268 65.4511 41.6588 64.857 47.1405 62.5864C52.6223 60.3158 57.3077 56.4706 60.6041 51.5371C63.9006 46.6036 65.66 40.8034 65.66 34.87C65.66 26.9135 62.4993 19.2829 56.8732 13.6568C51.2472 8.0307 43.6165 4.87 35.66 4.87ZM45.82 49C45.82 49.5304 45.6093 50.0391 45.2343 50.4142C44.8592 50.7893 44.3505 51 43.82 51H26.15C25.6196 51 25.1109 50.7893 24.7358 50.4142C24.3608 50.0391 24.15 49.5304 24.15 49V27C24.15 26.4696 24.3608 25.9609 24.7358 25.5858C25.1109 25.2107 25.6196 25 26.15 25H29.81C30.0461 25 30.2725 25.0938 30.4394 25.2607C30.6063 25.4276 30.7 25.654 30.7 25.89C30.7 26.126 30.6063 26.3524 30.4394 26.5193C30.2725 26.6862 30.0461 26.78 29.81 26.78H26.15C26.1012 26.7897 26.0581 26.8182 26.0301 26.8593C26.002 26.9005 25.9912 26.951 26 27V43.53H44.05V40.15C44.0733 39.9315 44.1766 39.7293 44.34 39.5824C44.5033 39.4355 44.7153 39.3542 44.935 39.3542C45.1548 39.3542 45.3667 39.4355 45.5301 39.5824C45.6935 39.7293 45.7968 39.9315 45.82 40.15V49ZM48.64 31.34C47.9903 32.1977 47.2493 32.9823 46.43 33.68L45.98 34.09C44.98 35.03 43.98 35.92 43.17 36.59C42.9727 36.7573 42.7279 36.8587 42.47 36.88H42.37C42.0438 36.88 41.731 36.7504 41.5003 36.5197C41.2696 36.2891 41.14 35.9762 41.14 35.65V34.35C39.14 34.21 36.63 33.49 35.29 32.1C33.8354 30.4021 33.0434 28.2357 33.06 26C32.97 22.88 34.06 20.47 36.06 19.22C37.7065 18.3539 39.5508 17.9333 41.41 18C42.5784 17.9987 43.744 18.1126 44.89 18.34C46.1441 18.5547 47.3019 19.1494 48.2069 20.0437C49.1119 20.9379 49.7204 22.0886 49.95 23.34C50.5828 26.0752 50.1122 28.9495 48.64 31.34Z" fill="#2C2A46"/>
<path d="M45.67 23.9401H38.28C38.1559 23.9268 38.0304 23.9399 37.9116 23.9783C37.7928 24.0168 37.6835 24.0798 37.5907 24.1633C37.4979 24.2467 37.4236 24.3488 37.3728 24.4628C37.322 24.5768 37.2958 24.7002 37.2958 24.8251C37.2958 24.9499 37.322 25.0733 37.3728 25.1873C37.4236 25.3013 37.4979 25.4034 37.5907 25.4869C37.6835 25.5703 37.7928 25.6333 37.9116 25.6718C38.0304 25.7102 38.1559 25.7233 38.28 25.7101H45.67C45.7941 25.7233 45.9196 25.7102 46.0384 25.6718C46.1571 25.6333 46.2665 25.5703 46.3593 25.4869C46.4521 25.4034 46.5263 25.3013 46.5771 25.1873C46.6279 25.0733 46.6542 24.9499 46.6542 24.8251C46.6542 24.7002 46.6279 24.5768 46.5771 24.4628C46.5263 24.3488 46.4521 24.2467 46.3593 24.1633C46.2665 24.0798 46.1571 24.0168 46.0384 23.9783C45.9196 23.9399 45.7941 23.9268 45.67 23.9401Z" fill="#2C2A46"/>
</svg>
