<svg width="72" height="72" viewBox="0 0 72 72" fill="none" xmlns="http://www.w3.org/2000/svg">
<path fill-rule="evenodd" clip-rule="evenodd" d="M42.1499 10.48H56.8399C57.4326 10.48 58.0194 10.597 58.5666 10.8244C59.1139 11.0518 59.6109 11.3851 60.029 11.8051C60.4471 12.225 60.7782 12.7235 61.0031 13.2718C61.2281 13.82 61.3425 14.4074 61.3399 15V29.67C61.3412 30.2613 61.2257 30.8471 61.0001 31.3936C60.7744 31.9402 60.443 32.4368 60.0248 32.8549C59.6067 33.273 59.1101 33.6044 58.5635 33.8301C58.017 34.0558 57.4312 34.1713 56.8399 34.17H42.1499C40.9564 34.17 39.8118 33.6959 38.9679 32.852C38.124 32.008 37.6499 30.8635 37.6499 29.67V14.98C37.6526 13.7873 38.1275 12.6443 38.9709 11.8009C39.8142 10.9576 40.9573 10.4826 42.1499 10.48ZM42.6499 29.17H56.3399V15.48H42.6499V29.17ZM15.1599 34.17H29.8499C31.0434 34.17 32.188 33.6959 33.0319 32.852C33.8758 32.0081 34.3499 30.8635 34.3499 29.67V15C34.3473 13.8073 33.8723 12.6643 33.029 11.8209C32.1856 10.9776 31.0426 10.5026 29.8499 10.5H15.1599C13.9664 10.5 12.8219 10.9741 11.9779 11.818C11.134 12.6619 10.6599 13.8065 10.6599 15V29.67C10.6586 30.2613 10.7741 30.8471 10.9998 31.3936C11.2255 31.9402 11.5569 32.4368 11.975 32.8549C12.3931 33.273 12.8897 33.6045 13.4363 33.8301C13.9828 34.0558 14.5686 34.1713 15.1599 34.17ZM15.6599 15.48H29.3499V29.17H15.6599V15.48ZM15.1599 36.79H30.8799C32.0734 36.79 33.218 37.2641 34.0619 38.1081C34.9058 38.952 35.3799 40.0966 35.3799 41.29V57C35.3799 58.1935 34.9058 59.3381 34.0619 60.182C33.218 61.0259 32.0734 61.5 30.8799 61.5H15.1599C13.9665 61.5 12.8219 61.0259 11.9779 60.182C11.134 59.3381 10.6599 58.1935 10.6599 57V41.29C10.6599 40.0966 11.134 38.952 11.9779 38.1081C12.8219 37.2641 13.9665 36.79 15.1599 36.79ZM15.6599 56.52H30.3799V41.79H15.6599V56.52ZM51.9999 46.6499H58.0799C58.743 46.6499 59.3788 46.9133 59.8477 47.3822C60.3165 47.851 60.5799 48.4869 60.5799 49.1499C60.5799 49.813 60.3165 50.4489 59.8477 50.9177C59.3788 51.3866 58.743 51.6499 58.0799 51.6499H51.9999V57.7299C51.9999 58.393 51.7365 59.0289 51.2677 59.4977C50.7988 59.9666 50.1629 60.2299 49.4999 60.2299C48.8369 60.2299 48.201 59.9666 47.7321 59.4977C47.2633 59.0289 46.9999 58.393 46.9999 57.7299V51.6499H40.9199C40.2569 51.6499 39.621 51.3866 39.1521 50.9177C38.6833 50.4489 38.4199 49.813 38.4199 49.1499C38.4199 48.4869 38.6833 47.851 39.1521 47.3822C39.621 46.9133 40.2569 46.6499 40.9199 46.6499H46.9999V40.5699C46.9999 39.9069 47.2633 39.271 47.7321 38.8022C48.201 38.3333 48.8369 38.0699 49.4999 38.0699C50.1629 38.0699 50.7988 38.3333 51.2677 38.8022C51.7365 39.271 51.9999 39.9069 51.9999 40.5699V46.6499Z" fill="black"/>
</svg>
