<svg width="72" height="72" viewBox="0 0 72 72" fill="none" xmlns="http://www.w3.org/2000/svg">
<path fill-rule="evenodd" clip-rule="evenodd" d="M21.495 14.2723C25.7954 11.4046 30.8503 9.87606 36.02 9.88001C42.9454 9.89324 49.5831 12.65 54.4782 17.5462C59.3733 22.4424 62.1266 29.0785 62.1345 36C62.1345 41.1669 60.6013 46.2177 57.7287 50.5136C54.8561 54.8094 50.7733 58.1573 45.9966 60.1337C41.22 62.11 35.9642 62.6261 30.8941 61.6166C25.8239 60.6072 21.1672 58.1175 17.513 54.4626C13.8589 50.8076 11.3714 46.1516 10.3652 41.0835C9.35908 36.0154 9.87948 30.7629 11.8606 25.9905C13.8417 21.218 17.1946 17.14 21.495 14.2723ZM23.7185 54.4018C27.3608 56.83 31.6418 58.124 36.02 58.12C41.8848 58.1094 47.506 55.7749 51.6511 51.6283C55.7963 47.4817 58.127 41.8615 58.1323 36C58.1323 31.6242 56.8338 27.3468 54.4009 23.7087C51.9681 20.0707 48.5104 17.2355 44.465 15.5619C40.4197 13.8883 35.9686 13.4514 31.6749 14.3065C27.3811 15.1616 23.4375 17.2704 20.343 20.3659C17.2486 23.4614 15.1423 27.4047 14.2905 31.6969C13.4388 35.9891 13.88 40.4373 15.5582 44.4788C17.2364 48.5204 20.0763 51.9737 23.7185 54.4018ZM38.3672 24.5765C39.0276 24.5184 39.684 24.7247 40.1923 25.15C40.7008 25.5776 41.019 26.1893 41.0771 26.851C41.1353 27.5126 40.9286 28.1703 40.5025 28.68L34.3591 36L40.5025 43.32C40.7141 43.5715 40.874 43.8621 40.9731 44.1754C41.0723 44.4886 41.1087 44.8183 41.0804 45.1457C41.052 45.473 40.9595 45.7915 40.808 46.0831C40.6565 46.3747 40.449 46.6336 40.1973 46.845C39.9457 47.0564 39.6549 47.2163 39.3415 47.3153C39.028 47.4144 38.6982 47.4509 38.3707 47.4226C38.0431 47.3942 37.7244 47.3017 37.4327 47.1503C37.141 46.9989 36.8819 46.7915 36.6704 46.54L29.7265 38.26C29.1956 37.6264 28.9047 36.8264 28.9047 36C28.9047 35.1736 29.1956 34.3736 29.7265 33.74L36.6704 25.46C37.0965 24.9524 37.7068 24.6347 38.3672 24.5765Z" fill="black"/>
</svg>
