<svg width="72" height="72" viewBox="0 0 72 72" fill="none" xmlns="http://www.w3.org/2000/svg">
<path fill-rule="evenodd" clip-rule="evenodd" d="M10 8H62C62.5304 8 63.0391 8.21071 63.4142 8.58579C63.7893 8.96086 64 9.46957 64 10V62C64 62.5304 63.7893 63.0391 63.4142 63.4142C63.0391 63.7893 62.5304 64 62 64H10C9.46957 64 8.96086 63.7893 8.58579 63.4142C8.21071 63.0391 8 62.5304 8 62V10C8 9.46957 8.21071 8.96086 8.58579 8.58579C8.96086 8.21071 9.46957 8 10 8ZM12 60H60V12H12V60ZM17 32H26.84C28.2121 31.9947 29.526 31.4452 30.4934 30.4722C31.4608 29.4992 32.0027 28.1821 32 26.81V17C32 16.337 31.7366 15.7011 31.2678 15.2322C30.7989 14.7634 30.163 14.5 29.5 14.5C28.837 14.5 28.2011 14.7634 27.7322 15.2322C27.2634 15.7011 27 16.337 27 17V26.84C26.9976 26.8843 26.9789 26.9262 26.9475 26.9575C26.9162 26.9889 26.8743 27.0076 26.83 27.01H17C16.337 27.01 15.7011 27.2734 15.2322 27.7422C14.7634 28.2111 14.5 28.847 14.5 29.51C14.5 30.173 14.7634 30.8089 15.2322 31.2778C15.7011 31.7466 16.337 32.01 17 32.01V32ZM45.19 32H55C55.663 32 56.2989 31.7366 56.7678 31.2678C57.2366 30.7989 57.5 30.163 57.5 29.5C57.5 28.837 57.2366 28.2011 56.7678 27.7322C56.2989 27.2634 55.663 27 55 27H45.19C45.1457 26.9976 45.1038 26.9789 45.0724 26.9475C45.0411 26.9162 45.0224 26.8743 45.02 26.83V17C45.02 16.337 44.7566 15.7011 44.2878 15.2322C43.8189 14.7634 43.183 14.5 42.52 14.5C41.8569 14.5 41.2211 14.7634 40.7522 15.2322C40.2834 15.7011 40.02 16.337 40.02 17V26.84C40.0253 28.2086 40.572 29.5195 41.5407 30.4864C42.5094 31.4532 43.8214 31.9974 45.19 32ZM43.4791 57.3338C43.1755 57.4621 42.8495 57.5287 42.52 57.53C42.1871 57.5341 41.8568 57.4713 41.5485 57.3455C41.2403 57.2197 40.9604 57.0333 40.7255 56.7974C40.4905 56.5615 40.3053 56.2809 40.1807 55.9722C40.0561 55.6635 39.9946 55.3329 40 55V45.19C40.0013 44.5098 40.1366 43.8365 40.3981 43.2085C40.6596 42.5805 41.0423 42.0102 41.5242 41.5301C42.0062 41.0501 42.578 40.6696 43.2069 40.4105C43.8359 40.1514 44.5097 40.0187 45.19 40.02H55C55.663 40.02 56.2989 40.2834 56.7678 40.7523C57.2366 41.2211 57.5 41.857 57.5 42.52C57.5 43.1831 57.2366 43.819 56.7678 44.2878C56.2989 44.7566 55.663 45.02 55 45.02H45.17C45.1257 45.0224 45.0838 45.0411 45.0524 45.0725C45.0211 45.1039 45.0024 45.1457 45 45.19V55C45.0053 55.3295 44.9451 55.6568 44.823 55.9629C44.7009 56.269 44.5192 56.5477 44.2885 56.7831C44.0578 57.0184 43.7827 57.2056 43.4791 57.3338ZM17 45H26.84C26.8843 45.0024 26.9262 45.0211 26.9575 45.0524C26.9889 45.0838 27.0076 45.1257 27.01 45.17V55C27.01 55.663 27.2734 56.2989 27.7422 56.7677C28.2111 57.2366 28.847 57.5 29.51 57.5C30.173 57.5 30.8089 57.2366 31.2778 56.7677C31.7466 56.2989 32.01 55.663 32.01 55V45.19C32.0113 44.5072 31.8777 43.8309 31.6167 43.2C31.3557 42.569 30.9726 41.9959 30.4893 41.5136C30.006 41.0313 29.4322 40.6492 28.8008 40.3895C28.1693 40.1297 27.4928 39.9973 26.81 40H17C16.337 40 15.7011 40.2634 15.2322 40.7322C14.7634 41.201 14.5 41.8369 14.5 42.5C14.5 43.163 14.7634 43.7989 15.2322 44.2677C15.7011 44.7366 16.337 45 17 45Z" fill="black"/>
</svg>
