<svg width="72" height="72" viewBox="0 0 72 72" fill="none" xmlns="http://www.w3.org/2000/svg">
<path d="M36 62.15C31.6256 62.1447 27.4318 60.4046 24.3386 57.3114C21.2454 54.2182 19.5053 50.0245 19.5 45.65V21.31C19.5 20.7796 19.7107 20.2709 20.0858 19.8958C20.4609 19.5207 20.9696 19.31 21.5 19.31C22.0304 19.31 22.5391 19.5207 22.9142 19.8958C23.2893 20.2709 23.5 20.7796 23.5 21.31V45.65C23.5 47.2915 23.8233 48.917 24.4515 50.4336C25.0797 51.9501 26.0004 53.3281 27.1612 54.4888C28.3219 55.6496 29.6999 56.5703 31.2165 57.1985C32.733 57.8267 34.3585 58.15 36 58.15C37.6415 58.15 39.267 57.8267 40.7835 57.1985C42.3001 56.5703 43.6781 55.6496 44.8388 54.4888C45.9996 53.3281 46.9203 51.9501 47.5485 50.4336C48.1767 48.917 48.5 47.2915 48.5 45.65V21.3C48.4974 19.325 47.7116 17.4316 46.315 16.035C44.9184 14.6384 43.025 13.8527 41.05 13.85H40C38.0232 13.85 36.1273 14.6346 34.7285 16.0315C33.3298 17.4283 32.5427 19.3232 32.54 21.3V43.18C32.6899 44.0533 33.149 44.8435 33.8335 45.4062C34.5179 45.9689 35.382 46.2666 36.2678 46.2447C37.1536 46.2229 38.002 45.883 38.6578 45.2873C39.3137 44.6915 39.7333 43.8796 39.84 43V21.55C39.84 21.0196 40.0507 20.5109 40.4258 20.1358C40.8009 19.7607 41.3096 19.55 41.84 19.55C42.3704 19.55 42.8791 19.7607 43.2542 20.1358C43.6293 20.5109 43.84 21.0196 43.84 21.55V43C43.8612 45.0395 43.0714 47.0039 41.6442 48.4611C40.2171 49.9183 38.2695 50.7488 36.23 50.77C34.1905 50.7912 32.2261 50.0014 30.7689 48.5742C29.3118 47.1471 28.4812 45.1995 28.46 43.16L28.51 21.28C28.5139 19.7751 28.8143 18.2856 29.3938 16.8967C29.9734 15.5079 30.8208 14.2467 31.8878 13.1853C32.9547 12.124 34.2203 11.2831 35.6122 10.7109C37.0041 10.1386 38.4951 9.84607 40 9.85001H41.08C44.1115 9.85796 47.0162 11.0678 49.157 13.2142C51.2978 15.3607 52.5 18.2685 52.5 21.3V45.65C52.4947 50.0245 50.7546 54.2182 47.6614 57.3114C44.5682 60.4046 40.3744 62.1447 36 62.15Z" fill="black"/>
</svg>
