<svg width="72" height="72" viewBox="0 0 72 72" fill="none" xmlns="http://www.w3.org/2000/svg">
<path fill-rule="evenodd" clip-rule="evenodd" d="M36 9.88C30.834 9.88 25.7839 11.4119 21.4885 14.282C17.1931 17.1521 13.8452 21.2315 11.8683 26.0043C9.89132 30.7771 9.37406 36.029 10.3819 41.0958C11.3898 46.1625 13.8774 50.8167 17.5304 54.4696C21.1833 58.1226 25.8375 60.6103 30.9043 61.6181C35.971 62.626 41.2229 62.1087 45.9957 60.1317C50.7685 58.1548 54.8479 54.8069 57.718 50.5115C60.5881 46.2161 62.12 41.1661 62.12 36C62.1121 29.075 59.3576 22.4359 54.4609 17.5391C49.5641 12.6424 42.925 9.88794 36 9.88ZM36 58.12C31.6251 58.12 27.3484 56.8227 23.7108 54.3921C20.0732 51.9615 17.238 48.5069 15.5638 44.465C13.8896 40.4231 13.4515 35.9755 14.305 31.6846C15.1586 27.3937 17.2653 23.4523 20.3588 20.3588C23.4524 17.2653 27.3938 15.1585 31.6846 14.305C35.9755 13.4515 40.4231 13.8896 44.465 15.5638C48.5069 17.238 51.9615 20.0732 54.3921 23.7108C56.8227 27.3484 58.12 31.6251 58.12 36C58.1147 41.865 55.7825 47.4882 51.6354 51.6354C47.4882 55.7825 41.865 58.1147 36 58.12ZM36 44.13C35.6147 44.1187 35.2313 44.1885 34.8747 44.3349C34.5181 44.4814 34.1962 44.7011 33.93 44.98C33.4022 45.548 33.1088 46.2946 33.1088 47.07C33.1088 47.8454 33.4022 48.592 33.93 49.16C34.488 49.6919 35.2292 49.9886 36 49.9886C36.7709 49.9886 37.5121 49.6919 38.07 49.16C38.5979 48.592 38.8913 47.8454 38.8913 47.07C38.8913 46.2946 38.5979 45.548 38.07 44.98C37.8038 44.7011 37.482 44.4814 37.1254 44.3349C36.7688 44.1885 36.3854 44.1187 36 44.13ZM33.8699 22.72C34.4677 22.227 35.2257 21.9708 35.9999 22C36.7606 21.9806 37.5027 22.2362 38.0899 22.72C38.3665 22.9597 38.5856 23.2585 38.731 23.5943C38.8764 23.9301 38.9444 24.2943 38.9299 24.66V25.09L37.4899 40.26C37.4644 40.6855 37.2911 41.0887 36.9999 41.4C36.727 41.6502 36.3702 41.7889 35.9999 41.7889C35.6297 41.7889 35.2729 41.6502 34.9999 41.4C34.6832 41.099 34.4845 40.6947 34.4399 40.26L32.9999 25.05V24.66C32.9892 24.2919 33.0619 23.9262 33.2125 23.5903C33.3632 23.2543 33.5879 22.9568 33.8699 22.72Z" fill="black"/>
</svg>
