<svg width="72" height="72" viewBox="0 0 72 72" fill="none" xmlns="http://www.w3.org/2000/svg">
<path fill-rule="evenodd" clip-rule="evenodd" d="M20.4533 15.0093C24.952 11.6777 30.402 9.87962 36 9.88C41.598 9.87962 47.048 11.6777 51.5467 15.0093C56.0454 18.3408 59.3547 23.0295 60.9869 28.3843C62.6191 33.739 62.4878 39.4765 60.6123 44.7509C58.7368 50.0254 55.2164 54.5578 50.57 57.68C46.2619 60.5738 41.1897 62.1192 36 62.1192C30.8103 62.1192 25.7381 60.5738 21.43 57.68C16.7836 54.5578 13.2632 50.0254 11.3877 44.7509C9.51222 39.4765 9.38089 33.739 11.0131 28.3843C12.6453 23.0295 15.9546 18.3408 20.4533 15.0093ZM50.28 52.4L50.46 52.75L50.44 52.7C53.8547 49.7502 56.2857 45.8266 57.4066 41.4557C58.5276 37.0847 58.2849 32.4755 56.7112 28.2464C55.1375 24.0173 52.3081 20.3707 48.6025 17.7957C44.8969 15.2208 40.4924 13.8407 35.98 13.8407C31.4676 13.8407 27.0631 15.2208 23.3575 17.7957C19.6519 20.3707 16.8225 24.0173 15.2488 28.2464C13.6751 32.4755 13.4324 37.0847 14.5534 41.4557C15.6743 45.8266 18.1052 49.7502 21.52 52.7L21.7 52.35C21.7196 52.3107 21.7339 52.28 21.7485 52.2487C21.7783 52.1845 21.8093 52.118 21.89 51.97C22.01 51.75 22.13 51.53 22.26 51.32C22.3174 51.2132 22.3809 51.1097 22.45 51.01C22.64 50.7 22.85 50.4 23.06 50.12C23.28 49.82 23.51 49.54 23.76 49.26C23.8021 49.2059 23.8513 49.1554 23.9013 49.1042C23.9345 49.0702 23.9681 49.0359 24 49L24.59 48.49L24.89 48.21L25.42 47.75L25.75 47.48L26.33 47.05L26.65 46.83L27.36 46.39L27.59 46.25C27.93 46.07 28.26 45.9 28.59 45.75L28.84 45.64L29.62 45.32L30 45.2L30.64 44.98L31.05 44.87C31.1046 44.8558 31.1597 44.8398 31.2152 44.8238C31.3933 44.7724 31.5746 44.72 31.75 44.72L32.17 44.64C32.2296 44.6305 32.2897 44.6198 32.3502 44.6091C32.5434 44.5748 32.7396 44.54 32.93 44.54H33.3C33.6787 44.5001 34.0592 44.48 34.44 44.48H37.61C37.9908 44.48 38.3713 44.5001 38.75 44.54H39.12C39.2267 44.5485 39.3352 44.568 39.4439 44.5875C39.59 44.6137 39.7367 44.64 39.88 44.64L40.3 44.72C40.53 44.76 40.77 44.81 41 44.87L41.36 45L42.05 45.21L42.43 45.34C42.69 45.43 42.95 45.54 43.21 45.65L43.46 45.76C43.81 45.91 44.14 46.08 44.46 46.26L44.69 46.4L45.4 46.84L45.72 47.07C45.92 47.2 46.11 47.34 46.3 47.49L46.63 47.76L47.15 48.22L47.46 48.5L47.98 49.04C48.0119 49.0759 48.0454 49.1102 48.0786 49.1442C48.1286 49.1954 48.1779 49.2459 48.22 49.3C48.47 49.58 48.7 49.86 48.92 50.16C49.13 50.45 49.34 50.75 49.53 51.06C49.5398 51.074 49.548 51.0856 49.5552 51.0959C49.5999 51.1591 49.6082 51.1707 49.72 51.36C49.7972 51.4907 49.8886 51.6603 49.9648 51.8016C50.0167 51.8981 50.0616 51.9813 50.09 52.03C50.16 52.15 50.22 52.27 50.28 52.4ZM30.3776 24.1156C32.0419 23.0036 33.9985 22.41 36 22.41C38.6832 22.4127 41.2557 23.4797 43.153 25.377C45.0503 27.2743 46.1174 29.8469 46.12 32.53C46.12 34.5316 45.5265 36.4882 44.4145 38.1524C43.3025 39.8166 41.722 41.1137 39.8728 41.8797C38.0236 42.6457 35.9888 42.8461 34.0257 42.4556C32.0626 42.0651 30.2594 41.1013 28.8441 39.686C27.4288 38.2706 26.4649 36.4674 26.0745 34.5043C25.684 32.5413 25.8844 30.5065 26.6503 28.6573C27.4163 26.8081 28.7134 25.2276 30.3776 24.1156Z" fill="black"/>
</svg>
