<svg width="72" height="72" viewBox="0 0 72 72" fill="none" xmlns="http://www.w3.org/2000/svg">
<path d="M61 50C59.44 48.11 57.61 45.48 57.38 44.59C56.93 42.9 56.7 36.59 56.66 33.03C56.652 28.3906 55.0001 23.904 51.9977 20.367C48.9953 16.83 44.8366 14.4715 40.26 13.71V12.91C40.26 11.8492 39.8386 10.8318 39.0885 10.0816C38.3383 9.33146 37.3209 8.91003 36.26 8.91003C35.1992 8.91003 34.1817 9.33146 33.4316 10.0816C32.6815 10.8318 32.26 11.8492 32.26 12.91V13.71C27.6922 14.4748 23.5422 16.8309 20.5444 20.3612C17.5466 23.8916 15.8943 28.3686 15.88 33C15.88 36.59 15.62 42.9 15.17 44.59C14.94 45.48 13.11 48.11 11.55 50C11.2485 50.3659 11.0572 50.8099 10.9985 51.2803C10.9398 51.7508 11.016 52.2282 11.2183 52.6569C11.4206 53.0857 11.7407 53.448 12.1411 53.7018C12.5416 53.9555 13.0059 54.0902 13.48 54.09H28.29C28.2856 54.1232 28.2856 54.1568 28.29 54.19C28.29 58.47 31.65 61.57 36.29 61.57C40.93 61.57 44.29 58.47 44.29 54.19C44.29 54.19 44.29 54.13 44.29 54.09H59.09C59.5635 54.0901 60.0272 53.9558 60.4273 53.7026C60.8274 53.4495 61.1474 53.0879 61.35 52.66C61.5481 52.2287 61.6204 51.7502 61.5584 51.2796C61.4965 50.809 61.303 50.3654 61 50ZM39.29 54.2C39.29 56.47 36.79 56.58 36.29 56.58C35.79 56.58 33.29 56.47 33.29 54.2C33.29 54.2 33.29 54.14 33.29 54.1H39.29C39.29 54.1 39.29 54.17 39.29 54.2ZM18.41 49.1C19.0908 48.108 19.6262 47.0237 20 45.88C20.73 43.1 20.86 34.72 20.87 33.04C20.878 29.1686 22.4201 25.4581 25.1586 22.7215C27.897 19.9849 31.6086 18.4453 35.48 18.44H37.07C40.9458 18.4453 44.6608 19.9894 47.3985 22.7327C50.1363 25.4761 51.6727 29.1943 51.67 33.07C51.67 34.72 51.82 43.07 52.55 45.88C52.9272 47.0223 53.4624 48.1061 54.14 49.1H18.41Z" fill="black"/>
</svg>
