<svg width="72" height="72" viewBox="0 0 72 72" fill="none" xmlns="http://www.w3.org/2000/svg">
<path fill-rule="evenodd" clip-rule="evenodd" d="M48.63 33.61C51.5747 36.914 53.7684 40.8169 55.06 45.05C55.3012 45.814 55.359 46.6241 55.2286 47.4146C55.0983 48.2051 54.7836 48.9538 54.31 49.6C53.8439 50.2512 53.2283 50.781 52.5148 51.1447C51.8013 51.5084 51.0108 51.6954 50.21 51.69H41.64C42.3445 52.7733 42.7197 54.0377 42.72 55.33C42.7443 56.3708 42.5107 57.4014 42.04 58.33C41.0523 59.8371 39.8419 61.1857 38.45 62.33L37.81 62.91C37.3165 63.3836 36.659 63.6481 35.975 63.6481C35.291 63.6481 34.6335 63.3836 34.14 62.91C33.98 62.75 33.76 62.55 33.51 62.33C32.1181 61.1857 30.9077 59.8371 29.92 58.33C29.4493 57.4014 29.2157 56.3708 29.24 55.33C29.2387 54.036 29.6177 52.7702 30.33 51.69H21.79C20.9892 51.6954 20.1988 51.5084 19.4853 51.1447C18.7718 50.781 18.1561 50.2512 17.69 49.6C17.2164 48.9538 16.9017 48.2051 16.7714 47.4146C16.6411 46.6241 16.6989 45.814 16.94 45.05C18.2248 40.8344 20.4045 36.9459 23.33 33.65C23.46 20.38 29.37 12.85 32.91 9.53997C33.7376 8.75133 34.8369 8.3114 35.98 8.3114C37.1232 8.3114 38.2225 8.75133 39.05 9.53997C42.63 12.85 48.49 20.36 48.63 33.61ZM36 59.19C36.9571 58.3917 37.8044 57.4704 38.52 56.45C38.6863 56.1011 38.762 55.7159 38.74 55.33C38.74 54.6033 38.4513 53.9064 37.9375 53.3925C37.4236 52.8787 36.7267 52.59 36 52.59C35.2733 52.59 34.5764 52.8787 34.0625 53.3925C33.5487 53.9064 33.26 54.6033 33.26 55.33C33.2318 55.7142 33.3006 56.0993 33.46 56.45C34.1818 57.4716 35.0359 58.393 36 59.19ZM35.796 12.3455C35.7376 12.3697 35.6846 12.4052 35.64 12.45V12.46C33.14 14.8 27.33 21.57 27.37 34.13V34.39C27.3813 34.57 27.3996 34.7528 27.418 34.9374C27.4488 35.245 27.48 35.5575 27.48 35.87C27.7082 39.1436 28.1189 42.402 28.71 45.63C28.7279 45.716 28.7523 45.7994 28.7761 45.8812C28.8188 46.0276 28.86 46.1688 28.86 46.31V46.45C28.8815 46.5316 28.9012 46.6115 28.9205 46.6902C28.9463 46.7947 28.9715 46.8974 29 47C29.0185 47.0289 29.0352 47.059 29.05 47.09C29.0704 47.1511 29.0899 47.2113 29.1091 47.2704C29.1558 47.4146 29.2004 47.5523 29.25 47.68H42.72C43.81 44.68 44.47 36.89 44.64 34.02C44.63 21.56 38.82 14.79 36.32 12.45C36.2754 12.4052 36.2224 12.3697 36.1641 12.3455C36.1058 12.3213 36.0432 12.3088 35.98 12.3088C35.9168 12.3088 35.8543 12.3213 35.796 12.3455ZM21.3011 47.5693C21.4523 47.6475 21.6198 47.6888 21.79 47.69L25.03 47.67V47.59L24.94 47.21C24.9125 47.1053 24.8879 46.9975 24.8631 46.8884C24.8429 46.7995 24.8225 46.7098 24.8 46.62L24.71 46.18L24.59 45.59L24.5 45.1C24.4891 45.0309 24.4729 44.9618 24.4567 44.8927C24.4284 44.7718 24.4 44.6509 24.4 44.53L24.31 43.98C24.3011 43.9264 24.2904 43.8738 24.2798 43.8215C24.2547 43.6979 24.23 43.5764 24.23 43.45L24.14 42.83C24.09 42.71 24.09 42.59 24.09 42.47C23.96 41.51 23.85 40.56 23.75 39.65C22.475 41.7107 21.4669 43.9251 20.75 46.24C20.696 46.4081 20.6833 46.5867 20.7129 46.7607C20.7425 46.9348 20.8135 47.0992 20.92 47.24C21.0193 47.3782 21.1499 47.4911 21.3011 47.5693ZM50.699 47.5693C50.8502 47.4911 50.9807 47.3782 51.08 47.24C51.1769 47.1021 51.2408 46.9439 51.2668 46.7774C51.2928 46.611 51.2802 46.4408 51.23 46.28C50.5131 43.9651 49.5051 41.7507 48.23 39.69C47.975 42.3826 47.5407 45.0552 46.93 47.69H50.21C50.3802 47.6888 50.5478 47.6475 50.699 47.5693ZM39.2836 34.9126C38.3127 35.5655 37.1701 35.9161 36.0001 35.92C35.2213 35.9214 34.4499 35.7693 33.73 35.4725C33.01 35.1757 32.3556 34.74 31.804 34.1903C31.2524 33.6405 30.8145 32.9876 30.5153 32.2686C30.2161 31.5496 30.0614 30.7788 30.0601 30C30.0601 28.83 30.4068 27.6863 31.0564 26.7132C31.706 25.7401 32.6294 24.9813 33.71 24.5326C34.7906 24.084 35.9798 23.9656 37.1277 24.1924C38.2755 24.4192 39.3303 24.981 40.1591 25.807C40.9878 26.6329 41.5532 27.6859 41.7839 28.8329C42.0145 29.9799 41.9002 31.1696 41.4551 32.2517C41.0101 33.3338 40.2545 34.2597 39.2836 34.9126ZM37.3401 28.0083C36.9445 27.7395 36.4782 27.594 36.0001 27.59C35.6814 27.5874 35.3654 27.6477 35.0701 27.7675C34.7749 27.8874 34.5062 28.0643 34.2795 28.2882C34.0528 28.5121 33.8725 28.7786 33.749 29.0724C33.6256 29.3661 33.5614 29.6814 33.5601 30C33.5581 30.4782 33.6979 30.9463 33.9617 31.3451C34.2255 31.744 34.6016 32.0557 35.0425 32.241C35.4833 32.4262 35.9692 32.4767 36.4387 32.3861C36.9082 32.2955 37.3404 32.0678 37.6806 31.7317C38.0208 31.3957 38.2539 30.9664 38.3503 30.498C38.4468 30.0296 38.4023 29.5432 38.2225 29.1001C38.0427 28.6569 37.7356 28.277 37.3401 28.0083Z" fill="black"/>
</svg>
