<svg width="72" height="72" viewBox="0 0 72 72" fill="none" xmlns="http://www.w3.org/2000/svg">
<path d="M39.5401 35.63L55.1301 20C55.5146 19.5181 55.7074 18.9111 55.6716 18.2956C55.6358 17.6802 55.3738 17.0997 54.936 16.6656C54.4982 16.2315 53.9155 15.9745 53.2998 15.944C52.684 15.9134 52.0787 16.1114 51.6001 16.5L36.0001 32.09L20.4001 16.5C20.1812 16.2256 19.907 16.0004 19.5953 15.839C19.2836 15.6776 18.9415 15.5837 18.5911 15.5633C18.2407 15.5429 17.8899 15.5965 17.5616 15.7207C17.2333 15.8448 16.9348 16.0367 16.6856 16.2838C16.4364 16.5309 16.2419 16.8277 16.115 17.155C15.9881 17.4822 15.9315 17.8325 15.9489 18.183C15.9663 18.5336 16.0573 18.8766 16.216 19.1896C16.3747 19.5027 16.5976 19.7788 16.8701 20L32.4601 35.6L16.8701 51.23C16.523 51.5802 16.2872 52.0251 16.1923 52.509C16.0974 52.9928 16.1477 53.4939 16.3369 53.9492C16.5261 54.4045 16.8457 54.7938 17.2555 55.0679C17.6653 55.3421 18.147 55.4889 18.6401 55.49C18.9673 55.492 19.2917 55.4285 19.594 55.3031C19.8962 55.1777 20.1703 54.993 20.4001 54.76L36.0001 39.16L51.6001 54.76C51.8298 54.993 52.1039 55.1777 52.4062 55.3031C52.7085 55.4285 53.0328 55.492 53.3601 55.49C53.8531 55.4889 54.3349 55.3421 54.7447 55.0679C55.1545 54.7938 55.4741 54.4045 55.6632 53.9492C55.8524 53.4939 55.9027 52.9928 55.8079 52.509C55.713 52.0251 55.4772 51.5802 55.1301 51.23L39.5401 35.63Z" fill="black"/>
</svg>
