<svg width="72" height="72" viewBox="0 0 72 72" fill="none" xmlns="http://www.w3.org/2000/svg">
<path fill-rule="evenodd" clip-rule="evenodd" d="M62 32.2301C61.9473 31.864 61.7942 31.5198 61.5576 31.2356C61.321 30.9514 61.0103 30.7383 60.66 30.6201C60.3161 30.5089 59.9486 30.493 59.5965 30.574C59.2443 30.655 58.9207 30.8299 58.66 31.0801C58.2672 31.4741 57.7993 31.7852 57.2839 31.9948C56.7685 32.2044 56.2163 32.3082 55.66 32.3001C54.9454 32.297 54.2435 32.1118 53.6206 31.7618C52.9976 31.4118 52.4742 30.9087 52.1 30.3001C51.8769 29.9626 51.5568 29.7008 51.1819 29.549C50.807 29.3973 50.3949 29.3628 50 29.4501C49.5072 29.5587 49.0045 29.6157 48.5 29.6201C46.7221 29.6201 45.0169 28.9145 43.7588 27.6583C42.5007 26.4021 41.7926 24.6979 41.79 22.9201C41.7971 22.5614 41.8306 22.2038 41.89 21.8501C41.9357 21.5012 41.8886 21.1465 41.7534 20.8217C41.6182 20.4968 41.3997 20.2134 41.12 20.0001C40.6397 19.6128 40.2501 19.125 39.9788 18.5709C39.7074 18.0168 39.5608 17.4099 39.5494 16.7931C39.538 16.1762 39.6619 15.5643 39.9125 15.0006C40.1632 14.4368 40.5344 13.9348 41 13.5301C41.3016 13.2832 41.5246 12.9536 41.6414 12.5818C41.7583 12.21 41.7639 11.8121 41.6577 11.4371C41.5515 11.0621 41.338 10.7263 41.0435 10.471C40.7489 10.2157 40.3863 10.052 40 10.0001C34.6997 9.18317 29.2763 10.0087 24.4591 12.3656C19.6419 14.7225 15.6618 18.4978 13.054 23.1839C10.4461 27.87 9.3355 33.2422 9.8715 38.5782C10.4075 43.9142 12.5644 48.9582 16.0522 53.032C19.54 57.1058 24.1914 60.0141 29.3812 61.3658C34.5709 62.7175 40.0501 62.4479 45.082 60.5931C50.114 58.7384 54.4574 55.3875 57.5283 50.9909C60.5993 46.5943 62.2505 41.3629 62.26 36.0001C62.2671 34.7387 62.1802 33.4785 62 32.2301ZM58.26 36.0001C58.26 40.4027 56.9544 44.7064 54.5085 48.367C52.0625 52.0277 48.586 54.8808 44.5185 56.5656C40.451 58.2504 35.9753 58.6912 31.6573 57.8323C27.3392 56.9734 23.3729 54.8534 20.2598 51.7402C17.1467 48.6271 15.0266 44.6608 14.1677 40.3428C13.3088 36.0247 13.7496 31.549 15.4344 27.4815C17.1192 23.414 19.9723 19.9375 23.633 17.4915C27.2936 15.0456 31.5974 13.7401 36 13.7401H36.11C35.5562 15.1799 35.4173 16.7462 35.709 18.2611C36.0006 19.776 36.7112 21.1787 37.76 22.3101V22.9201C37.7595 24.4157 38.0725 25.8949 38.679 27.2622C39.2854 28.6294 40.1718 29.8543 41.2808 30.8578C42.3899 31.8613 43.697 32.6212 45.1179 33.0884C46.5388 33.5555 48.0418 33.7196 49.53 33.5701C50.298 34.4306 51.2395 35.1188 52.2926 35.5893C53.3457 36.0599 54.4865 36.3021 55.64 36.3001C56.53 36.2987 57.4142 36.157 58.26 35.8801V36.0001ZM29.78 20.44C29.1621 20.438 28.5575 20.6195 28.0429 20.9616C27.5283 21.3037 27.1268 21.7908 26.8894 22.3614C26.6521 22.9319 26.5894 23.56 26.7095 24.1662C26.8296 24.7723 27.1269 25.3292 27.5639 25.7661C28.0008 26.2031 28.5576 26.5004 29.1638 26.6205C29.7699 26.7405 30.3981 26.6779 30.9686 26.4405C31.5391 26.2031 32.0263 25.8017 32.3684 25.2871C32.7104 24.7725 32.892 24.1679 32.89 23.55C32.89 22.7251 32.5623 21.9341 31.9791 21.3509C31.3959 20.7676 30.6048 20.44 29.78 20.44ZM38.8322 38.7392C38.4704 38.9809 38.0451 39.11 37.61 39.11C37.0265 39.11 36.4669 38.8782 36.0543 38.4656C35.6418 38.053 35.41 37.4934 35.41 36.91C35.41 36.4748 35.539 36.0495 35.7807 35.6877C36.0225 35.3259 36.3661 35.0439 36.7681 34.8774C37.1701 34.7109 37.6124 34.6673 38.0392 34.7522C38.4659 34.8371 38.8579 35.0467 39.1656 35.3543C39.4733 35.662 39.6828 36.054 39.7677 36.4808C39.8526 36.9075 39.809 37.3499 39.6425 37.7519C39.476 38.1539 39.194 38.4975 38.8322 38.7392ZM25.75 46.25C25.3149 46.25 24.8895 46.379 24.5277 46.6208C24.1659 46.8625 23.884 47.2061 23.7175 47.6081C23.5509 48.0101 23.5074 48.4524 23.5923 48.8792C23.6771 49.306 23.8867 49.698 24.1944 50.0056C24.502 50.3133 24.894 50.5228 25.3208 50.6077C25.7475 50.6926 26.1899 50.649 26.5919 50.4825C26.9939 50.316 27.3375 50.034 27.5792 49.6723C27.821 49.3105 27.95 48.8851 27.95 48.45C27.95 47.8665 27.7182 47.3069 27.3056 46.8944C26.893 46.4818 26.3335 46.25 25.75 46.25ZM50.9777 39.7506C51.3395 39.5089 51.7649 39.3799 52.2 39.3799C52.7835 39.3799 53.3431 39.6117 53.7556 40.0242C54.1682 40.4368 54.4 40.9964 54.4 41.5799C54.4 42.015 54.271 42.4403 54.0292 42.8021C53.7875 43.1639 53.4439 43.4459 53.0419 43.6124C52.6399 43.7789 52.1976 43.8225 51.7708 43.7376C51.344 43.6527 50.952 43.4432 50.6444 43.1355C50.3367 42.8278 50.1272 42.4358 50.0423 42.0091C49.9574 41.5823 50.001 41.14 50.1675 40.738C50.334 40.336 50.616 39.9924 50.9777 39.7506ZM22.86 39.8099C24.9642 39.8099 26.67 38.1041 26.67 35.9999C26.67 33.8957 24.9642 32.1899 22.86 32.1899C20.7558 32.1899 19.05 33.8957 19.05 35.9999C19.05 38.1041 20.7558 39.8099 22.86 39.8099ZM37.6906 45.2771C38.3184 44.8597 39.056 44.6379 39.81 44.6399C40.3099 44.6399 40.8048 44.7385 41.2665 44.9301C41.7282 45.1217 42.1475 45.4025 42.5005 45.7564C42.8535 46.1104 43.1332 46.5304 43.3236 46.9926C43.514 47.4548 43.6113 47.95 43.61 48.4499C43.61 49.2039 43.3863 49.9409 42.9672 50.5677C42.5481 51.1944 41.9525 51.6828 41.2557 51.9708C40.5589 52.2589 39.7924 52.3338 39.053 52.186C38.3137 52.0381 37.6348 51.6743 37.1024 51.1404C36.5699 50.6066 36.2079 49.9268 36.062 49.187C35.9161 48.4473 35.993 47.681 36.2829 46.9849C36.5728 46.2889 37.0627 45.6946 37.6906 45.2771Z" fill="black"/>
</svg>
