<svg width="72" height="72" viewBox="0 0 72 72" fill="none" xmlns="http://www.w3.org/2000/svg">
<path fill-rule="evenodd" clip-rule="evenodd" d="M45.34 10.19C52.93 11.79 58.11 16.89 59.56 24.19C61.25 32.72 59.86 41.24 55.84 47C53.9604 49.4564 51.8177 51.6998 49.45 53.69L48.18 54.87C45.28 57.57 42.32 60.14 40.05 62.08C39.576 62.4816 38.989 62.7262 38.37 62.78C38.2836 62.7899 38.1964 62.7899 38.11 62.78C37.3143 62.78 36.5513 62.4639 35.9887 61.9013C35.4261 61.3387 35.11 60.5756 35.11 59.78V55.49C29.29 55.19 21.9 53.16 18 49.1C13.12 44 11.91 36.84 11.73 31.74C11.46 22.9 14.44 16.1 20.12 12.58C24.64 9.77996 30.89 9.18996 35.34 9.18996C38.6984 9.18734 42.0486 9.52236 45.34 10.19ZM46.79 50.68C48.9172 48.8865 50.851 46.8756 52.56 44.68H52.57C56 39.82 57.12 32.45 55.62 24.93C54.51 19.2 50.51 15.35 44.51 14.08C41.494 13.4772 38.4256 13.1758 35.35 13.18C29.8 13.18 25.14 14.17 22.24 15.97C16.28 19.66 15.57 27.23 15.74 31.61C15.91 35.99 16.91 42.09 20.91 46.3C24.19 49.71 31.31 51.5 36.64 51.5C37.303 51.5 37.9389 51.7633 38.4078 52.2322C38.8766 52.701 39.14 53.3369 39.14 54V57.56C41.07 55.88 43.3 53.88 45.5 51.88L46.79 50.68ZM39.42 24.2599C38.4364 23.8457 37.3771 23.6414 36.31 23.6599C35.2608 23.6613 34.2182 23.8266 33.22 24.1499C32.235 24.4589 31.3064 24.9249 30.47 25.5299C30.206 25.7225 29.9847 25.9677 29.82 26.2499C29.6779 26.5423 29.6093 26.865 29.62 27.1899C29.6023 27.7011 29.7691 28.2016 30.09 28.5999C30.2215 28.7758 30.3919 28.9189 30.588 29.0178C30.7841 29.1167 31.0004 29.1688 31.22 29.1699C31.7457 29.1215 32.2526 28.9502 32.7 28.6699L33.34 28.3399C33.7733 28.0902 34.2245 27.8729 34.69 27.6899C35.0795 27.5405 35.4928 27.4626 35.91 27.4599C36.3319 27.4377 36.7485 27.5612 37.09 27.8099C37.2301 27.9222 37.3419 28.0656 37.4166 28.2289C37.4912 28.3921 37.5267 28.5705 37.52 28.7499C37.5201 29.1287 37.4126 29.4998 37.21 29.8199C36.9347 30.2367 36.6271 30.6313 36.29 30.9999C35.7883 31.5084 35.3547 32.0798 35 32.6999C34.6558 33.345 34.4869 34.0691 34.51 34.7999C34.4805 35.2598 34.6191 35.7147 34.9 36.0799C35.0344 36.2349 35.2025 36.357 35.3915 36.4367C35.5805 36.5165 35.7852 36.5518 35.99 36.5399C36.3498 36.5488 36.7022 36.436 36.99 36.2199C37.2693 35.9908 37.4544 35.6668 37.51 35.3099C37.6158 34.9021 37.822 34.5274 38.11 34.2199C38.5056 33.7818 38.9334 33.374 39.39 32.9999C39.4759 32.9235 39.5596 32.8494 39.6411 32.7772L39.642 32.7764C40.1574 32.3198 40.5834 31.9424 40.92 31.5799C41.3289 31.1646 41.6667 30.6848 41.92 30.1599C42.2487 29.4901 42.3889 28.7434 42.3254 28C42.262 27.2565 41.9974 26.5444 41.56 25.9399C41.0077 25.2006 40.2693 24.6209 39.42 24.2599ZM36 37.74C35.66 37.7339 35.3223 37.7973 35.0077 37.9263C34.693 38.0553 34.408 38.2471 34.17 38.49C33.6944 38.9885 33.429 39.651 33.429 40.34C33.429 41.0289 33.6944 41.6915 34.17 42.19C34.4065 42.4348 34.6913 42.6279 35.0063 42.757C35.3213 42.8861 35.6597 42.9484 36 42.94C36.3451 42.9507 36.6886 42.8896 37.0088 42.7605C37.3291 42.6314 37.6189 42.4371 37.86 42.19C38.229 41.8257 38.4806 41.3594 38.5826 40.851C38.6845 40.3427 38.6322 39.8154 38.4322 39.3371C38.2323 38.8587 37.8938 38.451 37.4604 38.1664C37.027 37.8818 36.5184 37.7333 36 37.74Z" fill="black"/>
</svg>
