<svg width="72" height="72" viewBox="0 0 72 72" fill="none" xmlns="http://www.w3.org/2000/svg">
<path fill-rule="evenodd" clip-rule="evenodd" d="M57.6401 25.06C57.6447 25.1032 57.6447 25.1468 57.6401 25.19C57.6687 25.2478 57.6921 25.3081 57.7101 25.37V55.25C57.7101 56.7379 57.1191 58.1648 56.067 59.2169C55.0149 60.2689 53.588 60.86 52.1001 60.86H20.0001C18.5294 60.8602 17.1175 60.2829 16.0682 59.2524C15.019 58.2218 14.4164 56.8205 14.3901 55.35V16.85C14.3901 15.3621 14.9812 13.9352 16.0333 12.8831C17.0853 11.831 18.5123 11.24 20.0001 11.24H45.2701C45.4222 11.2395 45.5735 11.2597 45.7201 11.3C45.7532 11.2942 45.7871 11.2942 45.8201 11.3C45.9777 11.3391 46.1291 11.3996 46.2701 11.48H46.3301C46.4877 11.5779 46.6293 11.6993 46.7501 11.84L57.2601 24.13V24.18C57.3585 24.3033 57.4424 24.4375 57.5101 24.58C57.5686 24.7355 57.6121 24.8962 57.6401 25.06ZM47.5992 22.9909C47.7243 23.116 47.8932 23.1874 48.0701 23.19L51.2401 23.26L47.3301 18.67L47.4001 22.52C47.4027 22.6969 47.4741 22.8658 47.5992 22.9909ZM53.1886 56.3284C53.4905 56.0265 53.6601 55.617 53.6601 55.19L53.6801 27.33L48.0001 27.2C46.7892 27.1821 45.6325 26.6944 44.7743 25.8399C43.9161 24.9854 43.4233 23.8309 43.4001 22.62L43.2601 15.14H20.0001C19.5731 15.14 19.1636 15.3096 18.8617 15.6116C18.5598 15.9135 18.3901 16.323 18.3901 16.75V55.19C18.3901 55.617 18.5598 56.0265 18.8617 56.3284C19.1636 56.6304 19.5731 56.8 20.0001 56.8H52.0501C52.4771 56.8 52.8866 56.6304 53.1886 56.3284ZM37.6901 26.42C38.2069 26.6998 38.6204 27.1379 38.8701 27.67L46.9001 44.06C47.0708 44.4091 47.163 44.7914 47.1701 45.18C47.1712 45.5049 47.1 45.8261 46.9617 46.1201C46.8233 46.4141 46.6212 46.6737 46.3701 46.88C45.8653 47.3264 45.214 47.572 44.5401 47.57C44.0908 47.5755 43.6497 47.4504 43.2701 47.21C42.8642 46.9463 42.5471 46.5664 42.3601 46.12L41.0001 43.12H31.1501L29.7601 46.12C29.5796 46.5554 29.2724 46.9265 28.8783 47.1851C28.4842 47.4437 28.0214 47.5778 27.5501 47.57C26.8676 47.5692 26.2079 47.3245 25.6901 46.88C25.4318 46.6781 25.2229 46.4202 25.0791 46.1257C24.9353 45.8311 24.8604 45.5077 24.8601 45.18C24.8672 44.7914 24.9594 44.4091 25.1301 44.06L33.1301 27.67C33.378 27.1432 33.7833 26.7064 34.2901 26.42C34.8101 26.131 35.3952 25.9794 35.9901 25.9794C36.585 25.9794 37.1701 26.131 37.6901 26.42ZM36.0001 32.15L33.0001 38.89H39.0001L36.0001 32.15Z" fill="black"/>
</svg>
