<svg width="72" height="72" viewBox="0 0 72 72" fill="none" xmlns="http://www.w3.org/2000/svg">
<path fill-rule="evenodd" clip-rule="evenodd" d="M60.37 29.41C60.4217 29.5717 60.4486 29.7402 60.45 29.91V30.22L57.93 51.39C57.787 52.4938 57.2476 53.5081 56.4124 54.2439C55.5773 54.9798 54.5031 55.3871 53.39 55.39C53.2068 55.3999 53.0232 55.3999 52.84 55.39L46.18 54.6C45.7253 55.1753 45.1464 55.6405 44.4867 55.9608C43.827 56.2812 43.1034 56.4484 42.37 56.45H16.45C15.8052 56.45 15.1668 56.323 14.5711 56.0762C13.9754 55.8295 13.4341 55.4678 12.9781 55.0119C12.5222 54.5559 12.1605 54.0146 11.9138 53.4189C11.667 52.8232 11.54 52.1848 11.54 51.54V20.74C11.54 19.4377 12.0573 18.1889 12.9781 17.2681C13.8989 16.3473 15.1478 15.83 16.45 15.83H36.98C37.133 15.8147 37.2871 15.8147 37.44 15.83H37.53C37.6865 15.8768 37.8374 15.9405 37.98 16.02H38.05C38.2 16.1202 38.3376 16.2376 38.46 16.37L38.97 16.97L52.42 18.57C52.5744 18.5912 52.7256 18.6315 52.87 18.69H52.97C53.1162 18.7526 53.2539 18.8332 53.38 18.93H53.44C53.5785 19.0484 53.7027 19.1827 53.81 19.33L60.17 28.88V28.94C60.2528 29.0717 60.3199 29.2127 60.37 29.36C60.3725 29.3765 60.3725 29.3934 60.37 29.41ZM53.56 26.2L53.45 27.25L54.34 27.38L53.56 26.2ZM39.0669 25.2031C39.0969 25.2331 39.1376 25.25 39.18 25.25L40.92 25.31L39.02 23.09V25.09C39.02 25.1324 39.0369 25.1731 39.0669 25.2031ZM16.45 52.41H42.39L42.37 52.45C42.6114 52.45 42.8428 52.3541 43.0135 52.1834C43.1842 52.0128 43.28 51.7813 43.28 51.54V29.38L39.07 29.29C37.9944 29.2668 36.9696 28.8279 36.2107 28.0653C35.4518 27.3027 35.0179 26.2757 35 25.2L34.89 19.55H16.45C16.2087 19.55 15.9772 19.6458 15.8066 19.8165C15.6359 19.9872 15.54 20.2186 15.54 20.46V51.5C15.54 51.7413 15.6359 51.9728 15.8066 52.1434C15.9772 52.3141 16.2087 52.41 16.45 52.41ZM47.33 50.69L53.33 51.41L53.31 51.42C53.3895 51.4391 53.4723 51.4406 53.5524 51.4243C53.6326 51.4081 53.7082 51.3745 53.774 51.3259C53.8397 51.2772 53.894 51.2148 53.9331 51.143C53.9722 51.0711 53.995 50.9916 54 50.91L56.38 31.69L52.92 31.2C51.9202 31.0603 51.0135 30.5383 50.3906 29.7438C49.7677 28.9493 49.4771 27.9443 49.58 26.94L50.05 22.19L42.86 21.34L46.94 26.12V26.18C47.0406 26.3018 47.1246 26.4362 47.19 26.58V26.63C47.2576 26.7831 47.3047 26.9445 47.33 27.11C47.3346 27.1532 47.3346 27.1967 47.33 27.24C47.335 27.2999 47.335 27.3601 47.33 27.42V50.69ZM30.8499 35.41H35.9999C36.5304 35.41 37.0391 35.6207 37.4142 35.9958C37.7892 36.3709 37.9999 36.8796 37.9999 37.41C37.9999 37.9404 37.7892 38.4492 37.4142 38.8242C37.0391 39.1993 36.5304 39.41 35.9999 39.41H30.8499V44.57C30.8499 45.1004 30.6392 45.6092 30.2642 45.9842C29.8891 46.3593 29.3804 46.57 28.8499 46.57C28.3195 46.57 27.8108 46.3593 27.4357 45.9842C27.0607 45.6092 26.8499 45.1004 26.8499 44.57V39.41H21.6899C21.1595 39.41 20.6508 39.1993 20.2757 38.8242C19.9007 38.4492 19.6899 37.9404 19.6899 37.41C19.6899 36.8796 19.9007 36.3709 20.2757 35.9958C20.6508 35.6207 21.1595 35.41 21.6899 35.41H26.8499V30.26C26.8499 29.7296 27.0607 29.2209 27.4357 28.8458C27.8108 28.4707 28.3195 28.26 28.8499 28.26C29.3804 28.26 29.8891 28.4707 30.2642 28.8458C30.6392 29.2209 30.8499 29.7296 30.8499 30.26V35.41Z" fill="black"/>
</svg>
