<svg width="72" height="72" viewBox="0 0 72 72" fill="none" xmlns="http://www.w3.org/2000/svg">
<path fill-rule="evenodd" clip-rule="evenodd" d="M21.4885 14.282C25.7839 11.4119 30.834 9.88 36 9.88C42.925 9.88794 49.5641 12.6424 54.4609 17.5391C59.3576 22.4359 62.1121 29.075 62.12 36C62.12 41.1661 60.5881 46.2161 57.718 50.5115C54.8479 54.8069 50.7685 58.1548 45.9957 60.1317C41.2229 62.1087 35.971 62.626 30.9043 61.6181C25.8375 60.6103 21.1833 58.1226 17.5304 54.4696C13.8774 50.8167 11.3898 46.1625 10.3819 41.0958C9.37406 36.029 9.89132 30.7771 11.8683 26.0043C13.8452 21.2315 17.1931 17.1521 21.4885 14.282ZM23.7108 54.3921C27.3484 56.8227 31.6251 58.12 36 58.12C41.865 58.1147 47.4882 55.7825 51.6354 51.6354C55.7825 47.4882 58.1147 41.865 58.12 36C58.12 31.6251 56.8227 27.3484 54.3921 23.7108C51.9615 20.0732 48.5069 17.238 44.465 15.5638C40.4231 13.8896 35.9755 13.4515 31.6846 14.305C27.3938 15.1585 23.4524 17.2653 20.3588 20.3588C17.2653 23.4523 15.1586 27.3937 14.305 31.6846C13.4515 35.9755 13.8896 40.4231 15.5638 44.465C17.238 48.5069 20.0732 51.9615 23.7108 54.3921ZM36 23C35.2946 22.9652 34.602 23.1972 34.06 23.65C33.8243 23.8682 33.6387 24.1351 33.5161 24.432C33.3935 24.729 33.3369 25.049 33.35 25.37C33.3398 25.6936 33.3978 26.0157 33.5201 26.3155C33.6424 26.6152 33.8263 26.8859 34.06 27.11C34.5985 27.5699 35.2927 27.8061 36 27.77C36.7046 27.8087 37.3966 27.572 37.93 27.11C38.167 26.888 38.3539 26.6179 38.478 26.3178C38.6022 26.0177 38.6608 25.6946 38.65 25.37C38.6641 25.047 38.6059 24.725 38.4796 24.4274C38.3533 24.1298 38.1621 23.8642 37.92 23.65C37.3832 23.202 36.6986 22.9702 36 23ZM36 30.9301C35.4212 30.9052 34.854 31.0979 34.41 31.4701C34.1987 31.6629 34.0326 31.9 33.9237 32.1645C33.8148 32.4291 33.7657 32.7144 33.78 33.0001V46.8801C33.7609 47.1752 33.8075 47.4709 33.9165 47.7458C34.0254 48.0208 34.194 48.2681 34.41 48.4701C34.854 48.8413 35.4221 49.0307 36 49.0001C36.5875 49.0195 37.1613 48.82 37.61 48.4401C37.8296 48.24 38.0019 47.9934 38.1144 47.7184C38.2268 47.4434 38.2766 47.1467 38.26 46.8501V33.0001C38.2794 32.7061 38.2308 32.4115 38.1181 32.1393C38.0054 31.867 37.8315 31.6243 37.61 31.4301C37.151 31.075 36.5793 30.8975 36 30.9301Z" fill="black"/>
</svg>
