<svg width="72" height="72" viewBox="0 0 72 72" fill="none" xmlns="http://www.w3.org/2000/svg">
<path fill-rule="evenodd" clip-rule="evenodd" d="M22.44 23.5201C22.44 25.0168 21.2267 26.2301 19.73 26.2301C18.2333 26.2301 17.02 25.0168 17.02 23.5201C17.02 22.0234 18.2333 20.8101 19.73 20.8101C21.2267 20.8101 22.44 22.0234 22.44 23.5201ZM29 26H55C55.6631 26 56.299 25.7366 56.7678 25.2678C57.2366 24.7989 57.5 24.163 57.5 23.5C57.5 22.837 57.2366 22.2011 56.7678 21.7322C56.299 21.2634 55.6631 21 55 21H29C28.337 21 27.7011 21.2634 27.2323 21.7322C26.7634 22.2011 26.5 22.837 26.5 23.5C26.5 24.163 26.7634 24.7989 27.2323 25.2678C27.7011 25.7366 28.337 26 29 26ZM55 38.87H29C28.337 38.87 27.7011 38.6066 27.2323 38.1378C26.7634 37.6689 26.5 37.033 26.5 36.37C26.5 35.707 26.7634 35.0711 27.2323 34.6022C27.7011 34.1334 28.337 33.87 29 33.87H55C55.6631 33.87 56.299 34.1334 56.7678 34.6022C57.2366 35.0711 57.5 35.707 57.5 36.37C57.5 37.033 57.2366 37.6689 56.7678 38.1378C56.299 38.6066 55.6631 38.87 55 38.87ZM22.44 36.37C22.44 37.8667 21.2267 39.08 19.73 39.08C18.2333 39.08 17.02 37.8667 17.02 36.37C17.02 34.8733 18.2333 33.66 19.73 33.66C21.2267 33.66 22.44 34.8733 22.44 36.37ZM55 51H29C28.337 51 27.7011 50.7366 27.2323 50.2678C26.7634 49.7989 26.5 49.163 26.5 48.5C26.5 47.837 26.7634 47.2011 27.2323 46.7322C27.7011 46.2634 28.337 46 29 46H55C55.6631 46 56.299 46.2634 56.7678 46.7322C57.2366 47.2011 57.5 47.837 57.5 48.5C57.5 49.163 57.2366 49.7989 56.7678 50.2678C56.299 50.7366 55.6631 51 55 51ZM22.44 48.48C22.44 49.9767 21.2267 51.19 19.73 51.19C18.2333 51.19 17.02 49.9767 17.02 48.48C17.02 46.9833 18.2333 45.77 19.73 45.77C21.2267 45.77 22.44 46.9833 22.44 48.48Z" fill="black"/>
</svg>
