<svg width="72" height="72" viewBox="0 0 72 72" fill="none" xmlns="http://www.w3.org/2000/svg">
<path fill-rule="evenodd" clip-rule="evenodd" d="M14.5 10.0799H41.37C42.5272 10.0826 43.6362 10.5442 44.4535 11.3634C45.2709 12.1827 45.73 13.2927 45.7299 14.4499V52.5099C45.7299 53.6663 45.2706 54.7753 44.4529 55.5929C43.6353 56.4106 42.5263 56.8699 41.37 56.8699H33.49V59.9999C33.4729 60.6236 33.3014 61.2333 32.9907 61.7743C32.6801 62.3154 32.24 62.7709 31.71 63.0999C31.098 63.5009 30.3816 63.713 29.65 63.7099C29.1127 63.7094 28.5814 63.597 28.09 63.3799H28L12.21 55.3099C11.5844 54.9952 11.0592 54.512 10.6934 53.9148C10.3277 53.3177 10.136 52.6302 10.14 51.9299V13.9299C10.1399 12.9106 10.5442 11.9328 11.2641 11.2111C11.9839 10.4894 12.9606 10.0826 13.98 10.0799C14.0465 10.0752 14.1134 10.0752 14.18 10.0799H14.5ZM41.6245 52.7645C41.692 52.697 41.73 52.6054 41.73 52.5099V14.4499C41.73 14.3535 41.6924 14.2609 41.6251 14.1918C41.5579 14.1227 41.4663 14.0825 41.37 14.0799H25.93L30.93 15.8099C31.6762 16.0691 32.3234 16.5538 32.782 17.197C33.2407 17.8402 33.4881 18.61 33.49 19.3999V52.8699H41.37C41.4654 52.8699 41.557 52.832 41.6245 52.7645ZM54.61 24.8899L59.79 31.0599C60.5367 31.9434 60.9498 33.0609 60.9571 34.2176C60.9644 35.3744 60.5655 36.4971 59.83 37.3899L54.65 43.5699C54.4154 43.8507 54.1216 44.0761 53.7897 44.23C53.4577 44.3838 53.0959 44.4624 52.73 44.4599C52.254 44.4594 51.788 44.323 51.3868 44.0668C50.9857 43.8106 50.666 43.4452 50.4654 43.0135C50.2648 42.5818 50.1916 42.1018 50.2544 41.63C50.3172 41.1582 50.5134 40.7141 50.82 40.3499L56 34.1799L50.78 28.0999C50.3798 27.5892 50.1938 26.9429 50.2613 26.2976C50.3289 25.6524 50.6446 25.0586 51.1419 24.6418C51.6391 24.2251 52.279 24.0179 52.9261 24.0642C53.5733 24.1105 54.1771 24.4066 54.61 24.8899Z" fill="black"/>
</svg>
