<svg width="72" height="72" viewBox="0 0 72 72" fill="none" xmlns="http://www.w3.org/2000/svg">
<path d="M20.39 26H51.61C52.2731 26 52.9089 25.7366 53.3778 25.2678C53.8466 24.7989 54.11 24.163 54.11 23.5C54.11 22.837 53.8466 22.2011 53.3778 21.7322C52.9089 21.2634 52.2731 21 51.61 21H20.39C19.727 21 19.0911 21.2634 18.6222 21.7322C18.1534 22.2011 17.89 22.837 17.89 23.5C17.89 24.163 18.1534 24.7989 18.6222 25.2678C19.0911 25.7366 19.727 26 20.39 26Z" fill="black"/>
<path d="M51.61 33.87H20.39C19.727 33.87 19.0911 34.1334 18.6222 34.6022C18.1534 35.0711 17.89 35.707 17.89 36.37C17.89 37.033 18.1534 37.6689 18.6222 38.1378C19.0911 38.6066 19.727 38.87 20.39 38.87H51.61C52.2731 38.87 52.9089 38.6066 53.3778 38.1378C53.8466 37.6689 54.11 37.033 54.11 36.37C54.11 35.707 53.8466 35.0711 53.3778 34.6022C52.9089 34.1334 52.2731 33.87 51.61 33.87Z" fill="black"/>
<path d="M51.61 46H20.39C19.727 46 19.0911 46.2634 18.6222 46.7322C18.1534 47.2011 17.89 47.837 17.89 48.5C17.89 49.163 18.1534 49.7989 18.6222 50.2678C19.0911 50.7366 19.727 51 20.39 51H51.61C52.2731 51 52.9089 50.7366 53.3778 50.2678C53.8466 49.7989 54.11 49.163 54.11 48.5C54.11 47.837 53.8466 47.2011 53.3778 46.7322C52.9089 46.2634 52.2731 46 51.61 46Z" fill="black"/>
</svg>
