<svg width="72" height="72" viewBox="0 0 72 72" fill="none" xmlns="http://www.w3.org/2000/svg">
<path fill-rule="evenodd" clip-rule="evenodd" d="M43.83 49.8L44.28 49.39V49.37C44.4691 49.1724 44.6967 49.0157 44.9488 48.9096C45.2008 48.8035 45.472 48.7501 45.7455 48.753C46.0189 48.7558 46.2889 48.8147 46.5388 48.926C46.7886 49.0373 47.0129 49.1986 47.1979 49.4C47.3829 49.6015 47.5246 49.8387 47.6143 50.0971C47.704 50.3555 47.7397 50.6295 47.7193 50.9022C47.6989 51.175 47.6227 51.4406 47.4956 51.6828C47.3684 51.9249 47.1929 52.1384 46.98 52.31L46.53 52.73L45.33 53.83C42.62 56.36 39.81 58.8 37.67 60.63C37.2057 61.0269 36.6286 61.2682 36.02 61.32H35.76C34.9748 61.3043 34.227 60.9813 33.6773 60.4204C33.1276 59.8595 32.8198 59.1054 32.82 58.32V54.38C27.32 54.13 20.39 52.21 16.72 48.38C12.06 43.53 10.91 36.78 10.77 31.97C10.55 23.6 13.38 17.15 18.77 13.81C23.05 11.16 28.96 10.6 33.17 10.6C36.3331 10.5964 39.4887 10.9079 42.59 11.53C44.1124 11.8458 45.5926 12.3392 47 13C47.2403 13.1156 47.4555 13.2773 47.6333 13.4761C47.8111 13.6748 47.948 13.9066 48.0362 14.1583C48.1245 14.4099 48.1622 14.6765 48.1474 14.9427C48.1326 15.209 48.0655 15.4697 47.95 15.71C47.8344 15.9503 47.6727 16.1655 47.4739 16.3433C47.2752 16.5211 47.0434 16.6581 46.7917 16.7463C46.5401 16.8345 46.2735 16.8723 46.0073 16.8575C45.741 16.8427 45.4803 16.7756 45.24 16.66C44.1191 16.1381 42.9411 15.7488 41.73 15.5C38.899 14.9293 36.0179 14.6445 33.13 14.65C27.92 14.65 23.55 15.58 20.83 17.26C15.27 20.71 14.63 27.8 14.76 31.9C14.89 36 15.83 41.73 19.61 45.66C22.64 48.82 29.46 50.53 34.34 50.53C34.996 50.53 35.6253 50.7899 36.0901 51.2528C36.5549 51.7158 36.8173 52.344 36.82 53V56.11C38.61 54.57 40.61 52.77 42.61 50.93L43.83 49.8ZM60.95 33.82C60.9205 33.8821 60.8871 33.9422 60.85 34L60.76 34.04C60.72 34.1 60.64 34.19 60.64 34.19C60.6068 34.2275 60.5767 34.2677 60.55 34.31L52.3 43.25C51.8433 43.7068 51.2275 43.9691 50.5817 43.982C49.9359 43.9948 49.3102 43.7572 48.8357 43.3189C48.3612 42.8806 48.0747 42.2757 48.0364 41.6309C47.9981 40.986 48.2108 40.3514 48.63 39.86L53 35.12H36.86C36.1969 35.12 35.5611 34.8566 35.0922 34.3878C34.6234 33.9189 34.36 33.283 34.36 32.62C34.36 31.957 34.6234 31.3211 35.0922 30.8522C35.5611 30.3834 36.1969 30.12 36.86 30.12H53L48.67 25.4C48.4467 25.159 48.2731 24.8764 48.1591 24.5684C48.0451 24.2603 47.9928 23.9328 48.0054 23.6045C48.0179 23.2763 48.095 22.9537 48.2322 22.6552C48.3694 22.3568 48.564 22.0882 48.805 21.865C49.046 21.6417 49.3285 21.4681 49.6366 21.3541C49.9447 21.2401 50.2722 21.1878 50.6004 21.2004C50.9287 21.2129 51.2513 21.29 51.5497 21.4272C51.8482 21.5644 52.1167 21.759 52.34 22L60.59 30.88L60.68 31L60.85 31.19C60.8704 31.2178 60.8872 31.248 60.9 31.28C60.9371 31.3378 60.9705 31.3979 61 31.46L61.04 31.7V31.8C61.0677 31.865 61.0911 31.9318 61.11 32C61.1069 32.0566 61.1069 32.1134 61.11 32.17C61.1062 32.2032 61.1062 32.2368 61.11 32.27V32.47V32.66C61.1138 32.6764 61.1138 32.6935 61.11 32.71V32.89V33.1C61.1044 33.1331 61.1044 33.1669 61.11 33.2C61.1042 33.2565 61.1042 33.3135 61.11 33.37C61.0911 33.4349 61.0677 33.4984 61.04 33.56V33.66L60.95 33.82Z" fill="black"/>
</svg>
