<svg width="72" height="72" viewBox="0 0 72 72" fill="none" xmlns="http://www.w3.org/2000/svg">
<path d="M24.9863 58.2996H24.7431C24.3145 58.2518 23.9095 58.0806 23.5779 57.8071C22.058 56.5104 20.0822 54.7916 18.147 53.0225L17.306 52.2686C15.73 50.9332 14.3033 49.4336 13.0504 47.7956C10.3451 43.966 9.41294 38.2868 10.5478 32.5975C10.9834 30.242 12.1403 28.0768 13.8609 26.3969C15.5815 24.717 17.7822 23.6039 20.1633 23.2093C22.3616 22.7716 24.5984 22.5528 26.8405 22.5559C29.8802 22.5559 34.0243 22.948 37.0741 24.8176C40.9243 27.1797 42.9407 31.7331 42.7482 37.6435C42.6468 41.0309 41.8261 45.7954 38.5129 49.223C35.919 51.8967 31.0555 53.2436 27.1647 53.4849V56.1486C27.1594 56.7192 26.9278 57.2648 26.5202 57.6673C26.1125 58.0699 25.5615 58.297 24.9863 58.2996ZM20.7814 26.1343C18.9836 26.4103 17.3177 27.237 16.0169 28.4986C14.7161 29.7602 13.8454 31.3937 13.5267 33.1705C12.5134 38.0656 13.3037 42.8804 15.5531 46.0567C16.6786 47.5279 17.9592 48.8757 19.373 50.0774L20.2241 50.8614C21.5615 52.0676 22.9193 53.2738 24.125 54.279V52.2686C24.1277 51.7816 24.3239 51.3153 24.671 50.9709C25.0182 50.6265 25.4883 50.4318 25.9792 50.4292C29.4141 50.4292 34.1965 49.2431 36.3243 47.0518C38.9688 44.3178 39.6274 40.3273 39.7186 37.4726C39.8098 34.6179 39.364 29.773 35.463 27.3807C33.5582 26.2147 30.4982 25.5714 26.8303 25.5714C24.789 25.5677 22.7525 25.7664 20.751 26.1645L20.7814 26.1343Z" fill="black"/>
<g opacity="0.6">
<path opacity="0.6" d="M39.0701 41.9958C39.0701 41.9958 39.0701 42.0763 39.0701 42.1064C39.468 40.6259 39.6924 39.1047 39.7388 37.5731C39.6857 39.0677 39.4613 40.5515 39.0701 41.9958Z" fill="black"/>
<path opacity="0.6" d="M30.873 25.873C31.329 25.9433 31.7647 26.0338 32.1801 26.1243C31.7546 26.0237 31.3087 25.9333 30.8325 25.8629L30.873 25.873Z" fill="black"/>
<path opacity="0.6" d="M38.5027 30.9189C38.2928 30.4555 38.0419 30.0115 37.7529 29.592C38.0419 30.0115 38.2928 30.4555 38.5027 30.9189Z" fill="black"/>
<path opacity="0.6" d="M39.7287 37.0002C39.757 34.91 39.3392 32.8375 38.5027 30.9189C39.3392 32.8375 39.757 34.91 39.7287 37.0002Z" fill="black"/>
<path opacity="0.6" d="M34.3383 26.8179C34.0951 26.7073 33.8418 26.6168 33.5784 26.5264C33.8418 26.6168 34.0951 26.7073 34.3383 26.8179Z" fill="black"/>
<path opacity="0.6" d="M61.4624 23.7219C61.0213 21.3687 59.8627 19.2065 58.143 17.5276C56.4234 15.8486 54.2257 14.7338 51.8469 14.3337C49.6452 13.8965 47.405 13.6776 45.1596 13.6803C42.1199 13.6803 37.9758 14.0723 34.926 15.952C32.4772 17.5102 30.7086 19.9249 29.9713 22.7168C32.4626 22.8905 34.8844 23.6078 37.0639 24.8176C40.9142 27.1797 42.9305 31.7331 42.738 37.6435C42.6948 39.8872 42.2912 42.1097 41.5424 44.2273C42.6153 44.4472 43.7019 44.595 44.7948 44.6696V47.2428C44.7948 47.8196 45.0251 48.3728 45.4352 48.7816C45.8454 49.1904 46.402 49.4213 46.9834 49.424H47.1759C47.6282 49.3828 48.0564 49.2038 48.4019 48.9114C49.9116 47.6248 51.8874 45.8959 53.8227 44.1368L54.6637 43.3729C56.2388 42.0397 57.6624 40.5398 58.9091 38.8999C61.655 35.0903 62.5973 29.4112 61.4624 23.7219Z" fill="black"/>
<path opacity="0.6" d="M33.2947 26.4358C32.9908 26.3353 32.6665 26.2448 32.3322 26.1644C32.6665 26.2448 32.9908 26.3353 33.2947 26.4358Z" fill="black"/>
<path opacity="0.6" d="M35.463 27.3808C35.1848 27.214 34.8973 27.063 34.6018 26.9285C34.8973 27.063 35.1848 27.214 35.463 27.3808Z" fill="black"/>
</g>
</svg>
