<svg width="72" height="72" viewBox="0 0 72 72" fill="none" xmlns="http://www.w3.org/2000/svg">
<path fill-rule="evenodd" clip-rule="evenodd" d="M30.58 36C30.58 38.9934 33.0067 41.42 36 41.42C38.9934 41.42 41.42 38.9934 41.42 36C41.42 33.0066 38.9934 30.58 36 30.58C33.0067 30.58 30.58 33.0066 30.58 36ZM41.42 18.82C41.42 17.7481 41.1022 16.7002 40.5066 15.8088C39.911 14.9175 39.0646 14.2228 38.0742 13.8126C37.0838 13.4024 35.994 13.295 34.9427 13.5042C33.8913 13.7133 32.9255 14.2295 32.1675 14.9875C31.4095 15.7455 30.8933 16.7113 30.6842 17.7626C30.4751 18.814 30.5824 19.9038 30.9926 20.8942C31.4028 21.8845 32.0975 22.731 32.9888 23.3266C33.8802 23.9221 34.9281 24.24 36 24.24C37.4375 24.24 38.8161 23.669 39.8326 22.6525C40.849 21.6361 41.42 20.2575 41.42 18.82ZM36 58.6C33.0067 58.6 30.58 56.1734 30.58 53.18C30.58 50.1866 33.0067 47.76 36 47.76C38.9934 47.76 41.42 50.1866 41.42 53.18C41.42 56.1734 38.9934 58.6 36 58.6Z" fill="black"/>
</svg>
