<svg width="72" height="72" viewBox="0 0 72 72" fill="none" xmlns="http://www.w3.org/2000/svg">
<path fill-rule="evenodd" clip-rule="evenodd" d="M48.0805 21.6477C47.0676 22.3227 45.8772 22.682 44.66 22.68C43.0315 22.68 41.4698 22.0331 40.3183 20.8816C39.1669 19.7302 38.52 18.1684 38.52 16.54C38.518 15.3228 38.8773 14.1324 39.5523 13.1195C40.2273 12.1066 41.1877 11.3168 42.3118 10.8501C43.436 10.3833 44.6734 10.2607 45.8673 10.4977C47.0612 10.7347 48.158 11.3206 49.0187 12.1813C49.8794 13.042 50.4653 14.1387 50.7023 15.3327C50.9393 16.5266 50.8166 17.764 50.3499 18.8881C49.8832 20.0123 49.0934 20.9727 48.0805 21.6477ZM21.9205 11.6716C22.9331 10.9971 24.1232 10.638 25.3399 10.64C26.9693 10.6427 28.531 11.2918 29.6822 12.4448C30.8334 13.5979 31.4799 15.1607 31.4799 16.79C31.4799 18.0068 31.119 19.1962 30.4428 20.2078C29.7666 21.2194 28.8055 22.0076 27.6811 22.4728C26.5568 22.938 25.3197 23.0592 24.1264 22.8211C22.9332 22.583 21.8374 21.9963 20.9777 21.1352C20.118 20.2741 19.5331 19.1773 19.2969 17.9837C19.0607 16.79 19.1839 15.5532 19.651 14.4296C20.118 13.306 20.9078 12.3462 21.9205 11.6716ZM25.3399 30C24.1227 29.998 22.9323 30.3573 21.9194 31.0323C20.9065 31.7073 20.1167 32.6677 19.65 33.7919C19.1833 34.9161 19.0606 36.1534 19.2976 37.3474C19.5346 38.5413 20.1205 39.638 20.9812 40.4987C21.8419 41.3594 22.9387 41.9453 24.1326 42.1823C25.3265 42.4193 26.5639 42.2967 27.6881 41.8299C28.8122 41.3632 29.7726 40.5734 30.4476 39.5605C31.1226 38.5476 31.4819 37.3572 31.4799 36.14C31.4799 34.5116 30.833 32.9498 29.6816 31.7984C28.5301 30.6469 26.9684 30 25.3399 30ZM41.2432 30.7665C42.2546 30.0907 43.4436 29.73 44.66 29.73C45.468 29.7287 46.2683 29.8868 47.015 30.1954C47.7618 30.504 48.4403 30.957 49.0116 31.5283C49.5829 32.0997 50.0359 32.7782 50.3445 33.5249C50.6531 34.2717 50.8113 35.072 50.81 35.88C50.81 37.0963 50.4493 38.2854 49.7735 39.2967C49.0977 40.3081 48.1372 41.0964 47.0135 41.5618C45.8897 42.0273 44.6531 42.1491 43.4601 41.9118C42.2672 41.6745 41.1713 41.0888 40.3112 40.2287C39.4512 39.3686 38.8654 38.2728 38.6281 37.0798C38.3908 35.8868 38.5126 34.6503 38.9781 33.5265C39.4436 32.4027 40.2318 31.4422 41.2432 30.7665ZM25.3399 49.32C24.1227 49.318 22.9323 49.6772 21.9194 50.3522C20.9065 51.0273 20.1167 51.9877 19.65 53.1118C19.1833 54.236 19.0606 55.4734 19.2976 56.6673C19.5346 57.8612 20.1205 58.958 20.9812 59.8187C21.8419 60.6793 22.9387 61.2653 24.1326 61.5023C25.3265 61.7392 26.5639 61.6166 27.6881 61.1499C28.8122 60.6832 29.7726 59.8934 30.4476 58.8805C31.1226 57.8676 31.4819 56.6772 31.4799 55.46C31.4799 53.8315 30.833 52.2698 29.6816 51.1183C28.5301 49.9668 26.9684 49.32 25.3399 49.32ZM41.2421 50.1071C42.2537 49.4309 43.4432 49.07 44.6599 49.07C45.4671 49.0686 46.2666 49.2265 47.0127 49.5345C47.7588 49.8424 48.4368 50.2945 49.008 50.8648C49.5793 51.4351 50.0324 52.1124 50.3416 52.858C50.6508 53.6036 50.8099 54.4028 50.8099 55.21C50.8119 56.4267 50.4529 57.6168 49.7783 58.6294C49.1038 59.6421 48.144 60.4319 47.0204 60.8989C45.8968 61.366 44.6599 61.4892 43.4663 61.253C42.2726 61.0168 41.1759 60.4319 40.3148 59.5722C39.4537 58.7125 38.867 57.6167 38.6289 56.4234C38.3907 55.2302 38.5119 53.9931 38.9771 52.8688C39.4423 51.7444 40.2306 50.7833 41.2421 50.1071Z" fill="black"/>
</svg>
