<svg width="72" height="72" viewBox="0 0 72 72" fill="none" xmlns="http://www.w3.org/2000/svg">
<path d="M59.27 33.5C58.607 33.5 57.9711 33.7634 57.5022 34.2322C57.0334 34.7011 56.77 35.3369 56.77 36C56.7703 40.8633 55.0639 45.5725 51.9484 49.3068C48.8329 53.0411 44.5057 55.5637 39.7211 56.4351C34.9365 57.3064 29.9979 56.4711 25.7659 54.0748C21.534 51.6785 18.2771 47.8731 16.5629 43.3219C14.8488 38.7707 14.786 33.7623 16.3856 29.1696C17.9852 24.5769 21.1457 20.6912 25.3163 18.1896C29.4868 15.688 34.403 14.7292 39.2079 15.4803C44.0129 16.2315 48.4019 18.6449 51.61 22.3L48.61 22.1C47.9576 22.08 47.3226 22.3119 46.8366 22.7476C46.3507 23.1833 46.0511 23.7893 46 24.44C45.9589 25.1017 46.1824 25.7526 46.6212 26.2496C47.06 26.7465 47.6783 27.0488 48.34 27.09L56.58 27.63H56.74C56.8946 27.6288 57.0487 27.612 57.2 27.58H57.37L57.63 27.5L57.81 27.41C57.8862 27.3794 57.9598 27.3426 58.03 27.3L58.2 27.19L58.39 27.04L58.53 26.9L58.7 26.71L58.81 26.55C58.8591 26.4837 58.9026 26.4135 58.94 26.34L59.03 26.15C59.0609 26.0783 59.0876 26.0048 59.11 25.93C59.1405 25.8599 59.1607 25.7858 59.17 25.71V25.62L60.66 17.49C60.7404 17.1593 60.7525 16.8156 60.6954 16.4801C60.6383 16.1445 60.5134 15.8242 60.3281 15.5386C60.1429 15.2531 59.9013 15.0084 59.6182 14.8195C59.335 14.6306 59.0163 14.5016 58.6815 14.4402C58.3468 14.3788 58.003 14.3865 57.6712 14.4627C57.3395 14.5388 57.0269 14.6819 56.7524 14.8832C56.4779 15.0845 56.2474 15.3397 56.0751 15.6332C55.9027 15.9267 55.7921 16.2522 55.75 16.59L55.31 18.96C51.3171 14.4432 45.8665 11.4699 39.9073 10.5578C33.948 9.64572 27.8577 10.8526 22.6966 13.9684C17.5355 17.0841 13.6307 21.9113 11.6621 27.6095C9.6935 33.3076 9.78576 39.5158 11.9228 45.1529C14.0599 50.7901 18.1065 55.4991 23.3578 58.4601C28.6092 61.4211 34.7328 62.4465 40.6623 61.3577C46.5918 60.2689 51.9516 57.135 55.8085 52.5015C59.6654 47.868 61.775 42.0286 61.77 36C61.77 35.3369 61.5066 34.7011 61.0378 34.2322C60.5689 33.7634 59.933 33.5 59.27 33.5Z" fill="black"/>
</svg>
