<svg width="72" height="72" viewBox="0 0 72 72" fill="none" xmlns="http://www.w3.org/2000/svg">
<path fill-rule="evenodd" clip-rule="evenodd" d="M36 9.5C30.7588 9.5 25.6353 11.0542 21.2774 13.9661C16.9195 16.8779 13.5229 21.0166 11.5172 25.8589C9.51148 30.7011 8.98669 36.0294 10.0092 41.1699C11.0317 46.3104 13.5556 51.0322 17.2617 54.7383C20.9678 58.4444 25.6896 60.9683 30.8301 61.9908C35.9706 63.0133 41.2989 62.4885 46.1411 60.4828C50.9834 58.4771 55.1221 55.0805 58.034 50.7226C60.9458 46.3647 62.5 41.2412 62.5 36C62.4921 28.9742 59.6976 22.2384 54.7296 17.2704C49.7616 12.3024 43.0258 9.50794 36 9.5ZM36 58.72C31.5064 58.72 27.1137 57.3875 23.3775 54.891C19.6412 52.3945 16.7291 48.8461 15.0095 44.6946C13.2898 40.543 12.8399 35.9748 13.7166 31.5675C14.5932 27.1603 16.7571 23.112 19.9345 19.9345C23.112 16.7571 27.1603 14.5932 31.5676 13.7166C35.9748 12.8399 40.543 13.2898 44.6946 15.0095C48.8461 16.7291 52.3945 19.6412 54.891 23.3774C57.3875 27.1137 58.72 31.5064 58.72 36C58.7147 42.0241 56.3193 47.7999 52.0596 52.0596C47.7999 56.3193 42.0241 58.7147 36 58.72ZM36 37.4799C36.6596 37.4799 37.2925 37.2193 37.7607 36.7548C38.229 36.2903 38.4947 35.6595 38.5 34.9999V24.9199C38.5 24.2569 38.2366 23.621 37.7678 23.1522C37.2989 22.6833 36.663 22.4199 36 22.4199C35.337 22.4199 34.7011 22.6833 34.2322 23.1522C33.7634 23.621 33.5 24.2569 33.5 24.9199V34.9999C33.5053 35.6595 33.771 36.2903 34.2393 36.7548C34.7075 37.2193 35.3404 37.4799 36 37.4799ZM40.4146 29.426C40.3865 28.7641 40.6222 28.1181 41.07 27.6299C41.2914 27.3873 41.5585 27.1909 41.856 27.052C42.1536 26.913 42.4757 26.8343 42.8038 26.8204C43.1319 26.8064 43.4595 26.8575 43.7678 26.9707C44.0761 27.0839 44.3589 27.257 44.6 27.4799C46.4913 29.2128 47.8149 31.4767 48.3974 33.9748C48.9799 36.4729 48.7942 39.0887 47.8645 41.4794C46.9349 43.8701 45.3047 45.9242 43.1875 47.3725C41.0704 48.8208 38.5651 49.5957 36 49.5957C33.4349 49.5957 30.9296 48.8208 28.8125 47.3725C26.6954 45.9242 25.0652 43.8701 24.1355 41.4794C23.2058 39.0887 23.0201 36.4729 23.6026 33.9748C24.1852 31.4767 25.5088 29.2128 27.4 27.4799C27.639 27.2438 27.9232 27.0583 28.2355 26.9344C28.5478 26.8105 28.8818 26.7509 29.2177 26.759C29.5536 26.7672 29.8844 26.8429 30.1903 26.9818C30.4963 27.1206 30.7711 27.3197 30.9983 27.5672C31.2256 27.8146 31.4007 28.1053 31.5131 28.4219C31.6255 28.7386 31.6729 29.0746 31.6525 29.4099C31.6321 29.7453 31.5444 30.0731 31.3945 30.3738C31.2446 30.6745 31.0356 30.9418 30.78 31.1599C29.9866 31.8797 29.3531 32.7582 28.9207 33.7384C28.4883 34.7185 28.2667 35.7786 28.27 36.8499C28.27 38.9 29.0844 40.8662 30.5341 42.3159C31.9837 43.7655 33.9499 44.5799 36 44.5799C38.0501 44.5799 40.0163 43.7655 41.466 42.3159C42.9156 40.8662 43.73 38.9 43.73 36.8499C43.7334 35.7786 43.5117 34.7185 43.0793 33.7384C42.6469 32.7582 42.0135 31.8797 41.22 31.1599C40.7324 30.7115 40.4427 30.0878 40.4146 29.426Z" fill="black"/>
</svg>
