<svg width="72" height="72" viewBox="0 0 72 72" fill="none" xmlns="http://www.w3.org/2000/svg">
<path d="M46.5499 54.9999H25.4499C24.5835 54.9973 23.7533 54.6519 23.1406 54.0393C22.5279 53.4266 22.1826 52.5964 22.1799 51.7299V49.4199C22.1852 46.1117 23.5018 42.9404 25.8411 40.6011C28.1804 38.2618 31.3517 36.9452 34.6599 36.9399H37.3399C40.6482 36.9452 43.8195 38.2618 46.1588 40.6011C48.4981 42.9404 49.8146 46.1117 49.8199 49.4199V51.7499C49.812 52.6129 49.4644 53.438 48.8523 54.0464C48.2401 54.6547 47.4129 54.9973 46.5499 54.9999ZM26.1799 50.9999H45.8199V49.3999C45.8199 47.1509 44.9265 44.994 43.3362 43.4037C41.7459 41.8134 39.589 40.9199 37.3399 40.9199H34.6599C32.4109 40.9199 30.254 41.8134 28.6637 43.4037C27.0734 44.994 26.1799 47.1509 26.1799 49.3999V50.9999Z" fill="black"/>
<path opacity="0.7" fill-rule="evenodd" clip-rule="evenodd" d="M49.2817 34.1543C50.6325 35.0506 52.2188 35.5259 53.8399 35.52C56.006 35.5094 58.08 34.6422 59.6088 33.1077C61.1377 31.5732 61.9973 29.4961 61.9999 27.33C61.9999 25.7089 61.5188 24.1242 60.6176 22.7767C59.7163 21.4293 58.4354 20.3796 56.9371 19.7606C55.4389 19.1416 53.7906 18.9811 52.2011 19.2996C50.6116 19.618 49.1523 20.4011 48.0081 21.5494C46.8639 22.6978 46.0863 24.16 45.7737 25.7506C45.461 27.3413 45.6275 28.989 46.252 30.485C46.8765 31.981 47.9309 33.258 49.2817 34.1543ZM51.5029 23.8422C52.1961 23.3849 53.0096 23.144 53.8399 23.15C54.9451 23.1553 56.0031 23.598 56.7827 24.3813C57.5623 25.1646 58 26.2248 57.9999 27.33C58.0019 28.1604 57.7571 28.9726 57.2965 29.6636C56.836 30.3546 56.1805 30.8932 55.4133 31.2109C54.6461 31.5287 53.8018 31.6113 52.9876 31.4484C52.1733 31.2854 51.4258 30.8841 50.8401 30.2955C50.2543 29.7069 49.8566 28.9576 49.6976 28.1425C49.5385 27.3275 49.6252 26.4836 49.9466 25.7179C50.268 24.9523 50.8097 24.2994 51.5029 23.8422ZM13.6071 34.1446C14.9553 35.0433 16.5397 35.522 18.16 35.52C20.3295 35.5147 22.4086 34.6498 23.9418 33.1148C25.475 31.5797 26.3373 29.4996 26.34 27.33C26.34 25.7098 25.8594 24.1259 24.959 22.7789C24.0586 21.4318 22.7789 20.3821 21.2818 19.7625C19.7847 19.1429 18.1375 18.9813 16.5485 19.2981C14.9595 19.6149 13.5002 20.396 12.3552 21.5424C11.2102 22.6887 10.431 24.149 10.1161 25.7384C9.80123 27.3277 9.96485 28.9748 10.5863 30.4711C11.2077 31.9675 12.259 33.2459 13.6071 34.1446ZM15.8284 23.852C16.5189 23.3923 17.3304 23.148 18.16 23.15C19.2678 23.1527 20.3294 23.5939 21.1128 24.3772C21.8961 25.1606 22.3373 26.2222 22.34 27.33C22.3419 28.1596 22.0976 28.971 21.638 29.6616C21.1783 30.3522 20.5241 30.8908 19.758 31.2091C18.992 31.5275 18.1487 31.6113 17.335 31.45C16.5213 31.2886 15.7738 30.8894 15.1872 30.3028C14.6006 29.7162 14.2014 28.9687 14.04 28.155C13.8786 27.3413 13.9625 26.498 14.2808 25.7319C14.5992 24.9659 15.1378 24.3116 15.8284 23.852ZM63.19 53.41H47.82C47.2895 53.41 46.7808 53.1993 46.4057 52.8242C46.0307 52.4491 45.82 51.9404 45.82 51.41V49.41C45.831 47.3907 45.1219 45.4336 43.82 43.89C43.5194 43.5429 43.3474 43.103 43.3329 42.6442C43.3183 42.1853 43.462 41.7354 43.74 41.37C44.7925 39.9821 46.1537 38.8583 47.7159 38.0876C49.278 37.317 50.9981 36.9206 52.74 36.93H55C56.4843 36.9273 57.9545 37.2174 59.3266 37.7836C60.6987 38.3498 61.9456 39.181 62.9961 40.2297C64.0466 41.2783 64.88 42.5238 65.4486 43.8948C66.0173 45.2659 66.31 46.7357 66.31 48.22V50.28C66.31 51.1084 65.9816 51.903 65.3967 52.4897C64.8119 53.0764 64.0183 53.4073 63.19 53.41ZM49.82 49.41H62.31V48.22C62.3086 47.2618 62.1185 46.3133 61.7503 45.4287C61.3821 44.544 60.8431 43.7407 60.1642 43.0645C59.4852 42.3884 58.6797 41.8527 57.7935 41.4882C56.9074 41.1236 55.9581 40.9373 55 40.94H52.66C50.8969 40.9341 49.1928 41.5745 47.87 42.74C49.1439 44.7313 49.8206 47.046 49.82 49.41ZM8.80994 53.41H24.1799C24.4468 53.418 24.7125 53.3725 24.9614 53.2762C25.2104 53.1799 25.4375 53.0348 25.6295 52.8493C25.8215 52.6639 25.9744 52.4419 26.0793 52.1964C26.1841 51.9509 26.2387 51.6869 26.2399 51.42V49.42C26.2429 47.3943 26.97 45.4365 28.2899 43.9C28.5905 43.5529 28.7625 43.113 28.777 42.6542C28.7916 42.1953 28.6479 41.7454 28.3699 41.38C27.3174 39.9921 25.9561 38.8683 24.394 38.0977C22.8319 37.327 21.1118 36.9307 19.3699 36.94H16.9999C15.5165 36.9374 14.047 37.2271 12.6756 37.7927C11.3042 38.3583 10.0577 39.1886 9.00731 40.2361C7.95695 41.2837 7.12334 42.528 6.55412 43.8979C5.98491 45.2679 5.69125 46.7365 5.68994 48.22V50.28C5.68994 51.1084 6.01833 51.903 6.60316 52.4897C7.18799 53.0764 7.98155 53.4073 8.80994 53.41ZM22.1799 49.41H9.68994L9.71994 48.22C9.72259 46.29 10.4904 44.4399 11.8551 43.0752C13.2198 41.7105 15.07 40.9426 16.9999 40.94H19.3399C21.103 40.9342 22.8071 41.5745 24.1299 42.74C22.856 44.7313 22.1792 47.046 22.1799 49.41Z" fill="black"/>
<path fill-rule="evenodd" clip-rule="evenodd" d="M30.9998 33.4832C32.4799 34.4722 34.2199 35 35.9999 35C38.3869 35 40.6761 34.0518 42.3639 32.364C44.0517 30.6761 44.9999 28.387 44.9999 26C44.9999 24.22 44.4721 22.4799 43.4832 20.9999C42.4942 19.5198 41.0886 18.3663 39.4441 17.6851C37.7996 17.0039 35.99 16.8257 34.2441 17.1729C32.4983 17.5202 30.8947 18.3774 29.636 19.636C28.3773 20.8947 27.5201 22.4984 27.1729 24.2442C26.8256 25.99 27.0038 27.7996 27.685 29.4442C28.3662 31.0887 29.5198 32.4943 30.9998 33.4832ZM33.2221 21.8427C34.0443 21.2932 35.011 21 35.9999 21C36.6566 21 37.3067 21.1293 37.9134 21.3806C38.52 21.6319 39.0712 22.0002 39.5355 22.4645C39.9998 22.9288 40.3681 23.48 40.6193 24.0866C40.8706 24.6932 40.9999 25.3434 40.9999 26C40.9999 26.9889 40.7067 27.9556 40.1573 28.7779C39.6079 29.6001 38.827 30.241 37.9134 30.6194C36.9997 30.9978 35.9944 31.0969 35.0245 30.9039C34.0546 30.711 33.1637 30.2348 32.4644 29.5355C31.7651 28.8363 31.2889 27.9454 31.096 26.9755C30.9031 26.0056 31.0021 25.0002 31.3805 24.0866C31.759 23.173 32.3998 22.3921 33.2221 21.8427ZM25.4499 54.9999H46.5499C47.4129 54.9973 48.2401 54.6547 48.8523 54.0464C49.4644 53.438 49.812 52.6129 49.8199 51.7499V49.4199C49.8146 46.1117 48.4981 42.9404 46.1588 40.6011C43.8195 38.2618 40.6482 36.9452 37.3399 36.9399H34.6599C31.3517 36.9452 28.1804 38.2618 25.8411 40.6011C23.5018 42.9404 22.1852 46.1117 22.1799 49.4199V51.7299C22.1826 52.5964 22.5279 53.4266 23.1406 54.0393C23.7533 54.6519 24.5835 54.9973 25.4499 54.9999ZM45.8199 50.9999H26.1799V49.3999C26.1799 47.1509 27.0734 44.994 28.6637 43.4037C30.254 41.8134 32.4109 40.9199 34.6599 40.9199H37.3399C39.589 40.9199 41.7459 41.8134 43.3362 43.4037C44.9265 44.994 45.8199 47.1509 45.8199 49.3999V50.9999Z" fill="black"/>
</svg>
