<svg width="72" height="72" viewBox="0 0 72 72" fill="none" xmlns="http://www.w3.org/2000/svg">
<path d="M59 34.08H43.2201H43.16L36.28 31.08C31.91 29.37 27.47 27.73 27.47 23.22C27.47 18.98 31.14 16.43 36.59 16.43C41.0706 16.3176 45.4258 17.9159 48.7701 20.9L52.53 16.25C48.3347 12.2014 42.7201 9.95771 36.89 9.99998C27.11 9.99998 20.13 15.82 20.13 23.58C20.13 28.58 22.72 31.85 25.97 34.08H13.05V37.9H33.78L38 39.76C43 41.87 46.7401 43.29 46.7401 48.35C46.7401 52.57 43.0601 55.62 36.5401 55.62C31.1333 55.5416 25.9621 53.3944 22.09 49.62L17.81 54.62C22.7205 59.3939 29.3117 62.0447 36.16 62C47.41 62 54.16 55.5 54.16 47.49C54.2349 45.6812 53.8996 43.879 53.1792 42.2182C52.4587 40.5574 51.3719 39.0812 50 37.9H59V34.08Z" fill="black"/>
</svg>
