<svg width="72" height="72" viewBox="0 0 72 72" fill="none" xmlns="http://www.w3.org/2000/svg">
<path d="M12.73 33.5C13.393 33.5 14.0289 33.7634 14.4978 34.2322C14.9666 34.7011 15.23 35.337 15.23 36C15.2297 40.8633 16.9361 45.5725 20.0516 49.3068C23.1671 53.0411 27.4943 55.5638 32.2789 56.4351C37.0635 57.3064 42.0021 56.4711 46.2341 54.0748C50.466 51.6785 53.7229 47.8731 55.4371 43.322C57.1512 38.7708 57.214 33.7624 55.6144 29.1697C54.0148 24.577 50.8543 20.6912 46.6837 18.1896C42.5132 15.688 37.597 14.7292 32.7921 15.4804C27.9871 16.2315 23.5981 18.6449 20.39 22.3L23.39 22.1C24.0424 22.08 24.6774 22.3119 25.1634 22.7476C25.6493 23.1833 25.9489 23.7893 26 24.44C26.0411 25.1017 25.8176 25.7526 25.3788 26.2496C24.94 26.7466 24.3217 27.0489 23.66 27.09L15.42 27.63H15.26C15.1054 27.6288 14.9513 27.612 14.8 27.58H14.63L14.37 27.5L14.19 27.41C14.1138 27.3794 14.0402 27.3426 13.97 27.3L13.8 27.19L13.61 27.04L13.47 26.9L13.3 26.71L13.19 26.55C13.1409 26.4838 13.0974 26.4135 13.06 26.34L12.97 26.15C12.9391 26.0783 12.9124 26.0048 12.89 25.93C12.8595 25.86 12.8393 25.7859 12.83 25.71V25.62L11.34 17.49C11.2596 17.1593 11.2475 16.8156 11.3046 16.4801C11.3617 16.1446 11.4866 15.8242 11.6719 15.5387C11.8571 15.2531 12.0987 15.0084 12.3818 14.8196C12.665 14.6307 12.9837 14.5016 13.3185 14.4402C13.6532 14.3789 13.997 14.3865 14.3288 14.4627C14.6605 14.5389 14.9731 14.682 15.2476 14.8832C15.5221 15.0845 15.7526 15.3397 15.9249 15.6332C16.0973 15.9267 16.2079 16.2523 16.25 16.59L16.69 18.96C20.6829 14.4432 26.1335 11.4699 32.0927 10.5578C38.052 9.64575 44.1423 10.8527 49.3034 13.9684C54.4645 17.0841 58.3693 21.9114 60.3379 27.6095C62.3065 33.3077 62.2142 39.5158 60.0772 45.1529C57.9401 50.7901 53.8935 55.4991 48.6422 58.4601C43.3908 61.4211 37.2672 62.4465 31.3377 61.3577C25.4082 60.269 20.0484 57.135 16.1915 52.5015C12.3346 47.8681 10.225 42.0286 10.23 36C10.23 35.337 10.4934 34.7011 10.9622 34.2322C11.4311 33.7634 12.067 33.5 12.73 33.5Z" fill="black"/>
</svg>
