<svg width="72" height="72" viewBox="0 0 72 72" fill="none" xmlns="http://www.w3.org/2000/svg">
<path fill-rule="evenodd" clip-rule="evenodd" d="M27.17 28.4299C26.7149 28.8412 26.1235 29.0693 25.51 29.0699C25.002 29.0721 24.5053 28.9195 24.0862 28.6323C23.667 28.3451 23.3454 27.937 23.164 27.4624C22.9826 26.9878 22.9502 26.4692 23.0709 25.9757C23.1917 25.4822 23.46 25.0372 23.84 24.6999L34.36 15.3999L34.44 15.3399L34.58 15.2399L34.7 15.1599L34.86 15.0599L35 14.9999H35.09L35.27 14.9399H35.42H35.55H35.74H36.22H36.41H36.54H36.69L36.87 14.9999H37L37.16 15.0299C37.2174 15.0522 37.2712 15.0825 37.32 15.1199L37.44 15.1999L37.58 15.2999C37.6022 15.3253 37.6295 15.3458 37.66 15.3599L48.16 24.6999C48.5401 25.0372 48.8084 25.4822 48.9292 25.9757C49.0499 26.4692 49.0175 26.9878 48.8361 27.4624C48.6547 27.937 48.3331 28.3451 47.9139 28.6323C47.4948 28.9195 46.9981 29.0721 46.4901 29.0699C45.8766 29.0693 45.2852 28.8412 44.83 28.4299L38.5 22.7999V42.3999C38.5 43.063 38.2367 43.6989 37.7678 44.1677C37.299 44.6366 36.6631 44.8999 36 44.8999C35.337 44.8999 34.7011 44.6366 34.2323 44.1677C33.7634 43.6989 33.5 43.063 33.5 42.3999V22.7999L27.17 28.4299ZM56.8358 41.2457C57.2109 40.8706 57.7196 40.6599 58.25 40.6599C58.7804 40.6599 59.2891 40.8706 59.6642 41.2457C60.0393 41.6208 60.25 42.1295 60.25 42.6599V54.7699C60.25 55.3003 60.0393 55.8091 59.6642 56.1841C59.2891 56.5592 58.7804 56.7699 58.25 56.7699H13.75C13.2196 56.7699 12.7109 56.5592 12.3358 56.1841C11.9607 55.8091 11.75 55.3003 11.75 54.7699V42.6599C11.75 42.1295 11.9607 41.6208 12.3358 41.2457C12.7109 40.8706 13.2196 40.6599 13.75 40.6599C14.2804 40.6599 14.7891 40.8706 15.1642 41.2457C15.5393 41.6208 15.75 42.1295 15.75 42.6599V52.7699H56.25V42.6599C56.25 42.1295 56.4607 41.6208 56.8358 41.2457Z" fill="black"/>
</svg>
