<svg width="72" height="72" viewBox="0 0 72 72" fill="none" xmlns="http://www.w3.org/2000/svg">
<path fill-rule="evenodd" clip-rule="evenodd" d="M65.33 13.87C64.9564 11.8369 63.9662 9.96807 62.4939 8.51718C61.0215 7.06629 59.1383 6.10366 57.1 5.75999C55.3058 5.39876 53.4801 5.21786 51.65 5.21999C49.18 5.21999 45.7 5.54999 43.13 7.14999C39.83 9.14999 38.13 13.07 38.26 18.08C38.34 20.93 39.03 24.93 41.83 27.85C44.09 30.19 47.83 31.15 50.59 31.43V32.82C50.59 33.1522 50.6554 33.4812 50.7825 33.7882C50.9097 34.0951 51.096 34.374 51.331 34.609C51.5659 34.8439 51.8448 35.0303 52.1518 35.1574C52.4587 35.2845 52.7877 35.35 53.12 35.35H53.39C53.8959 35.2967 54.3736 35.0909 54.76 34.76C55.96 33.76 57.53 32.37 59.08 30.93L59.74 30.32C61.0316 29.2174 62.1986 27.9767 63.22 26.62C65.48 23.38 66.27 18.62 65.33 13.87ZM59.94 24.32C59.075 25.4135 58.1035 26.4185 57.04 27.32L56.35 27.95C55.76 28.5 55.16 29.04 54.58 29.56C54.5324 28.9958 54.2748 28.4701 53.8581 28.0868C53.4415 27.7035 52.8961 27.4905 52.33 27.49C49.74 27.49 46.19 26.57 44.72 25.04C43.0826 23.0634 42.2065 20.5663 42.25 18C42.19 16 42.49 12.28 45.25 10.59C47.2379 9.59593 49.4507 9.13752 51.67 9.25999C53.2243 9.25773 54.7751 9.40846 56.3 9.70999C57.5696 9.90453 58.7467 10.4911 59.6665 11.3876C60.5863 12.2841 61.2029 13.4458 61.43 14.71C62 17.51 61.89 21.55 59.94 24.32ZM27.12 39.91C29.3145 39.906 31.4586 39.2516 33.2813 38.0295C35.1041 36.8075 36.5237 35.0725 37.3608 33.0439C38.1978 31.0153 38.4148 28.7841 37.9842 26.6322C37.5537 24.4803 36.4949 22.5044 34.9418 20.954C33.3886 19.4037 31.4108 18.3485 29.2581 17.9218C27.1055 17.4951 24.8747 17.7161 22.8476 18.5568C20.8205 19.3975 19.0881 20.8203 17.8693 22.6452C16.6505 24.4702 16 26.6154 16 28.8099C16.0013 30.2689 16.29 31.7134 16.8495 33.0608C17.409 34.4082 18.2285 35.6322 19.2611 36.663C20.2937 37.6937 21.5192 38.511 22.8676 39.0681C24.216 39.6252 25.661 39.9113 27.12 39.91ZM27.12 21.7199C28.5238 21.7239 29.8949 22.1439 31.0601 22.9269C32.2253 23.7099 33.1322 24.8208 33.6662 26.119C34.2002 27.4173 34.3374 28.8448 34.0604 30.221C33.7833 31.5972 33.1046 32.8604 32.1098 33.851C31.1151 34.8415 29.849 35.515 28.4716 35.7862C27.0943 36.0574 25.6674 35.9142 24.3714 35.3747C23.0754 34.8352 21.9684 33.9236 21.1903 32.7551C20.4122 31.5867 19.998 30.2138 20 28.8099C20.0013 27.8767 20.1866 26.9529 20.5452 26.0913C20.9039 25.2298 21.4288 24.4474 22.0901 23.7889C22.7514 23.1304 23.536 22.6087 24.3991 22.2537C25.2622 21.8987 26.1867 21.7173 27.12 21.7199ZM25.38 42.41H28.87C33.019 42.4153 36.9966 44.0659 39.9304 46.9997C42.8642 49.9335 44.5147 53.911 44.52 58.06V61.06C44.52 62.0307 44.1344 62.9617 43.448 63.648C42.7616 64.3344 41.8307 64.72 40.86 64.72H13.38C12.411 64.7174 11.4827 64.3306 10.7984 63.6445C10.1142 62.9584 9.72998 62.029 9.72998 61.06V58.06C9.73527 53.911 11.3858 49.9335 14.3196 46.9997C17.2534 44.0659 21.231 42.4153 25.38 42.41ZM13.73 60.75H40.52V58.06C40.5147 54.9719 39.2856 52.0117 37.1019 49.8281C34.9183 47.6444 31.9581 46.4153 28.87 46.41H25.38C22.291 46.4127 19.3293 47.6409 17.1451 49.8252C14.9609 52.0094 13.7326 54.9711 13.73 58.06V60.75Z" fill="black"/>
</svg>
