<svg width="72" height="72" viewBox="0 0 72 72" fill="none" xmlns="http://www.w3.org/2000/svg">
<path fill-rule="evenodd" clip-rule="evenodd" d="M30.2 34.35C32.5734 34.35 34.8935 33.6462 36.8669 32.3276C38.8403 31.009 40.3783 29.1349 41.2866 26.9422C42.1948 24.7495 42.4325 22.3367 41.9695 20.0089C41.5064 17.6811 40.3635 15.5429 38.6853 13.8647C37.0071 12.1865 34.8689 11.0436 32.5411 10.5806C30.2133 10.1175 27.8005 10.3552 25.6078 11.2634C23.4151 12.1717 21.541 13.7097 20.2224 15.6831C18.9038 17.6565 18.2 19.9766 18.2 22.35C18.2 25.5326 19.4643 28.5848 21.7147 30.8353C23.9652 33.0857 27.0174 34.35 30.2 34.35ZM30.2 14.35C31.7823 14.35 33.329 14.8192 34.6446 15.6982C35.9602 16.5773 36.9856 17.8267 37.5911 19.2885C38.1966 20.7503 38.355 22.3589 38.0463 23.9107C37.7376 25.4626 36.9757 26.888 35.8569 28.0068C34.7381 29.1257 33.3126 29.8876 31.7607 30.1963C30.2089 30.5049 28.6004 30.3465 27.1386 29.741C25.6768 29.1355 24.4273 28.1101 23.5483 26.7945C22.6692 25.4789 22.2 23.9322 22.2 22.35C22.2053 20.2317 23.0505 18.202 24.5502 16.7061C26.0499 15.2101 28.0818 14.37 30.2 14.37V14.35ZM50.25 51.18L44.84 56.27L42.84 54.44C42.647 54.2614 42.4207 54.1225 42.174 54.0314C41.9273 53.9403 41.665 53.8986 41.4023 53.9089C41.1395 53.9191 40.8813 53.9809 40.6424 54.091C40.4035 54.201 40.1886 54.3569 40.01 54.55C39.8314 54.743 39.6926 54.9693 39.6015 55.216C39.5104 55.4627 39.4687 55.725 39.4789 55.9878C39.4891 56.2505 39.551 56.5087 39.661 56.7476C39.771 56.9865 39.927 57.2014 40.12 57.38L43.46 60.48C43.8304 60.8217 44.3161 61.0109 44.82 61.01C45.3288 61.0108 45.8187 60.8177 46.19 60.47L53 54.09C53.3859 53.7253 53.6111 53.2223 53.6262 52.6915C53.6412 52.1608 53.4447 51.6459 53.08 51.26C52.7154 50.8741 52.2123 50.6489 51.6816 50.6339C51.1509 50.6189 50.6359 50.8153 50.25 51.18ZM42.45 41.03C43.7853 40.6224 45.174 40.4168 46.57 40.42C49.0512 40.4218 51.4882 41.0764 53.6363 42.3181C55.7844 43.5598 57.568 45.3449 58.8078 47.4941C60.0477 49.6433 60.7002 52.0808 60.6998 54.562C60.6995 57.0432 60.0463 59.4806 58.8058 61.6294C57.5653 63.7782 55.7813 65.5628 53.6328 66.8039C51.4843 68.045 49.0471 68.6989 46.566 68.7C44.0848 68.7011 41.647 68.0492 39.4975 66.81C37.348 65.5708 35.5624 63.7877 34.32 61.64H15.09C14.0786 61.6373 13.1096 61.2337 12.3953 60.5176C11.6811 59.8015 11.28 58.8314 11.28 57.82V54.49C11.28 49.9813 13.0711 45.6573 16.2592 42.4692C19.4473 39.2811 23.7714 37.49 28.28 37.49H32.11C35.8524 37.4997 39.487 38.744 42.45 41.03ZM35.5454 45.7131C35.5896 45.6525 35.6331 45.5928 35.68 45.54C35.88 45.31 36.08 45.09 36.3 44.86L36.75 44.4L37.32 43.87L38.02 43.32L38.32 43.07C36.4206 42.0255 34.2877 41.4786 32.12 41.48H28.29C24.8422 41.48 21.5356 42.8496 19.0976 45.2876C16.6597 47.7256 15.29 51.0322 15.29 54.48V57.62H32.71C32.62 57.21 32.55 56.79 32.5 56.37V56.1C32.4479 55.6017 32.4212 55.101 32.42 54.6C32.4195 54.0687 32.4496 53.5378 32.51 53.01C32.52 52.9155 32.5299 52.8631 32.5436 52.7911C32.5573 52.7185 32.5749 52.6259 32.6 52.45C32.65 52.1 32.72 51.68 32.77 51.45C32.7996 51.3138 32.8328 51.1986 32.8694 51.0712C32.8946 50.9835 32.9215 50.8901 32.95 50.78C33.0043 50.5706 33.0706 50.3673 33.1349 50.17C33.1536 50.1128 33.1721 50.0561 33.19 50C33.2515 49.8079 33.3307 49.604 33.4004 49.4245C33.4214 49.3705 33.4415 49.3186 33.46 49.27C33.5366 49.0689 33.6041 48.9228 33.7151 48.6824L33.73 48.65C33.85 48.39 34.05 47.97 34.11 47.86C34.1473 47.7917 34.1884 47.7272 34.2286 47.6642C34.2531 47.6258 34.2773 47.5879 34.3 47.55C34.6379 46.9507 35.0224 46.3789 35.45 45.84C35.4831 45.7987 35.5144 45.7557 35.5454 45.7131ZM41.0936 63.1094C42.7277 64.1586 44.6282 64.7175 46.57 64.72L46.44 64.79C47.9351 64.7907 49.412 64.4611 50.7649 63.8247C52.1178 63.1883 53.3134 62.2609 54.2663 61.1088C55.2192 59.9566 55.9057 58.6082 56.2769 57.1599C56.6481 55.7116 56.6948 54.1992 56.4135 52.7307C56.1323 51.2623 55.5301 49.8742 54.6501 48.6655C53.77 47.4568 52.6338 46.4575 51.3226 45.739C50.0115 45.0204 48.5578 44.6004 47.0655 44.509C45.5732 44.4175 44.0791 44.6569 42.69 45.21C42.5007 45.2788 42.3262 45.3625 42.1474 45.4482C42.1184 45.4621 42.0893 45.476 42.06 45.49L41.92 45.55L41.37 45.85L41.12 46L40.68 46.28L40.02 46.77L39.9 46.89C39.6972 47.0524 39.5036 47.226 39.32 47.41L39.21 47.52C39.01 47.72 38.82 47.94 38.63 48.16C38.2203 48.658 37.8586 49.1937 37.55 49.76C37.41 50.03 37.28 50.3 37.16 50.58V50.66C36.9165 51.2408 36.729 51.8435 36.6 52.46C36.6048 52.5299 36.6048 52.6001 36.6 52.67C36.5877 52.7439 36.5725 52.8169 36.5575 52.8895C36.5236 53.0526 36.49 53.2139 36.49 53.38V53.64V54.58V55.65V55.74C36.6129 56.7991 36.9032 57.8319 37.35 58.8C38.1604 60.5647 39.4596 62.0602 41.0936 63.1094Z" fill="black"/>
</svg>
