<svg width="72" height="72" viewBox="0 0 72 72" fill="none" xmlns="http://www.w3.org/2000/svg">
<path fill-rule="evenodd" clip-rule="evenodd" d="M39.1758 12.6358C39.5508 12.2608 40.0595 12.05 40.59 12.05C46.0412 12.0553 51.2676 14.2232 55.1222 18.0778C58.9768 21.9324 61.1447 27.1588 61.15 32.6101C61.15 33.1405 60.9393 33.6492 60.5642 34.0243C60.1891 34.3993 59.6804 34.6101 59.15 34.6101C58.6195 34.6101 58.1108 34.3993 57.7358 34.0243C57.3607 33.6492 57.15 33.1405 57.15 32.6101C57.1447 28.2197 55.3983 24.0107 52.2938 20.9062C49.1894 17.8018 44.9803 16.0553 40.59 16.05C40.0595 16.05 39.5508 15.8393 39.1758 15.4643C38.8007 15.0892 38.59 14.5805 38.59 14.05C38.59 13.5196 38.8007 13.0109 39.1758 12.6358ZM50.4138 40.0876C51.2092 40.4174 51.9317 40.9007 52.54 41.51L56.61 45.62C58.1742 47.2355 59.0354 49.4045 59.0054 51.653C58.9754 53.9015 58.0567 56.0467 56.45 57.62L54.45 59.62C52.7655 61.3119 50.514 62.3201 48.13 62.45H47.37C42.41 62.45 34.53 60.1 24.1 49.68C12.71 38.29 10.62 29.71 10.88 24.51C10.9944 22.2959 11.9283 20.2036 13.5 18.64L15.5 16.64C17.0733 15.0343 19.2173 14.1155 21.465 14.0836C23.7127 14.0518 25.8819 14.9095 27.5 16.47L31.57 20.54C32.7926 21.7708 33.4787 23.4352 33.4787 25.17C33.4787 26.9048 32.7926 28.5692 31.57 29.8L28.69 32.68C28.6595 32.7089 28.6351 32.7438 28.6185 32.7825C28.6018 32.8212 28.5933 32.8629 28.5933 32.905C28.5933 32.9471 28.6018 32.9887 28.6185 33.0274C28.6351 33.0661 28.6595 33.101 28.69 33.13L39.95 44.39C39.9788 44.419 40.0131 44.442 40.0509 44.4578C40.0886 44.4735 40.1291 44.4816 40.17 44.4816C40.2109 44.4816 40.2514 44.4735 40.2892 44.4578C40.3269 44.442 40.3612 44.419 40.39 44.39L43.27 41.51C43.8784 40.9007 44.6009 40.4174 45.3962 40.0876C46.1915 39.7578 47.044 39.5881 47.905 39.5881C48.766 39.5881 49.6185 39.7578 50.4138 40.0876ZM51.61 56.78L53.61 54.78C54.4739 53.9559 54.9766 52.8235 55.0085 51.63C55.0403 50.4366 54.5987 49.279 53.78 48.41L49.71 44.34C49.223 43.8771 48.5769 43.619 47.905 43.619C47.2332 43.619 46.587 43.8771 46.1 44.34L43.22 47.22C42.4102 48.0273 41.3134 48.4806 40.17 48.4806C39.0266 48.4806 37.9298 48.0273 37.12 47.22L25.84 35.94C25.0321 35.1285 24.5785 34.03 24.5785 32.885C24.5785 31.7399 25.0321 30.6414 25.84 29.83L28.72 26.95C29.1939 26.4707 29.4597 25.8239 29.4597 25.15C29.4597 24.476 29.1939 23.8292 28.72 23.35L24.65 19.28C23.8535 18.486 22.7747 18.0401 21.65 18.04C21.0278 18.0427 20.4122 18.1687 19.8389 18.4107C19.2656 18.6527 18.746 19.006 18.31 19.45L16.31 21.45C15.4467 22.3163 14.9308 23.469 14.86 24.69C14.68 28.28 16 35.93 26.92 46.84C37.39 57.32 44.58 58.59 47.92 58.44C49.3123 58.3593 50.626 57.7683 51.61 56.78ZM48.4558 34.0643C48.0807 33.6892 47.87 33.1805 47.87 32.6501C47.87 30.7007 47.0956 28.8312 45.7173 27.4528C44.3389 26.0744 42.4694 25.3 40.52 25.3C39.9896 25.3 39.4809 25.0893 39.1058 24.7143C38.7307 24.3392 38.52 23.8305 38.52 23.3C38.52 22.7696 38.7307 22.2609 39.1058 21.8858C39.4809 21.5108 39.9896 21.3 40.52 21.3C43.5294 21.3027 46.4148 22.4993 48.5428 24.6273C50.6707 26.7553 51.8674 29.6407 51.87 32.6501C51.87 33.1805 51.6593 33.6892 51.2842 34.0643C50.9092 34.4393 50.4005 34.6501 49.87 34.6501C49.3396 34.6501 48.8309 34.4393 48.4558 34.0643ZM38.52 32.54C39.0902 32.54 39.6371 32.7666 40.0403 33.1698C40.4435 33.573 40.67 34.1198 40.67 34.69C40.67 35.2205 40.8807 35.7292 41.2558 36.1043C41.6309 36.4793 42.1396 36.69 42.67 36.69C43.2005 36.69 43.7092 36.4793 44.0842 36.1043C44.4593 35.7292 44.67 35.2205 44.67 34.69C44.6674 33.0598 44.0186 31.497 42.8658 30.3443C41.713 29.1915 40.1503 28.5427 38.52 28.54C37.9896 28.54 37.4809 28.7508 37.1058 29.1258C36.7307 29.5009 36.52 30.0096 36.52 30.54C36.52 31.0705 36.7307 31.5792 37.1058 31.9543C37.4809 32.3293 37.9896 32.54 38.52 32.54Z" fill="black"/>
</svg>
