<svg width="32" height="32" viewBox="0 0 32 32" fill="none" xmlns="http://www.w3.org/2000/svg">
<path
d="M2 16C0.895431 16 -0.0128754 15.1011 0.124839 14.0052C0.302736 12.5895 0.669597 11.2009 1.21793 9.87706C2.022 7.93585 3.20055 6.17203 4.68629 4.68629C6.17203 3.20055 7.93586 2.022 9.87707 1.21793C11.2009 0.669596 12.5895 0.302734 14.0052 0.124838C15.1011 -0.0128746 16 0.89543 16 2C16 3.10457 15.0985 3.98304 14.0092 4.16628C13.1188 4.31608 12.246 4.56627 11.4078 4.91344C9.95189 5.5165 8.62902 6.40042 7.51472 7.51472C6.40042 8.62902 5.5165 9.95189 4.91345 11.4078C4.56627 12.246 4.31608 13.1188 4.16628 14.0092C3.98304 15.0985 3.10457 16 2 16Z"
fill-rule="evenodd"
fill="currentColor"
/>
</svg>