<svg width="72" height="72" viewBox="0 0 72 72" fill="none" xmlns="http://www.w3.org/2000/svg">
<path d="M43.8801 60.61C43.5209 60.6073 43.1666 60.5263 42.8419 60.3726C42.5172 60.2189 42.2299 59.9962 42.0001 59.72L24.7901 39.22C24.0313 38.3187 23.6152 37.1783 23.6152 36C23.6152 34.8218 24.0313 33.6814 24.7901 32.78L42.0001 12.28C42.433 11.7967 43.0368 11.5007 43.684 11.4544C44.3311 11.4081 44.9709 11.6152 45.4682 12.032C45.9655 12.4487 46.2812 13.0425 46.3488 13.6878C46.4163 14.3331 46.2303 14.9793 45.8301 15.49L28.6201 36L45.8001 56.51C46.1084 56.8737 46.3058 57.3183 46.3689 57.7909C46.4319 58.2635 46.3579 58.7443 46.1557 59.1761C45.9535 59.6079 45.6316 59.9726 45.2282 60.2268C44.8248 60.4809 44.3569 60.614 43.8801 60.61Z" fill="black"/>
</svg>
