<svg width="72" height="72" viewBox="0 0 72 72" fill="none" xmlns="http://www.w3.org/2000/svg">
<path d="M27.12 60.61C26.6432 60.614 26.1753 60.4809 25.7719 60.2268C25.3685 59.9726 25.0466 59.6079 24.8444 59.1761C24.6422 58.7443 24.5682 58.2635 24.6312 57.7909C24.6943 57.3183 24.8917 56.8737 25.2 56.51L42.38 36L25.2 15.49C24.8503 14.979 24.7027 14.3563 24.7858 13.7427C24.8689 13.129 25.1769 12.5681 25.6499 12.1684C26.123 11.7688 26.7275 11.559 27.3464 11.5796C27.9653 11.6002 28.5546 11.8498 29 12.28L46.18 32.78C46.9388 33.6814 47.3548 34.8218 47.3548 36C47.3548 37.1783 46.9388 38.3186 46.18 39.22L29 59.72C28.7702 59.9962 28.4829 60.2189 28.1582 60.3726C27.8335 60.5263 27.4792 60.6073 27.12 60.61Z" fill="black"/>
</svg>
