<svg width="72" height="72" viewBox="0 0 72 72" fill="none" xmlns="http://www.w3.org/2000/svg">
<path d="M58.1099 47.38C57.5252 47.3798 56.959 47.1745 56.5099 46.8L35.9999 29.62L15.4899 46.8C14.9788 47.1497 14.3562 47.2973 13.7425 47.2142C13.1289 47.131 12.5679 46.8231 12.1683 46.3501C11.7687 45.877 11.5589 45.2725 11.5795 44.6536C11.6001 44.0347 11.8497 43.4454 12.2799 43L32.7799 25.82C33.6813 25.0612 34.8217 24.6451 35.9999 24.6451C37.1781 24.6451 38.3185 25.0612 39.2199 25.82L59.7199 43C60.1112 43.3304 60.3915 43.773 60.523 44.268C60.6545 44.7629 60.6309 45.2863 60.4553 45.7674C60.2796 46.2484 59.9605 46.6639 59.541 46.9577C59.1216 47.2515 58.622 47.4094 58.1099 47.41V47.38Z" fill="black"/>
</svg>
