<svg width="72" height="72" viewBox="0 0 72 72" fill="none" xmlns="http://www.w3.org/2000/svg">
<path d="M27.07 27.7H19.07C17.98 27.7 16.9007 27.9146 15.8937 28.3318C14.8867 28.7489 13.9718 29.3602 13.201 30.131C12.4303 30.9017 11.8189 31.8167 11.4018 32.8237C10.9847 33.8307 10.77 34.91 10.77 36C10.77 37.0899 10.9847 38.1692 11.4018 39.1762C11.8189 40.1832 12.4303 41.0982 13.201 41.8689C13.9718 42.6397 14.8867 43.251 15.8937 43.6682C16.9007 44.0853 17.98 44.2999 19.07 44.2999H27.07C29.2713 44.2999 31.3825 43.4255 32.939 41.8689C34.4956 40.3124 35.37 38.2012 35.37 36C35.37 33.7987 34.4956 31.6875 32.939 30.131C31.3825 28.5744 29.2713 27.7 27.07 27.7Z" fill="black"/>
<path opacity="0.7" d="M52.9001 27.7H44.9001C43.8101 27.7 42.7308 27.9146 41.7238 28.3318C40.7168 28.7489 39.8018 29.3602 39.0311 30.131C38.2604 30.9017 37.649 31.8167 37.2319 32.8237C36.8148 33.8307 36.6001 34.91 36.6001 36C36.6001 37.0899 36.8148 38.1692 37.2319 39.1762C37.649 40.1832 38.2604 41.0982 39.0311 41.8689C39.8018 42.6397 40.7168 43.251 41.7238 43.6682C42.7308 44.0853 43.8101 44.2999 44.9001 44.2999H52.9001C55.1014 44.2999 57.2125 43.4255 58.7691 41.8689C60.3256 40.3124 61.2001 38.2012 61.2001 36C61.2001 33.7987 60.3256 31.6875 58.7691 30.131C57.2125 28.5744 55.1014 27.7 52.9001 27.7Z" fill="black"/>
</svg>
