<svg width="72" height="72" viewBox="0 0 72 72" fill="none" xmlns="http://www.w3.org/2000/svg">
<path fill-rule="evenodd" clip-rule="evenodd" d="M57.59 11H28.19C27.2785 11.0026 26.405 11.3659 25.7605 12.0105C25.1159 12.655 24.7527 13.5285 24.75 14.44V20.68H14.41C13.5002 20.6905 12.6315 21.06 11.9928 21.7081C11.3541 22.3561 10.9973 23.2302 11 24.14V58.4C10.9973 59.0835 11.2649 59.7403 11.7445 60.2273C12.224 60.7144 12.8766 60.9921 13.56 61H58.44C59.1235 60.9921 59.7761 60.7144 60.2556 60.2273C60.7351 59.7403 61.0027 59.0835 61 58.4V14.45C61.0027 13.5411 60.6456 12.6681 60.0066 12.0216C59.3677 11.3752 58.4989 11.0079 57.59 11ZM14.41 24.19H24.75V57.49H14.47L14.41 24.19ZM57.53 57.49H46.88V49.49C46.8774 49.2663 46.7867 49.0527 46.6276 48.8954C46.4684 48.7382 46.2537 48.65 46.03 48.65H39.75C39.5272 48.65 39.3136 48.7385 39.156 48.896C38.9985 49.0536 38.91 49.2672 38.91 49.49V57.49H28.29V22.49C28.2845 22.3166 28.2542 22.1448 28.2 21.98V14.51L57.54 14.45L57.53 57.49ZM35.3 18.26H31.93C31.4605 18.26 31.08 18.6406 31.08 19.11V22.48C31.08 22.9495 31.4605 23.33 31.93 23.33H35.3C35.7694 23.33 36.15 22.9495 36.15 22.48V19.11C36.15 18.6406 35.7694 18.26 35.3 18.26ZM31.93 28.39H35.3C35.7694 28.39 36.15 28.7706 36.15 29.24V32.61C36.15 33.0795 35.7694 33.46 35.3 33.46H31.93C31.4605 33.46 31.08 33.0795 31.08 32.61V29.24C31.08 28.7706 31.4605 28.39 31.93 28.39ZM35.3 38.53H31.93C31.4605 38.53 31.08 38.9106 31.08 39.38V42.75C31.08 43.2195 31.4605 43.6 31.93 43.6H35.3C35.7694 43.6 36.15 43.2195 36.15 42.75V39.38C36.15 38.9106 35.7694 38.53 35.3 38.53ZM31.93 48.67H35.3C35.7694 48.67 36.15 49.0505 36.15 49.52V52.89C36.15 53.3594 35.7694 53.74 35.3 53.74H31.93C31.4605 53.74 31.08 53.3594 31.08 52.89V49.52C31.08 49.0505 31.4605 48.67 31.93 48.67ZM44.58 18.26H41.21C40.7405 18.26 40.36 18.6406 40.36 19.11V22.48C40.36 22.9495 40.7405 23.33 41.21 23.33H44.58C45.0494 23.33 45.43 22.9495 45.43 22.48V19.11C45.43 18.6406 45.0494 18.26 44.58 18.26ZM41.21 28.39H44.58C45.0494 28.39 45.43 28.7706 45.43 29.24V32.61C45.43 33.0795 45.0494 33.46 44.58 33.46H41.21C40.7405 33.46 40.36 33.0795 40.36 32.61V29.24C40.36 28.7706 40.7405 28.39 41.21 28.39ZM44.58 38.53H41.21C40.7405 38.53 40.36 38.9106 40.36 39.38V42.75C40.36 43.2195 40.7405 43.6 41.21 43.6H44.58C45.0494 43.6 45.43 43.2195 45.43 42.75V39.38C45.43 38.9106 45.0494 38.53 44.58 38.53ZM50.48 18.26H53.85C54.3194 18.26 54.7 18.6406 54.7 19.11V22.48C54.7 22.9495 54.3194 23.33 53.85 23.33H50.48C50.0106 23.33 49.63 22.9495 49.63 22.48V19.11C49.63 18.6406 50.0106 18.26 50.48 18.26ZM53.85 28.39H50.48C50.0106 28.39 49.63 28.7706 49.63 29.24V32.61C49.63 33.0795 50.0106 33.46 50.48 33.46H53.85C54.3194 33.46 54.7 33.0795 54.7 32.61V29.24C54.7 28.7706 54.3194 28.39 53.85 28.39ZM50.48 38.53H53.85C54.3194 38.53 54.7 38.9106 54.7 39.38V42.75C54.7 43.2195 54.3194 43.6 53.85 43.6H50.48C50.0106 43.6 49.63 43.2195 49.63 42.75V39.38C49.63 38.9106 50.0106 38.53 50.48 38.53ZM53.85 48.67H50.48C50.0106 48.67 49.63 49.0505 49.63 49.52V52.89C49.63 53.3594 50.0106 53.74 50.48 53.74H53.85C54.3194 53.74 54.7 53.3594 54.7 52.89V49.52C54.7 49.0505 54.3194 48.67 53.85 48.67ZM17.94 28.3H21.31C21.7794 28.3 22.16 28.6805 22.16 29.15V32.52C22.16 32.9894 21.7794 33.37 21.31 33.37H17.94C17.4705 33.37 17.09 32.9894 17.09 32.52V29.15C17.09 28.6805 17.4705 28.3 17.94 28.3ZM21.31 38.43H17.94C17.4705 38.43 17.09 38.8105 17.09 39.28V42.65C17.09 43.1194 17.4705 43.5 17.94 43.5H21.31C21.7794 43.5 22.16 43.1194 22.16 42.65V39.28C22.16 38.8105 21.7794 38.43 21.31 38.43ZM17.94 48.57H21.31C21.7794 48.57 22.16 48.9506 22.16 49.42V52.79C22.16 53.2594 21.7794 53.64 21.31 53.64H17.94C17.4705 53.64 17.09 53.2594 17.09 52.79V49.42C17.09 48.9506 17.4705 48.57 17.94 48.57Z" fill="black"/>
</svg>
