<svg width="72" height="72" viewBox="0 0 72 72" fill="none" xmlns="http://www.w3.org/2000/svg">
<path fill-rule="evenodd" clip-rule="evenodd" d="M30.19 11.08H58C59.1308 11.08 60.2154 11.5285 61.0159 12.3271C61.8164 13.1257 62.2674 14.2092 62.27 15.34V43.14C62.2674 44.2716 61.8167 45.3562 61.0165 46.1564C60.2163 46.9566 59.1317 47.4073 58 47.41H30.19C29.0576 47.41 27.9715 46.9601 27.1707 46.1593C26.3699 45.3585 25.92 44.2724 25.92 43.14V15.34C25.9227 14.2092 26.3737 13.1257 27.1742 12.3271C27.9747 11.5285 29.0593 11.08 30.19 11.08ZM58.191 43.3309C58.2416 43.2802 58.27 43.2116 58.27 43.14V15.34C58.2675 15.2701 58.2379 15.204 58.1875 15.1555C58.1372 15.107 58.07 15.0799 58 15.08H30.19C30.1201 15.0799 30.0529 15.107 30.0026 15.1555C29.9522 15.204 29.9226 15.2701 29.92 15.34V43.14C29.92 43.2116 29.9485 43.2802 29.9991 43.3309C30.0498 43.3815 30.1184 43.41 30.19 43.41H58C58.0717 43.41 58.1403 43.3815 58.191 43.3309ZM42.6658 50.5858C43.0408 50.2107 43.5495 50 44.08 50C44.6104 50 45.1191 50.2107 45.4942 50.5858C45.8693 50.9608 46.08 51.4695 46.08 52V56.66C46.0773 57.7907 45.6263 58.8742 44.8258 59.6728C44.0253 60.4715 42.9407 60.92 41.81 60.92H14C12.8692 60.92 11.7847 60.4715 10.9842 59.6728C10.1837 58.8742 9.73263 57.7907 9.72998 56.66V28.86C9.73262 27.7283 10.1833 26.6437 10.9836 25.8435C11.7838 25.0433 12.8683 24.5926 14 24.59H21.24C21.7704 24.59 22.2791 24.8007 22.6542 25.1758C23.0293 25.5508 23.24 26.0595 23.24 26.59C23.24 27.1204 23.0293 27.6291 22.6542 28.0042C22.2791 28.3793 21.7704 28.59 21.24 28.59H14C13.9284 28.59 13.8597 28.6184 13.8091 28.669C13.7584 28.7197 13.73 28.7884 13.73 28.86V56.65C13.7326 56.7198 13.7622 56.786 13.8125 56.8345C13.8629 56.8829 13.9301 56.91 14 56.91H41.81C41.8799 56.91 41.9471 56.8829 41.9974 56.8345C42.0478 56.786 42.0774 56.7198 42.08 56.65V52C42.08 51.4695 42.2907 50.9608 42.6658 50.5858Z" fill="black"/>
</svg>
