<svg width="72" height="72" viewBox="0 0 72 72" fill="none" xmlns="http://www.w3.org/2000/svg">
<path fill-rule="evenodd" clip-rule="evenodd" d="M52.5299 51L60.3699 58.82L60.3599 58.88C60.5457 59.0658 60.6931 59.2864 60.7937 59.5292C60.8943 59.772 60.946 60.0322 60.946 60.295C60.946 60.5578 60.8943 60.818 60.7937 61.0608C60.6931 61.3035 60.5457 61.5241 60.3599 61.71C60.1741 61.8958 59.9535 62.0432 59.7107 62.1437C59.4679 62.2443 59.2077 62.2961 58.9449 62.2961C58.6821 62.2961 58.4219 62.2443 58.1791 62.1437C57.9363 62.0432 57.7157 61.8958 57.5299 61.71L49.5299 53.71C44.6212 57.4417 38.4605 59.1328 32.3345 58.4299C26.2085 57.7271 20.5908 54.6848 16.6548 49.9383C12.7187 45.1918 10.7685 39.1082 11.2115 32.958C11.6545 26.8077 14.4564 21.0664 19.0321 16.933C23.6078 12.7997 29.6035 10.5938 35.7669 10.7762C41.9304 10.9586 47.7852 13.5151 52.1084 17.9118C56.4317 22.3086 58.8892 28.2055 58.9678 34.3712C59.0463 40.5369 56.7398 46.4945 52.5299 51ZM18.388 23.7546C16.2056 27.0318 15.044 30.8826 15.0499 34.82V34.78C15.0512 37.398 15.5684 39.9902 16.5718 42.4084C17.5752 44.8266 19.0452 47.0233 20.8979 48.8732C22.7505 50.7231 24.9495 52.1898 27.3692 53.1896C29.7889 54.1894 32.3818 54.7026 34.9999 54.7C38.9373 54.692 42.7839 53.5169 46.0535 51.323C49.3231 49.1291 51.8687 46.0151 53.3687 42.3746C54.8686 38.7341 55.2554 34.7305 54.4802 30.8702C53.705 27.0099 51.8027 23.466 49.0136 20.6868C46.2246 17.9075 42.6741 16.0176 38.8111 15.256C34.948 14.4944 30.9459 14.8953 27.3107 16.408C23.6755 17.9207 20.5704 20.4773 18.388 23.7546ZM47.2054 26.2345C47.5092 26.5383 47.6799 26.9504 47.6799 27.3801C47.6802 28.7725 47.222 30.1263 46.3761 31.2325C45.5303 32.3386 44.3438 33.1355 42.9999 33.5001V34.2301H46.0899C46.5196 34.2301 46.9316 34.4007 47.2354 34.7045C47.5392 35.0083 47.7099 35.4204 47.7099 35.8501C47.7099 36.2797 47.5392 36.6918 47.2354 36.9956C46.9316 37.2994 46.5196 37.4701 46.0899 37.4701H42.9999V37.9001C42.9857 38.2691 42.9456 38.6367 42.8799 39.0001C44.2403 39.3501 45.446 40.1421 46.3075 41.2516C47.169 42.3611 47.6377 43.7253 47.6399 45.1301C47.6399 45.5597 47.4692 45.9718 47.1654 46.2756C46.8616 46.5794 46.4496 46.7501 46.0199 46.7501C45.5903 46.7501 45.1782 46.5794 44.8744 46.2756C44.5706 45.9718 44.3999 45.5597 44.3999 45.1301C44.3854 44.3842 44.1006 43.669 43.5985 43.1172C43.0964 42.5655 42.4111 42.2147 41.6699 42.1301C40.9782 43.1768 40.0382 44.0359 38.9337 44.631C37.8292 45.226 36.5945 45.5383 35.3399 45.5401H34.4999C33.2453 45.5383 32.0107 45.226 30.9062 44.631C29.8016 44.0359 28.8616 43.1768 28.1699 42.1301C27.4287 42.2147 26.7434 42.5655 26.2413 43.1172C25.7393 43.669 25.4545 44.3842 25.4399 45.1301C25.4399 45.5597 25.2692 45.9718 24.9654 46.2756C24.6616 46.5794 24.2496 46.7501 23.8199 46.7501C23.3903 46.7501 22.9782 46.5794 22.6744 46.2756C22.3706 45.9718 22.1999 45.5597 22.1999 45.1301C22.2044 43.72 22.6788 42.3517 23.5481 41.2415C24.4175 40.1313 25.6321 39.3426 26.9999 39.0001C26.9743 38.6338 26.9743 38.2663 26.9999 37.9001V37.4701H23.8599C23.4303 37.4701 23.0182 37.2994 22.7144 36.9956C22.4106 36.6918 22.2399 36.2797 22.2399 35.8501C22.2399 35.4204 22.4106 35.0083 22.7144 34.7045C23.0182 34.4007 23.4303 34.2301 23.8599 34.2301H26.9999V33.5001C25.656 33.1355 24.4695 32.3386 23.6237 31.2325C22.7778 30.1263 22.3197 28.7725 22.3199 27.3801C22.3199 26.9504 22.4906 26.5383 22.7944 26.2345C23.0982 25.9307 23.5103 25.7601 23.9399 25.7601C24.3696 25.7601 24.7816 25.9307 25.0854 26.2345C25.3892 26.5383 25.5599 26.9504 25.5599 27.3801C25.5525 28.058 25.7689 28.7195 26.1757 29.2619C26.5825 29.8044 27.157 30.1974 27.8099 30.3801C28.0312 30.2458 28.2816 30.1669 28.5399 30.1501V29.7901C28.5428 28.811 28.8425 27.8557 29.3995 27.0505C29.9566 26.2453 30.7447 25.628 31.6599 25.2801L30.6599 23.6501C30.4918 23.3606 30.4447 23.0164 30.529 22.6925C30.6133 22.3685 30.8221 22.0909 31.1099 21.9201C31.3979 21.7524 31.7405 21.7056 32.0628 21.79C32.3852 21.8743 32.661 22.0829 32.8299 22.3701L34.3499 24.9501H35.6499L37.1699 22.3701C37.252 22.2237 37.3624 22.0951 37.4948 21.992C37.6272 21.8889 37.7788 21.8133 37.9409 21.7696C38.1029 21.7259 38.272 21.715 38.4383 21.7375C38.6046 21.76 38.7647 21.8156 38.9092 21.9008C39.0538 21.9861 39.1798 22.0993 39.28 22.234C39.3801 22.3686 39.4524 22.5219 39.4925 22.6848C39.5326 22.8478 39.5398 23.0171 39.5136 23.1828C39.4874 23.3486 39.4284 23.5074 39.3399 23.6501L38.3399 25.2801C39.2551 25.628 40.0433 26.2453 40.6003 27.0505C41.1573 27.8557 41.4571 28.811 41.4599 29.7901V30.1501C41.7211 30.1684 41.9744 30.2471 42.1999 30.3801C42.851 30.1955 43.4232 29.8017 43.8281 29.2595C44.233 28.7172 44.448 28.0567 44.4399 27.3801C44.4399 26.9504 44.6106 26.5383 44.9144 26.2345C45.2182 25.9307 45.6303 25.7601 46.0599 25.7601C46.4896 25.7601 46.9016 25.9307 47.2054 26.2345Z" fill="black"/>
</svg>
