<svg width="72" height="72" viewBox="0 0 72 72" fill="none" xmlns="http://www.w3.org/2000/svg">
<path d="M60.1001 30.35C59.8744 29.6408 59.4553 29.0087 58.89 28.5246C58.3247 28.0406 57.6355 27.7238 56.9001 27.61L45.0001 25.77L39.7201 14.91C39.396 14.2392 38.891 13.6721 38.262 13.2728C37.6331 12.8735 36.905 12.6578 36.1601 12.65C35.4197 12.6504 34.6939 12.8563 34.0636 13.2447C33.4333 13.6331 32.9232 14.1889 32.5901 14.85L27.1201 25.62L15.1201 27.26C14.3797 27.3609 13.6823 27.6672 13.1071 28.1441C12.5319 28.6211 12.1017 29.2496 11.8654 29.9585C11.6291 30.6674 11.5961 31.4283 11.7701 32.155C11.9442 32.8817 12.3183 33.5451 12.8501 34.07L21.4101 42.56L19.3301 54.43C19.1987 55.1644 19.2753 55.9209 19.5512 56.6141C19.8272 57.3072 20.2915 57.9093 20.8917 58.3525C21.4919 58.7956 22.204 59.062 22.9477 59.1217C23.6914 59.1813 24.4369 59.0318 25.1001 58.69L35.8201 53.17L46.4501 58.87C47.0338 59.1851 47.6867 59.35 48.3501 59.35C48.9298 59.349 49.5023 59.222 50.0281 58.9779C50.5539 58.7337 51.0203 58.3781 51.395 57.9359C51.7698 57.4936 52.0439 56.9751 52.1985 56.4164C52.353 55.8577 52.3843 55.272 52.2901 54.7L50.3501 42.79L59.0601 34.45C59.5993 33.9321 59.9825 33.2734 60.1663 32.5487C60.3502 31.824 60.3272 31.0623 60.1001 30.35ZM47.5801 39.91C47.112 40.3587 46.76 40.9145 46.5545 41.5294C46.3489 42.1444 46.2959 42.8001 46.4001 43.44L48.3401 55.34L37.7101 49.64C37.1364 49.3387 36.4981 49.1813 35.85 49.1813C35.202 49.1813 34.5637 49.3387 33.9901 49.64L23.2701 55.14L25.4001 43.27C25.5151 42.6318 25.4733 41.9752 25.2782 41.3568C25.0831 40.7384 24.7405 40.1766 24.2801 39.72L15.7101 31.22L27.7101 29.59C28.348 29.4968 28.9539 29.2509 29.4762 28.873C29.9986 28.4952 30.4219 27.9967 30.7101 27.42L36.1401 16.65L41.3901 27.51C41.672 28.0961 42.0925 28.6045 42.6153 28.9913C43.138 29.3782 43.7472 29.6317 44.3901 29.73L56.3101 31.56L47.5801 39.91Z" fill="black"/>
</svg>
