<svg width="72" height="72" viewBox="0 0 72 72" fill="none" xmlns="http://www.w3.org/2000/svg">
<path fill-rule="evenodd" clip-rule="evenodd" d="M57.64 25.06C57.6446 25.1032 57.6446 25.1468 57.64 25.19C57.6686 25.2478 57.692 25.308 57.71 25.37V55.25C57.71 56.7378 57.119 58.1648 56.0669 59.2169C55.0148 60.2689 53.5879 60.86 52.1 60.86H20C18.5276 60.8602 17.1142 60.2815 16.0646 59.2488C15.0151 58.2161 14.4136 56.8122 14.39 55.34V16.84C14.39 15.3521 14.9811 13.9252 16.0331 12.8731C17.0852 11.821 18.5121 11.23 20 11.23H45.27C45.4253 11.2303 45.5799 11.2504 45.73 11.29H45.82C45.9794 11.3281 46.1315 11.3923 46.27 11.48H46.33C46.4875 11.5779 46.6292 11.6993 46.75 11.84L57.26 24.13V24.18C57.3584 24.3033 57.4423 24.4375 57.51 24.58C57.5685 24.7355 57.612 24.8962 57.64 25.06ZM47.5991 22.9909C47.7242 23.116 47.8931 23.1874 48.07 23.19L51.24 23.26L47.33 18.67L47.4 22.52C47.4026 22.6969 47.474 22.8658 47.5991 22.9909ZM53.1885 56.3284C53.4904 56.0265 53.66 55.617 53.66 55.19L53.68 27.33L48 27.2C46.7891 27.1821 45.6324 26.6944 44.7742 25.8399C43.9159 24.9854 43.4232 23.8309 43.4 22.62L43.26 15.14H20C19.573 15.14 19.1635 15.3096 18.8616 15.6115C18.5596 15.9135 18.39 16.323 18.39 16.75V55.19C18.39 55.617 18.5596 56.0265 18.8616 56.3284C19.1635 56.6304 19.573 56.8 20 56.8H52.05C52.477 56.8 52.8865 56.6304 53.1885 56.3284ZM25.77 30.4H46.5C46.9641 30.4 47.4092 30.5844 47.7374 30.9126C48.0656 31.2408 48.25 31.6859 48.25 32.15V44C48.237 44.4554 48.0469 44.8878 47.7201 45.2053C47.3933 45.5227 46.9556 45.7002 46.5 45.7H37.88V47.65H40C40.4641 47.65 40.9093 47.8344 41.2374 48.1626C41.5656 48.4908 41.75 48.9359 41.75 49.4C41.75 49.8641 41.5656 50.3093 41.2374 50.6375C40.9093 50.9656 40.4641 51.15 40 51.15H32.31C31.8459 51.15 31.4008 50.9656 31.0726 50.6375C30.7444 50.3093 30.56 49.8641 30.56 49.4C30.56 48.9359 30.7444 48.4908 31.0726 48.1626C31.4008 47.8344 31.8459 47.65 32.31 47.65H34.36V45.75H25.75C25.2859 45.75 24.8408 45.5656 24.5126 45.2375C24.1844 44.9093 24 44.4641 24 44V32.15C24 31.9185 24.0459 31.6893 24.1351 31.4757C24.2243 31.262 24.355 31.0682 24.5196 30.9055C24.6842 30.7427 24.8795 30.6142 25.0942 30.5274C25.3088 30.4407 25.5385 30.3974 25.77 30.4ZM27.52 42.2H44.75V33.9H27.52V42.2Z" fill="black"/>
</svg>
