<svg width="72" height="72" viewBox="0 0 72 72" fill="none" xmlns="http://www.w3.org/2000/svg">
<path opacity="0.6" d="M62.33 39.77L57.51 35C58.5262 33.9504 59.0894 32.5436 59.0782 31.0827C59.0669 29.6218 58.4822 28.2238 57.45 27.19C56.4161 26.1577 55.0181 25.573 53.5573 25.5618C52.0964 25.5506 50.6896 26.1138 49.64 27.13L44.82 22.31C44.7218 22.223 44.6104 22.1521 44.49 22.1V27.21C46.4491 27.4268 48.2438 28.4071 49.4849 29.9384C50.726 31.4696 51.3135 33.4284 51.12 35.39C50.9062 37.0717 50.1385 38.6344 48.9379 39.8314C47.7374 41.0283 46.1724 41.7913 44.49 42V48.73C44.4873 49.7078 44.0977 50.6448 43.4063 51.3363C42.7149 52.0277 41.7778 52.4173 40.8 52.42H36.61C36.6106 52.7941 36.7578 53.1531 37.02 53.42L42.84 59.23C42.9703 59.363 43.1259 59.4687 43.2976 59.5409C43.4693 59.613 43.6537 59.6502 43.84 59.6502C44.0262 59.6502 44.2106 59.613 44.3823 59.5409C44.554 59.4687 44.7096 59.363 44.84 59.23L49.67 54.41C50.7281 55.3697 52.115 55.8853 53.543 55.8499C54.9711 55.8145 56.3307 55.2309 57.34 54.22C58.3518 53.2106 58.9351 51.8499 58.9687 50.4211C59.0022 48.9923 58.4833 47.6057 57.52 46.55L62.35 41.72C62.6032 41.4574 62.7431 41.1057 62.7393 40.7409C62.7356 40.3761 62.5886 40.0274 62.33 39.77Z" fill="black"/>
<path d="M40.7999 52.44H33.3199C32.343 52.4373 31.407 52.0474 30.7172 51.3557C30.0273 50.664 29.6399 49.7269 29.6399 48.75C29.6609 48.0354 29.4389 47.3348 29.0103 46.7627C28.5816 46.1905 27.9716 45.7807 27.2799 45.6C26.845 45.5096 26.3953 45.517 25.9636 45.6216C25.5318 45.7262 25.1286 45.9254 24.7832 46.2048C24.4378 46.4842 24.1588 46.8368 23.9662 47.2372C23.7737 47.6376 23.6725 48.0757 23.6699 48.52V48.75C23.6673 49.7244 23.2805 50.6584 22.5934 51.3493C21.9062 52.0402 20.9743 52.4321 19.9999 52.44H12.4999C11.523 52.4373 10.587 52.0474 9.89718 51.3557C9.20734 50.664 8.81994 49.7269 8.81995 48.75V41.27C8.81995 40.294 9.20766 39.358 9.89779 38.6678C10.5879 37.9777 11.5239 37.59 12.4999 37.59C12.9421 37.5868 13.3782 37.486 13.7768 37.2946C14.1755 37.1032 14.5269 36.8261 14.8059 36.4831C15.0849 36.14 15.2847 35.7395 15.3908 35.3102C15.497 34.881 15.5069 34.4335 15.4199 34C15.239 33.3092 14.8287 32.7005 14.2564 32.2735C13.684 31.8465 12.9836 31.6267 12.2699 31.65C11.354 31.6473 10.4765 31.2816 9.82982 30.633C9.1831 29.9845 8.81994 29.1059 8.81995 28.19V20.45C8.81995 19.474 9.20766 18.538 9.89779 17.8478C10.5879 17.1577 11.5239 16.77 12.4999 16.77H19.1899C19.2689 15.7773 19.5448 14.8104 20.0015 13.9255C20.4582 13.0406 21.0865 12.2555 21.8498 11.616C22.6131 10.9765 23.4961 10.4954 24.4473 10.2008C25.3985 9.90616 26.3988 9.8039 27.3899 9.89998C29.1229 10.1089 30.7324 10.9042 31.9511 12.1538C33.1698 13.4035 33.9245 15.0323 34.0899 16.77H40.7999C41.7769 16.77 42.7139 17.1574 43.4056 17.8472C44.0974 18.5371 44.4873 19.4731 44.4899 20.45V27.16C46.4491 27.3768 48.2438 28.3571 49.4849 29.8884C50.726 31.4196 51.3135 33.3784 51.1199 35.34C50.9166 37.0308 50.1534 38.6049 48.9519 39.8118C47.7505 41.0187 46.1798 41.789 44.4899 42V48.73C44.4913 49.2159 44.3969 49.6973 44.2121 50.1467C44.0274 50.5961 43.756 51.0047 43.4133 51.3492C43.0707 51.6937 42.6635 51.9674 42.2151 52.1545C41.7667 52.3417 41.2858 52.4387 40.7999 52.44ZM34.0899 47.94H39.9999V39.84C39.9999 39.2432 40.237 38.6709 40.659 38.249C41.0809 37.827 41.6532 37.59 42.2499 37.59H43.4499C44.2196 37.6151 44.9715 37.3557 45.5619 36.8613C46.1523 36.3668 46.5396 35.6721 46.6499 34.91C46.6967 34.4929 46.653 34.0707 46.5219 33.6721C46.3907 33.2735 46.1752 32.9078 45.8899 32.6C45.6126 32.2899 45.2738 32.0408 44.8951 31.8687C44.5164 31.6965 44.1059 31.605 43.6899 31.6H42.2399C41.6484 31.5974 41.0817 31.3619 40.6624 30.9445C40.2432 30.5272 40.0052 29.9615 39.9999 29.37V21.27H31.8999C31.6019 21.2713 31.3066 21.2134 31.0312 21.0997C30.7557 20.986 30.5056 20.8187 30.2954 20.6075C30.0851 20.3963 29.9189 20.1454 29.8064 19.8695C29.6939 19.5935 29.6373 19.298 29.6399 19V17.58C29.6642 16.8168 29.4096 16.0709 28.9236 15.4819C28.4377 14.8929 27.7538 14.5012 26.9999 14.38C26.5823 14.3394 26.1608 14.3869 25.7627 14.5194C25.3645 14.6519 24.9986 14.8664 24.6885 15.1492C24.3785 15.4319 24.1312 15.7765 23.9626 16.1608C23.7941 16.545 23.708 16.9604 23.7099 17.38V19C23.7099 19.5967 23.4729 20.169 23.0509 20.591C22.629 21.0129 22.0567 21.25 21.4599 21.25H13.3599V27.17C14.7019 27.3077 15.9815 27.8067 17.0624 28.6139C18.1433 29.4212 18.985 30.5064 19.498 31.7541C20.0111 33.0017 20.1762 34.3652 19.9758 35.6993C19.7753 37.0333 19.2169 38.2881 18.3599 39.33C17.1123 40.8498 15.3157 41.8163 13.3599 42.02V47.92H19.2299C19.3679 46.0384 20.2127 44.2788 21.5947 42.9944C22.9766 41.7101 24.7933 40.9962 26.6799 40.9962C28.5666 40.9962 30.3833 41.7101 31.7652 42.9944C33.1472 44.2788 33.992 46.0384 34.1299 47.92L34.0899 47.94Z" fill="black"/>
</svg>
