<svg width="72" height="72" viewBox="0 0 72 72" fill="none" xmlns="http://www.w3.org/2000/svg">
<path opacity="0.5" d="M56.5099 19.87V43.58C56.5098 43.8664 56.4481 44.1495 56.329 44.41C56.21 44.6705 56.0364 44.9024 55.8199 45.09C55.6028 45.2788 55.3474 45.4186 55.0713 45.4997C54.7951 45.5808 54.5048 45.6014 54.2199 45.56C49.2699 44.82 44.9099 45.56 39.8199 51.37C43.6999 49.56 50.5499 48.2 60.7499 52.53V23.65C59.5216 22.1967 58.0942 20.9241 56.5099 19.87Z" fill="black"/>
<path d="M62.32 22.42C60.6786 20.4602 58.7135 18.7962 56.51 17.5V17.38C56.5092 16.9823 56.3899 16.5939 56.1672 16.2644C55.9446 15.9348 55.6287 15.6792 55.26 15.53C54.87 15.37 46 11.92 36 20C31.84 16.56 27.47 15 23 15.3C15 15.9 9.82003 22.41 9.61003 22.69C9.29797 23.0549 9.1276 23.5199 9.13003 24V52.84C9.1303 53.1701 9.21227 53.4951 9.36864 53.7858C9.525 54.0765 9.7509 54.324 10.0262 54.5062C10.3014 54.6884 10.6175 54.7996 10.9462 54.8299C11.275 54.8603 11.6061 54.8088 11.91 54.68C27.34 48.13 34.16 55.36 34.44 55.68L34.49 55.73C34.5552 55.7985 34.6254 55.862 34.7 55.92L34.79 55.99C34.8808 56.0562 34.978 56.1132 35.08 56.16H35.13L35.46 56.27C35.608 56.3015 35.7588 56.3182 35.91 56.32C36.0723 56.3163 36.2335 56.2928 36.39 56.25H36.5C36.5365 56.2558 36.5736 56.2558 36.61 56.25L36.75 56.18L37.05 56.01L37.23 55.86C37.3142 55.7876 37.3912 55.7072 37.46 55.62C37.5124 55.554 37.5592 55.4838 37.6 55.41C37.632 55.3813 37.6591 55.3476 37.68 55.31L39.61 51.61L37.86 54.96C39.6 53.46 46.55 48.72 59.94 54.41C60.244 54.5388 60.5751 54.5903 60.9038 54.5599C61.2325 54.5296 61.5486 54.4184 61.8239 54.2362C62.0992 54.054 62.3251 53.8065 62.4814 53.5158C62.6378 53.2251 62.7198 52.9001 62.72 52.57V23.66C62.7288 23.2136 62.588 22.7771 62.32 22.42ZM23.82 47.94C20.1691 47.9964 16.5543 48.6726 13.13 49.94V24.71C14.36 23.37 18.13 19.71 23.25 19.33C26.84 19.06 30.43 20.48 33.94 23.57V50.38C30.8274 48.7237 27.3455 47.8842 23.82 47.94ZM37.94 47.51V23.58C44.34 18.11 50.06 18.41 52.51 18.9V41.35C48.17 41.09 43.23 42.06 37.94 47.51ZM58.75 49.61C52.21 47.32 47.06 47.3 43.22 48.13C42.6072 48.5981 42.0228 49.1023 41.47 49.64C45.87 45.41 49.81 44.9 54.22 45.56C54.5048 45.6014 54.7952 45.5809 55.0714 45.4998C55.3475 45.4186 55.6029 45.2789 55.82 45.09C56.0365 44.9024 56.2101 44.6705 56.3291 44.41C56.4482 44.1495 56.5098 43.8665 56.51 43.58V22.35C57.305 22.9605 58.0538 23.629 58.75 24.35V49.61Z" fill="black"/>
</svg>
