<svg width="72" height="72" viewBox="0 0 72 72" fill="none" xmlns="http://www.w3.org/2000/svg">
<path fill-rule="evenodd" clip-rule="evenodd" d="M18.8199 14.94C17.7479 14.94 16.7 15.2579 15.8087 15.8534C14.9174 16.449 14.2227 17.2955 13.8125 18.2859C13.4023 19.2762 13.2949 20.366 13.504 21.4174C13.7132 22.4688 14.2294 23.4345 14.9874 24.1925C15.7454 24.9505 16.7111 25.4667 17.7625 25.6759C18.8139 25.885 19.9037 25.7777 20.894 25.3674C21.8844 24.9572 22.7309 24.2625 23.3265 23.3712C23.922 22.4799 24.2399 21.432 24.2399 20.36C24.2399 19.6482 24.0997 18.9434 23.8273 18.2859C23.555 17.6283 23.1557 17.0308 22.6524 16.5275C22.1491 16.0242 21.5516 15.625 20.894 15.3526C20.2365 15.0802 19.5317 14.94 18.8199 14.94ZM35.9999 25.78C38.9933 25.78 41.4199 23.3534 41.4199 20.36C41.4199 17.3666 38.9933 14.94 35.9999 14.94C33.0065 14.94 30.5799 17.3666 30.5799 20.36C30.5799 23.3534 33.0065 25.78 35.9999 25.78ZM58.5999 20.36C58.5999 23.3534 56.1733 25.78 53.1799 25.78C50.1865 25.78 47.7599 23.3534 47.7599 20.36C47.7599 17.3666 50.1865 14.94 53.1799 14.94C56.1733 14.94 58.5999 17.3666 58.5999 20.36ZM18.8199 30.58C17.7479 30.58 16.7 30.8979 15.8087 31.4935C14.9174 32.089 14.2227 32.9355 13.8125 33.9259C13.4023 34.9163 13.2949 36.006 13.504 37.0574C13.7132 38.1088 14.2294 39.0745 14.9874 39.8325C15.7454 40.5905 16.7111 41.1067 17.7625 41.3159C18.8139 41.525 19.9037 41.4177 20.894 41.0074C21.8844 40.5972 22.7309 39.9025 23.3265 39.0112C23.922 38.1199 24.2399 37.072 24.2399 36C24.2399 34.5625 23.6689 33.1839 22.6524 32.1675C21.636 31.1511 20.2574 30.58 18.8199 30.58ZM32.9887 31.4935C33.88 30.8979 34.9279 30.58 35.9999 30.58C36.7117 30.58 37.4165 30.7202 38.0741 30.9926C38.7316 31.265 39.3291 31.6642 39.8324 32.1675C40.3357 32.6708 40.735 33.2683 41.0073 33.9259C41.2797 34.5835 41.4199 35.2883 41.4199 36C41.4199 37.072 41.102 38.1199 40.5065 39.0112C39.9109 39.9025 39.0644 40.5972 38.0741 41.0074C37.0837 41.4177 35.9939 41.525 34.9425 41.3159C33.8911 41.1067 32.9254 40.5905 32.1674 39.8325C31.4094 39.0745 30.8932 38.1088 30.6841 37.0574C30.4749 36.006 30.5823 34.9163 30.9925 33.9259C31.4027 32.9355 32.0974 32.089 32.9887 31.4935ZM53.1799 30.58C52.1079 30.58 51.06 30.8979 50.1687 31.4935C49.2774 32.089 48.5827 32.9355 48.1725 33.9259C47.7623 34.9163 47.6549 36.006 47.864 37.0574C48.0732 38.1088 48.5894 39.0745 49.3474 39.8325C50.1054 40.5905 51.0711 41.1067 52.1225 41.3159C53.1739 41.525 54.2637 41.4177 55.254 41.0074C56.2444 40.5972 57.0909 39.9025 57.6865 39.0112C58.282 38.1199 58.5999 37.072 58.5999 36C58.5999 34.5625 58.0289 33.1839 57.0124 32.1675C55.996 31.1511 54.6174 30.58 53.1799 30.58ZM15.8087 47.1334C16.7 46.5378 17.7479 46.22 18.8199 46.22C19.5317 46.22 20.2365 46.3602 20.894 46.6325C21.5516 46.9049 22.1491 47.3042 22.6524 47.8074C23.1557 48.3107 23.555 48.9082 23.8273 49.5658C24.0997 50.2234 24.2399 50.9282 24.2399 51.64C24.2399 52.7119 23.922 53.7598 23.3265 54.6512C22.7309 55.5425 21.8844 56.2372 20.894 56.6474C19.9037 57.0576 18.8139 57.165 17.7625 56.9558C16.7111 56.7467 15.7454 56.2305 14.9874 55.4725C14.2294 54.7145 13.7132 53.7487 13.504 52.6974C13.2949 51.646 13.4023 50.5562 13.8125 49.5658C14.2227 48.5755 14.9174 47.729 15.8087 47.1334ZM35.9999 46.22C34.9279 46.22 33.88 46.5378 32.9887 47.1334C32.0974 47.729 31.4027 48.5755 30.9925 49.5658C30.5823 50.5562 30.4749 51.646 30.6841 52.6974C30.8932 53.7487 31.4094 54.7145 32.1674 55.4725C32.9254 56.2305 33.8911 56.7467 34.9425 56.9558C35.9939 57.165 37.0837 57.0576 38.0741 56.6474C39.0644 56.2372 39.9109 55.5425 40.5065 54.6512C41.102 53.7598 41.4199 52.7119 41.4199 51.64C41.4199 50.9282 41.2797 50.2234 41.0073 49.5658C40.735 48.9082 40.3357 48.3107 39.8324 47.8074C39.3291 47.3042 38.7316 46.9049 38.0741 46.6325C37.4165 46.3602 36.7117 46.22 35.9999 46.22ZM50.1687 47.1334C51.06 46.5378 52.1079 46.22 53.1799 46.22C54.6174 46.22 55.996 46.791 57.0124 47.8074C58.0289 48.8239 58.5999 50.2025 58.5999 51.64C58.5999 52.7119 58.282 53.7598 57.6865 54.6512C57.0909 55.5425 56.2444 56.2372 55.254 56.6474C54.2637 57.0576 53.1739 57.165 52.1225 56.9558C51.0711 56.7467 50.1054 56.2305 49.3474 55.4725C48.5894 54.7145 48.0732 53.7487 47.864 52.6974C47.6549 51.646 47.7623 50.5562 48.1725 49.5658C48.5827 48.5755 49.2774 47.729 50.1687 47.1334Z" fill="black"/>
</svg>
