<svg width="72" height="72" viewBox="0 0 72 72" fill="none" xmlns="http://www.w3.org/2000/svg">
<path fill-rule="evenodd" clip-rule="evenodd" d="M45.13 10.37C52.67 12 57.82 17 59.26 24.27C60.94 32.75 59.56 41.21 55.56 46.9C53.7051 49.3426 51.593 51.5788 49.26 53.57C49.0904 53.7275 48.9192 53.8833 48.7483 54.0389C48.496 54.2685 48.2445 54.4975 48 54.73C45.15 57.39 42.2 60 39.94 61.9C39.4688 62.2998 38.8855 62.5442 38.27 62.6H38C37.2044 62.6 36.4413 62.2839 35.8787 61.7213C35.3161 61.1587 35 60.3956 35 59.6V55.35C29.2 55.05 21.87 53 18 49C17.634 48.6154 17.4358 48.1012 17.4489 47.5705C17.4621 47.0398 17.6855 46.536 18.07 46.17C18.4546 45.804 18.9688 45.6058 19.4995 45.6189C20.0303 45.632 20.534 45.8554 20.9 46.24C24.12 49.59 31.34 51.4 36.5 51.4C37.1631 51.4 37.799 51.6634 38.2678 52.1322C38.7367 52.6011 39 53.237 39 53.9V57.42C40.91 55.8 43.13 53.8 45.28 51.8L46.62 50.59C48.7305 48.7947 50.6476 46.7838 52.34 44.59C55.68 39.77 56.82 32.46 55.34 25.03C54.24 19.34 50.34 15.52 44.34 14.27C41.3478 13.6667 38.3025 13.3652 35.25 13.37C29.75 13.37 25.13 14.36 22.25 16.14C20.2752 17.3811 18.6965 19.1611 17.7 21.27C17.5895 21.5138 17.4311 21.7328 17.2342 21.9143C17.0374 22.0957 16.8062 22.2357 16.5542 22.3261C16.3023 22.4166 16.0348 22.4555 15.7675 22.4406C15.5002 22.4257 15.2387 22.3573 14.9983 22.2395C14.758 22.1217 14.5437 21.9568 14.3683 21.7546C14.1928 21.5525 14.0597 21.3171 13.9769 21.0626C13.8941 20.8081 13.8632 20.5395 13.886 20.2728C13.9089 20.0061 13.9851 19.7467 14.11 19.51C15.421 16.7257 17.5034 14.376 20.11 12.74C24.6 9.96 30.81 9.37 35.22 9.37C38.5484 9.37372 41.8681 9.7087 45.13 10.37ZM26.4104 43.2775C26.3832 42.6146 26.6205 41.968 27.07 41.48L31.89 36.22H14.54C13.877 36.22 13.2411 35.9566 12.7723 35.4877C12.3034 35.0189 12.04 34.383 12.04 33.72C12.04 33.0569 12.3034 32.4211 12.7723 31.9522C13.2411 31.4834 13.877 31.22 14.54 31.22H31.89L27.07 26C26.7426 25.4999 26.6051 24.899 26.6826 24.3063C26.7601 23.7136 27.0474 23.1683 27.4925 22.7692C27.9375 22.3701 28.5108 22.1437 29.1084 22.131C29.7061 22.1183 30.2885 22.3202 30.75 22.7L39.44 32.11C39.4668 32.1523 39.4969 32.1924 39.53 32.23L39.65 32.38C39.6704 32.4078 39.6872 32.438 39.7 32.47C39.7372 32.5278 39.7706 32.5879 39.8 32.65L39.89 32.81V32.9C39.9178 32.965 39.9412 33.0318 39.96 33.1C39.9556 33.1566 39.9556 33.2134 39.96 33.27V33.37C39.9649 33.4366 39.9649 33.5034 39.96 33.57V33.76V33.81V34C39.9642 34.0666 39.9642 34.1334 39.96 34.2V34.3C39.9556 34.3566 39.9556 34.4134 39.96 34.47C39.89 34.53 39.89 34.6 39.89 34.67V34.76L39.8 34.92C39.7706 34.982 39.7372 35.0422 39.7 35.1C39.6872 35.132 39.6704 35.1622 39.65 35.19L39.53 35.33C39.49 35.37 39.44 35.45 39.44 35.45L30.75 44.87C30.3005 45.358 29.6755 45.6474 29.0126 45.6746C28.3496 45.7018 27.703 45.4645 27.215 45.015C26.727 44.5654 26.4376 43.9405 26.4104 43.2775Z" fill="black"/>
</svg>
