<svg width="72" height="72" viewBox="0 0 72 72" fill="none" xmlns="http://www.w3.org/2000/svg">
<path fill-rule="evenodd" clip-rule="evenodd" d="M54.4799 11.76L59.9399 17.22C60.2725 17.5459 60.5367 17.9348 60.7171 18.3641C60.8975 18.7934 60.9904 19.2543 60.9904 19.72C60.9904 20.1856 60.8975 20.6466 60.7171 21.0759C60.5367 21.5051 60.2725 21.8941 59.9399 22.22L59.4699 22.69C54.4699 27.54 39.4699 42.31 36.4699 45.31C35.8076 45.9575 34.9161 46.3169 33.9899 46.31H33.6799L28.9999 45.9C28.1808 45.8271 27.4128 45.4704 26.8286 44.8917C26.2444 44.3129 25.8805 43.5484 25.7999 42.73L25.3899 38.05C25.3424 37.5416 25.4074 37.029 25.5802 36.5486C25.7531 36.0682 26.0295 35.6316 26.3899 35.27C28.4104 33.2037 35.8353 25.6689 41.9268 19.4872C45.1512 16.2151 48.002 13.3221 49.4799 11.82C49.805 11.4857 50.1936 11.2197 50.6229 11.0376C51.0522 10.8556 51.5136 10.7612 51.9799 10.76C52.4436 10.7409 52.906 10.8202 53.3369 10.9925C53.7678 11.1649 54.1573 11.4264 54.4799 11.76ZM56.7899 19.71L51.9999 14.92C51.688 15.2319 51.3365 15.5905 50.9498 15.9852C50.6918 16.2485 50.4181 16.5278 50.1299 16.82L54.8899 21.58L56.6499 19.84L56.7899 19.71ZM29.7499 42L33.8099 42.31L52.0199 24.38L47.3199 19.68L29.3899 37.94L29.7499 42ZM50.7257 37.3458C51.1008 36.9707 51.6095 36.76 52.1399 36.76C52.6703 36.76 53.179 36.9707 53.5541 37.3458C53.9292 37.7209 54.1399 38.2296 54.1399 38.76V55.1C54.1372 56.3368 53.6441 57.5221 52.7686 58.3957C51.893 59.2694 50.7067 59.76 49.4699 59.76H16.8099C15.5731 59.76 14.3867 59.2694 13.5112 58.3957C12.6357 57.5221 12.1425 56.3368 12.1399 55.1V22.43C12.1425 21.1923 12.6354 20.006 13.5106 19.1307C14.3858 18.2555 15.5721 17.7627 16.8099 17.76H33.1399C33.6703 17.76 34.179 17.9707 34.5541 18.3458C34.9292 18.7209 35.1399 19.2296 35.1399 19.76C35.1399 20.2904 34.9292 20.7992 34.5541 21.1742C34.179 21.5493 33.6703 21.76 33.1399 21.76H16.8099C16.6322 21.76 16.4618 21.8306 16.3361 21.9562C16.2105 22.0819 16.1399 22.2523 16.1399 22.43V55.1C16.1425 55.276 16.2143 55.4438 16.3396 55.5673C16.465 55.6908 16.6339 55.76 16.8099 55.76H49.4699C49.6459 55.76 49.8148 55.6908 49.9402 55.5673C50.0655 55.4438 50.1373 55.276 50.1399 55.1V38.76C50.1399 38.2296 50.3506 37.7209 50.7257 37.3458Z" fill="black"/>
</svg>
