<svg width="72" height="72" viewBox="0 0 72 72" fill="none" xmlns="http://www.w3.org/2000/svg">
<path d="M56.0599 33.4999H38.4999V15.9399C38.4999 15.2769 38.2366 14.641 37.7677 14.1722C37.2989 13.7033 36.663 13.4399 35.9999 13.4399C35.3369 13.4399 34.701 13.7033 34.2322 14.1722C33.7633 14.641 33.4999 15.2769 33.4999 15.9399V33.4999H15.9399C15.2769 33.4999 14.641 33.7633 14.1722 34.2322C13.7033 34.701 13.4399 35.3369 13.4399 35.9999C13.4399 36.663 13.7033 37.2989 14.1722 37.7677C14.641 38.2366 15.2769 38.4999 15.9399 38.4999H33.4999V56.0599C33.4999 56.723 33.7633 57.3589 34.2322 57.8277C34.701 58.2966 35.3369 58.5599 35.9999 58.5599C36.663 58.5599 37.2989 58.2966 37.7677 57.8277C38.2366 57.3589 38.4999 56.723 38.4999 56.0599V38.4999H56.0599C56.723 38.4999 57.3589 38.2366 57.8277 37.7677C58.2966 37.2989 58.5599 36.663 58.5599 35.9999C58.5599 35.3369 58.2966 34.701 57.8277 34.2322C57.3589 33.7633 56.723 33.4999 56.0599 33.4999Z" fill="black"/>
</svg>
