<svg width="52" height="40" viewBox="0 0 52 40" fill="none" xmlns="http://www.w3.org/2000/svg">
<path d="M50.93 10.32L43.55 1.52003C43.1171 1.03673 42.5133 0.740654 41.8661 0.694364C41.219 0.648073 40.5792 0.855194 40.0819 1.27196C39.5846 1.68872 39.2689 2.28248 39.2013 2.92778C39.1338 3.57307 39.3198 4.21934 39.72 4.73003L44.2 10.07H14.62C10.8061 10.0753 7.15002 11.5934 4.45411 14.2912C1.7582 16.989 0.242635 20.6461 0.23999 24.46V25C0.247925 28.8105 1.76582 32.4625 4.46116 35.1559C7.1565 37.8494 10.8095 39.3647 14.62 39.37H30.81C31.473 39.37 32.1089 39.1066 32.5778 38.6378C33.0466 38.169 33.31 37.5331 33.31 36.87C33.31 36.207 33.0466 35.5711 32.5778 35.1023C32.1089 34.6334 31.473 34.37 30.81 34.37H14.62C12.1348 34.3674 9.75201 33.3797 7.99378 31.6233C6.23555 29.8669 5.24528 27.4852 5.23999 25V24.47C5.24263 21.9822 6.23141 19.5968 7.98964 17.8367C9.74787 16.0766 12.1322 15.0853 14.62 15.08H44.27L39.72 20.52C39.3198 21.0307 39.1338 21.677 39.2013 22.3223C39.2689 22.9676 39.5846 23.5613 40.0819 23.9781C40.5792 24.3949 41.219 24.602 41.8661 24.5557C42.5133 24.5094 43.1171 24.2133 43.55 23.73L50.93 14.93C51.4712 14.2839 51.7677 13.4679 51.7677 12.625C51.7677 11.7822 51.4712 10.9662 50.93 10.32Z" fill="black"/>
</svg>
