<svg width="72" height="72" viewBox="0 0 72 72" fill="none" xmlns="http://www.w3.org/2000/svg">
<path fill-rule="evenodd" clip-rule="evenodd" d="M25.1453 13.1867C28.5359 11.571 32.2441 10.7317 36 10.73C40.9979 10.73 45.8836 12.212 50.0392 14.9887C54.1949 17.7654 57.4338 21.7121 59.3464 26.3296C61.259 30.9471 61.7595 36.028 60.7844 40.9299C59.8094 45.8318 57.4026 50.3345 53.8686 53.8686C50.3345 57.4026 45.8318 59.8094 40.9299 60.7844C36.028 61.7595 30.9471 61.259 26.3296 59.3464C21.7121 57.4338 17.7654 54.1949 14.9887 50.0392C12.212 45.8836 10.73 40.9979 10.73 36C10.73 35.4695 10.9407 34.9608 11.3158 34.5858C11.6908 34.2107 12.1995 34 12.73 34C13.2604 34 13.7691 34.2107 14.1442 34.5858C14.5193 34.9608 14.73 35.4695 14.73 36C14.7514 41.0278 16.5532 45.8855 19.8157 49.7111C23.0782 53.5368 27.5904 56.083 32.5518 56.8981C37.5131 57.7131 42.6028 56.7443 46.9178 54.1635C51.2327 51.5826 54.4939 47.5567 56.1227 42.8C57.7515 38.0433 57.6427 32.8633 55.8154 28.1793C53.9881 23.4952 50.5606 19.6099 46.141 17.2127C41.7214 14.8154 36.5955 14.0613 31.6728 15.0842C26.7501 16.107 22.3488 18.8406 19.25 22.8L23.39 22.53C23.9204 22.4955 24.4428 22.6732 24.8423 23.0238C25.2417 23.3745 25.4855 23.8695 25.52 24.4C25.5545 24.9304 25.3768 25.4528 25.0261 25.8523C24.6754 26.2517 24.1804 26.4955 23.65 26.53L15.41 27.06H15.28C15.1569 27.0703 15.0331 27.0703 14.91 27.06H14.78C14.7076 27.0493 14.637 27.0291 14.57 27L14.42 26.94C14.3602 26.9123 14.3032 26.8788 14.25 26.84C14.2008 26.8194 14.1565 26.7888 14.12 26.75C14.0604 26.7191 14.0063 26.6785 13.96 26.63C13.9185 26.5985 13.8814 26.5615 13.85 26.52C13.7983 26.4749 13.7514 26.4247 13.71 26.37L13.62 26.25L13.52 26.08C13.4925 26.032 13.4691 25.9818 13.45 25.93C13.4223 25.8717 13.399 25.8116 13.38 25.75C13.33 25.69 13.33 25.63 13.33 25.57C13.3343 25.5468 13.3343 25.5231 13.33 25.5L11.84 17.37C11.7785 17.1063 11.7712 16.833 11.8185 16.5664C11.8657 16.2999 11.9667 16.0457 12.1151 15.8193C12.2635 15.5929 12.4563 15.399 12.6819 15.2493C12.9074 15.0996 13.161 14.9973 13.4273 14.9485C13.6936 14.8997 13.967 14.9055 14.231 14.9655C14.4949 15.0255 14.744 15.1385 14.963 15.2975C15.1821 15.4566 15.3665 15.6585 15.5052 15.891C15.6439 16.1235 15.734 16.3817 15.77 16.65L16.4 20.07C18.7671 17.1539 21.7547 14.8025 25.1453 13.1867ZM33.1722 24.6122C33.6411 24.1434 34.277 23.88 34.94 23.88C35.603 23.88 36.2389 24.1434 36.7078 24.6122C37.1766 25.0811 37.44 25.717 37.44 26.38V36.44L42.84 41.84C43.2961 42.3109 43.549 42.942 43.5443 43.5975C43.5395 44.2531 43.2775 44.8805 42.8146 45.3447C42.3517 45.8089 41.725 46.0727 41.0695 46.0793C40.414 46.0859 39.7821 45.8348 39.31 45.38L33.17 39.25C32.706 38.7772 32.4442 38.1424 32.44 37.48V26.38C32.44 25.717 32.7034 25.0811 33.1722 24.6122Z" fill="black"/>
</svg>
