<svg width="72" height="72" viewBox="0 0 72 72" fill="none" xmlns="http://www.w3.org/2000/svg">
<path d="M22.46 61.64C21.2746 61.6406 20.1107 61.3229 19.09 60.72C18.1547 60.1859 17.3767 59.4148 16.8343 58.4844C16.2918 57.5539 16.0041 56.497 16 55.42V19.42C16.0681 16.9797 17.0971 14.6651 18.8631 12.9796C20.6291 11.2942 22.9892 10.3742 25.43 10.42H46.54C48.9842 10.3662 51.3506 11.2812 53.1228 12.9653C54.895 14.6495 55.9293 16.9662 56 19.41V55.41C55.999 56.4841 55.7158 57.539 55.1787 58.4692C54.6417 59.3994 53.8697 60.1721 52.94 60.71C51.9524 61.2922 50.8308 61.6084 49.6845 61.6276C48.5383 61.6469 47.4066 61.3687 46.4 60.82L46.19 60.69L36 53.73L25.84 60.73L25.63 60.86C24.6552 61.381 23.5653 61.6491 22.46 61.64ZM25.46 15.22C24.2995 15.1738 23.1677 15.5884 22.3116 16.3733C21.4555 17.1583 20.9445 18.2498 20.89 19.41V55.41C20.895 55.64 20.9605 55.8645 21.0799 56.0611C21.1993 56.2577 21.3683 56.4194 21.57 56.53C21.8174 56.6732 22.0958 56.7544 22.3814 56.7666C22.667 56.7788 22.9513 56.7216 23.21 56.6L33.62 49.45L33.83 49.32C34.4967 48.9603 35.2424 48.7719 36 48.7719C36.7576 48.7719 37.5033 48.9603 38.17 49.32L38.38 49.45L48.79 56.6C49.0487 56.7216 49.333 56.7788 49.6186 56.7666C49.9042 56.7544 50.1826 56.6732 50.43 56.53C50.6317 56.4194 50.8007 56.2577 50.9201 56.0611C51.0395 55.8645 51.105 55.64 51.11 55.41V19.41C51.0555 18.2498 50.5445 17.1583 49.6884 16.3733C48.8323 15.5884 47.7005 15.1738 46.54 15.22H25.46Z" fill="black"/>
</svg>
