<svg width="72" height="72" viewBox="0 0 72 72" fill="none" xmlns="http://www.w3.org/2000/svg">
<path fill-rule="evenodd" clip-rule="evenodd" d="M35.1869 32.3276C33.2135 33.6462 30.8934 34.35 28.52 34.35C25.3374 34.35 22.2852 33.0857 20.0347 30.8353C17.7843 28.5848 16.52 25.5326 16.52 22.35C16.52 19.9766 17.2238 17.6565 18.5424 15.6831C19.861 13.7097 21.7351 12.1717 23.9278 11.2634C26.1205 10.3552 28.5333 10.1175 30.8611 10.5806C33.1889 11.0436 35.3271 12.1865 37.0053 13.8647C38.6835 15.5429 39.8264 17.6811 40.2894 20.0089C40.7525 22.3367 40.5148 24.7495 39.6066 26.9422C38.6983 29.1349 37.1603 31.009 35.1869 32.3276ZM32.9646 15.6982C31.649 14.8192 30.1023 14.35 28.52 14.35V14.37C26.4017 14.37 24.3699 15.2101 22.8702 16.7061C21.3705 18.202 20.5253 20.2317 20.52 22.35C20.52 23.9322 20.9892 25.4789 21.8683 26.7945C22.7473 28.1101 23.9967 29.1355 25.4586 29.741C26.9204 30.3465 28.5289 30.5049 30.0807 30.1963C31.6326 29.8876 33.0581 29.1257 34.1769 28.0068C35.2957 26.888 36.0576 25.4626 36.3663 23.9107C36.675 22.3589 36.5166 20.7503 35.9111 19.2885C35.3056 17.8267 34.2802 16.5773 32.9646 15.6982ZM13.61 57.63H24.43L24.42 57.64C24.9504 57.64 25.4591 57.8507 25.8342 58.2258C26.2093 58.6008 26.42 59.1096 26.42 59.64C26.42 60.1704 26.2093 60.6791 25.8342 61.0542C25.4591 61.4293 24.9504 61.64 24.42 61.64H13.42C12.4077 61.6373 11.4376 61.234 10.7217 60.5182C10.0059 59.8024 9.60262 58.8323 9.59998 57.82V54.49C9.59998 49.9813 11.391 45.6573 14.5792 42.4692C17.7673 39.2811 22.0913 37.49 26.6 37.49H30.4C33.4237 37.4913 36.3924 38.299 39 39.83C39.255 39.9452 39.483 40.1127 39.6692 40.3216C39.8554 40.5305 39.9957 40.7761 40.0811 41.0427C40.1664 41.3092 40.1948 41.5907 40.1646 41.8689C40.1343 42.1471 40.046 42.4158 39.9053 42.6577C39.7647 42.8997 39.5748 43.1094 39.348 43.2733C39.1212 43.4373 38.8625 43.5518 38.5887 43.6095C38.3149 43.6672 38.032 43.6668 37.7583 43.6083C37.4846 43.5499 37.2263 43.4346 37 43.27C35.0138 42.1036 32.7533 41.4858 30.45 41.48H26.61C23.1622 41.48 19.8556 42.8496 17.4176 45.2876C14.9796 47.7256 13.61 51.0322 13.61 54.48V57.63ZM53.36 40H49.19C47.6139 39.9919 46.0945 40.5873 44.9434 41.6639C43.7924 42.7406 43.097 44.2169 43 45.79H31.15C30.9198 45.7888 30.6917 45.8332 30.4789 45.9208C30.266 46.0083 30.0727 46.1372 29.91 46.3L26.65 49.56C26.4782 49.7328 26.3442 49.9393 26.2565 50.1665C26.1687 50.3937 26.129 50.6367 26.14 50.88C26.1524 51.1256 26.2168 51.3658 26.3288 51.5847C26.4409 51.8036 26.598 51.9963 26.79 52.15L30.11 54.85C30.4216 55.1013 30.8096 55.2389 31.21 55.24H37.34C37.8041 55.24 38.2492 55.0556 38.5774 54.7275C38.9056 54.3993 39.09 53.9542 39.09 53.49C39.09 53.0259 38.9056 52.5808 38.5774 52.2526C38.2492 51.9244 37.8041 51.74 37.34 51.74H31.84L30.5 50.66L31.87 49.29H44.78C45.2441 49.29 45.6892 49.1056 46.0174 48.7775C46.3456 48.4493 46.53 48.0042 46.53 47.54V46.13C46.53 45.4245 46.8102 44.748 47.3091 44.2491C47.8079 43.7503 48.4845 43.47 49.19 43.47H53.36C54.5634 43.4726 55.7172 43.9498 56.5709 44.7979C57.4247 45.646 57.9094 46.7967 57.92 48V52.89C57.9173 54.0986 57.4361 55.2569 56.5815 56.1115C55.7269 56.9661 54.5685 57.4474 53.36 57.45H49.19C48.4862 57.45 47.8111 57.1712 47.3126 56.6745C46.814 56.1778 46.5326 55.5038 46.53 54.8V52.59C46.53 52.1259 46.3456 51.6808 46.0174 51.3526C45.6892 51.0244 45.2441 50.84 44.78 50.84C44.3158 50.84 43.8707 51.0244 43.5425 51.3526C43.2143 51.6808 43.03 52.1259 43.03 52.59V54.84C43.03 56.4738 43.679 58.0406 44.8342 59.1958C45.9894 60.351 47.5562 61 49.19 61H53.36C55.4968 60.9974 57.5454 60.1473 59.0563 58.6364C60.5673 57.1254 61.4173 55.0769 61.42 52.94V48C61.3989 45.8744 60.5411 43.8427 59.0324 42.3453C57.5237 40.8478 55.4857 40.0052 53.36 40ZM54.8536 49.5689C55.0338 49.8386 55.13 50.1557 55.13 50.48C55.13 50.915 54.9572 51.3321 54.6496 51.6397C54.3421 51.9472 53.9249 52.12 53.49 52.12C53.1656 52.12 52.8485 52.0238 52.5788 51.8436C52.3091 51.6634 52.0989 51.4073 51.9748 51.1076C51.8507 50.808 51.8182 50.4782 51.8815 50.1601C51.9448 49.842 52.101 49.5497 52.3303 49.3204C52.5597 49.091 52.8519 48.9348 53.17 48.8715C53.4882 48.8083 53.8179 48.8407 54.1176 48.9649C54.4172 49.089 54.6734 49.2992 54.8536 49.5689Z" fill="black"/>
</svg>
