<svg width="72" height="72" viewBox="0 0 72 72" fill="none" xmlns="http://www.w3.org/2000/svg">
<path d="M17.3101 9.91998H33.5001C44.2401 9.91998 52.0001 13.19 52.0001 22.74C52.0444 25.3775 51.1711 27.9486 49.5294 30.0134C47.8877 32.0783 45.5797 33.5087 43.0001 34.06V34.38C50.5401 35.67 54.7201 39.7 54.7201 46.76C54.7201 57.2 46.3901 62.08 34.8701 62.08H17.3101V9.91998ZM32.6701 31.35C39.9701 31.35 42.9401 28.72 42.9401 23.86C42.9401 19 39.6101 17.32 32.8701 17.32H26.5401V31.32L32.6701 31.35ZM33.8801 54.68C41.5301 54.68 45.6301 52.05 45.6301 46.15C45.6301 40.65 41.6301 38.4 33.8801 38.4H26.5401V54.68H33.8801Z" fill="black"/>
</svg>
