<svg width="72" height="72" viewBox="0 0 72 72" fill="none" xmlns="http://www.w3.org/2000/svg">
<path fill-rule="evenodd" clip-rule="evenodd" d="M51.3801 25.6401H15.05C14.387 25.6401 13.7511 25.3767 13.2823 24.9078C12.8134 24.439 12.55 23.8031 12.55 23.1401C12.55 22.477 12.8134 21.8411 13.2823 21.3723C13.7511 20.9035 14.387 20.6401 15.05 20.6401H51.3801L44.82 13.2601C44.3785 12.7654 44.1515 12.1156 44.189 11.4536C44.2265 10.7916 44.5254 10.1717 45.0201 9.73006C45.5147 9.28848 46.1645 9.06147 46.8265 9.09898C47.4885 9.13648 48.1085 9.43544 48.55 9.93006L58.8301 21.4801L58.89 21.5601L59 21.7001L59.07 21.8201L59.16 21.9801C59.23 22.0301 59.23 22.0701 59.23 22.1201C59.2527 22.1644 59.2695 22.2114 59.28 22.2601L59.34 22.4301C59.3446 22.48 59.3446 22.5302 59.34 22.5801V22.7201C59.345 22.78 59.345 22.8402 59.34 22.9001C59.3449 22.9566 59.3449 23.0135 59.34 23.0701C59.3449 23.0931 59.3449 23.117 59.34 23.1401C59.3456 23.1631 59.3456 23.1871 59.34 23.2101C59.3449 23.2666 59.3449 23.3235 59.34 23.3801C59.345 23.44 59.345 23.5002 59.34 23.5601V23.7001C59.3446 23.75 59.3446 23.8002 59.34 23.8501L59.28 24.0301C59.2678 24.075 59.2511 24.1185 59.23 24.1601C59.21 24.2101 59.16 24.3001 59.16 24.3001L59.07 24.4601L58.9901 24.5801L58.8801 24.7201L58.82 24.8001L48.55 36.3301C48.1085 36.8247 47.4885 37.1236 46.8265 37.1612C46.1645 37.1987 45.5147 36.9716 45.0201 36.5301C44.5254 36.0885 44.2265 35.4685 44.189 34.8065C44.1515 34.1445 44.3785 33.4947 44.82 33.0001L51.3801 25.6401ZM20.62 45.73H57C57.663 45.73 58.2989 45.9934 58.7678 46.4623C59.2366 46.9311 59.5 47.567 59.5 48.23C59.5 48.8931 59.2366 49.529 58.7678 49.9978C58.2989 50.4666 57.663 50.73 57 50.73H20.64L27.2 58.11C27.4186 58.3549 27.5869 58.6405 27.6952 58.9505C27.8035 59.2604 27.8497 59.5887 27.8311 59.9165C27.8125 60.2443 27.7296 60.5652 27.587 60.8609C27.4444 61.1566 27.2449 61.4214 27 61.64C26.5393 62.0541 25.9393 62.279 25.32 62.27C24.9674 62.2714 24.6185 62.1981 24.2962 62.0551C23.9739 61.912 23.6855 61.7024 23.45 61.44L13.18 49.89L13.12 49.81L13.01 49.67L12.93 49.55L12.84 49.39L12.77 49.25C12.7643 49.2035 12.7643 49.1565 12.77 49.11C12.744 49.0557 12.7239 48.9987 12.71 48.94C12.7055 48.8901 12.7055 48.8399 12.71 48.79V48.65C12.7051 48.5901 12.7051 48.5299 12.71 48.47V48.3V48.16V47.99C12.7051 47.9301 12.7051 47.8699 12.71 47.81V47.67C12.7055 47.6201 12.7055 47.5699 12.71 47.52C12.7255 47.4586 12.7455 47.3985 12.77 47.34C12.7659 47.2968 12.7659 47.2533 12.77 47.21C12.79 47.16 12.84 47.07 12.84 47.07L12.93 46.91L13.01 46.79L13.12 46.65L13.18 46.57L23.45 35C23.8942 34.5054 24.5168 34.2075 25.1806 34.1719C25.8445 34.1362 26.4954 34.3658 26.99 34.81C27.4846 35.2543 27.7825 35.8768 27.8181 36.5407C27.8538 37.2046 27.6242 37.8554 27.18 38.35L20.62 45.73Z" fill="black"/>
</svg>
