<svg width="52" height="40" viewBox="0 0 52 40" fill="none" xmlns="http://www.w3.org/2000/svg">
<path d="M37.3801 10.07H7.80011L12.2801 4.72998C12.5038 4.48028 12.6749 4.18814 12.7834 3.87096C12.8919 3.55377 12.9354 3.21801 12.9115 2.88365C12.8876 2.54928 12.7967 2.22314 12.6442 1.92462C12.4917 1.6261 12.2807 1.3613 12.0237 1.14598C11.7668 0.930649 11.4692 0.769189 11.1487 0.671201C10.8281 0.573213 10.4911 0.540699 10.1577 0.575592C9.82426 0.610484 9.50129 0.712069 9.20794 0.874307C8.9146 1.03655 8.65688 1.25612 8.45011 1.51998L1.07011 10.32C0.531554 10.9654 0.236572 11.7794 0.236572 12.62C0.236572 13.4606 0.531554 14.2745 1.07011 14.92L8.45011 23.72C8.68314 24 8.97523 24.225 9.30544 24.3789C9.63565 24.5327 9.99581 24.6117 10.3601 24.61C10.8369 24.6139 11.3048 24.4809 11.7082 24.2267C12.1116 23.9725 12.4335 23.6079 12.6357 23.1761C12.8379 22.7443 12.9119 22.2635 12.8489 21.7909C12.7858 21.3183 12.5884 20.8737 12.2801 20.51L7.73011 15.07H37.3801C39.8679 15.0753 42.2522 16.0666 44.0105 17.8267C45.7687 19.5868 46.7575 21.9721 46.7601 24.46V25C46.7575 27.4869 45.7684 29.8712 44.0098 31.6297C42.2513 33.3882 39.867 34.3773 37.3801 34.38H21.1901C20.5271 34.38 19.8912 34.6434 19.4223 35.1122C18.9535 35.5811 18.6901 36.2169 18.6901 36.88C18.6901 37.543 18.9535 38.1789 19.4223 38.6477C19.8912 39.1166 20.5271 39.38 21.1901 39.38H37.3801C41.1923 39.3747 44.8468 37.858 47.5425 35.1623C50.2381 32.4667 51.7548 28.8122 51.7601 25V24.47C51.7601 20.6543 50.2457 16.9947 47.5495 14.2947C44.8533 11.5948 41.1958 10.0753 37.3801 10.07Z" fill="black"/>
</svg>
