<svg width="72" height="72" viewBox="0 0 72 72" fill="none" xmlns="http://www.w3.org/2000/svg">
<path fill-rule="evenodd" clip-rule="evenodd" d="M63.62 54.9201L39.46 13.0801C39.1084 12.4739 38.6037 11.9708 37.9965 11.621C37.3892 11.2713 36.7008 11.0872 36 11.0872C35.2993 11.0872 34.6108 11.2713 34.0036 11.621C33.3963 11.9708 32.8916 12.4739 32.54 13.0801L8.38002 54.9201C8.02869 55.5286 7.84386 56.2189 7.84412 56.9215C7.84438 57.6242 8.02972 58.3144 8.38149 58.9226C8.73326 59.5309 9.23905 60.0357 9.84795 60.3864C10.4568 60.737 11.1474 60.9211 11.85 60.9201H60.15C60.8527 60.9211 61.5432 60.737 62.1521 60.3864C62.761 60.0357 63.2668 59.5309 63.6185 58.9226C63.9703 58.3144 64.1557 57.6242 64.1559 56.9215C64.1562 56.2189 63.9713 55.5286 63.62 54.9201ZM11.85 56.9201L36 15.0801L60.15 56.9201H11.85ZM36 45.78C35.6781 45.7713 35.3579 45.8299 35.06 45.9521C34.762 46.0744 34.493 46.2576 34.27 46.49C34.0438 46.7182 33.8667 46.9903 33.7497 47.2896C33.6327 47.5888 33.5784 47.9089 33.59 48.23C33.5766 48.5558 33.63 48.881 33.747 49.1854C33.8639 49.4898 34.0419 49.767 34.27 50C34.7343 50.4485 35.3545 50.6992 36 50.6992C36.6455 50.6992 37.2658 50.4485 37.73 50C37.9556 49.7693 38.1322 49.4954 38.2491 49.1946C38.3659 48.8938 38.4207 48.5725 38.41 48.25C38.4217 47.9289 38.3673 47.6088 38.2504 47.3096C38.1334 47.0103 37.9563 46.7382 37.73 46.51C37.5088 46.274 37.2406 46.0871 36.9426 45.9613C36.6445 45.8356 36.3234 45.7738 36 45.78ZM33.6839 28.6541C33.8052 28.3751 33.9886 28.1275 34.22 27.93H34.19C34.699 27.5343 35.3253 27.3195 35.97 27.3195C36.6147 27.3195 37.2411 27.5343 37.75 27.93C37.9815 28.1275 38.1648 28.3751 38.2861 28.6541C38.4074 28.9331 38.4635 29.2361 38.45 29.54V29.9L37.21 42.56C37.1933 42.913 37.0474 43.2476 36.8 43.5C36.5755 43.7117 36.2786 43.8295 35.97 43.8295C35.6615 43.8295 35.3645 43.7117 35.14 43.5C34.8926 43.2476 34.7467 42.913 34.73 42.56L33.52 29.87V29.54C33.5066 29.2361 33.5626 28.9331 33.6839 28.6541Z" fill="black"/>
</svg>
