<svg width="72" height="72" viewBox="0 0 72 72" fill="none" xmlns="http://www.w3.org/2000/svg">
<path fill-rule="evenodd" clip-rule="evenodd" d="M58.51 25.06C58.5145 25.1032 58.5145 25.1468 58.51 25.19C58.5216 25.2494 58.5283 25.3096 58.53 25.37V55.36C58.53 56.8479 57.9389 58.2748 56.8868 59.3269C55.8348 60.379 54.4078 60.97 52.92 60.97H20.82C19.3321 60.97 17.9052 60.379 16.8531 59.3269C15.801 58.2748 15.21 56.8479 15.21 55.36V16.86C15.21 15.3721 15.801 13.9452 16.8531 12.8931C17.9052 11.8411 19.3321 11.25 20.82 11.25H46.14C46.292 11.2496 46.4434 11.2697 46.59 11.31C46.6265 11.3055 46.6634 11.3055 46.7 11.31C46.8512 11.3491 46.996 11.4097 47.13 11.49H47.21C47.3599 11.5902 47.4975 11.7077 47.62 11.84L58.13 24.13V24.18C58.2283 24.3033 58.3122 24.4375 58.38 24.58C58.4384 24.7355 58.4819 24.8962 58.51 25.06ZM48.4691 22.9909C48.5942 23.116 48.7631 23.1874 48.94 23.19L52.11 23.26L48.2 18.67L48.27 22.52C48.2725 22.6969 48.344 22.8658 48.4691 22.9909ZM54.0584 56.3284C54.3603 56.0265 54.53 55.617 54.53 55.19V27.33L48.85 27.2C47.6425 27.177 46.4909 26.687 45.6369 25.833C44.783 24.9791 44.293 23.8275 44.27 22.62L44.13 15.14H20.82C20.393 15.14 19.9835 15.3096 19.6815 15.6116C19.3796 15.9135 19.21 16.323 19.21 16.75V55.19C19.21 55.617 19.3796 56.0265 19.6815 56.3284C19.9835 56.6304 20.393 56.8 20.82 56.8H52.92C53.347 56.8 53.7565 56.6304 54.0584 56.3284ZM30.25 34.9999L26.6 39.4699L30.29 44.0799C30.4578 44.285 30.5831 44.5214 30.6588 44.7753C30.7344 45.0292 30.7589 45.2956 30.7307 45.5591C30.7025 45.8225 30.6223 46.0777 30.4946 46.3099C30.367 46.5421 30.1945 46.7466 29.9872 46.9115C29.7798 47.0765 29.5418 47.1986 29.2868 47.2707C29.0319 47.3429 28.7652 47.3637 28.5021 47.3319C28.2391 47.3002 27.985 47.2164 27.7546 47.0856C27.5242 46.9548 27.3221 46.7795 27.16 46.5699L22.69 40.9499C22.3526 40.5228 22.169 39.9943 22.169 39.4499C22.169 38.9056 22.3526 38.3771 22.69 37.9499L27.15 32.4699C27.4855 32.0589 27.9705 31.7979 28.4985 31.7444C29.0264 31.691 29.5539 31.8494 29.965 32.1849C30.3761 32.5204 30.637 33.0055 30.6905 33.5334C30.7439 34.0613 30.5855 34.5889 30.25 34.9999ZM43.77 32.18C43.566 32.3465 43.3969 32.5516 43.2724 32.7836C43.1479 33.0156 43.0704 33.2699 43.0443 33.5319C43.0183 33.7939 43.0443 34.0584 43.1208 34.3104C43.1973 34.5623 43.3227 34.7967 43.49 35L47.14 39.48L43.47 44.09C43.1385 44.5051 42.9854 45.0348 43.0445 45.5628C43.1035 46.0907 43.3699 46.5735 43.785 46.905C44.2 47.2365 44.7298 47.3896 45.2577 47.3305C45.7856 47.2714 46.2685 47.0051 46.6 46.59L51.07 41C51.4074 40.5728 51.5909 40.0444 51.5909 39.5C51.5909 38.9557 51.4074 38.4272 51.07 38L46.6 32.52C46.4377 32.3101 46.2354 32.1346 46.0047 32.0037C45.774 31.8728 45.5195 31.7891 45.2562 31.7574C44.9928 31.7258 44.7258 31.7469 44.4706 31.8194C44.2155 31.892 43.9773 32.0145 43.77 32.18ZM39.5762 32.0487C39.8403 32.0581 40.0999 32.1197 40.34 32.23C40.5831 32.3423 40.8012 32.5024 40.9813 32.7006C41.1614 32.8988 41.2999 33.1312 41.3885 33.3839C41.4771 33.6367 41.5141 33.9047 41.4971 34.172C41.4802 34.4393 41.4098 34.7004 41.29 34.94L36.06 45.94C35.8167 46.3909 35.4097 46.7312 34.9229 46.8909C34.4361 47.0505 33.9066 47.0172 33.4436 46.7979C32.9806 46.5786 32.6194 46.19 32.4345 45.7122C32.2497 45.2344 32.2552 44.7038 32.45 44.23L37.68 33.23C37.788 32.9888 37.9427 32.7715 38.1352 32.5905C38.3277 32.4095 38.5542 32.2684 38.8015 32.1754C39.0488 32.0824 39.3121 32.0394 39.5762 32.0487Z" fill="black"/>
</svg>
