<svg width="72" height="72" viewBox="0 0 72 72" fill="none" xmlns="http://www.w3.org/2000/svg">
<path fill-rule="evenodd" clip-rule="evenodd" d="M59.56 24.19C58.12 16.89 52.93 11.79 45.34 10.19C42.0487 9.52163 38.6985 9.18661 35.34 9.18997C30.9 9.18997 24.65 9.77997 20.13 12.58C14.45 16.1 11.47 22.9 11.74 31.74C11.91 36.84 13.13 44 18 49.1C21.9 53.16 29.3 55.19 35.12 55.49V59.78C35.12 60.5756 35.4361 61.3387 35.9987 61.9013C36.5613 62.4639 37.3244 62.78 38.12 62.78H38.39C39.009 62.7262 39.596 62.4816 40.07 62.08C40.6766 61.5455 41.3333 60.9732 42.025 60.3703L42.0251 60.3701C43.9218 58.717 46.0824 56.8337 48.2 54.87L49.47 53.69C51.8317 51.6966 53.9708 49.4535 55.85 47C59.86 41.24 61.25 32.72 59.56 24.19ZM52.56 44.68C50.8577 46.8963 48.9271 48.9274 46.8 50.74C46.6844 50.8451 46.5687 50.9496 46.4534 51.0537L46.4531 51.054C46.1299 51.3459 45.8095 51.6352 45.5 51.93C43.32 53.93 41.07 55.93 39.15 57.61V54C39.1474 53.336 38.8818 52.7001 38.4113 52.2316C37.9409 51.763 37.304 51.5 36.64 51.5C31.31 51.5 24.2 49.71 20.92 46.3C16.92 42.1 15.92 35.99 15.74 31.61C15.56 27.23 16.3 19.69 22.25 16C25.16 14.2 29.81 13.21 35.36 13.21C38.4357 13.2048 41.5042 13.5063 44.52 14.11C50.52 15.38 54.52 19.23 55.64 24.96C57.12 32.45 56 39.82 52.57 44.68H52.56ZM47.81 25.9999H24.22C23.5569 25.9999 22.921 26.2633 22.4522 26.7322C21.9834 27.201 21.72 27.8369 21.72 28.4999C21.72 29.163 21.9834 29.7989 22.4522 30.2677C22.921 30.7365 23.5569 30.9999 24.22 30.9999H47.81C48.473 30.9999 49.1089 30.7365 49.5777 30.2677C50.0466 29.7989 50.31 29.163 50.31 28.4999C50.31 27.8369 50.0466 27.201 49.5777 26.7322C49.1089 26.2633 48.473 25.9999 47.81 25.9999ZM24.22 34.6799H39.09C39.753 34.6799 40.3889 34.9433 40.8577 35.4122C41.3266 35.881 41.59 36.5169 41.59 37.1799C41.59 37.843 41.3266 38.4789 40.8577 38.9477C40.3889 39.4165 39.753 39.6799 39.09 39.6799H24.22C23.5569 39.6799 22.921 39.4165 22.4522 38.9477C21.9834 38.4789 21.72 37.843 21.72 37.1799C21.72 36.5169 21.9834 35.881 22.4522 35.4122C22.921 34.9433 23.5569 34.6799 24.22 34.6799Z" fill="black"/>
</svg>
