<svg width="72" height="72" viewBox="0 0 72 72" fill="none" xmlns="http://www.w3.org/2000/svg">
<path fill-rule="evenodd" clip-rule="evenodd" d="M11.75 30.19C12.413 30.19 13.0489 29.9266 13.5178 29.4578C13.9866 28.9889 14.25 28.353 14.25 27.69V15.16C14.25 14.9187 14.3459 14.6872 14.5165 14.5165C14.6872 14.3459 14.9187 14.25 15.16 14.25H27.69C28.353 14.25 28.9889 13.9866 29.4578 13.5178C29.9266 13.0489 30.19 12.413 30.19 11.75C30.19 11.087 29.9266 10.4511 29.4578 9.98223C28.9889 9.51339 28.353 9.25 27.69 9.25H15.16C13.5934 9.25264 12.0917 9.87615 10.9839 10.9839C9.87615 12.0917 9.25264 13.5934 9.25 15.16V27.69C9.25 28.353 9.51339 28.9889 9.98223 29.4578C10.4511 29.9266 11.087 30.19 11.75 30.19ZM56.84 9.25H44.31C43.647 9.25 43.0111 9.51339 42.5422 9.98223C42.0734 10.4511 41.81 11.087 41.81 11.75C41.81 12.413 42.0734 13.0489 42.5422 13.5178C43.0111 13.9866 43.647 14.25 44.31 14.25H56.84C57.0813 14.25 57.3128 14.3459 57.4835 14.5165C57.6541 14.6872 57.75 14.9187 57.75 15.16V27.69C57.75 28.353 58.0134 28.9889 58.4822 29.4578C58.9511 29.9266 59.587 30.19 60.25 30.19C60.913 30.19 61.5489 29.9266 62.0178 29.4578C62.4866 28.9889 62.75 28.353 62.75 27.69V15.16C62.7474 13.5934 62.1238 12.0917 61.0161 10.9839C59.9083 9.87615 58.4066 9.25264 56.84 9.25ZM58.4822 42.5422C58.9511 42.0734 59.587 41.81 60.25 41.81C60.913 41.81 61.5489 42.0734 62.0178 42.5422C62.4866 43.0111 62.75 43.647 62.75 44.31V56.85C62.7473 58.4157 62.1235 59.9164 61.0155 61.0225C59.9074 62.1287 58.4057 62.75 56.84 62.75H44.31C43.647 62.75 43.0111 62.4866 42.5422 62.0178C42.0734 61.5489 41.81 60.913 41.81 60.25C41.81 59.587 42.0734 58.9511 42.5422 58.4822C43.0111 58.0134 43.647 57.75 44.31 57.75H56.84C57.0796 57.75 57.3096 57.6555 57.48 57.487C57.6503 57.3185 57.7474 57.0896 57.75 56.85V44.31C57.75 43.647 58.0134 43.0111 58.4822 42.5422ZM27.69 57.75H15.16C14.9204 57.75 14.6904 57.6555 14.52 57.487C14.3497 57.3185 14.2526 57.0896 14.25 56.85V44.31C14.25 43.647 13.9866 43.0111 13.5178 42.5422C13.0489 42.0734 12.413 41.81 11.75 41.81C11.087 41.81 10.4511 42.0734 9.98223 42.5422C9.51339 43.0111 9.25 43.647 9.25 44.31V56.85C9.25265 58.4157 9.87648 59.9164 10.9845 61.0225C12.0926 62.1287 13.5943 62.75 15.16 62.75H27.69C28.353 62.75 28.9889 62.4866 29.4578 62.0178C29.9266 61.5489 30.19 60.913 30.19 60.25C30.19 59.587 29.9266 58.9511 29.4578 58.4822C28.9889 58.0134 28.353 57.75 27.69 57.75ZM22.05 48V24.05C22.05 23.5196 22.2607 23.0108 22.6358 22.6358C23.0108 22.2607 23.5196 22.05 24.05 22.05H48C48.5304 22.05 49.0391 22.2607 49.4142 22.6358C49.7893 23.0108 50 23.5196 50 24.05V48C50 48.5304 49.7893 49.0391 49.4142 49.4142C49.0391 49.7893 48.5304 50 48 50H24.05C23.5196 50 23.0108 49.7893 22.6358 49.4142C22.2607 49.0391 22.05 48.5304 22.05 48ZM46 26.05H26.05V46H46V26.05Z" fill="black"/>
</svg>
