<svg width="64" height="64" viewBox="0 0 64 64" fill="none" xmlns="http://www.w3.org/2000/svg">
<path
d="M4 32C1.79086 32 -0.0257507 30.2023 0.249677 28.0104C0.605472 25.1789 1.33919 22.4017 2.43586 19.7541C4.04401 15.8717 6.40111 12.3441 9.37259 9.37258C12.3441 6.40111 15.8717 4.044 19.7541 2.43585C22.4017 1.33919 25.1789 0.605469 28.0104 0.249676C30.2023 -0.0257492 32 1.79086 32 4C32 6.20914 30.197 7.96608 28.0185 8.33257C26.2376 8.63217 24.4919 9.13253 22.8156 9.82689C19.9038 11.033 17.258 12.8008 15.0294 15.0294C12.8008 17.258 11.033 19.9038 9.82689 22.8156C9.13253 24.4919 8.63217 26.2376 8.33257 28.0185C7.96608 30.197 6.20914 32 4 32Z"
fill-rule="evenodd"
fill="currentColor"
/>
</svg>