<svg width="72" height="72" viewBox="0 0 72 72" fill="none" xmlns="http://www.w3.org/2000/svg">
<path d="M36 9.88C30.834 9.88 25.7839 11.4119 21.4885 14.282C17.1931 17.1521 13.8452 21.2315 11.8683 26.0043C9.89131 30.7771 9.37404 36.029 10.3819 41.0958C11.3897 46.1625 13.8774 50.8167 17.5304 54.4696C21.1833 58.1226 25.8375 60.6103 30.9042 61.6181C35.971 62.626 41.2229 62.1087 45.9957 60.1317C50.7685 58.1548 54.8479 54.8069 57.718 50.5115C60.5881 46.2161 62.12 41.1661 62.12 36C62.1121 29.075 59.3576 22.4359 54.4609 17.5391C49.5641 12.6424 42.925 9.88794 36 9.88ZM44.93 38.5H38.5V44.93C38.5 45.593 38.2366 46.2289 37.7678 46.6978C37.2989 47.1666 36.663 47.43 36 47.43C35.337 47.43 34.7011 47.1666 34.2322 46.6978C33.7634 46.2289 33.5 45.593 33.5 44.93V38.5H27.07C26.407 38.5 25.7711 38.2366 25.3022 37.7678C24.8334 37.2989 24.57 36.663 24.57 36C24.57 35.337 24.8334 34.7011 25.3022 34.2322C25.7711 33.7634 26.407 33.5 27.07 33.5H33.5V27.07C33.5 26.407 33.7634 25.7711 34.2322 25.3022C34.7011 24.8334 35.337 24.57 36 24.57C36.663 24.57 37.2989 24.8334 37.7678 25.3022C38.2366 25.7711 38.5 26.407 38.5 27.07V33.5H44.93C45.593 33.5 46.2289 33.7634 46.6978 34.2322C47.1666 34.7011 47.43 35.337 47.43 36C47.43 36.663 47.1666 37.2989 46.6978 37.7678C46.2289 38.2366 45.593 38.5 44.93 38.5Z" fill="black"/>
</svg>
