<svg width="72" height="72" viewBox="0 0 72 72" fill="none" xmlns="http://www.w3.org/2000/svg">
<path d="M36.0201 9.88001C30.8504 9.87606 25.7956 11.4046 21.4951 14.2723C17.1947 17.14 13.8419 21.218 11.8607 25.9905C9.8796 30.7629 9.3592 36.0154 10.3653 41.0835C11.3715 46.1516 13.859 50.8076 17.5132 54.4626C21.1673 58.1175 25.824 60.6072 30.8942 61.6166C35.9643 62.6261 41.2201 62.11 45.9967 60.1337C50.7734 58.1573 54.8562 54.8094 57.7288 50.5136C60.6014 46.2177 62.1346 41.1669 62.1346 36C62.1267 29.0785 59.3735 22.4424 54.4783 17.5462C49.5832 12.65 42.9455 9.89324 36.0201 9.88001ZM40.5226 43.33C40.7346 43.581 40.8948 43.8714 40.994 44.1846C41.0932 44.4977 41.1294 44.8273 41.1006 45.1545C41.0717 45.4817 40.9784 45.8 40.826 46.091C40.6736 46.3819 40.4651 46.6399 40.2125 46.85C39.7649 47.2275 39.1973 47.4332 38.6116 47.43C38.2456 47.4318 37.8838 47.353 37.5517 47.1991C37.2197 47.0453 36.9257 46.8203 36.6905 46.54L29.7467 38.26C29.2176 37.6256 28.9279 36.8259 28.9279 36C28.9279 35.1742 29.2176 34.3744 29.7467 33.74L36.6905 25.46C36.8974 25.1962 37.1553 24.9766 37.4488 24.8143C37.7423 24.6521 38.0654 24.5505 38.399 24.5156C38.7326 24.4807 39.0698 24.5132 39.3906 24.6112C39.7113 24.7092 40.0091 24.8707 40.2661 25.086C40.5232 25.3013 40.7343 25.5661 40.8869 25.8647C41.0395 26.1632 41.1305 26.4893 41.1544 26.8237C41.1783 27.158 41.1347 27.4938 41.0262 27.811C40.9177 28.1282 40.7464 28.4203 40.5226 28.67L34.3592 36L40.5226 43.33Z" fill="black"/>
</svg>
