<svg width="72" height="72" viewBox="0 0 72 72" fill="none" xmlns="http://www.w3.org/2000/svg">
<path opacity="0.3" d="M50.69 39.62H21.31C20.7886 39.6172 20.2773 39.7643 19.8372 40.0439C19.397 40.3234 19.0464 40.7235 18.8273 41.1967C18.6081 41.6698 18.5295 42.196 18.6009 42.7125C18.6723 43.229 18.8907 43.7141 19.23 44.11L32.85 60.11C33.2242 60.5881 33.7023 60.9748 34.248 61.2407C34.7938 61.5066 35.3929 61.6448 36 61.6448C36.6071 61.6448 37.2062 61.5066 37.752 61.2407C38.2978 60.9748 38.7759 60.5881 39.15 60.11L52.77 44.11C53.1093 43.7141 53.3277 43.229 53.3991 42.7125C53.4705 42.196 53.392 41.6698 53.1728 41.1967C52.9536 40.7235 52.603 40.3234 52.1629 40.0439C51.7227 39.7643 51.2114 39.6172 50.69 39.62Z" fill="black"/>
<path d="M21.31 32.38H50.69C51.2114 32.3828 51.7227 32.2357 52.1629 31.9561C52.603 31.6766 52.9536 31.2765 53.1728 30.8033C53.392 30.3302 53.4705 29.804 53.3991 29.2875C53.3277 28.771 53.1093 28.2859 52.77 27.89L39.15 11.89C38.7759 11.4119 38.2978 11.0252 37.752 10.7593C37.2062 10.4934 36.6071 10.3552 36 10.3552C35.3929 10.3552 34.7938 10.4934 34.248 10.7593C33.7023 11.0252 33.2242 11.4119 32.85 11.89L19.23 27.89C18.8907 28.2859 18.6723 28.771 18.6009 29.2875C18.5295 29.804 18.6081 30.3302 18.8273 30.8033C19.0464 31.2765 19.397 31.6766 19.8372 31.9561C20.2773 32.2357 20.7886 32.3828 21.31 32.38Z" fill="black"/>
</svg>
