<svg width="72" height="72" viewBox="0 0 72 72" fill="none" xmlns="http://www.w3.org/2000/svg">
<path d="M46.21 32.78L29 12.28C28.6696 11.8888 28.227 11.6084 27.732 11.4769C27.2371 11.3454 26.7137 11.369 26.2326 11.5447C25.7516 11.7203 25.3361 12.0394 25.0423 12.4589C24.7485 12.8783 24.5906 13.3779 24.59 13.89V58.11C24.588 58.623 24.7445 59.124 25.038 59.5446C25.3316 59.9652 25.7479 60.2849 26.23 60.46C26.5027 60.5582 26.7902 60.6089 27.08 60.61C27.4459 60.6125 27.8077 60.534 28.1397 60.3801C28.4716 60.2262 28.7654 60.0008 29 59.72L46.18 39.22C46.943 38.3222 47.3644 37.1837 47.3699 36.0055C47.3754 34.8273 46.9646 33.6849 46.21 32.78Z" fill="black"/>
</svg>
