<svg width="72" height="72" viewBox="0 0 72 72" fill="none" xmlns="http://www.w3.org/2000/svg">
<path d="M44.15 27.52C43.6858 25.0205 42.4621 22.7249 40.6458 20.9461C38.8294 19.1673 36.5087 17.9919 34 17.58C31.6432 17.1038 29.2444 16.8659 26.84 16.87C23.66 16.87 19.19 17.29 15.97 19.28C11.97 21.78 9.81 26.63 9.97 32.94C10.08 36.57 10.97 41.67 14.46 45.32C17.27 48.25 22.66 49.7 26.84 49.88V53.14C26.84 53.6705 27.0507 54.1792 27.4258 54.5543C27.8009 54.9293 28.3096 55.14 28.84 55.14H29.02C29.4284 55.1041 29.8159 54.9435 30.13 54.68C31.75 53.28 33.89 51.43 35.98 49.48L36.9 48.64C38.5814 47.2041 40.1035 45.5915 41.44 43.83C44.37 39.71 45.36 33.62 44.15 27.52ZM29.1 38H18.38C18.0458 38 17.7253 37.8673 17.489 37.631C17.2527 37.3947 17.12 37.0742 17.12 36.74C17.12 36.4059 17.2527 36.0854 17.489 35.8491C17.7253 35.6128 18.0458 35.48 18.38 35.48H29.1C29.4342 35.48 29.7547 35.6128 29.991 35.8491C30.2272 36.0854 30.36 36.4059 30.36 36.74C30.36 37.0742 30.2272 37.3947 29.991 37.631C29.7547 37.8673 29.4342 38 29.1 38ZM35.4 32.5H18.4C18.0839 32.4719 17.7898 32.3265 17.5756 32.0923C17.3614 31.8582 17.2426 31.5524 17.2426 31.235C17.2426 30.9177 17.3614 30.6119 17.5756 30.3777C17.7898 30.1436 18.0839 29.9982 18.4 29.97H35.4C35.7161 29.9982 36.0102 30.1436 36.2244 30.3777C36.4386 30.6119 36.5574 30.9177 36.5574 31.235C36.5574 31.5524 36.4386 31.8582 36.2244 32.0923C36.0102 32.3265 35.7161 32.4719 35.4 32.5Z" fill="black"/>
<path opacity="0.3" d="M61.46 27.52C60.9983 25.026 59.7805 22.7344 57.9719 20.9562C56.1633 19.178 53.8514 17.9993 51.35 17.58C48.9933 17.1032 46.5945 16.8654 44.19 16.87C42.6842 16.8664 41.1802 16.9733 39.69 17.19C40.52 17.29 41.33 17.42 42.09 17.58C44.5914 17.9993 46.9033 19.178 48.7119 20.9562C50.5205 22.7344 51.7383 25.026 52.2 27.52C53.41 33.62 52.42 39.71 49.55 43.81C48.2103 45.5719 46.6849 47.1846 45 48.62L44.08 49.46L43.67 49.84H44.22V53.1C44.22 53.6304 44.4307 54.1391 44.8058 54.5142C45.1809 54.8892 45.6896 55.1 46.22 55.1H46.4C46.8084 55.064 47.1959 54.9034 47.51 54.64C49.14 53.24 51.27 51.39 53.36 49.44L54.28 48.6C55.9614 47.164 57.4835 45.5514 58.82 43.79C61.68 39.71 62.67 33.62 61.46 27.52Z" fill="black"/>
<path opacity="0.5" d="M52.2 27.5201C51.7383 25.0261 50.5205 22.7345 48.7119 20.9563C46.9033 19.1781 44.5914 17.9994 42.09 17.5801C39.7333 17.1033 37.3345 16.8655 34.93 16.8701C33.6166 16.8693 32.3043 16.9461 31 17.1001C32.0274 17.2084 33.0487 17.3686 34.06 17.5801C36.5614 17.9994 38.8733 19.1781 40.6819 20.9563C42.4905 22.7345 43.7083 25.0261 44.17 27.5201C45.38 33.6201 44.39 39.7101 41.52 43.8101C40.1897 45.5705 38.6744 47.183 37 48.6201L36.08 49.4601L35.01 50.4601V53.1501C35.01 53.6805 35.2207 54.1892 35.5958 54.5643C35.9709 54.9393 36.4796 55.1501 37.01 55.1501H37.19C37.5984 55.1141 37.9859 54.9535 38.3 54.6901C39.93 53.2901 42.06 51.4401 44.15 49.4901L45.07 48.6501C46.7514 47.2141 48.2735 45.6015 49.61 43.8401C52.42 39.7101 53.41 33.6201 52.2 27.5201Z" fill="black"/>
</svg>
