<svg width="72" height="72" viewBox="0 0 72 72" fill="none" xmlns="http://www.w3.org/2000/svg">
<path d="M45.9 20.36H26.1C24.0159 20.3295 21.9461 20.71 20.0091 21.4795C18.072 22.2491 16.3054 23.3927 14.8104 24.8451C13.3153 26.2974 12.121 28.03 11.2956 29.944C10.4702 31.858 10.03 33.9158 10 36C10.03 38.0841 10.4702 40.1419 11.2956 42.0559C12.121 43.9699 13.3153 45.7025 14.8104 47.1549C16.3054 48.6072 18.072 49.7508 20.0091 50.5204C21.9461 51.29 24.0159 51.6704 26.1 51.64H45.9C47.9841 51.6704 50.0539 51.29 51.9909 50.5204C53.928 49.7508 55.6946 48.6072 57.1896 47.1549C58.6847 45.7025 59.879 43.9699 60.7044 42.0559C61.5298 40.1419 61.97 38.0841 62 36C61.97 33.9158 61.5298 31.858 60.7044 29.944C59.879 28.03 58.6847 26.2974 57.1896 24.8451C55.6946 23.3927 53.928 22.2491 51.9909 21.4795C50.0539 20.71 47.9841 20.3295 45.9 20.36ZM47.69 40.74H28.26L31.36 44.23C31.6045 44.4827 31.7682 44.8025 31.8301 45.1487C31.8921 45.4948 31.8496 45.8516 31.7079 46.1735C31.5663 46.4953 31.332 46.7677 31.035 46.9559C30.7379 47.1441 30.3915 47.2395 30.04 47.23C29.7886 47.229 29.5402 47.175 29.3111 47.0716C29.0819 46.9683 28.8771 46.8178 28.71 46.63L23 40.15L22.94 40.06L22.83 39.91C22.7995 39.8621 22.7727 39.812 22.75 39.76L22.68 39.6C22.6555 39.5415 22.6355 39.4814 22.62 39.42C22.6153 39.3701 22.6153 39.3199 22.62 39.27C22.6152 39.2034 22.6152 39.1365 22.62 39.07C22.62 39.07 22.62 39 22.62 38.97C22.62 38.94 22.62 38.97 22.62 38.97C22.6156 38.9034 22.6156 38.8366 22.62 38.77C22.62 38.77 22.62 38.67 22.62 38.62L22.68 38.44C22.68 38.44 22.68 38.34 22.73 38.3L22.82 38.14C22.8407 38.0901 22.8675 38.0431 22.9 38L23.01 37.87L23.13 37.73L23.22 37.67L23.37 37.56L23.53 37.47L23.67 37.41C23.7318 37.3854 23.7953 37.3654 23.86 37.35H24.01C24.0766 37.3444 24.1434 37.3444 24.21 37.35H47.69C47.9343 37.3316 48.1798 37.3639 48.411 37.4448C48.6423 37.5257 48.8543 37.6534 49.0339 37.82C49.2135 37.9866 49.3568 38.1885 49.4548 38.4131C49.5527 38.6376 49.6033 38.88 49.6033 39.125C49.6033 39.37 49.5527 39.6123 49.4548 39.8368C49.3568 40.0614 49.2135 40.2633 49.0339 40.4299C48.8543 40.5965 48.6423 40.7243 48.411 40.8052C48.1798 40.886 47.9343 40.9183 47.69 40.9V40.74ZM49.46 33.08C49.4649 33.1465 49.4649 33.2134 49.46 33.28C49.46 33.28 49.46 33.38 49.46 33.43L49.4 33.61C49.4 33.61 49.4 33.71 49.4 33.75L49.31 33.91C49.2893 33.9598 49.2625 34.0069 49.23 34.05C49.1988 34.0977 49.1619 34.1413 49.12 34.18L49 34.32L48.9 34.39C48.8608 34.4256 48.8171 34.4558 48.77 34.48C48.7212 34.5174 48.6673 34.5477 48.61 34.57L48.48 34.64L48.28 34.7H48.16C48.0469 34.7096 47.9331 34.7096 47.82 34.7H24.31C24.0657 34.7183 23.8202 34.686 23.589 34.6052C23.3577 34.5243 23.1457 34.3965 22.9661 34.2299C22.7865 34.0633 22.6432 33.8614 22.5452 33.6368C22.4472 33.4123 22.3967 33.17 22.3967 32.925C22.3967 32.68 22.4472 32.4376 22.5452 32.2131C22.6432 31.9885 22.7865 31.7866 22.9661 31.62C23.1457 31.4534 23.3577 31.3257 23.589 31.2448C23.8202 31.1639 24.0657 31.1316 24.31 31.15H43.74L40.64 27.66C40.485 27.486 40.3659 27.2831 40.2893 27.0631C40.2127 26.843 40.1802 26.61 40.1937 26.3774C40.2072 26.1448 40.2663 25.9171 40.3678 25.7074C40.4692 25.4976 40.611 25.3099 40.785 25.155C40.959 25 41.1618 24.8808 41.3819 24.8043C41.6019 24.7277 41.8349 24.6952 42.0675 24.7087C42.3001 24.7221 42.5278 24.7813 42.7376 24.8827C42.9473 24.9842 43.135 25.126 43.29 25.3L49 31.85L49.06 31.94L49.17 32.09C49.2005 32.1378 49.2273 32.188 49.25 32.24L49.32 32.4C49.3429 32.4556 49.3629 32.5123 49.38 32.57C49.38 32.63 49.38 32.68 49.38 32.73C49.38 32.78 49.38 32.86 49.38 32.93C49.38 33 49.38 33 49.38 33.03C49.38 33.06 49.46 33.06 49.46 33.08Z" fill="black"/>
</svg>
