<svg width="72" height="72" viewBox="0 0 72 72" fill="none" xmlns="http://www.w3.org/2000/svg">
<path d="M45.9 20.36H26.1C24.0159 20.3295 21.9461 20.71 20.0091 21.4795C18.072 22.2491 16.3054 23.3927 14.8104 24.8451C13.3153 26.2974 12.121 28.03 11.2956 29.944C10.4702 31.858 10.03 33.9158 10 36C10.03 38.0841 10.4702 40.1419 11.2956 42.0559C12.121 43.9699 13.3153 45.7025 14.8104 47.1549C16.3054 48.6072 18.072 49.7508 20.0091 50.5204C21.9461 51.29 24.0159 51.6704 26.1 51.64H45.9C47.9841 51.6704 50.0539 51.29 51.9909 50.5204C53.928 49.7508 55.6946 48.6072 57.1896 47.1549C58.6847 45.7025 59.879 43.9699 60.7044 42.0559C61.5298 40.1419 61.97 38.0841 62 36C61.97 33.9158 61.5298 31.858 60.7044 29.944C59.879 28.03 58.6847 26.2974 57.1896 24.8451C55.6946 23.3927 53.928 22.2491 51.9909 21.4795C50.0539 20.71 47.9841 20.3295 45.9 20.36ZM20.08 38.76H17.45C16.9832 38.76 16.5356 38.5745 16.2055 38.2445C15.8754 37.9144 15.69 37.4667 15.69 37C15.69 36.5332 15.8754 36.0855 16.2055 35.7555C16.5356 35.4254 16.9832 35.24 17.45 35.24H20.08C20.5468 35.24 20.9944 35.4254 21.3245 35.7555C21.6546 36.0855 21.84 36.5332 21.84 37C21.84 37.4667 21.6546 37.9144 21.3245 38.2445C20.9944 38.5745 20.5468 38.76 20.08 38.76ZM29.74 38.76H24.91C24.4432 38.76 23.9956 38.5745 23.6655 38.2445C23.3354 37.9144 23.15 37.4667 23.15 37C23.15 36.5332 23.3354 36.0855 23.6655 35.7555C23.9956 35.4254 24.4432 35.24 24.91 35.24H29.74C30.2068 35.24 30.6544 35.4254 30.9845 35.7555C31.3146 36.0855 31.5 36.5332 31.5 37C31.5 37.4667 31.3146 37.9144 30.9845 38.2445C30.6544 38.5745 30.2068 38.76 29.74 38.76ZM37.2 38.76H34.57C34.1032 38.76 33.6556 38.5745 33.3255 38.2445C32.9954 37.9144 32.81 37.4667 32.81 37C32.81 36.5332 32.9954 36.0855 33.3255 35.7555C33.6556 35.4254 34.1032 35.24 34.57 35.24H37.2C37.6668 35.24 38.1144 35.4254 38.4445 35.7555C38.7746 36.0855 38.96 36.5332 38.96 37C38.96 37.4667 38.7746 37.9144 38.4445 38.2445C38.1144 38.5745 37.6668 38.76 37.2 38.76ZM54.53 41.05C54.8549 41.3749 55.0374 41.8155 55.0374 42.275C55.0374 42.7344 54.8549 43.1751 54.53 43.5C54.2051 43.8249 53.7645 44.0074 53.305 44.0074C52.8455 44.0074 52.4049 43.8249 52.08 43.5L48.08 39.5L44 43.5C43.6753 43.8211 43.2367 44.0009 42.78 44C42.3237 43.9987 41.8859 43.8193 41.56 43.5C41.3988 43.3393 41.271 43.1483 41.1837 42.9381C41.0965 42.7279 41.0516 42.5026 41.0516 42.275C41.0516 42.0474 41.0965 41.822 41.1837 41.6118C41.271 41.4016 41.3988 41.2107 41.56 41.05L45.61 37.05L41.56 33.05C41.3932 32.8898 41.2596 32.6983 41.1669 32.4864C41.0741 32.2746 41.0239 32.0465 41.0193 31.8153C41.0147 31.5841 41.0556 31.3542 41.1398 31.1388C41.224 30.9234 41.3498 30.7267 41.51 30.56C41.6702 30.3932 41.8617 30.2596 42.0735 30.1668C42.2854 30.0741 42.5134 30.0239 42.7446 30.0193C42.9759 30.0146 43.2057 30.0556 43.4211 30.1398C43.6365 30.224 43.8332 30.3498 44 30.51L48.05 34.51L52.05 30.51C52.3802 30.1811 52.8275 29.9969 53.2935 29.9978C53.7596 29.9987 54.2061 30.1848 54.535 30.515C54.8639 30.8452 55.0481 31.2925 55.0472 31.7585C55.0462 32.2245 54.8602 32.6711 54.53 33L50.48 37L54.53 41.05Z" fill="black"/>
</svg>
