<svg width="72" height="72" viewBox="0 0 72 72" fill="none" xmlns="http://www.w3.org/2000/svg">
<path d="M47.57 34C47.3505 33.9872 47.1313 34.0279 46.931 34.1185C46.7307 34.209 46.5554 34.3468 46.42 34.52C46.12 34.9532 45.9723 35.4737 46 36C45.967 36.5222 46.1115 37.0402 46.41 37.47C46.557 37.6297 46.7356 37.7571 46.9344 37.8443C47.1332 37.9315 47.3479 37.9765 47.565 37.9765C47.7821 37.9765 47.9968 37.9315 48.1956 37.8443C48.3944 37.7571 48.5729 37.6297 48.72 37.47C49.0093 37.0438 49.1499 36.5341 49.12 36.02C49.1543 35.4851 49.0101 34.954 48.71 34.51C48.574 34.3407 48.3997 34.2062 48.2015 34.1175C48.0033 34.0288 47.7868 33.9885 47.57 34Z" fill="black"/>
<path d="M46.15 20.0799H26.36C24.2759 20.0495 22.2062 20.4299 20.2691 21.1995C18.332 21.9691 16.5654 23.1127 15.0704 24.565C13.5753 26.0174 12.381 27.75 11.5556 29.664C10.7302 31.578 10.29 33.6358 10.26 35.7199C10.29 37.8041 10.7302 39.8619 11.5556 41.7759C12.381 43.6899 13.5753 45.4225 15.0704 46.8749C16.5654 48.3272 18.332 49.4708 20.2691 50.2404C22.2062 51.0099 24.2759 51.3904 26.36 51.3599H46.15C50.3601 51.4214 54.4222 49.8083 57.4432 46.8755C60.4642 43.9426 62.1968 39.93 62.26 35.7199C62.1968 31.5099 60.4642 27.4973 57.4432 24.5644C54.4222 21.6315 50.3601 20.0185 46.15 20.0799ZM28.72 38.7499C28.7325 38.9342 28.7051 39.1189 28.6395 39.2915C28.5739 39.4642 28.4717 39.6205 28.34 39.7499C28.0459 40.0013 27.6664 40.1302 27.28 40.1099C26.8964 40.1318 26.5195 40.0026 26.23 39.7499C26.0948 39.6227 25.9897 39.4669 25.9222 39.2939C25.8548 39.121 25.8267 38.9351 25.84 38.7499V35.1799C25.84 34.3999 25.5 34.0099 24.84 34.0099C24.6541 34.0057 24.4693 34.0399 24.2972 34.1105C24.1251 34.1811 23.9695 34.2864 23.84 34.4199C23.5737 34.7264 23.4374 35.1246 23.46 35.5299V38.7499C23.4733 38.9351 23.4453 39.121 23.3778 39.2939C23.3103 39.4669 23.2052 39.6227 23.07 39.7499C22.7676 39.9827 22.3966 40.1089 22.015 40.1089C21.6334 40.1089 21.2625 39.9827 20.96 39.7499C20.8248 39.6227 20.7197 39.4669 20.6522 39.2939C20.5848 39.121 20.5567 38.9351 20.57 38.7499V29.7499C20.5648 29.5737 20.5978 29.3983 20.6669 29.2361C20.7359 29.0738 20.8394 28.9284 20.97 28.8099C21.2607 28.5743 21.6259 28.4501 22 28.4599C22.3638 28.4464 22.7198 28.5675 23 28.7999C23.1287 28.913 23.2305 29.0534 23.298 29.2108C23.3654 29.3683 23.3969 29.5388 23.39 29.7099V32.9999C23.6764 32.6313 24.0466 32.3365 24.47 32.1399C24.9493 31.9169 25.4714 31.8008 26 31.7999C26.3874 31.7711 26.7761 31.8329 27.1354 31.9804C27.4947 32.128 27.8147 32.3572 28.07 32.6499C28.5823 33.4119 28.822 34.3246 28.75 35.2399L28.72 38.7499ZM42 39.8299C41.6175 40.0352 41.1805 40.1156 40.75 40.0599H40.29C39.4709 40.045 38.6852 39.7322 38.08 39.1799C37.8103 38.8872 37.6015 38.5436 37.4659 38.1694C37.3302 37.7951 37.2705 37.3976 37.29 36.9999V34.1199H36.82C36.4605 34.1526 36.1022 34.0451 35.82 33.8199C35.5359 34.0415 35.1791 34.1486 34.82 34.1199H33.92V37.2399C33.9185 37.4305 33.986 37.6152 34.11 37.7599C34.2354 37.8943 34.4068 37.9764 34.59 37.9899H35.06C35.79 37.9899 36.15 38.3599 36.15 38.9899C36.1598 39.1567 36.1241 39.323 36.0466 39.471C35.9691 39.619 35.8527 39.7431 35.71 39.8299C35.3275 40.0352 34.8905 40.1156 34.46 40.0599L34 39.9999C33.1776 39.9865 32.3883 39.6736 31.78 39.1199C31.2718 38.5342 31.0102 37.7744 31.05 36.9999V34.1199H30.57C29.71 34.1199 29.28 33.7699 29.28 33.0499C29.28 32.3299 29.71 32.0499 30.57 32.0499H31.05V30.9399C31.0381 30.7549 31.0668 30.5695 31.1342 30.3967C31.2015 30.224 31.3059 30.068 31.44 29.9399C31.7372 29.6996 32.1078 29.5686 32.49 29.5686C32.8722 29.5686 33.2428 29.6996 33.54 29.9399C33.6741 30.068 33.7785 30.224 33.8458 30.3967C33.9132 30.5695 33.9419 30.7549 33.93 30.9399V31.9999H34.83C35.1874 31.9732 35.5424 32.0762 35.83 32.2899C36.1155 32.0719 36.4722 31.9685 36.83 31.9999H37.3V30.9399C37.2881 30.7549 37.3168 30.5695 37.3842 30.3967C37.4515 30.224 37.5559 30.068 37.69 29.9399C37.9832 29.6859 38.3624 29.5535 38.75 29.5699C39.1176 29.5657 39.4737 29.6975 39.75 29.9399C39.8841 30.068 39.9885 30.224 40.0558 30.3967C40.1232 30.5695 40.1519 30.7549 40.14 30.9399V31.9999H41.04C41.9 31.9999 42.33 32.3333 42.33 32.9999C42.33 33.7199 41.9 34.0699 41.04 34.0699H40.14V37.1899C40.1385 37.3805 40.206 37.5652 40.33 37.7099C40.3908 37.7781 40.4645 37.8336 40.5469 37.8731C40.6293 37.9126 40.7188 37.9353 40.81 37.9399H41.28C42 37.9399 42.37 38.3099 42.37 38.9399C42.3967 39.108 42.3762 39.2802 42.3109 39.4373C42.2456 39.5944 42.138 39.7303 42 39.8299ZM51.57 38.1699C51.3089 38.7638 50.876 39.2659 50.3271 39.6116C49.7782 39.9573 49.1384 40.1309 48.49 40.1099C48.0055 40.1178 47.5259 40.0116 47.09 39.7999C46.6872 39.6196 46.3414 39.3326 46.09 38.9699V41.7299C46.0976 41.9012 46.0665 42.0719 45.999 42.2295C45.9314 42.387 45.8293 42.5273 45.7 42.6399C45.4198 42.8724 45.0638 42.9935 44.7 42.9799C44.3106 42.9997 43.9282 42.8711 43.63 42.6199C43.4988 42.5035 43.3943 42.3602 43.3236 42.1997C43.2528 42.0392 43.2175 41.8653 43.22 41.6899V33.1599C43.2068 32.9756 43.234 32.7907 43.2996 32.618C43.3652 32.4453 43.4677 32.2889 43.6 32.1599C43.8874 31.941 44.2387 31.8224 44.6 31.8224C44.9613 31.8224 45.3126 31.941 45.6 32.1599C45.8391 32.3761 45.9829 32.6781 46 32.9999C46.2373 32.6103 46.5855 32.3004 47 32.1099C47.4506 31.8872 47.9474 31.7742 48.45 31.7799C49.0989 31.7728 49.7354 31.9572 50.28 32.3099C50.8251 32.6786 51.2577 33.1908 51.53 33.7899C51.8452 34.4838 52.0056 35.2379 52 35.9999C52.0091 36.7484 51.852 37.4895 51.54 38.1699H51.57Z" fill="black"/>
</svg>
