<svg width="72" height="72" viewBox="0 0 72 72" fill="none" xmlns="http://www.w3.org/2000/svg">
<path d="M45.9 20.36H26.1C24.0159 20.3295 21.9461 20.71 20.0091 21.4795C18.072 22.2491 16.3054 23.3927 14.8104 24.8451C13.3153 26.2974 12.121 28.03 11.2956 29.944C10.4702 31.858 10.03 33.9158 10 36C10.03 38.0841 10.4702 40.1419 11.2956 42.0559C12.121 43.9699 13.3153 45.7025 14.8104 47.1549C16.3054 48.6072 18.072 49.7508 20.0091 50.5204C21.9461 51.29 24.0159 51.6704 26.1 51.64H45.9C47.9841 51.6704 50.0539 51.29 51.9909 50.5204C53.928 49.7508 55.6946 48.6072 57.1896 47.1549C58.6847 45.7025 59.879 43.9699 60.7044 42.0559C61.5298 40.1419 61.97 38.0841 62 36C61.97 33.9158 61.5298 31.858 60.7044 29.944C59.879 28.03 58.6847 26.2974 57.1896 24.8451C55.6946 23.3927 53.928 22.2491 51.9909 21.4795C50.0539 20.71 47.9841 20.3295 45.9 20.36ZM27.22 38.61V41.68C27.22 41.9 27.94 42.54 29.27 42.54C29.7341 42.54 30.1792 42.7243 30.5074 43.0525C30.8356 43.3807 31.02 43.8258 31.02 44.29C31.02 44.7541 30.8356 45.1992 30.5074 45.5274C30.1792 45.8556 29.7341 46.04 29.27 46.04C26.16 46.04 23.72 44.12 23.72 41.68V38.61C23.72 38.39 22.99 37.75 21.72 37.75C21.2559 37.75 20.8108 37.5656 20.4826 37.2374C20.1544 36.9092 19.97 36.4641 19.97 36C19.97 35.5358 20.1544 35.0907 20.4826 34.7625C20.8108 34.4343 21.2559 34.25 21.72 34.25C23.04 34.25 23.72 33.61 23.72 33.39V30.32C23.72 27.88 26.16 25.96 29.27 25.96C29.4998 25.96 29.7274 26.0052 29.9397 26.0932C30.152 26.1811 30.3449 26.31 30.5074 26.4725C30.6699 26.635 30.7988 26.828 30.8868 27.0403C30.9747 27.2526 31.02 27.4802 31.02 27.71C31.02 27.9398 30.9747 28.1673 30.8868 28.3797C30.7988 28.592 30.6699 28.7849 30.5074 28.9474C30.3449 29.1099 30.152 29.2388 29.9397 29.3268C29.7274 29.4147 29.4998 29.46 29.27 29.46C27.94 29.46 27.22 30.1 27.22 30.32V33.39C27.2044 34.3694 26.8102 35.3048 26.12 36C26.8102 36.6951 27.2044 37.6305 27.22 38.61ZM37.22 41.76C36.8929 42.0806 36.4531 42.2602 35.995 42.2602C35.5369 42.2602 35.0971 42.0806 34.77 41.76C34.4563 41.4293 34.2814 40.9908 34.2814 40.535C34.2814 40.0791 34.4563 39.6407 34.77 39.31C35.0949 38.9851 35.5355 38.8026 35.995 38.8026C36.4545 38.8026 36.8951 38.9851 37.22 39.31C37.5449 39.6349 37.7274 40.0755 37.7274 40.535C37.7274 40.9944 37.5449 41.4351 37.22 41.76ZM39.93 33.76C39.7574 34.1065 39.5313 34.4237 39.26 34.7C39 34.96 38.66 35.28 38.26 35.65C37.9417 35.9025 37.641 36.1765 37.36 36.47C37.1672 36.6718 37.0295 36.9197 36.96 37.19C36.921 37.429 36.7967 37.6457 36.61 37.8C36.4342 37.9319 36.2198 38.0021 36 38C35.8653 38.0058 35.731 37.9819 35.6066 37.93C35.4822 37.8782 35.3707 37.7997 35.28 37.7C35.0974 37.452 35.0088 37.1472 35.03 36.84C35.0101 36.3563 35.1207 35.8762 35.35 35.45C35.5965 35.0329 35.8919 34.6469 36.23 34.3C36.459 34.0657 36.6665 33.8113 36.85 33.54C36.9808 33.3262 37.05 33.0805 37.05 32.83C37.0547 32.7105 37.0319 32.5916 36.9834 32.4824C36.9348 32.3731 36.8618 32.2765 36.77 32.2C36.5426 32.0498 36.2717 31.9795 36 32C35.723 31.9995 35.4484 32.0503 35.19 32.15C34.8785 32.2718 34.5775 32.419 34.29 32.59L33.86 32.8C33.5609 32.9962 33.2168 33.1132 32.86 33.14C32.7149 33.1349 32.5726 33.0982 32.4431 33.0326C32.3136 32.967 32.1999 32.874 32.11 32.76C31.8988 32.4931 31.789 32.1601 31.8 31.82C31.7924 31.6058 31.837 31.393 31.93 31.2C32.0422 31.0115 32.192 30.8481 32.37 30.72C32.9237 30.3206 33.5383 30.0133 34.19 29.81C34.8357 29.5978 35.5103 29.4865 36.19 29.48C36.8972 29.4661 37.5994 29.6024 38.25 29.88C38.8304 30.112 39.3355 30.4995 39.71 31C40.0469 31.4612 40.2258 32.0189 40.22 32.59C40.234 32.9914 40.1588 33.391 40 33.76H39.93ZM50.31 37.76C48.99 37.76 48.31 38.4 48.31 38.62V41.69C48.31 44.13 45.87 46.05 42.76 46.05C42.2959 46.05 41.8508 45.8656 41.5226 45.5374C41.1944 45.2092 41.01 44.7641 41.01 44.3C41.01 43.8358 41.1944 43.3907 41.5226 43.0625C41.8508 42.7343 42.2959 42.55 42.76 42.55C44.09 42.55 44.81 41.91 44.81 41.69V38.61C44.8176 37.6347 45.2008 36.6999 45.88 36C45.1898 35.3048 44.7956 34.3694 44.78 33.39V30.32C44.78 30.1 44.06 29.46 42.73 29.46C42.2659 29.46 41.8207 29.2756 41.4926 28.9474C41.1644 28.6192 40.98 28.1741 40.98 27.71C40.98 27.2458 41.1644 26.8007 41.4926 26.4725C41.8207 26.1443 42.2659 25.96 42.73 25.96C45.84 25.96 48.28 27.88 48.28 30.32V33.39C48.28 33.61 49.01 34.25 50.28 34.25C50.7441 34.25 51.1892 34.4343 51.5174 34.7625C51.8456 35.0907 52.03 35.5358 52.03 36C52.03 36.4641 51.8456 36.9092 51.5174 37.2374C51.1892 37.5656 50.7441 37.75 50.28 37.75L50.31 37.76Z" fill="black"/>
</svg>
