<svg width="72" height="72" viewBox="0 0 72 72" fill="none" xmlns="http://www.w3.org/2000/svg">
<path opacity="0.7" d="M55.3667 44.7386C54.0774 40.5045 51.8834 36.6011 48.9367 33.2986C48.9367 33.4586 48.9367 33.6086 48.9367 33.7686V33.8886C48.8767 35.0086 48.2567 44.9686 46.6767 48.9886C46.3895 49.6979 45.8953 50.3044 45.2586 50.7289C44.6218 51.1534 43.8719 51.3763 43.1067 51.3686H50.5067C51.3075 51.374 52.0979 51.187 52.8114 50.8233C53.5249 50.4596 54.1406 49.9298 54.6067 49.2786C55.0804 48.6344 55.396 47.8878 55.528 47.0992C55.6601 46.3106 55.6048 45.5019 55.3667 44.7386Z" fill="black"/>
<path opacity="0.5" d="M36.3067 48.2886C34.5208 48.2886 32.808 48.9973 31.5443 50.2591C30.2806 51.521 29.5693 53.2328 29.5667 55.0186C29.5424 56.0594 29.776 57.09 30.2467 58.0186C31.2343 59.5257 32.4447 60.8743 33.8367 62.0186L34.4767 62.5986C34.9673 63.0739 35.6236 63.3397 36.3067 63.3397C36.9898 63.3397 37.646 63.0739 38.1367 62.5986L38.7767 62.0186C40.1686 60.8743 41.379 59.5257 42.3667 58.0186C42.8373 57.09 43.0709 56.0594 43.0467 55.0186C43.044 53.2328 42.3327 51.521 41.069 50.2591C39.8053 48.9973 38.0925 48.2886 36.3067 48.2886Z" fill="black"/>
<path opacity="0.7" d="M25.8865 48.9886C24.3065 44.9886 23.6865 34.9886 23.6265 33.8886V33.7686C23.6265 33.6286 23.6265 33.4886 23.6265 33.3386C20.6989 36.633 18.519 40.5221 17.2365 44.7386C16.9954 45.5026 16.9376 46.3127 17.0679 47.1032C17.1982 47.8937 17.5129 48.6424 17.9865 49.2886C18.4526 49.9399 19.0683 50.4696 19.7818 50.8334C20.4953 51.1971 21.2857 51.3841 22.0865 51.3786H29.4665C28.6984 51.3876 27.9455 51.1641 27.3067 50.7376C26.6678 50.3111 26.1728 49.7015 25.8865 48.9886Z" fill="black"/>
<path d="M39.3567 9.22857C38.5292 8.43993 37.4299 8 36.2867 8C35.1436 8 34.0443 8.43993 33.2167 9.22857C29.6367 12.5786 23.6267 20.2286 23.6267 33.7686V33.8886C23.6867 35.0086 24.3067 44.9686 25.8867 48.9886C26.1736 49.703 26.6701 50.3138 27.311 50.7404C27.9518 51.1671 28.7069 51.3896 29.4767 51.3786H43.0967C43.8665 51.3896 44.6216 51.1671 45.2624 50.7404C45.9033 50.3138 46.3999 49.703 46.6867 48.9886C48.2667 44.9886 48.8867 34.9886 48.9467 33.8886V33.7686C48.9467 20.2286 42.9467 12.5786 39.3567 9.22857ZM36.3067 34.9486C35.2655 34.9525 34.2466 34.6474 33.379 34.0718C32.5114 33.4963 31.8341 32.6762 31.4329 31.7154C31.0317 30.7546 30.9247 29.6964 31.1254 28.6747C31.326 27.6531 31.8254 26.7139 32.5602 25.9763C33.2951 25.2387 34.2323 24.7357 35.2532 24.5312C36.274 24.3266 37.3327 24.4296 38.295 24.8271C39.2573 25.2246 40.08 25.8988 40.6588 26.7642C41.2377 27.6296 41.5467 28.6474 41.5467 29.6886C41.5467 31.0802 40.9953 32.415 40.0132 33.4009C39.031 34.3868 37.6983 34.9433 36.3067 34.9486Z" fill="black"/>
</svg>
