<svg width="72" height="72" viewBox="0 0 72 72" fill="none" xmlns="http://www.w3.org/2000/svg">
<path fill-rule="evenodd" clip-rule="evenodd" d="M50.4499 31.44C50.9189 31.8987 51.5489 32.1556 52.2049 32.1556C52.8609 32.1556 53.4909 31.8987 53.9599 31.44L54.3199 31.09C55.0199 30.43 56.4599 29.04 57.3899 28.09C57.8737 27.6111 58.2577 27.0411 58.5198 26.4129C58.7818 25.7847 58.9168 25.1107 58.9168 24.43C58.9168 23.7493 58.7818 23.0754 58.5198 22.4472C58.2577 21.8189 57.8737 21.2489 57.3899 20.77L47.8999 11.29C47.4226 10.8074 46.8542 10.4244 46.2275 10.1635C45.6009 9.90254 44.9287 9.76879 44.2499 9.77003C43.5716 9.77383 42.9007 9.91187 42.276 10.1762C41.6512 10.4405 41.085 10.8258 40.6099 11.31L37.2999 14.77C36.8334 15.2369 36.5713 15.87 36.5713 16.53C36.5713 17.1901 36.8334 17.8231 37.2999 18.29L50.4499 31.44ZM58 57.66H14C13.4696 57.66 12.9609 57.8707 12.5858 58.2458C12.2107 58.6208 12 59.1295 12 59.66C12 60.1904 12.2107 60.6991 12.5858 61.0742C12.9609 61.4493 13.4696 61.66 14 61.66H58C58.5304 61.66 59.0391 61.4493 59.4142 61.0742C59.7893 60.6991 60 60.1904 60 59.66C60 59.1295 59.7893 58.6208 59.4142 58.2458C59.0391 57.8707 58.5304 57.66 58 57.66ZM15.4079 53.0753C14.5523 52.2179 14.0256 51.0867 13.9201 49.88L13.2001 41.71C13.1346 40.9664 13.2312 40.2174 13.4832 39.5147C13.7353 38.812 14.1368 38.1724 14.6601 37.64C17.4738 34.8346 25.6581 26.4924 29.608 22.4662C30.403 21.6558 31.0265 21.0203 31.4001 20.64L31.8001 20.23C32.0312 19.9953 32.3067 19.809 32.6106 19.6819C32.9145 19.5549 33.2407 19.4896 33.5701 19.49C34.2329 19.4921 34.8685 19.7542 35.3401 20.22L48.4001 33.28C48.6329 33.5141 48.8171 33.7918 48.9424 34.0973C49.0677 34.4027 49.1315 34.7299 49.1301 35.06C49.1292 35.3901 49.0624 35.7167 48.9336 36.0206C48.8048 36.3246 48.6166 36.5997 48.3801 36.83L48.1201 37.08C45.2048 39.9104 39.3455 45.5596 35.0344 49.7161C33.2529 51.4338 31.7358 52.8965 30.8001 53.8C29.8387 54.7495 28.5414 55.2814 27.1901 55.28H26.7301L18.6001 54.57C17.3936 54.4619 16.2636 53.9328 15.4079 53.0753Z" fill="black"/>
</svg>
