<svg width="72" height="72" viewBox="0 0 72 72" fill="none" xmlns="http://www.w3.org/2000/svg">
<path d="M36 6C30.0666 6 24.2664 7.75947 19.3329 11.0559C14.3994 14.3524 10.5543 19.0377 8.28363 24.5195C6.013 30.0013 5.4189 36.0333 6.57646 41.8527C7.73401 47.6721 10.5912 53.0176 14.7868 57.2132C18.9824 61.4088 24.3279 64.266 30.1473 65.4236C35.9667 66.5811 41.9987 65.987 47.4805 63.7164C52.9623 61.4458 57.6477 57.6006 60.9441 52.6671C64.2405 47.7336 66 41.9334 66 36C66 32.0603 65.224 28.1593 63.7164 24.5195C62.2088 20.8797 59.999 17.5726 57.2132 14.7868C54.4275 12.001 51.1203 9.79126 47.4805 8.28361C43.8407 6.77597 39.9397 6 36 6ZM24 24.23H48L37 34.29C36.6635 34.5715 36.2388 34.7258 35.8 34.7258C35.3613 34.7258 34.9365 34.5715 34.6 34.29L23.71 24.29C23.8053 24.2638 23.9022 24.2437 24 24.23ZM51.2 44.65C51.2001 45.0665 51.1169 45.4789 50.9551 45.8627C50.7933 46.2466 50.5563 46.5942 50.2581 46.8849C49.9598 47.1757 49.6064 47.4039 49.2186 47.5559C48.8307 47.7079 48.4164 47.7807 48 47.77H24C23.1725 47.77 22.379 47.4413 21.7938 46.8562C21.2087 46.2711 20.88 45.4775 20.88 44.65V27.35C20.8816 26.8346 21.0159 26.3284 21.27 25.88L32.66 36.43C33.5271 37.1868 34.6391 37.6038 35.79 37.6038C36.9409 37.6038 38.0529 37.1868 38.92 36.43L50.65 25.66C50.9857 26.1594 51.1633 26.7483 51.16 27.35L51.2 44.65Z" fill="black"/>
</svg>
