<svg width="72" height="72" viewBox="0 0 72 72" fill="none" xmlns="http://www.w3.org/2000/svg">
<path d="M36 9.88C30.8339 9.88 25.7839 11.4119 21.4885 14.282C17.1931 17.1521 13.8452 21.2315 11.8683 26.0043C9.89129 30.7771 9.37403 36.029 10.3819 41.0958C11.3897 46.1625 13.8774 50.8167 17.5304 54.4696C21.1833 58.1226 25.8374 60.6103 30.9042 61.6181C35.971 62.626 41.2229 62.1087 45.9957 60.1317C50.7685 58.1548 54.8479 54.8069 57.718 50.5115C60.5881 46.2161 62.12 41.1661 62.12 36C62.112 29.075 59.3576 22.4359 54.4608 17.5391C49.5641 12.6424 42.925 9.88794 36 9.88ZM45.07 41.54C45.3025 41.7714 45.487 42.0464 45.6129 42.3493C45.7388 42.6522 45.8036 42.977 45.8036 43.305C45.8036 43.633 45.7388 43.9578 45.6129 44.2607C45.487 44.5636 45.3025 44.8386 45.07 45.07C44.8407 45.3044 44.5669 45.4906 44.2647 45.6177C43.9625 45.7448 43.6379 45.8102 43.31 45.81C42.9808 45.8093 42.6549 45.7435 42.3512 45.6165C42.0474 45.4896 41.7718 45.3038 41.54 45.07L36 39.53L30.46 45.07C30.2282 45.3038 29.9525 45.4896 29.6488 45.6165C29.345 45.7435 29.0192 45.8093 28.69 45.81C28.3621 45.8102 28.0375 45.7448 27.7353 45.6177C27.433 45.4906 27.1592 45.3044 26.93 45.07C26.6975 44.8386 26.513 44.5636 26.3871 44.2607C26.2612 43.9578 26.1964 43.633 26.1964 43.305C26.1964 42.977 26.2612 42.6522 26.3871 42.3493C26.513 42.0464 26.6975 41.7714 26.93 41.54L32.46 36L26.93 30.46C26.4739 29.9892 26.221 29.358 26.2257 28.7025C26.2305 28.0469 26.4925 27.4195 26.9554 26.9553C27.4183 26.4911 28.045 26.2273 28.7005 26.2207C29.356 26.2141 29.9878 26.4652 30.46 26.92L36 32.46L41.54 26.92C42.0121 26.4652 42.644 26.2141 43.2995 26.2207C43.955 26.2273 44.5817 26.4911 45.0446 26.9553C45.5075 27.4195 45.7695 28.0469 45.7743 28.7025C45.779 29.358 45.5261 29.9892 45.07 30.46L39.54 36L45.07 41.54Z" fill="black"/>
</svg>
