<svg width="72" height="72" viewBox="0 0 72 72" fill="none" xmlns="http://www.w3.org/2000/svg">
<path d="M36 17C34.22 17 32.4799 17.5278 30.9999 18.5168C29.5198 19.5057 28.3663 20.9113 27.6851 22.5558C27.0039 24.2004 26.8257 26.01 27.1729 27.7558C27.5202 29.5016 28.3774 31.1053 29.636 32.364C30.8947 33.6226 32.4984 34.4798 34.2442 34.8271C35.99 35.1743 37.7996 34.9961 39.4442 34.3149C41.0887 33.6337 42.4943 32.4802 43.4832 31.0001C44.4722 29.5201 45 27.78 45 26C45 23.6131 44.0518 21.3239 42.364 19.636C40.6761 17.9482 38.387 17 36 17Z" fill="black"/>
<path d="M37.34 36.9399H34.66C31.3517 36.9452 28.1804 38.2618 25.8411 40.6011C23.5018 42.9404 22.1853 46.1117 22.18 49.4199V51.7499C22.1879 52.6129 22.5356 53.438 23.1477 54.0464C23.7598 54.6547 24.587 54.9973 25.45 54.9999H46.55C47.4164 54.9973 48.2466 54.6519 48.8593 54.0393C49.472 53.4266 49.8174 52.5964 49.82 51.7299V49.4199C49.8147 46.1117 48.4982 42.9404 46.1588 40.6011C43.8195 38.2618 40.6483 36.9452 37.34 36.9399Z" fill="black"/>
<g opacity="0.7">
<path opacity="0.7" d="M53.84 35.52C55.4602 35.522 57.0447 35.0433 58.3928 34.1446C59.741 33.2459 60.7923 31.9675 61.4137 30.4711C62.0351 28.9748 62.1987 27.3277 61.8838 25.7384C61.5689 24.149 60.7897 22.6887 59.6447 21.5424C58.4997 20.396 57.0404 19.6149 55.4514 19.2981C53.8625 18.9813 52.2152 19.1429 50.7181 19.7625C49.221 20.3821 47.9413 21.4318 47.0409 22.7789C46.1406 24.1259 45.66 25.7098 45.66 27.33C45.6626 29.4996 46.525 31.5797 48.0582 33.1148C49.5913 34.6498 51.6704 35.5147 53.84 35.52Z" fill="black"/>
<path opacity="0.7" d="M55 36.94H52.66C49.9205 36.9327 47.2747 37.9369 45.23 39.76C46.6642 40.9284 47.8202 42.4016 48.6141 44.0725C49.4081 45.7434 49.82 47.5701 49.82 49.42V51.75C49.8147 52.3354 49.6524 52.9087 49.35 53.41H63.19C64.0184 53.4073 64.8119 53.0764 65.3968 52.4897C65.9816 51.903 66.31 51.1084 66.31 50.28V48.22C66.3087 46.7365 66.015 45.2679 65.4458 43.8979C64.8766 42.528 64.043 41.2837 62.9926 40.2361C61.9422 39.1886 60.6957 38.3583 59.3243 37.7927C57.9529 37.2271 56.4834 36.9374 55 36.94Z" fill="black"/>
</g>
<g opacity="0.7">
<path opacity="0.7" d="M18.16 35.52C22.6832 35.52 26.35 31.8532 26.35 27.33C26.35 22.8068 22.6832 19.14 18.16 19.14C13.6368 19.14 9.97003 22.8068 9.97003 27.33C9.97003 31.8532 13.6368 35.52 18.16 35.52Z" fill="black"/>
<path opacity="0.7" d="M26.77 39.76C24.7262 37.9352 22.0798 36.9308 19.34 36.94H17C15.5165 36.9374 14.0471 37.2271 12.6757 37.7927C11.3043 38.3583 10.0577 39.1886 9.00737 40.2362C7.95701 41.2837 7.1234 42.528 6.55418 43.898C5.98497 45.2679 5.69131 46.7365 5.69 48.22V50.28C5.69 51.1084 6.01839 51.903 6.60322 52.4897C7.18805 53.0764 7.98161 53.4074 8.81 53.41H22.65C22.3476 52.9087 22.1852 52.3354 22.18 51.75V49.42C22.18 47.5701 22.5919 45.7434 23.3858 44.0725C24.1798 42.4016 25.3358 40.9285 26.77 39.76Z" fill="black"/>
</g>
</svg>
