<svg width="72" height="72" viewBox="0 0 72 72" fill="none" xmlns="http://www.w3.org/2000/svg">
<path d="M29.2599 30.8601C30.9266 32.5601 31.7599 35.1401 31.7599 38.6001V50.9201C31.7879 51.3099 31.7348 51.7013 31.604 52.0696C31.4732 52.4379 31.2675 52.7752 30.9999 53.0601C30.7 53.3306 30.3493 53.5389 29.9682 53.6728C29.5871 53.8067 29.1832 53.8635 28.7799 53.8401C27.989 53.8661 27.2198 53.5785 26.6399 53.0401C26.3613 52.7642 26.1436 52.433 26.0006 52.0679C25.8577 51.7028 25.7927 51.3118 25.8099 50.9201V49.8101C25.2541 51.0938 24.3098 52.1709 23.1099 52.8901C21.8 53.6516 20.3048 54.0358 18.7899 54.0001C17.2357 54.0224 15.6978 53.6799 14.2999 53.0001C13.0114 52.373 11.9136 51.4133 11.1199 50.2201C10.363 49.0437 9.97312 47.6687 9.99994 46.2701C9.9061 44.7287 10.3871 43.2073 11.3499 42.0001C12.5876 40.797 14.1658 40.0044 15.8699 39.7301C18.7107 39.1948 21.6 38.9602 24.4899 39.0301H25.7599V37.8501C25.8686 36.5567 25.4906 35.2694 24.6999 34.2401C24.2366 33.8225 23.6916 33.5056 23.0995 33.3093C22.5074 33.1131 21.881 33.0419 21.2599 33.1001C20.245 33.1057 19.2356 33.2504 18.2599 33.5301C17.2599 33.8201 16.0499 34.2301 14.6699 34.7701C14.0849 35.1161 13.4346 35.3374 12.7599 35.4201C12.4787 35.4308 12.1986 35.378 11.9406 35.2654C11.6826 35.1529 11.4534 34.9836 11.2699 34.7701C10.8671 34.2901 10.66 33.6759 10.6899 33.0501C10.6771 32.521 10.8272 32.0009 11.1199 31.5601C11.5005 31.0589 11.9938 30.6547 12.5599 30.3801C13.8868 29.6823 15.3034 29.1708 16.7699 28.8601C18.3511 28.4975 19.9678 28.313 21.5899 28.3101C25.0433 28.3101 27.5999 29.1601 29.2599 30.8601ZM24.1699 47.7601C25.2546 46.5735 25.8262 45.0063 25.7599 43.4001V42.3401H24.8499C23.0949 42.3085 21.34 42.4088 19.5999 42.6401C18.6237 42.73 17.6936 43.0979 16.9199 43.7001C16.6496 43.9702 16.4388 44.2939 16.301 44.6504C16.1632 45.0069 16.1016 45.3883 16.1199 45.7701C16.1055 46.2672 16.1991 46.7616 16.3942 47.219C16.5893 47.6765 16.8812 48.0863 17.2499 48.4201C18.0201 49.1008 19.0228 49.4589 20.0499 49.4201C20.8153 49.4526 21.5787 49.3214 22.2893 49.0351C22.9998 48.7488 23.641 48.3141 24.1699 47.7601Z" fill="black"/>
<path d="M56.79 29.87C58.4717 30.9541 59.8104 32.494 60.65 34.31C61.5997 36.4094 62.0612 38.6967 62 41C62.0478 43.3354 61.5729 45.6519 60.61 47.78C59.7781 49.6417 58.432 51.2271 56.73 52.35C55.0521 53.4403 53.091 54.014 51.09 54C49.4255 54.0298 47.7818 53.6266 46.32 52.83C44.9584 52.0967 43.8448 50.9762 43.12 49.61V50.87C43.1317 51.2652 43.0613 51.6586 42.9133 52.0252C42.7652 52.3918 42.5428 52.7237 42.26 53C41.6358 53.551 40.8218 53.8379 39.99 53.8C39.1638 53.8412 38.3548 53.5536 37.74 53C37.4606 52.7144 37.2427 52.3744 37.0999 52.0011C36.9572 51.6279 36.8925 51.2293 36.91 50.83V20.69C36.8947 20.294 36.9654 19.8994 37.1173 19.5334C37.2693 19.1674 37.4988 18.8387 37.79 18.57C38.4376 18.0544 39.2387 17.7695 40.0664 17.7605C40.8942 17.7514 41.7013 18.0187 42.36 18.52C42.6481 18.7795 42.8748 19.0999 43.0236 19.458C43.1723 19.8161 43.2394 20.2028 43.22 20.59V32.5C43.9447 31.1683 45.0525 30.0849 46.4 29.39C47.8521 28.6536 49.4621 28.2829 51.09 28.31C53.1005 28.2713 55.0795 28.813 56.79 29.87ZM54.07 47C55.2873 45.246 55.8727 43.1304 55.73 41C55.8686 38.9323 55.2893 36.8801 54.09 35.19C53.5198 34.5177 52.8011 33.987 51.9906 33.6399C51.1802 33.2928 50.3002 33.1388 49.42 33.19C48.541 33.1357 47.6614 33.2883 46.8521 33.6357C46.0428 33.983 45.3262 34.5154 44.76 35.19C43.5564 36.9045 42.9775 38.9801 43.12 41.07C42.9757 43.1758 43.5542 45.2677 44.76 47C45.317 47.6899 46.03 48.2374 46.8403 48.5973C47.6505 48.9572 48.5348 49.1193 49.42 49.07C50.3036 49.1177 51.1859 48.9549 51.9943 48.595C52.8027 48.2351 53.5141 47.6885 54.07 47Z" fill="black"/>
</svg>
