<svg width="72" height="72" viewBox="0 0 72 72" fill="none" xmlns="http://www.w3.org/2000/svg">
<path fill-rule="evenodd" clip-rule="evenodd" d="M21.4884 14.282C25.7838 11.4119 30.8338 9.88 35.9999 9.88C42.9249 9.88794 49.564 12.6424 54.4608 17.5391C59.3575 22.4359 62.112 29.075 62.1199 36C62.1199 41.1661 60.588 46.2161 57.7179 50.5115C54.8478 54.8069 50.7684 58.1548 45.9956 60.1317C41.2228 62.1087 35.9709 62.626 30.9041 61.6181C25.8374 60.6103 21.1832 58.1226 17.5303 54.4696C13.8773 50.8167 11.3896 46.1625 10.3818 41.0958C9.37394 36.029 9.8912 30.7771 11.8682 26.0043C13.8451 21.2315 17.193 17.1521 21.4884 14.282ZM23.7107 54.3921C27.3483 56.8227 31.625 58.12 35.9999 58.12C41.8649 58.1147 47.4881 55.7825 51.6352 51.6354C55.7824 47.4882 58.1146 41.865 58.1199 36C58.1199 31.6251 56.8226 27.3484 54.392 23.7108C51.9614 20.0732 48.5068 17.238 44.4649 15.5638C40.423 13.8896 35.9754 13.4515 31.6845 14.305C27.3936 15.1585 23.4522 17.2653 20.3587 20.3588C17.2652 23.4523 15.1584 27.3937 14.3049 31.6846C13.4514 35.9755 13.8895 40.4231 15.5637 44.465C17.2379 48.5069 20.0731 51.9615 23.7107 54.3921ZM38.4999 33.5001H44.9299C45.5929 33.5001 46.2288 33.7635 46.6977 34.2323C47.1665 34.7011 47.4299 35.337 47.4299 36.0001C47.4299 36.6631 47.1665 37.299 46.6977 37.7678C46.2288 38.2367 45.5929 38.5001 44.9299 38.5001H38.4999V44.9301C38.4999 45.5931 38.2365 46.229 37.7677 46.6978C37.2988 47.1667 36.6629 47.4301 35.9999 47.4301C35.3368 47.4301 34.701 47.1667 34.2321 46.6978C33.7633 46.229 33.4999 45.5931 33.4999 44.9301V38.5001H27.0699C26.4068 38.5001 25.771 38.2367 25.3021 37.7678C24.8333 37.299 24.5699 36.6631 24.5699 36.0001C24.5699 35.337 24.8333 34.7011 25.3021 34.2323C25.771 33.7635 26.4068 33.5001 27.0699 33.5001H33.4999V27.0701C33.4999 26.407 33.7633 25.7711 34.2321 25.3023C34.701 24.8335 35.3368 24.5701 35.9999 24.5701C36.6629 24.5701 37.2988 24.8335 37.7677 25.3023C38.2365 25.7711 38.4999 26.407 38.4999 27.0701V33.5001Z" fill="black"/>
</svg>
