<svg width="72" height="72" viewBox="0 0 72 72" fill="none" xmlns="http://www.w3.org/2000/svg">
<path fill-rule="evenodd" clip-rule="evenodd" d="M21.4905 14.2686C25.7855 11.3977 30.8347 9.86548 35.9999 9.86548C42.9284 9.87343 49.5705 12.6322 54.4678 17.536C59.3651 22.4397 62.1172 29.0877 62.1199 36.02C62.1159 41.1881 60.5807 46.2389 57.7082 50.5341C54.8356 54.8293 50.7549 58.1759 45.9817 60.1509C41.2086 62.1259 35.9573 62.6406 30.8919 61.6299C25.8264 60.6192 21.1741 58.1286 17.5232 54.4728C13.8723 50.817 11.3865 46.1603 10.3803 41.0912C9.3741 36.0222 9.89253 30.7684 11.8701 25.9941C13.8476 21.2198 17.1955 17.1394 21.4905 14.2686ZM23.7086 54.4009C27.3466 56.8338 31.6241 58.1323 35.9999 58.1323C41.8614 58.127 47.4816 55.7963 51.6282 51.6511C55.7748 47.506 58.1093 41.8848 58.1199 36.02C58.1238 31.6418 56.8299 27.3608 54.4017 23.7185C51.9735 20.0762 48.5203 17.2364 44.4787 15.5582C40.4372 13.88 35.9889 13.4388 31.6968 14.2905C27.4046 15.1422 23.4613 17.2486 20.3658 20.343C17.2702 23.4375 15.1615 27.381 14.3064 31.6748C13.4513 35.9686 13.8881 40.4197 15.5618 44.465C17.2354 48.5103 20.0705 51.9681 23.7086 54.4009ZM35.9999 37.6309L43.3199 31.4975C43.5714 31.2859 43.862 31.126 44.1753 31.0269C44.4885 30.9277 44.8182 30.8913 45.1456 30.9196C45.4729 30.9479 45.7914 31.0405 46.083 31.192C46.3746 31.3435 46.6335 31.551 46.8449 31.8026C47.0563 32.0543 47.2161 32.3451 47.3152 32.6585C47.4143 32.9719 47.4508 33.3018 47.4224 33.6293C47.3941 33.9568 47.3016 34.2756 47.1502 34.5673C46.9987 34.859 46.7914 35.1181 46.5399 35.3296L38.2599 42.2735C37.6263 42.8043 36.8263 43.0952 35.9999 43.0952C35.1735 43.0952 34.3735 42.8043 33.7399 42.2735L25.4599 35.3296C24.952 34.9024 24.6345 34.2908 24.5773 33.6293C24.5201 32.9679 24.7279 32.3108 25.1549 31.8026C25.5819 31.2945 26.1932 30.9768 26.8542 30.9196C27.5153 30.8624 28.172 31.0702 28.6799 31.4975L35.9999 37.6309Z" fill="black"/>
</svg>
