<svg width="72" height="72" viewBox="0 0 72 72" fill="none" xmlns="http://www.w3.org/2000/svg">
<path fill-rule="evenodd" clip-rule="evenodd" d="M21.4905 14.2686C25.7855 11.3977 30.8347 9.86548 35.9999 9.86548C42.9284 9.87343 49.5705 12.6322 54.4678 17.536C59.3651 22.4397 62.1172 29.0877 62.1199 36.02C62.1159 41.1881 60.5807 46.2389 57.7082 50.5341C54.8356 54.8293 50.7549 58.1759 45.9817 60.1509C41.2086 62.1259 35.9573 62.6406 30.8919 61.6299C25.8264 60.6192 21.1741 58.1286 17.5232 54.4728C13.8723 50.817 11.3865 46.1603 10.3803 41.0912C9.3741 36.0222 9.89253 30.7684 11.8701 25.9941C13.8476 21.2198 17.1955 17.1394 21.4905 14.2686ZM23.7086 54.4009C27.3466 56.8338 31.6241 58.1323 35.9999 58.1323C41.8614 58.127 47.4816 55.7963 51.6282 51.6511C55.7748 47.506 58.1093 41.8848 58.1199 36.02C58.1238 31.6418 56.8299 27.3608 54.4017 23.7185C51.9735 20.0762 48.5203 17.2364 44.4787 15.5582C40.4372 13.88 35.9889 13.4388 31.6968 14.2905C27.4046 15.1422 23.4613 17.2486 20.3658 20.343C17.2702 23.4375 15.1615 27.381 14.3064 31.6748C13.4513 35.9686 13.8881 40.4197 15.5618 44.465C17.2354 48.5103 20.0705 51.9681 23.7086 54.4009ZM35.9949 28.9089C36.819 28.9089 37.6171 29.1982 38.2499 29.7265L46.5399 36.6703C46.935 37 47.2188 37.4436 47.3527 37.9406C47.4865 38.4376 47.4639 38.9639 47.2878 39.4475C47.1117 39.9312 46.7908 40.3487 46.3688 40.6432C45.9468 40.9376 45.4444 41.0946 44.9299 41.0928C44.34 41.0947 43.7689 40.8853 43.3199 40.5025L35.9999 34.3591L28.6799 40.5025C28.172 40.9297 27.5153 41.1376 26.8542 41.0803C26.1932 41.0231 25.5819 40.7055 25.1549 40.1973C24.7279 39.6891 24.5201 39.032 24.5773 38.3706C24.6057 38.0431 24.6982 37.7244 24.8496 37.4327C25.001 37.1409 25.2084 36.8819 25.4599 36.6703L33.7399 29.7265C34.3727 29.1982 35.1707 28.9089 35.9949 28.9089Z" fill="black"/>
</svg>
