<svg width="72" height="72" viewBox="0 0 72 72" fill="none" xmlns="http://www.w3.org/2000/svg">
<path fill-rule="evenodd" clip-rule="evenodd" d="M46.84 21.1599H25.16C24.0992 21.1599 23.0818 21.5813 22.3316 22.3315C21.5815 23.0816 21.16 24.099 21.16 25.1599V46.8399C21.16 47.9008 21.5815 48.9182 22.3316 49.6683C23.0818 50.4185 24.0992 50.8399 25.16 50.8399H46.84C47.9009 50.8399 48.9183 50.4185 49.6685 49.6683C50.4186 48.9182 50.84 47.9008 50.84 46.8399V25.1599C50.84 24.099 50.4186 23.0816 49.6685 22.3315C48.9183 21.5813 47.9009 21.1599 46.84 21.1599ZM25.16 46.8399V25.1599H46.84V46.8399H25.16ZM58.41 25.6499H54.41C53.8796 25.6499 53.3709 25.8606 52.9958 26.2357C52.6207 26.6108 52.41 27.1195 52.41 27.6499C52.41 28.1803 52.6207 28.689 52.9958 29.0641C53.3709 29.4392 53.8796 29.6499 54.41 29.6499H58.41V42.3499H54.41C53.8796 42.3499 53.3709 42.5606 52.9958 42.9357C52.6207 43.3108 52.41 43.8195 52.41 44.3499C52.41 44.8803 52.6207 45.389 52.9958 45.7641C53.3709 46.1392 53.8796 46.3499 54.41 46.3499H58.41C59.4709 46.3499 60.4883 45.9285 61.2385 45.1783C61.9886 44.4282 62.41 43.4108 62.41 42.3499V29.6499C62.41 28.589 61.9886 27.5716 61.2385 26.8215C60.4883 26.0713 59.4709 25.6499 58.41 25.6499ZM19.1742 29.0641C18.7991 29.4392 18.2904 29.6499 17.76 29.6499H13.59V42.3499H17.76C18.2904 42.3499 18.7991 42.5606 19.1742 42.9357C19.5493 43.3108 19.76 43.8195 19.76 44.3499C19.76 44.8803 19.5493 45.389 19.1742 45.7641C18.7991 46.1392 18.2904 46.3499 17.76 46.3499H13.59C12.5291 46.3499 11.5117 45.9285 10.7615 45.1783C10.0114 44.4282 9.58997 43.4108 9.58997 42.3499V29.6499C9.58997 28.589 10.0114 27.5716 10.7615 26.8215C11.5117 26.0713 12.5291 25.6499 13.59 25.6499H17.76C18.2904 25.6499 18.7991 25.8606 19.1742 26.2357C19.5493 26.6108 19.76 27.1195 19.76 27.6499C19.76 28.1803 19.5493 28.689 19.1742 29.0641Z" fill="black"/>
</svg>
