<svg width="72" height="72" viewBox="0 0 72 72" fill="none" xmlns="http://www.w3.org/2000/svg">
<path fill-rule="evenodd" clip-rule="evenodd" d="M18.3901 12.3899H53.6101C55.2014 12.3899 56.7276 13.022 57.8528 14.1473C58.978 15.2725 59.6101 16.7986 59.6101 18.3899V54.3899C59.6101 55.7637 59.0644 57.0813 58.0929 58.0527C57.1215 59.0241 55.804 59.5699 54.4301 59.5699H17.5701C16.1963 59.5699 14.8788 59.0241 13.9073 58.0527C12.9359 57.0813 12.3901 55.7637 12.3901 54.3899V18.3899C12.3901 16.7986 13.0223 15.2725 14.1475 14.1473C15.2727 13.022 16.7988 12.3899 18.3901 12.3899ZM55.2645 55.2243C55.4858 55.003 55.6101 54.7028 55.6101 54.3899V32.2899H16.3901V54.3899C16.3901 54.7028 16.5145 55.003 16.7358 55.2243C16.957 55.4456 17.2572 55.5699 17.5701 55.5699H54.4301C54.7431 55.5699 55.0432 55.4456 55.2645 55.2243ZM26.1501 42.5H45.8501C46.5132 42.5 47.1491 42.2366 47.6179 41.7678C48.0868 41.2989 48.3501 40.663 48.3501 40C48.3501 39.337 48.0868 38.7011 47.6179 38.2322C47.1491 37.7634 46.5132 37.5 45.8501 37.5H26.1501C25.4871 37.5 24.8512 37.7634 24.3824 38.2322C23.9135 38.7011 23.6501 39.337 23.6501 40C23.6501 40.663 23.9135 41.2989 24.3824 41.7678C24.8512 42.2366 25.4871 42.5 26.1501 42.5ZM26.1501 50.8899H45.8501C46.5132 50.8899 47.1491 50.6265 47.6179 50.1577C48.0868 49.6888 48.3501 49.0529 48.3501 48.3899C48.3501 47.7269 48.0868 47.091 47.6179 46.6221C47.1491 46.1533 46.5132 45.8899 45.8501 45.8899H26.1501C25.4871 45.8899 24.8512 46.1533 24.3824 46.6221C23.9135 47.091 23.6501 47.7269 23.6501 48.3899C23.6501 49.0529 23.9135 49.6888 24.3824 50.1577C24.8512 50.6265 25.4871 50.8899 26.1501 50.8899Z" fill="black"/>
</svg>
