<svg width="72" height="72" viewBox="0 0 72 72" fill="none" xmlns="http://www.w3.org/2000/svg">
<path d="M58.2499 40.7801H56.2499V38.7201C56.2499 37.6937 55.8422 36.7094 55.1164 35.9836C54.3907 35.2578 53.4063 34.8501 52.3799 34.8501H37.7299V32.9201H39.5199C40.5455 32.9175 41.5283 32.5089 42.2535 31.7837C42.9787 31.0585 43.3873 30.0757 43.3899 29.0501V21.4701C43.3873 20.4445 42.9787 19.4617 42.2535 18.7365C41.5283 18.0113 40.5455 17.6027 39.5199 17.6001H31.9399C30.9143 17.6027 29.9315 18.0113 29.2063 18.7365C28.4811 19.4617 28.0726 20.4445 28.0699 21.4701V29.0501C28.0726 30.0757 28.4811 31.0585 29.2063 31.7837C29.9315 32.5089 30.9143 32.9175 31.9399 32.9201H33.7299V34.8501H19.6599C18.6335 34.8501 17.6492 35.2578 16.9234 35.9836C16.1977 36.7094 15.7899 37.6937 15.7899 38.7201V40.7801H13.7899C12.7635 40.7801 11.7792 41.1878 11.0534 41.9136C10.3277 42.6394 9.91992 43.6237 9.91992 44.6501V52.2301C9.91992 53.2565 10.3277 54.2408 11.0534 54.9666C11.7792 55.6924 12.7635 56.1001 13.7899 56.1001H21.3699C21.8777 56.1001 22.3804 55.9999 22.8494 55.8053C23.3184 55.6107 23.7443 55.3255 24.1029 54.966C24.4615 54.6065 24.7456 54.1798 24.939 53.7103C25.1324 53.2409 25.2312 52.7378 25.2299 52.2301V44.6501C25.2299 43.6254 24.8236 42.6426 24.1 41.9171C23.3764 41.1916 22.3946 40.7827 21.3699 40.7801H19.7899V38.8501H33.7299V40.7801H31.9399C30.9143 40.7827 29.9315 41.1913 29.2063 41.9165C28.4811 42.6417 28.0726 43.6245 28.0699 44.6501V52.2301C28.0699 53.2565 28.4777 54.2408 29.2034 54.9666C29.9292 55.6924 30.9135 56.1001 31.9399 56.1001H39.5199C40.5463 56.1001 41.5307 55.6924 42.2564 54.9666C42.9822 54.2408 43.3899 53.2565 43.3899 52.2301V44.6501C43.3873 43.6245 42.9787 42.6417 42.2535 41.9165C41.5283 41.1913 40.5455 40.7827 39.5199 40.7801H37.7299V38.8501H52.2099V40.7801H50.6699C49.6453 40.7827 48.6635 41.1916 47.9399 41.9171C47.2163 42.6426 46.8099 43.6254 46.8099 44.6501V52.2301C46.8086 52.7378 46.9075 53.2409 47.1009 53.7103C47.2943 54.1798 47.5784 54.6065 47.937 54.966C48.2955 55.3255 48.7215 55.6107 49.1905 55.8053C49.6594 55.9999 50.1622 56.1001 50.6699 56.1001H58.2499C59.2763 56.1001 60.2607 55.6924 60.9864 54.9666C61.7122 54.2408 62.1199 53.2565 62.1199 52.2301V44.6501C62.1199 43.6237 61.7122 42.6394 60.9864 41.9136C60.2607 41.1878 59.2763 40.7801 58.2499 40.7801ZM32.0699 21.6001H39.3899V28.9201H32.0699V21.6001ZM21.1899 52.1001H13.8799V44.7801H21.1899V52.1001ZM39.3899 52.1001H32.0699V44.7801H39.3899V52.1001ZM58.1199 52.1001H50.8099V44.7801H58.1199V52.1001Z" fill="black"/>
</svg>
