<svg width="72" height="72" viewBox="0 0 72 72" fill="none" xmlns="http://www.w3.org/2000/svg">
<path fill-rule="evenodd" clip-rule="evenodd" d="M49.36 15.13H50.56C53.1026 15.1326 55.5403 16.1439 57.3382 17.9418C59.1361 19.7397 60.1473 22.1774 60.15 24.72V51.81C60.1447 54.3509 59.1323 56.786 57.3347 58.5818C55.5371 60.3775 53.1009 61.3873 50.56 61.39H21.44C18.8991 61.3873 16.4629 60.3775 14.6653 58.5818C12.8677 56.786 11.8553 54.3509 11.85 51.81V24.72C11.8526 22.1774 12.8638 19.7397 14.6617 17.9418C16.4596 16.1439 18.8974 15.1326 21.44 15.13H21.86V12.61C21.86 12.0796 22.0707 11.5708 22.4458 11.1958C22.8208 10.8207 23.3295 10.61 23.86 10.61C24.3904 10.61 24.8991 10.8207 25.2742 11.1958C25.6493 11.5708 25.86 12.0796 25.86 12.61V15.13H45.36V12.61C45.36 12.0796 45.5707 11.5708 45.9458 11.1958C46.3208 10.8207 46.8295 10.61 47.36 10.61C47.8904 10.61 48.3991 10.8207 48.7742 11.1958C49.1493 11.5708 49.36 12.0796 49.36 12.61V15.13ZM54.5092 55.7562C55.5572 54.7101 56.1473 53.2908 56.15 51.81V29.92H15.85V51.81C15.8526 53.2908 16.4427 54.7101 17.4908 55.7562C18.5388 56.8024 19.9591 57.39 21.44 57.39H50.56C52.0408 57.39 53.4611 56.8024 54.5092 55.7562ZM15.85 25.92H56.15V24.72C56.1473 23.2382 55.5575 21.8179 54.5098 20.7702C53.462 19.7224 52.0417 19.1326 50.56 19.13H49.36V21.66C49.36 22.1904 49.1493 22.6991 48.7742 23.0742C48.3991 23.4493 47.8904 23.66 47.36 23.66C46.8295 23.66 46.3208 23.4493 45.9458 23.0742C45.5707 22.6991 45.36 22.1904 45.36 21.66V19.13H25.86V21.66C25.86 22.1904 25.6493 22.6991 25.2742 23.0742C24.8991 23.4493 24.3904 23.66 23.86 23.66C23.3295 23.66 22.8208 23.4493 22.4458 23.0742C22.0707 22.6991 21.86 22.1904 21.86 21.66V19.13H21.44C19.9582 19.1326 18.5379 19.7224 17.4902 20.7702C16.4424 21.8179 15.8526 23.2382 15.85 24.72V25.92ZM22.01 34.85H27.98C29.0846 34.85 29.98 35.7454 29.98 36.85V42.82C29.98 43.9245 29.0846 44.82 27.98 44.82H22.01C20.9054 44.82 20.01 43.9245 20.01 42.82V36.85C20.01 35.7454 20.9054 34.85 22.01 34.85Z" fill="black"/>
</svg>
