<svg width="72" height="72" viewBox="0 0 72 72" fill="none" xmlns="http://www.w3.org/2000/svg">
<path fill-rule="evenodd" clip-rule="evenodd" d="M54.7 60.8199H17.3C15.134 60.8173 13.0575 59.9557 11.5259 58.4241C9.99427 56.8925 9.13265 54.8159 9.13 52.6499V25.4899C9.13264 23.323 9.99394 21.2454 11.5253 19.7122C13.0566 18.1791 15.1331 17.3152 17.3 17.3099H21.82C22.2392 15.5662 23.2321 14.014 24.6394 12.9023C26.0467 11.7906 27.7866 11.1841 29.58 11.1799H42.05C43.8417 11.1863 45.5793 11.7939 46.9845 12.9054C48.3898 14.0169 49.3812 15.5679 49.8 17.3099H54.7C56.8669 17.3152 58.9434 18.1791 60.4748 19.7122C62.0061 21.2454 62.8674 23.323 62.87 25.4899V52.6499C62.87 54.8167 62.0092 56.8948 60.4771 58.427C58.9449 59.9592 56.8668 60.8199 54.7 60.8199ZM17.3 21.3099C16.1931 21.3126 15.1325 21.7541 14.3508 22.5378C13.569 23.3214 13.13 24.3831 13.13 25.4899V52.6499C13.13 53.7559 13.5693 54.8165 14.3514 55.5986C15.1334 56.3806 16.1941 56.8199 17.3 56.8199H54.7C55.806 56.8199 56.8666 56.3806 57.6486 55.5986C58.4307 54.8165 58.87 53.7559 58.87 52.6499V25.4899C58.87 24.3831 58.431 23.3214 57.6492 22.5378C56.8675 21.7541 55.8069 21.3126 54.7 21.3099H48.18C47.8947 21.3126 47.6116 21.2587 47.3473 21.1513C47.0829 21.0439 46.8424 20.8852 46.6397 20.6844C46.437 20.4836 46.2761 20.2445 46.1663 19.9812C46.0565 19.7178 46 19.4353 46 19.1499C46 18.0891 45.5786 17.0717 44.8284 16.3215C44.0783 15.5714 43.0609 15.1499 42 15.1499H29.58C28.5191 15.1499 27.5017 15.5714 26.7516 16.3215C26.0014 17.0717 25.58 18.0891 25.58 19.1499C25.58 19.7228 25.3524 20.2722 24.9474 20.6773C24.5423 21.0824 23.9929 21.3099 23.42 21.3099H17.3ZM36 49.73C33.8659 49.73 31.7798 49.0972 30.0054 47.9116C28.231 46.726 26.848 45.0408 26.0313 43.0692C25.2146 41.0976 25.001 38.9281 25.4173 36.835C25.8336 34.742 26.8613 32.8194 28.3703 31.3103C29.8793 29.8013 31.8019 28.7737 33.8949 28.3574C35.988 27.941 38.1575 28.1547 40.1291 28.9714C42.1007 29.788 43.7859 31.171 44.9715 32.9454C46.1571 34.7198 46.79 36.806 46.79 38.94C46.7873 41.8009 45.6497 44.5438 43.6267 46.5668C41.6038 48.5897 38.8608 49.7274 36 49.73ZM36 32.15C34.657 32.15 33.3443 32.5483 32.2276 33.2944C31.111 34.0404 30.2407 35.1009 29.7268 36.3416C29.2129 37.5823 29.0784 38.9476 29.3404 40.2647C29.6024 41.5818 30.2491 42.7917 31.1987 43.7413C32.1483 44.6909 33.3582 45.3376 34.6753 45.5996C35.9924 45.8616 37.3577 45.7271 38.5984 45.2132C39.8391 44.6993 40.8995 43.829 41.6456 42.7124C42.3917 41.5957 42.79 40.283 42.79 38.94C42.7873 37.14 42.0711 35.4145 40.7983 34.1417C39.5255 32.8689 37.8 32.1527 36 32.15ZM53.02 27.81C53.02 28.8649 52.1648 29.72 51.11 29.72C50.0551 29.72 49.2 28.8649 49.2 27.81C49.2 26.7552 50.0551 25.9 51.11 25.9C52.1648 25.9 53.02 26.7552 53.02 27.81Z" fill="black"/>
</svg>
