<svg width="72" height="72" viewBox="0 0 72 72" fill="none" xmlns="http://www.w3.org/2000/svg">
<path d="M52.2399 37.79H35.6299C35.1931 37.777 34.7785 37.5943 34.4742 37.2806C34.1699 36.9669 33.9997 36.547 33.9999 36.11V19.5C33.9999 18.9696 33.7892 18.4609 33.4142 18.0858C33.0391 17.7107 32.5304 17.5 31.9999 17.5C28.9577 17.5005 25.9475 18.1215 23.1534 19.3251C20.3594 20.5287 17.8402 22.2896 15.7499 24.5C12.8585 27.5791 10.9015 31.4164 10.1068 35.5648C9.31212 39.7132 9.7125 44.0021 11.2613 47.9318C12.8101 51.8614 15.4436 55.2701 18.855 57.7608C22.2664 60.2515 26.3152 61.7217 30.5299 62C31.0199 62 31.5299 62 31.9699 62C37.634 62.0262 43.0923 59.8787 47.2199 56C49.429 53.9086 51.1889 51.3892 52.3924 48.5954C53.5959 45.8016 54.2177 42.792 54.2199 39.75C54.2096 39.23 53.997 38.7344 53.6273 38.3685C53.2577 38.0026 52.76 37.7951 52.2399 37.79ZM44.4799 53.12C42.3653 55.1049 39.809 56.5584 37.022 57.3607C34.235 58.163 31.2971 58.291 28.4508 57.7341C25.6046 57.1773 22.9316 55.9516 20.6523 54.1581C18.3731 52.3647 16.5531 50.055 15.3424 47.4195C14.1317 44.7841 13.5651 41.8986 13.6893 39.001C13.8135 36.1035 14.625 33.277 16.0568 30.7549C17.4886 28.2327 19.4997 26.0872 21.924 24.4954C24.3483 22.9036 27.1165 21.9112 29.9999 21.6V36.11C30.0026 37.6156 30.6019 39.0588 31.6665 40.1234C32.7311 41.1881 34.1743 41.7874 35.6799 41.79H50.1399C49.6793 46.125 47.6695 50.1482 44.4799 53.12Z" fill="black"/>
<path opacity="0.5" d="M42.3399 7.93002C41.8138 7.88845 41.2847 7.9558 40.7858 8.12786C40.2868 8.29991 39.8287 8.57298 39.4399 8.93002C39.0479 9.2923 38.7346 9.7314 38.5195 10.22C38.3045 10.7086 38.1923 11.2362 38.1899 11.77V30.24C38.1899 31.2533 38.5904 32.2255 39.304 32.9448C40.0177 33.664 40.9867 34.0721 41.9999 34.08H60.4999C61.0338 34.0777 61.5614 33.9655 62.05 33.7504C62.5386 33.5354 62.9777 33.2221 63.3399 32.83C63.6978 32.4398 63.9712 31.98 64.1433 31.4793C64.3154 30.9786 64.3823 30.4478 64.3399 29.92C63.844 24.2528 61.3666 18.9418 57.3431 14.9201C53.3195 10.8984 48.0073 8.42338 42.3399 7.93002Z" fill="black"/>
</svg>
