<svg width="72" height="72" viewBox="0 0 72 72" fill="none" xmlns="http://www.w3.org/2000/svg">
<path fill-rule="evenodd" clip-rule="evenodd" d="M21.4884 14.282C25.7838 11.4119 30.8338 9.88 35.9999 9.88C42.9249 9.88794 49.564 12.6424 54.4608 17.5391C59.3575 22.4359 62.112 29.075 62.1199 36C62.1199 41.1661 60.588 46.2161 57.7179 50.5115C54.8478 54.8069 50.7684 58.1548 45.9956 60.1317C41.2228 62.1087 35.9709 62.626 30.9041 61.6181C25.8374 60.6103 21.1832 58.1226 17.5303 54.4696C13.8773 50.8167 11.3896 46.1625 10.3818 41.0958C9.37394 36.029 9.8912 30.7771 11.8682 26.0043C13.8451 21.2315 17.193 17.1521 21.4884 14.282ZM23.7107 54.3921C27.3483 56.8227 31.625 58.12 35.9999 58.12C41.8649 58.1147 47.4881 55.7825 51.6352 51.6354C55.7824 47.4882 58.1146 41.865 58.1199 36C58.1199 31.6251 56.8226 27.3484 54.392 23.7108C51.9614 20.0732 48.5068 17.238 44.4649 15.5638C40.423 13.8896 35.9754 13.4515 31.6845 14.305C27.3936 15.1585 23.4522 17.2653 20.3587 20.3588C17.2652 23.4523 15.1584 27.3937 14.3049 31.6846C13.4514 35.9755 13.8895 40.4231 15.5637 44.465C17.2379 48.5069 20.0731 51.9615 23.7107 54.3921ZM31.8299 42L46.2299 28.49C46.7184 28.072 47.3491 27.8583 47.9911 27.8932C48.6331 27.9282 49.2369 28.2091 49.6772 28.6777C50.1174 29.1462 50.3602 29.7664 50.3551 30.4093C50.35 31.0522 50.0975 31.6684 49.6499 32.13L34.9899 45.89C34.133 46.6799 33.0103 47.1184 31.8449 47.1184C30.6795 47.1184 29.5567 46.6799 28.6999 45.89L22.1899 39.89C21.7032 39.4391 21.4156 38.8134 21.3903 38.1504C21.3649 37.4875 21.604 36.8416 22.0549 36.355C22.5057 35.8683 23.1315 35.5807 23.7944 35.5553C24.4574 35.53 25.1032 35.7691 25.5899 36.22L31.8299 42Z" fill="black"/>
</svg>
