<svg width="72" height="72" viewBox="0 0 72 72" fill="none" xmlns="http://www.w3.org/2000/svg">
<path fill-rule="evenodd" clip-rule="evenodd" d="M21.4884 57.718C25.7838 60.5881 30.8338 62.12 35.9999 62.12C42.9249 62.1121 49.564 59.3576 54.4608 54.4609C59.3575 49.5641 62.112 42.925 62.1199 36C62.1199 30.834 60.588 25.7839 57.7179 21.4885C54.8478 17.1931 50.7684 13.8452 45.9956 11.8683C41.2228 9.89132 35.9709 9.37406 30.9041 10.3819C25.8374 11.3898 21.1832 13.8774 17.5303 17.5304C13.8773 21.1833 11.3896 25.8375 10.3818 30.9043C9.37394 35.971 9.8912 41.2229 11.8682 45.9957C13.8451 50.7685 17.193 54.8479 21.4884 57.718ZM23.7107 17.6079C27.3483 15.1773 31.625 13.88 35.9999 13.88C41.8649 13.8853 47.4881 16.2175 51.6352 20.3647C55.7824 24.5118 58.1146 30.1351 58.1199 36C58.1199 40.3749 56.8226 44.6516 54.392 48.2892C51.9614 51.9268 48.5068 54.762 44.4649 56.4362C40.423 58.1104 35.9754 58.5485 31.6845 57.695C27.3936 56.8415 23.4522 54.7348 20.3587 51.6412C17.2652 48.5477 15.1584 44.6063 14.3049 40.3154C13.4514 36.0246 13.8895 31.577 15.5637 27.5351C17.2379 23.4932 20.0731 20.0385 23.7107 17.6079ZM40.3019 46.2019C40.5993 46.3246 40.9176 46.3884 41.2392 46.39C41.239 46.39 41.2389 46.39 41.2388 46.39H41.2427C41.2415 46.39 41.2403 46.39 41.2392 46.39C41.731 46.389 42.2118 46.243 42.6212 45.9701C43.0331 45.6955 43.3542 45.3047 43.5438 44.8473C43.7334 44.3899 43.7829 43.8866 43.6861 43.401C43.5893 42.9155 43.3504 42.4696 42.9999 42.12L37.3999 36.5V26C37.3999 25.337 37.1365 24.7011 36.6677 24.2322C36.1988 23.7634 35.5629 23.5 34.8999 23.5C34.2369 23.5 33.601 23.7634 33.1321 24.2322C32.6633 24.7011 32.3999 25.337 32.3999 26V37.53C32.4006 37.8592 32.4664 38.1851 32.5934 38.4888C32.7204 38.7926 32.9061 39.0682 33.1399 39.3L39.4899 45.66C39.7222 45.8925 39.9981 46.0766 40.3019 46.2019Z" fill="black"/>
</svg>
