<svg width="72" height="72" viewBox="0 0 72 72" fill="none" xmlns="http://www.w3.org/2000/svg">
<path d="M55.0001 53.45C54.252 53.4506 53.5187 53.6583 52.8815 54.0501C52.2443 54.442 51.7281 55.0027 51.3901 55.67H50.3901C49.3292 55.67 48.3118 55.2486 47.5616 54.4985C46.8115 53.7483 46.3901 52.7309 46.3901 51.67V49.28H48.3901C51.5108 49.2508 54.5249 48.1404 56.9188 46.1381C59.3127 44.1357 60.9383 41.3653 61.5185 38.2988C62.0988 35.2323 61.5979 32.0595 60.1011 29.3209C58.6044 26.5824 56.2044 24.4475 53.3101 23.28C52.916 20.1204 51.5467 17.1622 49.3926 14.8173C47.2385 12.4723 44.4069 10.8574 41.292 10.1972C38.1771 9.53702 34.9338 9.86447 32.0137 11.134C29.0936 12.4035 26.6419 14.5518 25.0001 17.28C24.55 17.2119 24.0953 17.1785 23.6401 17.18C21.0904 17.18 18.645 18.1922 16.8412 19.9941C15.0374 21.7961 14.0227 24.2404 14.0201 26.79C14.0195 27.4078 14.0798 28.0241 14.2001 28.63C12.9124 29.6462 11.8711 30.9404 11.1542 32.4158C10.4372 33.8912 10.0632 35.5097 10.0601 37.15C10.0891 40.3806 11.3942 43.4688 13.6908 45.741C15.9875 48.0133 19.0893 49.2854 22.3201 49.28H25.5601V51.64C25.5601 52.7009 25.1386 53.7183 24.3885 54.4684C23.6383 55.2186 22.6209 55.64 21.5601 55.64H20.5601C20.1455 54.8249 19.4686 54.1732 18.6383 53.7898C17.8081 53.4065 16.8729 53.314 15.9836 53.5271C15.0944 53.7403 14.3028 54.2467 13.7365 54.9647C13.1702 55.6827 12.8623 56.5706 12.8623 57.485C12.8623 58.3995 13.1702 59.2873 13.7365 60.0053C14.3028 60.7234 15.0944 61.2298 15.9836 61.4429C16.8729 61.6561 17.8081 61.5635 18.6383 61.1802C19.4686 60.7969 20.1455 60.1451 20.5601 59.33H21.5601C23.6075 59.33 25.5711 58.5167 27.0189 57.0689C28.4667 55.6211 29.2801 53.6575 29.2801 51.61V49.28H34.1801V54.54C33.366 54.9555 32.7154 55.6328 32.3331 56.4631C31.9509 57.2933 31.8592 58.228 32.0728 59.1166C32.2864 60.0053 32.793 60.7962 33.5108 61.3619C34.2287 61.9276 35.1161 62.2353 36.0301 62.2353C36.944 62.2353 37.8314 61.9276 38.5493 61.3619C39.2671 60.7962 39.7737 60.0053 39.9873 59.1166C40.201 58.228 40.1093 57.2933 39.727 56.4631C39.3447 55.6328 38.6942 54.9555 37.8801 54.54V49.28H42.7801V51.64C42.7801 53.6875 43.5934 55.6511 45.0412 57.0989C46.489 58.5467 48.4526 59.36 50.5001 59.36H51.5001C51.8312 60.0062 52.3296 60.5518 52.9432 60.9399C53.5569 61.3279 54.2635 61.5444 54.9892 61.5665C55.715 61.5887 56.4334 61.4159 57.0696 61.066C57.7059 60.7161 58.2366 60.202 58.6066 59.5773C58.9766 58.9525 59.1723 58.24 59.1733 57.5139C59.1742 56.7878 58.9805 56.0747 58.6121 55.449C58.2438 54.8232 57.7144 54.3077 57.0791 53.9561C56.4438 53.6045 55.7259 53.4298 55.0001 53.45ZM14.3101 37.06C14.3129 35.8815 14.6293 34.7251 15.2268 33.7093C15.8243 32.6935 16.6814 31.8551 17.7101 31.28C18.1557 31.032 18.4965 30.631 18.6693 30.1512C18.8421 29.6714 18.8353 29.1452 18.6501 28.67C18.3246 27.8543 18.2042 26.9713 18.2993 26.0982C18.3945 25.2252 18.7023 24.3888 19.1958 23.6624C19.6893 22.936 20.3534 22.3416 21.13 21.9315C21.9065 21.5214 22.7718 21.308 23.6501 21.31C24.2535 21.3107 24.8523 21.4155 25.4201 21.62C25.9166 21.7893 26.4582 21.7686 26.9403 21.5617C27.4224 21.3548 27.8107 20.9766 28.0301 20.5C29.0706 18.2149 30.8557 16.3505 33.0936 15.2118C35.3314 14.073 37.8894 13.7274 40.3492 14.2315C42.809 14.7355 45.0249 16.0593 46.6345 17.9864C48.2441 19.9135 49.1522 22.3298 49.2101 24.84C49.2203 25.2983 49.3789 25.7409 49.6619 26.1015C49.945 26.4621 50.3373 26.7212 50.7801 26.84C52.9625 27.4094 54.8621 28.7557 56.1223 30.6263C57.3825 32.4969 57.9166 34.7631 57.6245 36.9995C57.3323 39.236 56.234 41.2889 54.5356 42.773C52.8372 44.2571 50.6555 45.0704 48.4001 45.06H22.3201C21.2686 45.0613 20.2273 44.8554 19.2555 44.4539C18.2838 44.0525 17.4007 43.4634 16.6567 42.7204C15.9128 41.9774 15.3226 41.0951 14.92 40.1238C14.5173 39.1525 14.3101 38.1114 14.3101 37.06Z" fill="black"/>
</svg>
