<svg width="72" height="72" viewBox="0 0 72 72" fill="none" xmlns="http://www.w3.org/2000/svg">
<path fill-rule="evenodd" clip-rule="evenodd" d="M26.55 55.07H19.82C18.3401 55.07 16.9208 54.4821 15.8743 53.4356C14.8279 52.3892 14.24 50.9699 14.24 49.49V27.6H54.53V31.14C54.53 31.6704 54.7407 32.1791 55.1158 32.5542C55.4908 32.9293 55.9996 33.14 56.53 33.14C57.0604 33.14 57.5691 32.9293 57.9442 32.5542C58.3193 32.1791 58.53 31.6704 58.53 31.14V22.4C58.5274 19.8686 57.5241 17.441 55.7389 15.6464C53.9536 13.8518 51.5313 12.8358 49 12.82H47.8V10.29C47.8 9.75955 47.5893 9.25084 47.2142 8.87576C46.8391 8.50069 46.3304 8.28998 45.8 8.28998C45.2696 8.28998 44.7609 8.50069 44.3858 8.87576C44.0107 9.25084 43.8 9.75955 43.8 10.29V12.82H24.25V10.29C24.25 9.75955 24.0393 9.25084 23.6642 8.87576C23.2891 8.50069 22.7804 8.28998 22.25 8.28998C21.7196 8.28998 21.2108 8.50069 20.8358 8.87576C20.4607 9.25084 20.25 9.75955 20.25 10.29V12.82H19.82C17.28 12.8226 14.8449 13.8328 13.0488 15.6288C11.2528 17.4248 10.2426 19.86 10.24 22.4V49.49C10.2426 52.0299 11.2528 54.4651 13.0488 56.2611C14.8449 58.0572 17.28 59.0673 19.82 59.07H26.55C27.0804 59.07 27.5891 58.8593 27.9642 58.4842C28.3393 58.1091 28.55 57.6004 28.55 57.07C28.55 56.5395 28.3393 56.0308 27.9642 55.6558C27.5891 55.2807 27.0804 55.07 26.55 55.07ZM19.82 16.82H20.25V19.34C20.25 19.8704 20.4607 20.3791 20.8358 20.7542C21.2108 21.1293 21.7196 21.34 22.25 21.34C22.7804 21.34 23.2891 21.1293 23.6642 20.7542C24.0393 20.3791 24.25 19.8704 24.25 19.34V16.82H43.75V19.34C43.75 19.8704 43.9607 20.3791 44.3358 20.7542C44.7108 21.1293 45.2196 21.34 45.75 21.34C46.2804 21.34 46.7891 21.1293 47.1642 20.7542C47.5393 20.3791 47.75 19.8704 47.75 19.34V16.82H49C50.4799 16.82 51.8992 17.4079 52.9456 18.4543C53.9921 19.5008 54.58 20.9201 54.58 22.4V23.6H14.24V22.4C14.24 20.9201 14.8279 19.5008 15.8743 18.4543C16.9208 17.4079 18.3401 16.82 19.82 16.82ZM45.75 31.93C42.6305 31.928 39.5806 32.8512 36.9859 34.5829C34.3912 36.3145 32.3684 38.7767 31.1733 41.6581C29.9781 44.5396 29.6644 47.7107 30.2718 50.7704C30.8791 53.8302 32.3803 56.6411 34.5854 58.8475C36.7904 61.054 39.6004 62.5569 42.6597 63.1662C45.7191 63.7755 48.8904 63.4638 51.7726 62.2705C54.6548 61.0772 57.1183 59.056 58.8516 56.4624C60.5848 53.8688 61.51 50.8194 61.51 47.7C61.5073 43.5201 59.8464 39.512 56.8917 36.5554C53.937 33.5988 49.9299 31.9353 45.75 31.93ZM45.75 59.93C43.3207 59.9339 40.9448 59.2167 38.9235 57.8691C36.9023 56.5214 35.3265 54.6041 34.3959 52.3601C33.4654 50.1161 33.2219 47.6463 33.6963 45.2638C34.1707 42.8812 35.3417 40.6931 37.0609 38.9767C38.7801 37.2603 40.9701 36.0929 43.3535 35.6224C45.7368 35.1518 48.2062 35.3994 50.4487 36.3336C52.6912 37.2678 54.6059 38.8467 55.9502 40.8702C57.2945 42.8937 58.0079 45.2707 58 47.7C58.0053 50.9551 56.718 54.0792 54.4209 56.3856C52.1239 58.692 49.0051 59.992 45.75 60V59.93ZM47.11 41.9V47.76L50.22 50.87C50.4059 51.0558 50.5535 51.2763 50.6541 51.5191C50.7547 51.7619 50.8066 52.0222 50.8066 52.285C50.8066 52.5479 50.7547 52.8081 50.6541 53.0509C50.5535 53.2937 50.4059 53.5143 50.22 53.7C50.0342 53.886 49.8137 54.0335 49.5709 54.1341C49.3281 54.2348 49.0678 54.2866 48.805 54.2866C48.5422 54.2866 48.2819 54.2348 48.0391 54.1341C47.7963 54.0335 47.5757 53.886 47.39 53.7L43.7 50C43.3244 49.6267 43.1122 49.1196 43.11 48.59V41.9C43.11 41.3696 43.3207 40.8609 43.6958 40.4858C44.0708 40.1107 44.5796 39.9 45.11 39.9C45.6404 39.9 46.1491 40.1107 46.5242 40.4858C46.8993 40.8609 47.11 41.3696 47.11 41.9Z" fill="black"/>
</svg>
