<svg width="72" height="72" viewBox="0 0 72 72" fill="none" xmlns="http://www.w3.org/2000/svg">
<path d="M57 15.51H15C13.5616 15.5127 12.183 16.0859 11.1668 17.104C10.1507 18.122 9.57995 19.5016 9.57996 20.94V51.06C9.57995 52.4984 10.1507 53.878 11.1668 54.8961C12.183 55.9141 13.5616 56.4874 15 56.49H57C58.4393 56.4874 59.8189 55.9144 60.8366 54.8967C61.8544 53.8789 62.4273 52.4993 62.43 51.06V20.94C62.4273 19.5007 61.8544 18.1211 60.8366 17.1033C59.8189 16.0856 58.4393 15.5127 57 15.51ZM51.81 20.51L37.73 33C37.1397 33.4939 36.3946 33.7646 35.625 33.7646C34.8553 33.7646 34.1102 33.4939 33.52 33L19.47 20.51H51.81ZM57 51.51H15C14.9439 51.51 14.8885 51.4988 14.8369 51.4771C14.7853 51.4554 14.7385 51.4235 14.6994 51.3835C14.6602 51.3434 14.6295 51.2959 14.609 51.2438C14.5885 51.1917 14.5786 51.136 14.58 51.08V22.88L30.19 36.76C31.6963 38.0686 33.6246 38.7891 35.62 38.7891C37.6153 38.7891 39.5436 38.0686 41.05 36.76L57.39 22.2V51.06C57.3904 51.1675 57.3507 51.2712 57.2785 51.3508C57.2063 51.4303 57.1069 51.48 57 51.49V51.51Z" fill="black"/>
</svg>
