<svg width="72" height="72" viewBox="0 0 72 72" fill="none" xmlns="http://www.w3.org/2000/svg">
<path fill-rule="evenodd" clip-rule="evenodd" d="M59.1119 12.7504C59.5708 13.2205 59.8253 13.853 59.8199 14.51C59.8247 14.5498 59.8247 14.5901 59.8199 14.63C59.8255 14.6731 59.8255 14.7168 59.8199 14.76V29.38C59.8199 30.043 59.5565 30.6789 59.0877 31.1477C58.6189 31.6166 57.983 31.88 57.3199 31.88C56.6569 31.88 56.021 31.6166 55.5522 31.1477C55.0833 30.6789 54.8199 30.043 54.8199 29.38V20.21L36.1899 38.91C35.9602 39.143 35.6861 39.3277 35.3838 39.4531C35.0815 39.5784 34.7572 39.642 34.4299 39.6399C33.9369 39.6389 33.4552 39.492 33.0453 39.2179C32.6355 38.9437 32.316 38.5545 32.1268 38.0992C31.9376 37.6439 31.8873 37.1428 31.9821 36.6589C32.077 36.1751 32.3128 35.7301 32.6599 35.38L51.1599 16.88L42.1599 16.7C41.4969 16.7 40.861 16.4366 40.3922 15.9677C39.9233 15.4989 39.6599 14.863 39.6599 14.2C39.6599 13.5369 39.9233 12.901 40.3922 12.4322C40.861 11.9633 41.4969 11.7 42.1599 11.7L57.3699 12C58.0268 12.0105 58.653 12.2802 59.1119 12.7504ZM54.1557 40.2457C54.5308 39.8707 55.0395 39.6599 55.5699 39.6599C56.1004 39.6599 56.6091 39.8707 56.9841 40.2457C57.3592 40.6208 57.5699 41.1295 57.5699 41.6599V54.9999C57.5673 56.2907 57.0534 57.5279 56.1406 58.4406C55.2279 59.3534 53.9907 59.8673 52.6999 59.8699H17.5499C16.2591 59.8673 15.022 59.3534 14.1092 58.4406C13.1965 57.5279 12.6826 56.2907 12.6799 54.9999V19.8099C12.6826 18.5191 13.1965 17.282 14.1092 16.3693C15.022 15.4565 16.2591 14.9426 17.5499 14.9399H32.3699C32.9004 14.9399 33.4091 15.1507 33.7841 15.5257C34.1592 15.9008 34.3699 16.4095 34.3699 16.9399C34.3699 17.4704 34.1592 17.9791 33.7841 18.3542C33.4091 18.7292 32.9004 18.9399 32.3699 18.9399H17.5499C17.3192 18.9399 17.0979 19.0316 16.9347 19.1948C16.7716 19.3579 16.6799 19.5792 16.6799 19.8099V54.9999C16.6799 55.2307 16.7716 55.452 16.9347 55.6151C17.0979 55.7783 17.3192 55.8699 17.5499 55.8699H52.6999C52.9307 55.8699 53.152 55.7783 53.3151 55.6151C53.4783 55.452 53.5699 55.2307 53.5699 54.9999V41.6599C53.5699 41.1295 53.7806 40.6208 54.1557 40.2457Z" fill="black"/>
</svg>
