<svg width="72" height="72" viewBox="0 0 72 72" fill="none" xmlns="http://www.w3.org/2000/svg">
<path fill-rule="evenodd" clip-rule="evenodd" d="M61.69 35.61V35.81C61.69 35.84 61.66 35.8675 61.63 35.895C61.6 35.9225 61.57 35.95 61.57 35.98V36.17V36.36C61.5757 36.4232 61.5757 36.4868 61.57 36.55C61.5545 36.6114 61.5345 36.6716 61.51 36.73L61.42 36.92V37C61 37.74 50.8 54.6 35.95 54.6C21.6664 54.6 11.0245 37.8087 10.5516 37.0625L10.55 37.06C10.5517 37.0234 10.5517 36.9867 10.55 36.95L10.45 36.75L10.39 36.57C10.3687 36.5114 10.352 36.4512 10.34 36.39C10.3351 36.3234 10.3351 36.2566 10.34 36.19C10.3133 36.0648 10.3133 35.9353 10.34 35.81C10.3351 35.7468 10.3351 35.6833 10.34 35.62C10.3507 35.5553 10.3674 35.4917 10.39 35.43L10.45 35.25L10.54 35.06C10.564 35.0221 10.5841 34.9819 10.6 34.94L10.6016 34.9375C11.0745 34.1913 21.7164 17.4 36 17.4C49.8926 17.4 59.732 32.2561 61.3329 34.6732C61.4375 34.8311 61.5069 34.9359 61.54 34.98C61.5454 35.0064 61.5454 35.0336 61.54 35.06L61.63 35.25C61.6545 35.3084 61.6745 35.3686 61.69 35.43C61.6945 35.4899 61.6945 35.5501 61.69 35.61ZM14.71 36C17.18 39.52 25.79 50.6 36 50.6C46.65 50.6 55 39.47 57.32 36C55 32.53 46.62 21.4 36 21.4C25.77 21.4 17.18 32.48 14.71 36ZM41.9623 34.1016C42.4119 33.766 42.7859 33.3396 43.06 32.85C43.164 32.6945 43.3096 32.5713 43.4801 32.4943C43.6507 32.4174 43.8394 32.3899 44.0248 32.4149C44.2103 32.4399 44.3849 32.5164 44.529 32.6358C44.6731 32.7551 44.7809 32.9125 44.84 33.09C45.2339 34.3535 45.3566 35.6859 45.2 37C44.8795 39.3927 43.6383 41.566 41.7403 43.0577C39.8423 44.5495 37.4373 45.242 35.0366 44.988C32.636 44.734 30.4291 43.5535 28.8853 41.6976C27.3415 39.8417 26.5826 37.4568 26.77 35.05C26.9433 33.4459 27.5252 31.9132 28.4602 30.5983C29.3951 29.2834 30.6518 28.2304 32.11 27.54C33.256 26.9716 34.5113 26.6577 35.79 26.62C35.9792 26.6194 36.1648 26.6724 36.325 26.773C36.4853 26.8736 36.6137 27.0176 36.6954 27.1883C36.7771 27.359 36.8087 27.5494 36.7865 27.7373C36.7643 27.9253 36.6892 28.103 36.57 28.25C36.1988 28.6708 35.9203 29.1649 35.7526 29.7003C35.5849 30.2357 35.5316 30.8004 35.5964 31.3578C35.6612 31.9151 35.8424 32.4526 36.1285 32.9353C36.4145 33.4179 36.7989 33.8351 37.2566 34.1595C37.7144 34.484 38.2353 34.7085 38.7854 34.8185C39.3356 34.9285 39.9028 34.9215 40.4501 34.798C40.9974 34.6745 41.5126 34.4372 41.9623 34.1016Z" fill="black"/>
</svg>
