<svg width="72" height="72" viewBox="0 0 72 72" fill="none" xmlns="http://www.w3.org/2000/svg">
<path d="M61.62 24.3901C61.4114 24.2293 61.1731 24.1114 60.9188 24.0429C60.6645 23.9745 60.3992 23.957 60.1381 23.9914C59.877 24.0258 59.6253 24.1114 59.3974 24.2433C59.1695 24.3752 58.9698 24.5508 58.81 24.7601C58.72 24.8701 49.61 36.4601 36.04 36.4601C22.04 36.4601 13.34 24.9601 13.22 24.8001C13.0725 24.5701 12.8796 24.3728 12.653 24.2204C12.4264 24.0679 12.1709 23.9634 11.9024 23.9134C11.6339 23.8634 11.358 23.869 11.0917 23.9297C10.8254 23.9904 10.5744 24.105 10.3541 24.2665C10.1338 24.428 9.9489 24.6328 9.81081 24.8685C9.67272 25.1041 9.58437 25.3656 9.55119 25.6367C9.51801 25.9078 9.54071 26.1828 9.6179 26.4448C9.69508 26.7068 9.82511 26.9502 9.99997 27.1601C12.4713 30.2981 15.4488 33.0019 18.81 35.1601L14.55 39.4101C14.0846 39.8816 13.8237 40.5175 13.8237 41.1801C13.8237 41.8426 14.0846 42.4785 14.55 42.9501C15.0203 43.4178 15.6566 43.6804 16.32 43.6804C16.9833 43.6804 17.6197 43.4178 18.09 42.9501L23.38 37.6601C26.5748 39.1285 29.9977 40.0384 33.5 40.3501V45.5201C33.5 46.1831 33.7634 46.819 34.2322 47.2878C34.701 47.7567 35.3369 48.0201 36 48.0201C36.663 48.0201 37.2989 47.7567 37.7677 47.2878C38.2366 46.819 38.5 46.1831 38.5 45.5201V40.3501C41.9883 40.0303 45.3951 39.1101 48.57 37.6301L53.92 43.0001C54.3903 43.4678 55.0266 43.7304 55.69 43.7304C56.3533 43.7304 56.9897 43.4678 57.46 43.0001C57.9253 42.5285 58.1862 41.8926 58.1862 41.2301C58.1862 40.5675 57.9253 39.9316 57.46 39.4601L53.12 35.1301C56.474 32.9642 59.47 30.2887 62 27.2001C62.1602 26.9909 62.2775 26.7521 62.3451 26.4974C62.4127 26.2427 62.4293 25.9772 62.394 25.7161C62.3587 25.455 62.2722 25.2034 62.1393 24.9758C62.0065 24.7483 61.83 24.5492 61.62 24.3901Z" fill="black"/>
</svg>
