<svg width="72" height="72" viewBox="0 0 72 72" fill="none" xmlns="http://www.w3.org/2000/svg">
<path d="M57.6399 25.19C57.6444 25.1468 57.6444 25.1032 57.6399 25.06C57.6119 24.8962 57.5683 24.7355 57.5099 24.58C57.4398 24.4388 57.3561 24.3049 57.2599 24.18C57.2599 24.18 57.2599 24.18 57.2599 24.13L46.7499 11.84C46.6291 11.6993 46.4874 11.5779 46.3299 11.48H46.2699C46.1314 11.3923 45.9793 11.3281 45.8199 11.29H45.7299C45.5797 11.2504 45.4252 11.2303 45.2699 11.23H19.9999C18.512 11.23 17.0851 11.821 16.033 12.8731C14.9809 13.9252 14.3899 15.3521 14.3899 16.84V55.34C14.4135 56.8122 15.015 58.2161 16.0645 59.2488C17.114 60.2815 18.5275 60.8602 19.9999 60.86H52.0999C53.5878 60.86 55.0147 60.2689 56.0668 59.2169C57.1188 58.1648 57.7099 56.7378 57.7099 55.25V25.37C57.6919 25.308 57.6685 25.2478 57.6399 25.19ZM48.0699 23.19C47.893 23.1874 47.7241 23.116 47.599 22.9909C47.4739 22.8658 47.4025 22.6969 47.3999 22.52L47.3299 18.67L51.2399 23.26L48.0699 23.19ZM53.6599 55.19C53.6599 55.617 53.4903 56.0265 53.1883 56.3284C52.8864 56.6304 52.4769 56.8 52.0499 56.8H19.9999C19.5729 56.8 19.1634 56.6304 18.8615 56.3284C18.5595 56.0265 18.3899 55.617 18.3899 55.19V16.75C18.3899 16.323 18.5595 15.9135 18.8615 15.6115C19.1634 15.3096 19.5729 15.14 19.9999 15.14H43.2599L43.3999 22.62C43.4231 23.8309 43.9158 24.9854 44.774 25.8399C45.6323 26.6944 46.7889 27.1821 47.9999 27.2L53.6799 27.33L53.6599 55.19Z" fill="black"/>
</svg>
