<svg width="72" height="72" viewBox="0 0 72 72" fill="none" xmlns="http://www.w3.org/2000/svg">
<path fill-rule="evenodd" clip-rule="evenodd" d="M57.6401 25.06C57.6447 25.1032 57.6447 25.1468 57.6401 25.19C57.6687 25.2478 57.6921 25.3081 57.7101 25.37V55.25C57.7101 56.7379 57.1191 58.1648 56.067 59.2169C55.0149 60.2689 53.588 60.86 52.1001 60.86H20.0001C18.5294 60.8602 17.1175 60.2829 16.0682 59.2524C15.019 58.2218 14.4164 56.8205 14.3901 55.35V16.85C14.3901 15.3621 14.9812 13.9352 16.0333 12.8831C17.0853 11.831 18.5123 11.24 20.0001 11.24H45.2701C45.4222 11.2395 45.5735 11.2597 45.7201 11.3C45.7532 11.2942 45.7871 11.2942 45.8201 11.3C45.9777 11.3391 46.1291 11.3996 46.2701 11.48H46.3301C46.4877 11.5779 46.6293 11.6993 46.7501 11.84L57.2601 24.13V24.18C57.3585 24.3033 57.4424 24.4375 57.5101 24.58C57.5686 24.7355 57.6121 24.8962 57.6401 25.06ZM47.5992 22.9909C47.7243 23.116 47.8932 23.1874 48.0701 23.19L51.2401 23.26L47.3301 18.67L47.4001 22.52C47.4027 22.6969 47.4741 22.8658 47.5992 22.9909ZM53.1886 56.3284C53.4905 56.0265 53.6601 55.617 53.6601 55.19L53.6801 27.33L48.0001 27.2C46.7892 27.1821 45.6325 26.6944 44.7743 25.8399C43.9161 24.9854 43.4233 23.8309 43.4001 22.62L43.2601 15.14H20.0001C19.5731 15.14 19.1636 15.3096 18.8617 15.6116C18.5598 15.9135 18.3901 16.323 18.3901 16.75V55.19C18.3901 55.617 18.5598 56.0265 18.8617 56.3284C19.1636 56.6304 19.5731 56.8 20.0001 56.8H52.0501C52.4771 56.8 52.8866 56.6304 53.1886 56.3284ZM35.3801 31H24.5901C24.0597 31 23.551 30.7893 23.1759 30.4142C22.8009 30.0391 22.5901 29.5304 22.5901 29C22.5901 28.4696 22.8009 27.9609 23.1759 27.5858C23.551 27.2107 24.0597 27 24.5901 27H35.3801C35.9106 27 36.4193 27.2107 36.7944 27.5858C37.1694 27.9609 37.3801 28.4696 37.3801 29C37.3801 29.5304 37.1694 30.0391 36.7944 30.4142C36.4193 30.7893 35.9106 31 35.3801 31ZM46.3102 36.3H24.5901C24.0597 36.3 23.551 36.5108 23.1759 36.8858C22.8009 37.2609 22.5901 37.7696 22.5901 38.3C22.5901 38.8305 22.8009 39.3392 23.1759 39.7143C23.551 40.0893 24.0597 40.3 24.5901 40.3H46.3102C46.8406 40.3 47.3493 40.0893 47.7244 39.7143C48.0994 39.3392 48.3102 38.8305 48.3102 38.3C48.3102 37.7696 48.0994 37.2609 47.7244 36.8858C47.3493 36.5108 46.8406 36.3 46.3102 36.3ZM24.5901 45.5699H46.3102C46.8406 45.5699 47.3493 45.7807 47.7244 46.1557C48.0994 46.5308 48.3102 47.0395 48.3102 47.5699C48.3102 48.1004 48.0994 48.6091 47.7244 48.9842C47.3493 49.3592 46.8406 49.5699 46.3102 49.5699H24.5901C24.0597 49.5699 23.551 49.3592 23.1759 48.9842C22.8009 48.6091 22.5901 48.1004 22.5901 47.5699C22.5901 47.0395 22.8009 46.5308 23.1759 46.1557C23.551 45.7807 24.0597 45.5699 24.5901 45.5699Z" fill="black"/>
</svg>
