<svg width="72" height="72" viewBox="0 0 72 72" fill="none" xmlns="http://www.w3.org/2000/svg">
<path fill-rule="evenodd" clip-rule="evenodd" d="M58.08 25.19V25.06C58.0568 24.8952 58.0132 24.734 57.95 24.58C57.8823 24.4375 57.7984 24.3033 57.7 24.18V24.13L47.18 11.84C47.0575 11.7077 46.9199 11.5902 46.77 11.49H46.7C46.5617 11.4113 46.4138 11.3508 46.26 11.31H46.16C46.01 11.2698 45.8553 11.2496 45.7 11.25H20.38C18.8922 11.25 17.4652 11.8411 16.4132 12.8931C15.3611 13.9452 14.77 15.3721 14.77 16.86V55.36C14.77 56.8479 15.3611 58.2748 16.4132 59.3269C17.4652 60.379 18.8922 60.97 20.38 60.97H52.48C53.9679 60.97 55.3948 60.379 56.4469 59.3269C57.499 58.2748 58.09 56.8479 58.09 55.36V25.37C58.09 25.3401 58.0875 25.3101 58.085 25.2801L58.085 25.28C58.0825 25.25 58.08 25.22 58.08 25.19ZM48.5 23.19C48.3241 23.1874 48.1562 23.1156 48.0327 22.9903C47.9092 22.8649 47.84 22.696 47.84 22.52L47.76 18.67L51.68 23.26L48.5 23.19ZM54.09 55.19C54.09 55.617 53.9204 56.0265 53.6185 56.3284C53.3165 56.6304 52.907 56.8 52.48 56.8H20.38C19.953 56.8 19.5435 56.6304 19.2416 56.3284C18.9396 56.0265 18.77 55.617 18.77 55.19V16.75C18.77 16.323 18.9396 15.9135 19.2416 15.6116C19.5435 15.3096 19.953 15.14 20.38 15.14H43.7L43.84 22.62C43.858 23.8274 44.345 24.9804 45.1979 25.8351C46.0508 26.6899 47.2027 27.1794 48.41 27.2L54.09 27.33V55.19ZM31.42 32.65C31.1814 32.638 30.9429 32.6734 30.718 32.754C30.4932 32.8347 30.2866 32.9591 30.11 33.12C29.9478 33.2858 29.8215 33.4833 29.7389 33.7C29.6563 33.9168 29.6193 34.1483 29.63 34.38V42.25C29.6586 42.6091 29.5516 42.9659 29.33 43.25C29.2221 43.3737 29.0881 43.472 28.9377 43.5377C28.7872 43.6034 28.6241 43.6349 28.46 43.63H27.8C27.435 43.6301 27.0814 43.7574 26.8 43.99C26.6835 44.1274 26.5953 44.2865 26.5404 44.4581C26.4855 44.6297 26.465 44.8104 26.48 44.99C26.48 45.99 27.18 46.48 28.59 46.42H29.21C30.3262 46.4159 31.3989 45.9868 32.21 45.22C32.9196 44.3874 33.2781 43.3118 33.21 42.22V34.38C33.2213 34.1473 33.1835 33.9149 33.0991 33.6978C33.0147 33.4808 32.8855 33.2839 32.72 33.12C32.5453 32.9594 32.3404 32.8351 32.1172 32.7544C31.894 32.6737 31.657 32.6382 31.42 32.65ZM41.58 38.12C42.5889 38.3271 43.567 38.6632 44.49 39.12C45.1025 39.4168 45.624 39.8727 46 40.44C46.3177 40.9929 46.4768 41.6226 46.46 42.26C46.4723 43.0669 46.2233 43.8562 45.75 44.51C45.2303 45.1807 44.5394 45.6988 43.75 46.01C42.7942 46.3809 41.775 46.5609 40.75 46.54C39.7896 46.5445 38.8324 46.4303 37.9 46.2C37.1288 46.0166 36.3947 45.702 35.73 45.27C35.5393 45.1307 35.3793 44.9537 35.26 44.75C35.1515 44.5331 35.0999 44.2923 35.11 44.05C35.1065 43.686 35.2303 43.3323 35.46 43.05C35.552 42.9207 35.6735 42.8152 35.8143 42.7422C35.9552 42.6692 36.1114 42.6307 36.27 42.63C36.4333 42.6305 36.5954 42.6575 36.75 42.71C36.9548 42.7819 37.1497 42.8793 37.33 43C37.8296 43.258 38.3608 43.4497 38.91 43.57C39.4867 43.705 40.0778 43.7688 40.67 43.76C41.2618 43.7937 41.8527 43.6803 42.39 43.43C42.5718 43.3349 42.7234 43.1909 42.8277 43.0142C42.932 42.8375 42.9847 42.6351 42.98 42.43C42.9643 42.2671 42.9049 42.1114 42.8081 41.9794C42.7113 41.8474 42.5807 41.744 42.43 41.68C41.7672 41.3706 41.0633 41.1585 40.34 41.05C39.301 40.8476 38.2927 40.5114 37.34 40.05C36.7206 39.7638 36.1964 39.3056 35.83 38.73C35.5246 38.1658 35.3729 37.5313 35.39 36.89C35.3864 36.0874 35.6425 35.3051 36.12 34.66C36.6356 33.9684 37.3258 33.4266 38.12 33.09C39.0258 32.6999 40.0039 32.5057 40.99 32.52C41.8338 32.5056 42.6753 32.61 43.49 32.83C44.2108 33.0418 44.8881 33.3804 45.49 33.83C45.6892 33.9698 45.8563 34.1505 45.98 34.36C46.0783 34.5764 46.1262 34.8123 46.12 35.05C46.1308 35.4134 46.01 35.7684 45.78 36.05C45.6911 36.1784 45.5733 36.2841 45.4361 36.3588C45.2989 36.4335 45.1461 36.475 44.99 36.48C44.8306 36.4827 44.6718 36.459 44.52 36.41C44.3109 36.3367 44.1125 36.2358 43.93 36.11L43.38 35.81C43.0421 35.6438 42.6865 35.5163 42.32 35.43C41.8874 35.3298 41.4441 35.2828 41 35.29C40.4665 35.2609 39.9348 35.3748 39.46 35.62C39.2811 35.7185 39.132 35.8633 39.0282 36.0392C38.9244 36.2152 38.8698 36.4157 38.87 36.62C38.8608 36.8395 38.936 37.0541 39.08 37.22C39.3088 37.4238 39.578 37.5772 39.87 37.67C40.4264 37.8677 40.9984 38.0182 41.58 38.12Z" fill="black"/>
</svg>
