<svg width="72" height="72" viewBox="0 0 72 72" fill="none" xmlns="http://www.w3.org/2000/svg">
<path fill-rule="evenodd" clip-rule="evenodd" d="M57.6399 25.19C57.6444 25.1468 57.6444 25.1032 57.6399 25.06C57.6119 24.8962 57.5683 24.7355 57.5099 24.58C57.4422 24.4375 57.3583 24.3033 57.2599 24.18V24.13L46.7499 11.84C46.6303 11.7018 46.4924 11.5807 46.3399 11.48H46.2699C46.1316 11.4013 45.9837 11.3408 45.8299 11.3C45.7934 11.2955 45.7564 11.2955 45.7199 11.3C45.5733 11.2597 45.4219 11.2395 45.2699 11.24H19.9999C18.512 11.24 17.0851 11.831 16.033 12.8831C14.9809 13.9352 14.3899 15.3621 14.3899 16.85V55.35C14.4187 56.8196 15.0221 58.2195 16.0708 59.2495C17.1195 60.2795 18.53 60.8577 19.9999 60.86H52.0999C53.5869 60.8574 55.0123 60.2654 56.0638 59.2139C57.1153 58.1624 57.7072 56.737 57.7099 55.25V25.37C57.6919 25.3081 57.6685 25.2478 57.6399 25.19ZM48.0699 23.19C47.893 23.1874 47.7241 23.116 47.599 22.9909C47.4739 22.8658 47.4025 22.6969 47.3999 22.52L47.3299 18.67L51.2399 23.26L48.0699 23.19ZM53.6599 55.19C53.6599 55.617 53.4903 56.0265 53.1883 56.3284C52.8864 56.6304 52.4769 56.8 52.0499 56.8H19.9999C19.5729 56.8 19.1634 56.6304 18.8615 56.3284C18.5595 56.0265 18.3899 55.617 18.3899 55.19V16.75C18.3899 16.323 18.5595 15.9135 18.8615 15.6116C19.1634 15.3096 19.5729 15.14 19.9999 15.14H43.2599L43.3999 22.62C43.4231 23.8309 43.9158 24.9854 44.774 25.8399C45.6323 26.6944 46.7889 27.1821 47.9999 27.2L53.6799 27.33L53.6599 55.19ZM30.1999 37.13V34.49C30.1999 34.31 30.8199 33.75 31.9599 33.75C32.3577 33.75 32.7393 33.592 33.0206 33.3107C33.3019 33.0294 33.4599 32.6478 33.4599 32.25C33.4599 31.8522 33.3019 31.4706 33.0206 31.1893C32.7393 30.908 32.3577 30.75 31.9599 30.75C29.2899 30.75 27.1999 32.39 27.1999 34.49V37.13C27.1999 37.32 26.5699 37.87 25.4399 37.87C25.0421 37.87 24.6605 38.028 24.3792 38.3093C24.0979 38.5906 23.9399 38.9722 23.9399 39.37C23.9399 39.7678 24.0979 40.1494 24.3792 40.4307C24.6605 40.712 25.0421 40.87 25.4399 40.87C26.5699 40.87 27.1999 41.42 27.1999 41.6V44.25C27.1999 46.34 29.2899 48 31.9999 48C32.3977 48 32.7793 47.842 33.0606 47.5607C33.3419 47.2794 33.4999 46.8978 33.4999 46.5C33.4999 46.1022 33.3419 45.7206 33.0606 45.4393C32.7793 45.158 32.3977 45 31.9999 45C30.8599 45 30.2399 44.45 30.2399 44.27V41.6C30.2233 40.7638 29.8869 39.9658 29.2999 39.37C29.8746 38.7654 30.1966 37.9641 30.1999 37.13ZM44.7999 37.13C44.7999 37.32 45.4299 37.87 46.5599 37.87C46.9577 37.87 47.3393 38.028 47.6206 38.3093C47.9019 38.5906 48.0599 38.9722 48.0599 39.37C48.0599 39.7678 47.9019 40.1494 47.6206 40.4307C47.3393 40.712 46.9577 40.87 46.5599 40.87C45.4299 40.87 44.7999 41.42 44.7999 41.6V44.25C44.7999 46.34 42.7099 47.98 40.0399 47.98C39.6421 47.98 39.2605 47.822 38.9792 47.5407C38.6979 47.2594 38.5399 46.8778 38.5399 46.48C38.5399 46.0822 38.6979 45.7006 38.9792 45.4193C39.2605 45.138 39.6421 44.98 40.0399 44.98C41.1799 44.98 41.7999 44.43 41.7999 44.25V41.6C41.8165 40.7638 42.1529 39.9658 42.7399 39.37C42.1506 38.7717 41.814 37.9697 41.7999 37.13V34.49C41.7999 34.31 41.1799 33.75 40.0399 33.75C39.6421 33.75 39.2605 33.592 38.9792 33.3107C38.6979 33.0294 38.5399 32.6478 38.5399 32.25C38.5399 31.8522 38.6979 31.4706 38.9792 31.1893C39.2605 30.908 39.6421 30.75 40.0399 30.75C42.7099 30.75 44.7999 32.39 44.7999 34.49V37.13Z" fill="black"/>
</svg>
