<svg width="72" height="72" viewBox="0 0 72 72" fill="none" xmlns="http://www.w3.org/2000/svg">
<path d="M61.29 27.54C61.3742 27.3472 61.4379 27.1461 61.48 26.94C61.485 26.8968 61.485 26.8532 61.48 26.81C61.4853 26.7067 61.4853 26.6033 61.48 26.5V20.14C61.48 18.9465 61.0059 17.8019 60.162 16.958C59.3181 16.1141 58.1735 15.64 56.98 15.64H15C13.8065 15.64 12.6619 16.1141 11.818 16.958C10.9741 17.8019 10.5 18.9465 10.5 20.14V26.5C10.5 26.62 10.5 26.73 10.5 26.85C10.5049 26.8865 10.5049 26.9235 10.5 26.96C10.5409 27.1677 10.6081 27.3693 10.7 27.56C10.7 27.56 10.7 27.64 10.77 27.69C10.8615 27.8589 10.9722 28.0166 11.1 28.16C11.1 28.16 11.1 28.16 11.1 28.21L29.05 47.15V51.86C29.05 53.0535 29.5241 54.1981 30.368 55.042C31.2119 55.8859 32.3565 56.36 33.55 56.36H38.83C40.0235 56.36 41.1681 55.8859 42.012 55.042C42.8559 54.1981 43.33 53.0535 43.33 51.86V47.3L60.86 28.19V28.12C60.9814 27.9796 61.0854 27.8252 61.17 27.66C61.2144 27.6247 61.2547 27.5844 61.29 27.54ZM15.48 20.64H56.48V24H15.48V20.64ZM39.6 44C39.2148 44.2165 38.8942 44.5316 38.671 44.9129C38.4478 45.2943 38.3301 45.7282 38.33 46.17V51.38H34.05V46.15C34.0473 45.5127 33.8004 44.9007 33.36 44.44L18.78 29H53.34L39.6 44Z" fill="black"/>
</svg>
