<svg width="72" height="72" viewBox="0 0 72 72" fill="none" xmlns="http://www.w3.org/2000/svg">
<path d="M35.9999 59.19C35.5546 59.1908 35.1217 59.043 34.7699 58.77L32.4199 57C27.7793 53.5599 23.4068 49.7723 19.3399 45.67C17.0498 43.2143 14.9817 40.5606 13.1599 37.74C10.5533 34.032 9.47857 29.461 10.1599 24.98C10.6177 22.1878 11.8792 19.5895 13.7901 17.5028C15.701 15.4161 18.1785 13.9314 20.9197 13.2302C23.6609 12.529 26.547 12.6417 29.2251 13.5545C31.9033 14.4673 34.2575 16.1406 35.9999 18.37C37.7444 16.1436 40.0996 14.4735 42.7777 13.5637C45.4559 12.654 48.341 12.544 51.0807 13.2472C53.8203 13.9504 56.2958 15.4364 58.2048 17.5235C60.1137 19.6106 61.3734 22.2086 61.8299 25C62.5112 29.481 61.4365 34.052 58.8299 37.76C57.008 40.5806 54.94 43.2343 52.6499 45.69C48.5842 49.7876 44.2115 53.5686 39.5699 57L37.2299 58.82C36.8717 59.0752 36.4394 59.2052 35.9999 59.19ZM24.5399 16.8C23.811 16.7999 23.0839 16.8736 22.3699 17.02C20.276 17.4452 18.3623 18.501 16.8857 20.0454C15.4092 21.5898 14.4406 23.5491 14.1099 25.66C13.5889 29.1389 14.4464 32.6838 16.4999 35.54C18.1927 38.1638 20.1135 40.6334 22.2399 42.92C26.1679 46.8594 30.3938 50.4901 34.8799 53.78L35.9999 54.66L37.1099 53.79C41.5994 50.4968 45.8285 46.8627 49.7599 42.92C51.8863 40.6334 53.807 38.1638 55.4999 35.54C57.5534 32.6838 58.4109 29.1389 57.8899 25.66C57.5432 23.5234 56.5484 21.545 55.0401 19.9925C53.5318 18.4401 51.5829 17.3886 49.4572 16.9805C47.3316 16.5724 45.1318 16.8274 43.1558 17.7109C41.1799 18.5943 39.5231 20.0637 38.4099 21.92L38.1999 22.27C37.5599 23.36 37.1999 24.01 36.0699 24.05H35.9299C34.8199 24.05 34.4399 23.36 33.7999 22.27L33.5899 21.92C32.6595 20.3509 31.3346 19.0527 29.7469 18.1545C28.1592 17.2562 26.364 16.7893 24.5399 16.8Z" fill="black"/>
</svg>
