<svg width="72" height="72" viewBox="0 0 72 72" fill="none" xmlns="http://www.w3.org/2000/svg">
<path d="M60.4199 27.2801C59.7695 26.5114 58.9592 25.894 58.0455 25.4708C57.1318 25.0476 56.1368 24.829 55.1299 24.8301H47.9999C49.8099 17.7701 49.6699 13.2101 47.5999 10.6101C46.9727 9.83056 46.1563 9.22466 45.2285 8.85006C44.3008 8.47545 43.2926 8.34463 42.2999 8.47005C40.8859 8.53375 39.5437 9.11146 38.5255 10.0947C37.5073 11.078 36.883 12.3991 36.7699 13.8101C34.7699 22.3301 31.3299 27.3501 29.1199 29.8701C28.8498 29.2722 28.4124 28.7652 27.8606 28.4103C27.3087 28.0555 26.666 27.8678 26.0099 27.8701H13.3199C12.4173 27.8727 11.5525 28.2331 10.9151 28.8724C10.2778 29.5116 9.91992 30.3774 9.91992 31.2801V54.0601C9.91992 54.5065 10.0079 54.9487 10.1787 55.3612C10.3496 55.7737 10.6 56.1485 10.9158 56.4642C11.2315 56.7799 11.6063 57.0304 12.0188 57.2012C12.4313 57.3721 12.8734 57.4601 13.3199 57.4601H25.9999C26.7395 57.4611 27.4593 57.2218 28.0509 56.7781C28.6426 56.3343 29.0739 55.7103 29.2799 55.0001L29.6999 55.2501C32.2674 56.7905 35.2058 57.6029 38.1999 57.6001H51.4699C53.2896 57.5998 55.0492 56.9483 56.4303 55.7634C57.8114 54.5786 58.7229 52.9386 58.9999 51.1401L61.9999 32.9001C62.162 31.9048 62.1045 30.8861 61.8316 29.9153C61.5587 28.9445 61.0769 28.0451 60.4199 27.2801ZM25.4199 53.4601H13.9199V31.8301H25.4099L25.4199 53.4601ZM57.0499 32.1001L54.0499 50.3301C53.9519 50.9509 53.6348 51.5162 53.1561 51.9234C52.6773 52.3307 52.0685 52.553 51.4399 52.5501H38.1999C36.1085 52.5474 34.0564 51.9809 32.2599 50.9101L29.4099 49.2001V36.3101C31.4099 35.1501 38.4099 28.8501 41.6899 14.7501C41.7204 14.605 41.7404 14.458 41.7499 14.3101C41.8199 13.5101 42.3099 13.4801 42.6399 13.4601C43.3999 13.4101 43.5699 13.6201 43.6399 13.7201C43.7099 13.8201 45.3499 16.2801 42.3599 26.2901C42.183 26.6704 42.1051 27.0893 42.1334 27.5079C42.1616 27.9264 42.2952 28.331 42.5216 28.6842C42.7481 29.0373 43.0601 29.3275 43.4286 29.5278C43.7972 29.7282 44.2104 29.8321 44.6299 29.8301H55.1299C55.4101 29.8387 55.6854 29.9061 55.9379 30.028C56.1903 30.1499 56.4143 30.3235 56.5954 30.5375C56.7764 30.7516 56.9105 31.0013 56.9888 31.2705C57.0671 31.5397 57.0879 31.8223 57.0499 32.1001Z" fill="black"/>
</svg>
