<svg width="72" height="72" viewBox="0 0 72 72" fill="none" xmlns="http://www.w3.org/2000/svg">
<path fill-rule="evenodd" clip-rule="evenodd" d="M29.69 45.7999H24.34C21.7409 45.7999 19.2483 44.7675 17.4104 42.9296C15.5725 41.0917 14.54 38.5991 14.54 36C14.54 33.4008 15.5725 30.9082 17.4104 29.0703C19.2483 27.2324 21.7409 26.2 24.34 26.2H29.69C30.3531 26.2 30.989 25.9366 31.4578 25.4677C31.9266 24.9989 32.19 24.363 32.19 23.7C32.19 23.0369 31.9266 22.401 31.4578 21.9322C30.989 21.4633 30.3531 21.2 29.69 21.2H24.34C20.4148 21.2 16.6504 22.7592 13.8749 25.5348C11.0993 28.3103 9.54004 32.0747 9.54004 36C9.54004 39.9252 11.0993 43.6896 13.8749 46.4651C16.6504 49.2407 20.4148 50.7999 24.34 50.7999H29.69C30.3531 50.7999 30.989 50.5366 31.4578 50.0677C31.9266 49.5989 32.19 48.963 32.19 48.2999C32.19 47.6369 31.9266 47.001 31.4578 46.5322C30.989 46.0633 30.3531 45.7999 29.69 45.7999ZM47.6599 21.2H42.3199C41.6569 21.2 41.021 21.4633 40.5522 21.9322C40.0833 22.401 39.8199 23.0369 39.8199 23.7C39.8199 24.363 40.0833 24.9989 40.5522 25.4677C41.021 25.9366 41.6569 26.2 42.3199 26.2H47.6599C48.9469 26.2 50.2213 26.4534 51.4102 26.9459C52.5992 27.4384 53.6796 28.1603 54.5896 29.0703C55.4996 29.9803 56.2215 31.0607 56.714 32.2497C57.2065 33.4386 57.4599 34.713 57.4599 36C57.4599 37.2869 57.2065 38.5613 56.714 39.7502C56.2215 40.9392 55.4996 42.0196 54.5896 42.9296C53.6796 43.8396 52.5992 44.5615 51.4102 45.054C50.2213 45.5465 48.9469 45.7999 47.6599 45.7999H42.3199C41.6569 45.7999 41.021 46.0633 40.5522 46.5322C40.0833 47.001 39.8199 47.6369 39.8199 48.2999C39.8199 48.963 40.0833 49.5989 40.5522 50.0677C41.021 50.5366 41.6569 50.7999 42.3199 50.7999H47.6599C49.6035 50.7999 51.528 50.4171 53.3237 49.6734C55.1193 48.9296 56.7508 47.8394 58.1251 46.4651C59.4994 45.0908 60.5896 43.4593 61.3334 41.6637C62.0771 39.868 62.4599 37.9435 62.4599 36C62.4599 34.0564 62.0771 32.1319 61.3334 30.3362C60.5896 28.5406 59.4994 26.9091 58.1251 25.5348C56.7508 24.1605 55.1193 23.0703 53.3237 22.3265C51.528 21.5828 49.6035 21.2 47.6599 21.2ZM24.8923 37.7678C24.4234 37.2989 24.16 36.663 24.16 36C24.16 35.337 24.4234 34.7011 24.8923 34.2322C25.3611 33.7634 25.997 33.5 26.66 33.5H45.34C46.0031 33.5 46.639 33.7634 47.1078 34.2322C47.5766 34.7011 47.84 35.337 47.84 36C47.84 36.663 47.5766 37.2989 47.1078 37.7678C46.639 38.2366 46.0031 38.5 45.34 38.5H26.66C25.997 38.5 25.3611 38.2366 24.8923 37.7678Z" fill="black"/>
</svg>
