<svg width="72" height="72" viewBox="0 0 72 72" fill="none" xmlns="http://www.w3.org/2000/svg">
<path fill-rule="evenodd" clip-rule="evenodd" d="M20.524 17.1429C24.6319 13.0406 30.1946 10.7284 36 10.71C41.7984 10.7389 47.3509 13.0558 51.4501 17.1569C55.5493 21.258 57.8637 26.8116 57.89 32.61C58.0064 35.9568 57.2882 39.28 55.8 42.28C53 47.42 46.64 53.22 42 57.42C41.5778 57.8294 41.1557 58.2211 40.7576 58.5904C40.2127 59.096 39.7129 59.5597 39.32 59.97C38.4375 60.8158 37.2624 61.2881 36.04 61.2881C34.8176 61.2881 33.6424 60.8158 32.76 59.97C32.414 59.6468 32.0328 59.2987 31.6193 58.9211C31.1243 58.4691 30.5829 57.9748 30 57.43C25.33 53.22 19 47.46 16.16 42.28C14.6717 39.28 13.9535 35.9568 14.07 32.61C14.0963 26.8046 16.4162 21.2451 20.524 17.1429ZM39.32 54.46C43.53 50.67 49.83 44.95 52.32 40.37C53.4686 37.9507 54.001 35.2849 53.87 32.61C53.87 27.8546 51.9809 23.2941 48.6184 19.9315C45.2558 16.569 40.6953 14.68 35.94 14.68C31.1846 14.68 26.6241 16.569 23.2615 19.9315C19.899 23.2941 18.01 27.8546 18.01 32.61C17.8963 35.2868 18.4495 37.9499 19.62 40.36C22.14 44.95 28.45 50.68 32.62 54.46C33.72 55.46 34.69 56.35 35.46 57.08C35.5278 57.1484 35.6089 57.2024 35.6983 57.2385C35.7877 57.2746 35.8836 57.2921 35.98 57.29C36.0732 57.2905 36.1655 57.2722 36.2514 57.2361C36.3374 57.2001 36.4151 57.1469 36.48 57.08C37.25 56.35 38.22 55.46 39.32 54.46ZM31.1933 26.2884C32.616 25.3375 34.2887 24.83 36 24.83C38.2916 24.8326 40.4887 25.7434 42.11 27.3629C43.7313 28.9823 44.6447 31.1784 44.65 33.47C44.652 35.1812 44.1463 36.8546 43.197 38.2784C42.2478 39.7022 40.8975 40.8124 39.3171 41.4686C37.7367 42.1249 35.9972 42.2976 34.3186 41.965C32.64 41.6323 31.0978 40.8093 29.887 39.6C28.6763 38.3906 27.8515 36.8494 27.5169 35.1712C27.1823 33.493 27.3531 31.7532 28.0075 30.1721C28.6619 28.5909 29.7706 27.2394 31.1933 26.2884ZM33.4166 37.3363C34.1813 37.8472 35.0803 38.12 36 38.12C37.2324 38.1173 38.4136 37.6266 39.2851 36.7551C40.1566 35.8836 40.6473 34.7024 40.65 33.47C40.65 32.5503 40.3773 31.6512 39.8663 30.8866C39.3554 30.1219 38.6291 29.5259 37.7794 29.1739C36.9298 28.822 35.9948 28.7299 35.0928 28.9093C34.1908 29.0887 33.3622 29.5316 32.7119 30.1819C32.0616 30.8322 31.6187 31.6608 31.4393 32.5628C31.2599 33.4648 31.352 34.3998 31.7039 35.2494C32.0559 36.0991 32.6519 36.8253 33.4166 37.3363Z" fill="black"/>
</svg>
