<svg width="72" height="72" viewBox="0 0 72 72" fill="none" xmlns="http://www.w3.org/2000/svg">
<path fill-rule="evenodd" clip-rule="evenodd" d="M60.11 30V29C60.1166 27.3591 59.7992 25.733 59.1761 24.2149C58.553 22.6969 57.6364 21.3167 56.4789 20.1536C55.3213 18.9905 53.9456 18.0673 52.4306 17.4369C50.9155 16.8065 49.291 16.4813 47.65 16.48H43.56V16.29C43.56 14.4096 42.813 12.6063 41.4834 11.2766C40.1538 9.94699 38.3504 9.20001 36.47 9.20001C34.5896 9.20001 32.7863 9.94699 31.4566 11.2766C30.127 12.6063 29.38 14.4096 29.38 16.29V16.48H24.38C21.0753 16.4827 17.9066 17.7959 15.5688 20.1318C13.2311 22.4676 11.9153 25.6353 11.91 28.94V29.94C10.6578 30.2161 9.53758 30.9121 8.73541 31.9126C7.93324 32.913 7.49732 34.1577 7.50001 35.44V43.83C7.50005 45.1094 7.93737 46.3503 8.73947 47.347C9.54157 48.3437 10.6603 49.0364 11.91 49.31V50.31C11.91 53.6182 13.2235 56.791 15.5618 59.1312C17.9001 61.4713 21.0718 62.7874 24.38 62.79H47.65C50.9538 62.7874 54.1215 61.4738 56.4576 59.1376C58.7938 56.8015 60.1074 53.6338 60.11 50.33V49.33C61.3553 49.0544 62.4691 48.3621 63.2674 47.3674C64.0657 46.3727 64.5005 45.1354 64.5 43.86V35.44C64.4919 34.1703 64.0533 32.9408 63.2559 31.9527C62.4585 30.9645 61.3494 30.2761 60.11 30ZM47.65 58.79H24.38C22.1354 58.79 19.9825 57.899 18.3944 56.3127C16.8062 54.7265 15.9127 52.5747 15.91 50.33V28.94C15.9127 26.6954 16.8062 24.5436 18.3944 22.9573C19.9825 21.371 22.1354 20.48 24.38 20.48H47.65C49.8929 20.4827 52.0432 21.3748 53.6292 22.9608C55.2152 24.5468 56.1074 26.6971 56.11 28.94V50.33C56.1074 52.5729 55.2152 54.7232 53.6292 56.3092C52.0432 57.8952 49.8929 58.7874 47.65 58.79ZM33.39 16.29C33.39 15.4705 33.7156 14.6845 34.2951 14.1051C34.8745 13.5256 35.6605 13.2 36.48 13.2C37.2995 13.2 38.0855 13.5256 38.665 14.1051C39.2445 14.6845 39.57 15.4705 39.57 16.29V16.48H33.38C33.38 16.4512 33.3823 16.4223 33.3847 16.3924C33.3873 16.36 33.39 16.3264 33.39 16.29ZM10.5 43.83V35.44C10.5025 34.9631 10.6352 34.4959 10.8837 34.0889C11.1321 33.6818 11.487 33.3503 11.91 33.13V46.13C11.4885 45.9106 11.1346 45.5806 10.8862 45.1754C10.6379 44.7703 10.5043 44.3052 10.5 43.83ZM61.5 43.83C61.4991 44.3022 61.3691 44.7651 61.1241 45.1687C60.8791 45.5723 60.5284 45.9013 60.11 46.12V33.12C60.5277 33.3396 60.8778 33.6688 61.1226 34.0722C61.3675 34.4756 61.498 34.9381 61.5 35.41V43.83ZM36.48 29.79C34.5319 29.79 32.6275 30.3677 31.0076 31.45C29.3878 32.5323 28.1253 34.0707 27.3798 35.8705C26.6343 37.6704 26.4392 39.6509 26.8193 41.5616C27.1993 43.4723 28.1375 45.2274 29.515 46.605C30.8926 47.9825 32.6477 48.9206 34.5584 49.3007C36.4691 49.6808 38.4496 49.4857 40.2494 48.7402C42.0493 47.9947 43.5877 46.7322 44.67 45.1123C45.7523 43.4925 46.33 41.5881 46.33 39.64C46.3274 37.0284 45.2887 34.5246 43.4421 32.6779C41.5954 30.8312 39.0916 29.7926 36.48 29.79ZM36.48 46.49C35.1252 46.49 33.8008 46.0882 32.6744 45.3355C31.5479 44.5829 30.6699 43.513 30.1514 42.2614C29.633 41.0097 29.4973 39.6324 29.7616 38.3036C30.0259 36.9748 30.6783 35.7543 31.6363 34.7963C32.5943 33.8383 33.8149 33.1859 35.1436 32.9216C36.4724 32.6573 37.8497 32.7929 39.1014 33.3114C40.3531 33.8299 41.4229 34.7078 42.1756 35.8343C42.9283 36.9608 43.33 38.2852 43.33 39.64C43.3274 41.4559 42.6048 43.1967 41.3208 44.4807C40.0367 45.7648 38.2959 46.4873 36.48 46.49ZM34.8882 37.2585C35.3589 36.942 35.9128 36.772 36.48 36.77C36.8577 36.7687 37.232 36.8419 37.5814 36.9856C37.9307 37.1292 38.2483 37.3404 38.5159 37.607C38.7834 37.8737 38.9957 38.1905 39.1406 38.5394C39.2854 38.8882 39.36 39.2622 39.36 39.64C39.36 40.2072 39.1919 40.7617 38.877 41.2334C38.5621 41.7052 38.1144 42.073 37.5906 42.2905C37.0668 42.5081 36.4902 42.5655 35.9338 42.4555C35.3773 42.3456 34.8659 42.0733 34.4641 41.6729C34.0624 41.2725 33.7882 40.7621 33.6764 40.206C33.5645 39.6499 33.6199 39.0732 33.8356 38.5486C34.0513 38.024 34.4176 37.5751 34.8882 37.2585ZM36.8455 39.1751C36.9771 39.2631 37.1318 39.31 37.29 39.31C37.5022 39.31 37.7057 39.2257 37.8557 39.0757C38.0057 38.9256 38.09 38.7221 38.09 38.51C38.09 38.3517 38.0431 38.1971 37.9552 38.0655C37.8673 37.934 37.7423 37.8314 37.5961 37.7709C37.45 37.7103 37.2891 37.6945 37.1339 37.7253C36.9787 37.7562 36.8362 37.8324 36.7243 37.9443C36.6124 38.0562 36.5362 38.1987 36.5054 38.3539C36.4745 38.5091 36.4903 38.6699 36.5509 38.8161C36.6114 38.9623 36.714 39.0872 36.8455 39.1751Z" fill="black"/>
</svg>
