<svg width="72" height="72" viewBox="0 0 72 72" fill="none" xmlns="http://www.w3.org/2000/svg">
<path fill-rule="evenodd" clip-rule="evenodd" d="M51.13 15L58.32 22.38C58.6822 22.7557 58.8831 23.2582 58.88 23.78V53.66C58.88 54.7209 58.4586 55.7383 57.7084 56.4884C56.9583 57.2386 55.9409 57.66 54.88 57.66H17.12C16.0591 57.66 15.0417 57.2386 14.2916 56.4884C13.5414 55.7383 13.12 54.7209 13.12 53.66V18.39C13.12 17.3291 13.5414 16.3117 14.2916 15.5616C15.0417 14.8114 16.0591 14.39 17.12 14.39H49.69C49.9587 14.3897 50.2247 14.4436 50.4721 14.5484C50.7195 14.6532 50.9433 14.8068 51.13 15ZM45.65 27.6V18.38L26.15 18.34V27.6C26.15 27.8838 26.2627 28.156 26.4634 28.3566C26.6641 28.5573 26.9362 28.67 27.22 28.67H44.58C44.8638 28.67 45.1359 28.5573 45.3366 28.3566C45.5373 28.156 45.65 27.8838 45.65 27.6ZM26.15 44.44V53.66H45.65V44.44C45.65 44.1562 45.5373 43.8841 45.3366 43.6834C45.1359 43.4827 44.8638 43.37 44.58 43.37H27.22C26.9362 43.37 26.6641 43.4827 26.4634 43.6834C26.2627 43.8841 26.15 44.1562 26.15 44.44ZM49.65 53.66H54.88V24.58L49.65 19.18V27.56C49.6474 28.9039 49.1123 30.1919 48.1621 31.1421C47.2119 32.0924 45.9238 32.6274 44.58 32.63H27.22C25.8762 32.6274 24.5881 32.0924 23.6379 31.1421C22.6876 30.1919 22.1526 28.9039 22.15 27.56V18.34H17.15V53.66H22.15V44.44C22.1526 43.0962 22.6876 41.8081 23.6379 40.8579C24.5881 39.9077 25.8762 39.3727 27.22 39.37H44.58C45.9238 39.3727 47.2119 39.9077 48.1621 40.8579C49.1123 41.8081 49.6474 43.0962 49.65 44.44V53.66ZM43.4142 27.1242C43.0391 27.4993 42.5304 27.71 42 27.71C41.4696 27.71 40.9609 27.4993 40.5858 27.1242C40.2107 26.7491 40 26.2404 40 25.71V21.82C40 21.2896 40.2107 20.7809 40.5858 20.4058C40.9609 20.0307 41.4696 19.82 42 19.82C42.5304 19.82 43.0391 20.0307 43.4142 20.4058C43.7893 20.7809 44 21.2896 44 21.82V25.71C44 26.2404 43.7893 26.7491 43.4142 27.1242Z" fill="black"/>
</svg>
