<svg width="72" height="72" viewBox="0 0 72 72" fill="none" xmlns="http://www.w3.org/2000/svg">
<path d="M60.64 57.79L51.25 48.4C55.1491 43.9379 57.1895 38.1511 56.9515 32.2304C56.7135 26.3096 54.2151 20.7052 49.9705 16.5706C45.7259 12.4359 40.0579 10.0854 34.133 10.0029C28.208 9.92028 22.4767 12.1118 18.1185 16.1266C13.7603 20.1414 11.1067 25.6739 10.7038 31.5857C10.3009 37.4976 12.1792 43.339 15.9524 47.908C19.7255 52.4769 25.1064 55.4259 30.9878 56.148C36.8692 56.8701 42.8037 55.3105 47.57 51.79L57.1 61.32C57.3318 61.5538 57.6075 61.7395 57.9112 61.8665C58.215 61.9935 58.5408 62.0592 58.87 62.06C59.1979 62.0601 59.5225 61.9947 59.8247 61.8677C60.127 61.7406 60.4008 61.5544 60.63 61.32C61.0985 60.8527 61.3626 60.2187 61.3645 59.557C61.3664 58.8953 61.1059 58.2599 60.64 57.79ZM15.64 33.13C15.64 29.5319 16.7071 26.0146 18.7063 23.0231C20.7055 20.0315 23.547 17.7001 26.8713 16.3236C30.1957 14.9472 33.8536 14.5875 37.3824 15.2902C40.9112 15.9929 44.1523 17.7263 46.6958 20.2712C49.2394 22.8161 50.971 26.0582 51.6717 29.5874C52.3725 33.1166 52.0108 36.7743 50.6325 40.0979C49.2542 43.4215 46.9212 46.2617 43.9286 48.2593C40.9359 50.2568 37.4181 51.3219 33.82 51.32C28.9982 51.312 24.3761 49.393 20.9665 45.9835C17.5569 42.5739 15.638 37.9518 15.63 33.13H15.64Z" fill="black"/>
</svg>
