<svg width="72" height="72" viewBox="0 0 72 72" fill="none" xmlns="http://www.w3.org/2000/svg">
<path d="M18 59.05C17.2653 59.0437 16.5413 58.8732 15.8809 58.5511C15.2206 58.229 14.6406 57.7633 14.1834 57.1882C13.7261 56.613 13.4032 55.943 13.2383 55.227C13.0733 54.511 13.0705 53.7672 13.23 53.05L15.43 43.55C15.4998 43.2258 15.6335 42.9188 15.8232 42.6468C16.0128 42.3748 16.2547 42.1432 16.5348 41.9656C16.8148 41.7879 17.1274 41.6678 17.4543 41.6121C17.7812 41.5565 18.1159 41.5664 18.439 41.6414C18.762 41.7163 19.0669 41.8548 19.3359 42.0487C19.6049 42.2426 19.8326 42.4882 20.0058 42.771C20.179 43.0538 20.2942 43.3682 20.3447 43.6959C20.3952 44.0237 20.38 44.3582 20.3 44.68L18.17 54L53.85 36.88L18.07 19.74L21.19 34.74L38 34.36C38.663 34.3441 39.3052 34.5922 39.7853 35.0498C40.2654 35.5074 40.5441 36.137 40.56 36.8C40.5759 37.4631 40.3278 38.1053 39.8702 38.5854C39.4126 39.0654 38.783 39.3441 38.12 39.36L21.17 39.78C20.0412 39.7743 18.9475 39.3868 18.0669 38.6805C17.1863 37.9742 16.5706 36.9907 16.32 35.89L13.14 20.59C12.9479 19.6933 13.0112 18.7607 13.3229 17.8982C13.6346 17.0357 14.182 16.278 14.9029 15.7113C15.6239 15.1445 16.4894 14.7914 17.4011 14.6922C18.3128 14.593 19.234 14.7516 20.06 15.15L56.18 32.45C57.0161 32.8496 57.722 33.4777 58.2162 34.2616C58.7104 35.0456 58.9726 35.9533 58.9726 36.88C58.9726 37.8067 58.7104 38.7145 58.2162 39.4984C57.722 40.2823 57.0161 40.9104 56.18 41.31L20.18 58.56C19.501 58.8897 18.7548 59.0575 18 59.05Z" fill="black"/>
</svg>
