<svg width="72" height="72" viewBox="0 0 72 72" fill="none" xmlns="http://www.w3.org/2000/svg">
<path d="M46.06 59.42H25.94C24.8878 59.4189 23.8544 59.1411 22.9434 58.6146C22.0325 58.088 21.276 57.3312 20.75 56.42L10.69 39C10.1633 38.0878 9.88611 37.0532 9.88611 36C9.88611 34.9467 10.1633 33.9121 10.69 33L20.75 15.58C21.276 14.6687 22.0325 13.9119 22.9434 13.3853C23.8544 12.8588 24.8878 12.581 25.94 12.58H46.06C47.1121 12.581 48.1455 12.8588 49.0565 13.3853C49.9674 13.9119 50.7239 14.6687 51.25 15.58L61.31 33C61.8366 33.9121 62.1138 34.9467 62.1138 36C62.1138 37.0532 61.8366 38.0878 61.31 39L51.25 56.42C50.7239 57.3312 49.9674 58.088 49.0565 58.6146C48.1455 59.1411 47.1121 59.4189 46.06 59.42ZM25.94 16.58C25.5892 16.5803 25.2448 16.6729 24.9411 16.8484C24.6375 17.0239 24.3853 17.2762 24.21 17.58L14.15 35C13.9744 35.304 13.882 35.6489 13.882 36C13.882 36.351 13.9744 36.6959 14.15 37L24.21 54.42C24.3853 54.7237 24.6375 54.976 24.9411 55.1515C25.2448 55.327 25.5892 55.4196 25.94 55.42H46.06C46.4107 55.4196 46.7551 55.327 47.0588 55.1515C47.3624 54.976 47.6146 54.7237 47.79 54.42L57.85 37C58.0255 36.6959 58.1179 36.351 58.1179 36C58.1179 35.6489 58.0255 35.304 57.85 35L47.79 17.58C47.6146 17.2762 47.3624 17.0239 47.0588 16.8484C46.7551 16.6729 46.4107 16.5803 46.06 16.58H25.94ZM36 44.69C34.2812 44.69 32.6011 44.1803 31.1721 43.2254C29.743 42.2706 28.6292 40.9134 27.9714 39.3255C27.3137 37.7376 27.1416 35.9903 27.4769 34.3046C27.8122 32.6189 28.6399 31.0705 29.8552 29.8552C31.0705 28.6399 32.6189 27.8122 34.3046 27.4769C35.9903 27.1416 37.7376 27.3137 39.3255 27.9714C40.9134 28.6292 42.2706 29.743 43.2254 31.1721C44.1803 32.6011 44.69 34.2812 44.69 36C44.6873 38.3039 43.7709 40.5127 42.1418 42.1418C40.5127 43.7709 38.3039 44.6873 36 44.69ZM36 31.31C35.0724 31.31 34.1656 31.585 33.3943 32.1004C32.6231 32.6157 32.0219 33.3482 31.667 34.2052C31.312 35.0622 31.2191 36.0052 31.4001 36.9149C31.581 37.8247 32.0277 38.6604 32.6836 39.3163C33.3395 39.9722 34.1752 40.4189 35.085 40.5998C35.9948 40.7808 36.9378 40.6879 37.7947 40.333C38.6517 39.978 39.3842 39.3768 39.8995 38.6056C40.4149 37.8343 40.69 36.9276 40.69 36C40.69 34.7561 40.1958 33.5632 39.3163 32.6836C38.4367 31.8041 37.2438 31.31 36 31.31Z" fill="black"/>
</svg>
