<svg width="72" height="72" viewBox="0 0 72 72" fill="none" xmlns="http://www.w3.org/2000/svg">
<path fill-rule="evenodd" clip-rule="evenodd" d="M29.8499 34.1701H15.1599C13.9664 34.1701 12.8218 33.696 11.9779 32.852C11.134 32.0081 10.6599 30.8635 10.6599 29.6701V15.0001C10.6599 13.8066 11.134 12.662 11.9779 11.8181C12.8218 10.9742 13.9664 10.5001 15.1599 10.5001H29.8499C31.0426 10.5027 32.1856 10.9777 33.029 11.821C33.8723 12.6643 34.3473 13.8074 34.3499 15.0001V29.6701C34.3473 30.8627 33.8723 32.0058 33.029 32.8491C32.1856 33.6925 31.0426 34.1674 29.8499 34.1701ZM29.3499 15.4801H15.6599V29.1701H29.3499V15.4801ZM56.8399 34.1701H42.1499C40.9572 34.1674 39.8142 33.6925 38.9708 32.8491C38.1275 32.0058 37.6525 30.8627 37.6499 29.6701V15.0001C37.6525 13.8074 38.1275 12.6643 38.9708 11.821C39.8142 10.9777 40.9572 10.5027 42.1499 10.5001H56.8399C58.0334 10.5001 59.178 10.9742 60.0219 11.8181C60.8658 12.662 61.3399 13.8066 61.3399 15.0001V29.6701C61.3399 30.8635 60.8658 32.0081 60.0219 32.852C59.178 33.696 58.0334 34.1701 56.8399 34.1701ZM56.3399 15.4801H42.6499V29.1701H56.3399V15.4801ZM30.8799 36.79H15.1599C13.9664 36.79 12.8218 37.2641 11.9779 38.1081C11.134 38.952 10.6599 40.0966 10.6599 41.29V57C10.6599 58.1935 11.134 59.3381 11.9779 60.182C12.8218 61.0259 13.9664 61.5 15.1599 61.5H30.8799C32.0734 61.5 33.218 61.0259 34.0619 60.182C34.9058 59.3381 35.3799 58.1935 35.3799 57V41.29C35.3799 40.0966 34.9058 38.952 34.0619 38.1081C33.218 37.2641 32.0734 36.79 30.8799 36.79ZM30.3799 56.52H15.6599V41.79H30.3799V56.52ZM41.63 36.79H57.36C58.5534 36.79 59.698 37.2641 60.5419 38.1081C61.3859 38.952 61.86 40.0966 61.86 41.29V57C61.86 58.1935 61.3859 59.3381 60.5419 60.182C59.698 61.0259 58.5534 61.5 57.36 61.5H41.63C40.4373 61.4974 39.2942 61.0224 38.4509 60.1791C37.6076 59.3358 37.1326 58.1927 37.13 57V41.29C37.1326 40.0974 37.6076 38.9543 38.4509 38.111C39.2942 37.2676 40.4373 36.7927 41.63 36.79ZM42.13 56.52H56.86V41.79H42.13V56.52Z" fill="black"/>
</svg>
