<svg width="72" height="72" viewBox="0 0 72 72" fill="none" xmlns="http://www.w3.org/2000/svg">
<path fill-rule="evenodd" clip-rule="evenodd" d="M45.34 10.19C52.93 11.79 58.11 16.89 59.56 24.19C61.25 32.72 59.86 41.24 55.84 47C53.9606 49.4595 51.8179 51.7062 49.45 53.7L48.18 54.87C45.29 57.56 42.32 60.14 40.05 62.08C39.576 62.4816 38.989 62.7262 38.37 62.78C38.2836 62.7899 38.1964 62.7899 38.11 62.78C37.3143 62.78 36.5513 62.4639 35.9887 61.9013C35.4261 61.3387 35.11 60.5756 35.11 59.78V55.49C29.29 55.19 21.9 53.16 18 49.1C13.12 44 11.91 36.84 11.73 31.74C11.46 22.9 14.44 16.1 20.12 12.58C24.65 9.77996 30.89 9.18996 35.34 9.18996C38.6984 9.18734 42.0486 9.52236 45.34 10.19ZM46.79 50.74C48.9177 48.9249 50.8513 46.894 52.56 44.68H52.57C56 39.82 57.12 32.45 55.62 24.93C54.51 19.2 50.51 15.35 44.51 14.08C41.494 13.4772 38.4256 13.1758 35.35 13.18C29.8 13.18 25.14 14.17 22.24 15.97C16.28 19.66 15.56 27.23 15.74 31.61C15.92 35.99 16.92 42.1 20.92 46.3C24.19 49.71 31.31 51.5 36.64 51.5C37.303 51.5 37.9389 51.7633 38.4078 52.2322C38.8766 52.701 39.14 53.3369 39.14 54V57.61C41.07 55.93 43.31 53.93 45.5 51.93L46.79 50.74ZM22.4606 26.8593C22.8368 26.61 23.2786 26.478 23.73 26.4799C24.333 26.4826 24.9103 26.724 25.3357 27.1513C25.7612 27.5786 26 28.157 26 28.7599C26 29.2113 25.866 29.6525 25.615 30.0277C25.3641 30.4028 25.0074 30.6951 24.5902 30.8673C24.173 31.0396 23.7141 31.0842 23.2715 30.9954C22.829 30.9066 22.4227 30.6884 22.1043 30.3686C21.7858 30.0487 21.5694 29.6415 21.4826 29.1986C21.3958 28.7557 21.4423 28.2969 21.6164 27.8805C21.7905 27.464 22.0843 27.1086 22.4606 26.8593ZM48.26 26.4799C47.809 26.4799 47.3682 26.6136 46.9933 26.8642C46.6183 27.1147 46.3261 27.4708 46.1535 27.8874C45.981 28.304 45.9358 28.7624 46.0238 29.2047C46.1118 29.647 46.3289 30.0533 46.6478 30.3721C46.9666 30.691 47.3729 30.9081 47.8152 30.9961C48.2575 31.0841 48.7159 31.0389 49.1325 30.8664C49.5491 30.6938 49.9052 30.4016 50.1557 30.0266C50.4063 29.6517 50.54 29.2109 50.54 28.7599C50.54 28.1552 50.2998 27.5753 49.8722 27.1477C49.4446 26.7201 48.8647 26.4799 48.26 26.4799ZM43.9842 35.6199C44.2468 35.6192 44.507 35.6702 44.75 35.77C45.2303 35.9698 45.6138 36.3489 45.8191 36.8269C46.0245 37.3048 46.0356 37.844 45.85 38.33C44.74 41.03 40.76 42.85 35.94 42.85C31.36 42.85 27.55 41.23 26.23 38.72C26.0852 38.4867 25.99 38.2262 25.9503 37.9545C25.9106 37.6829 25.9272 37.406 25.9992 37.1411C26.0711 36.8762 26.1968 36.6289 26.3685 36.4146C26.5401 36.2004 26.7541 36.0238 26.9969 35.8958C27.2398 35.7679 27.5064 35.6913 27.7802 35.6708C28.0539 35.6503 28.329 35.6865 28.5882 35.7769C28.8474 35.8673 29.0852 36.0102 29.2868 36.1965C29.4884 36.3828 29.6494 36.6087 29.76 36.86C30.19 37.67 32.45 38.86 35.94 38.86C39.69 38.86 41.86 37.55 42.14 36.86C42.2398 36.617 42.3865 36.3961 42.5716 36.2098C42.7568 36.0236 42.9769 35.8756 43.2192 35.7744C43.4616 35.6732 43.7215 35.6207 43.9842 35.6199Z" fill="black"/>
</svg>
