<svg width="72" height="72" viewBox="0 0 72 72" fill="none" xmlns="http://www.w3.org/2000/svg">
<path d="M32.3 53.56C31.5545 53.5605 30.8237 53.3527 30.19 52.96L22.37 48.14C22.0262 47.9316 21.632 47.821 21.23 47.82H16.31C14.7947 47.8173 13.3423 47.2135 12.2718 46.1411C11.2012 45.0687 10.6 43.6153 10.6 42.1V29.63C10.6 28.1156 11.2016 26.6632 12.2724 25.5924C13.3432 24.5216 14.7956 23.92 16.31 23.92H21.31C21.697 23.9213 22.0772 23.8176 22.41 23.62L30.25 19C30.8541 18.6511 31.5389 18.4663 32.2366 18.4639C32.9342 18.4615 33.6203 18.6416 34.2268 18.9863C34.8333 19.331 35.3391 19.8283 35.694 20.4289C36.0489 21.0295 36.2406 21.7124 36.25 22.41V49.58C36.2478 50.2898 36.0567 50.9862 35.6965 51.5977C35.3362 52.2093 34.8197 52.714 34.2 53.06C33.6181 53.382 32.965 53.5539 32.3 53.56ZM16.31 28.42C15.9891 28.42 15.6813 28.5475 15.4544 28.7744C15.2275 29.0013 15.1 29.3091 15.1 29.63V42.1C15.1 42.4218 15.2271 42.7306 15.4538 42.9591C15.6804 43.1876 15.9881 43.3173 16.31 43.32H21.23C22.4668 43.3224 23.6786 43.6686 24.73 44.32L31.78 48.66V23.33L24.65 27.5C23.6283 28.1006 22.4651 28.4181 21.28 28.42H16.31Z" fill="black"/>
<path d="M41.92 49.08C41.4521 49.0802 40.9989 48.9162 40.6393 48.6168C40.2797 48.3173 40.0366 47.9012 39.9521 47.4409C39.8677 46.9806 39.9473 46.5053 40.1771 46.0977C40.407 45.6901 40.7725 45.376 41.21 45.21C44.44 43.99 46.69 40.21 46.69 36C46.69 31.79 44.4 27.93 41.12 26.75C40.8551 26.6756 40.6084 26.5474 40.3953 26.3733C40.1823 26.1993 40.0074 25.9831 39.8817 25.7384C39.7559 25.4937 39.6821 25.2256 39.6647 24.951C39.6472 24.6765 39.6867 24.4012 39.7805 24.1426C39.8743 23.8839 40.0204 23.6474 40.2098 23.4478C40.3992 23.2483 40.6277 23.0899 40.8811 22.9826C41.1345 22.8754 41.4072 22.8216 41.6824 22.8246C41.9575 22.8276 42.229 22.8873 42.48 23C47.39 24.77 50.69 30 50.69 36C50.69 42 47.45 47.13 42.62 49C42.3936 49.0694 42.1563 49.0965 41.92 49.08Z" fill="black"/>
<path d="M47.13 57.72C46.6621 57.7202 46.2089 57.5563 45.8493 57.2568C45.4898 56.9573 45.2466 56.5412 45.1622 56.0809C45.0777 55.6207 45.1574 55.1454 45.3872 54.7377C45.617 54.3301 45.9825 54.016 46.42 53.85C52.74 51.46 57.15 44.14 57.15 36C57.15 27.86 52.66 20.48 46.24 18.16C45.9807 18.0813 45.74 17.9506 45.5327 17.776C45.3254 17.6014 45.1557 17.3865 45.034 17.1443C44.9123 16.9021 44.8411 16.6377 44.8247 16.3672C44.8083 16.0966 44.8471 15.8255 44.9387 15.5704C45.0303 15.3153 45.1728 15.0815 45.3575 14.8832C45.5423 14.6848 45.7654 14.5261 46.0134 14.4166C46.2613 14.3072 46.529 14.2492 46.8 14.2464C47.071 14.2435 47.3398 14.2958 47.59 14.4C55.7 17.32 61.15 26 61.15 36C61.15 46 55.8 54.58 47.84 57.59C47.6132 57.6761 47.3726 57.7201 47.13 57.72Z" fill="black"/>
</svg>
