<svg width="72" height="72" viewBox="0 0 72 72" fill="none" xmlns="http://www.w3.org/2000/svg">
<path fill-rule="evenodd" clip-rule="evenodd" d="M47.42 18.62H58.24V18.66C58.7704 18.66 59.2791 18.8707 59.6542 19.2457C60.0293 19.6208 60.24 20.1295 60.24 20.66C60.24 21.1904 60.0293 21.6991 59.6542 22.0742C59.2791 22.4492 58.7704 22.66 58.24 22.66H55.3V51.66C55.2974 54.1831 54.2932 56.602 52.5081 58.3852C50.7231 60.1683 48.3031 61.17 45.78 61.17H26.22C23.6969 61.17 21.2769 60.1683 19.4919 58.3852C17.7068 56.602 16.7027 54.1831 16.7 51.66V22.66H13.76C13.2296 22.66 12.7209 22.4492 12.3458 22.0742C11.9707 21.6991 11.76 21.1904 11.76 20.66C11.76 20.1295 11.9707 19.6208 12.3458 19.2457C12.7209 18.8707 13.2296 18.66 13.76 18.66H24.58V16C24.5733 15.3349 24.6994 14.6752 24.9508 14.0595C25.2022 13.4438 25.5739 12.8844 26.0442 12.4142C26.5145 11.9439 27.0739 11.5722 27.6896 11.3208C28.3053 11.0693 28.965 10.9433 29.63 10.95H42.37C43.035 10.9433 43.6947 11.0693 44.3104 11.3208C44.9262 11.5722 45.4855 11.9439 45.9558 12.4142C46.4261 12.8844 46.7978 13.4438 47.0492 14.0595C47.3006 14.6752 47.4267 15.3349 47.42 16V18.62ZM28.6453 15.5898C28.5951 15.7204 28.5728 15.8602 28.58 16V18.66H43.42V16C43.4272 15.8602 43.4049 15.7204 43.3547 15.5898C43.3045 15.4592 43.2274 15.3405 43.1284 15.2415C43.0295 15.1426 42.9108 15.0655 42.7802 15.0152C42.6495 14.965 42.5098 14.9428 42.37 14.95H29.63C29.4902 14.9428 29.3505 14.965 29.2198 15.0152C29.0892 15.0655 28.9706 15.1426 28.8716 15.2415C28.7726 15.3405 28.6955 15.4592 28.6453 15.5898ZM49.6797 55.4767C50.7146 54.4437 51.2974 53.0422 51.3 51.58V22.58H20.7V51.58C20.7027 53.0422 21.2854 54.4437 22.3203 55.4767C23.3552 56.5098 24.7577 57.09 26.22 57.09H45.78C47.2423 57.09 48.6448 56.5098 49.6797 55.4767ZM45.6542 48.9742C45.2791 49.3493 44.7704 49.56 44.24 49.56C43.7096 49.56 43.2008 49.3493 42.8258 48.9742C42.4507 48.5991 42.24 48.0904 42.24 47.56V33.23C42.24 32.6995 42.4507 32.1908 42.8258 31.8158C43.2008 31.4407 43.7096 31.23 44.24 31.23C44.7704 31.23 45.2791 31.4407 45.6542 31.8158C46.0293 32.1908 46.24 32.6995 46.24 33.23V47.56C46.24 48.0904 46.0293 48.5991 45.6542 48.9742ZM36 51.75C36.5304 51.75 37.0391 51.5393 37.4142 51.1642C37.7893 50.7891 38 50.2804 38 49.75V31C38 30.4696 37.7893 29.9609 37.4142 29.5858C37.0391 29.2107 36.5304 29 36 29C35.4696 29 34.9609 29.2107 34.5858 29.5858C34.2107 29.9609 34 30.4696 34 31V49.75C34 50.2804 34.2107 50.7891 34.5858 51.1642C34.9609 51.5393 35.4696 51.75 36 51.75ZM29.1742 48.9742C28.7992 49.3493 28.2904 49.56 27.76 49.56C27.2296 49.56 26.7209 49.3493 26.3458 48.9742C25.9707 48.5991 25.76 48.0904 25.76 47.56V33.23C25.76 32.6995 25.9707 32.1908 26.3458 31.8158C26.7209 31.4407 27.2296 31.23 27.76 31.23C28.2904 31.23 28.7992 31.4407 29.1742 31.8158C29.5493 32.1908 29.76 32.6995 29.76 33.23V47.56C29.76 48.0904 29.5493 48.5991 29.1742 48.9742Z" fill="black"/>
</svg>
