<svg width="72" height="72" viewBox="0 0 72 72" fill="none" xmlns="http://www.w3.org/2000/svg">
<path d="M30.13 49.23C29.4985 49.2322 28.8902 48.9925 28.43 48.56L16.8 37.78C16.3133 37.3292 16.0257 36.7034 16.0004 36.0405C15.975 35.3776 16.2141 34.7317 16.665 34.245C17.1159 33.7584 17.7416 33.4707 18.4045 33.4454C19.0675 33.4201 19.7133 33.6592 20.2 34.11L30.12 43.31L52 22.73C52.4827 22.2752 53.1263 22.0307 53.7892 22.0504C54.4522 22.0701 55.0801 22.3523 55.535 22.835C55.9898 23.3177 56.2343 23.9613 56.2146 24.6243C56.1949 25.2872 55.9127 25.9152 55.43 26.37L31.85 48.55C31.3841 48.9874 30.769 49.2306 30.13 49.23Z" fill="black"/>
</svg>
