<svg width="72" height="72" viewBox="0 0 72 72" fill="none" xmlns="http://www.w3.org/2000/svg">
<path fill-rule="evenodd" clip-rule="evenodd" d="M29.3333 32.3276C31.3066 33.6462 33.6267 34.35 36.0001 34.35C39.1827 34.35 42.2349 33.0857 44.4854 30.8353C46.7358 28.5848 48.0001 25.5326 48.0001 22.35C48.0001 19.9766 47.2963 17.6565 45.9777 15.6831C44.6592 13.7097 42.785 12.1717 40.5923 11.2634C38.3996 10.3552 35.9868 10.1175 33.659 10.5806C31.3312 11.0436 29.193 12.1865 27.5148 13.8647C25.8366 15.5429 24.6937 17.6811 24.2307 20.0089C23.7677 22.3367 24.0053 24.7495 24.9135 26.9422C25.8218 29.1349 27.3599 31.009 29.3333 32.3276ZM31.5555 15.6982C32.8711 14.8192 34.4178 14.35 36.0001 14.35V14.37C38.1184 14.37 40.1502 15.2101 41.6499 16.7061C43.1496 18.202 43.9948 20.2317 44.0001 22.35C44.0001 23.9322 43.5309 25.4789 42.6519 26.7945C41.7728 28.1101 40.5234 29.1355 39.0616 29.741C37.5998 30.3465 35.9912 30.5049 34.4394 30.1963C32.8875 29.8876 31.4621 29.1257 30.3432 28.0068C29.2244 26.888 28.4625 25.4626 28.1538 23.9107C27.8451 22.3589 28.0036 20.7503 28.6091 19.2885C29.2146 17.8267 30.2399 16.5773 31.5555 15.6982ZM20.9101 61.63H51.0901C51.5931 61.6313 52.0914 61.5335 52.5565 61.3423C53.0217 61.151 53.4447 60.87 53.8012 60.5153C54.1578 60.1606 54.441 59.7391 54.6347 59.2749C54.8284 58.8107 54.9288 58.3129 54.9301 57.81V54.48C54.9301 49.9713 53.139 45.6473 49.9509 42.4592C46.7628 39.271 42.4388 37.48 37.9301 37.48H34.0901C29.5814 37.48 25.2574 39.271 22.0693 42.4592C18.8812 45.6473 17.0901 49.9713 17.0901 54.48V57.81C17.0927 58.8223 17.496 59.7924 18.2119 60.5082C18.9277 61.224 19.8978 61.6273 20.9101 61.63ZM50.9101 57.63H21.0901L21.0801 54.48C21.0801 51.0322 22.4497 47.7256 24.8877 45.2876C27.3257 42.8496 30.6323 41.48 34.0801 41.48H37.9101C41.3579 41.48 44.6645 42.8496 47.1025 45.2876C49.5404 47.7256 50.9101 51.0322 50.9101 54.48V57.63Z" fill="black"/>
</svg>
