<svg width="72" height="72" viewBox="0 0 72 72" fill="none" xmlns="http://www.w3.org/2000/svg">
<path fill-rule="evenodd" clip-rule="evenodd" d="M21.4884 14.282C25.7838 11.4119 30.8338 9.88 35.9999 9.88C42.9249 9.88794 49.564 12.6424 54.4608 17.5391C59.3575 22.4359 62.112 29.075 62.1199 36C62.1199 41.1661 60.588 46.2161 57.7179 50.5115C54.8478 54.8069 50.7684 58.1548 45.9956 60.1317C41.2228 62.1087 35.9709 62.626 30.9041 61.6181C25.8374 60.6103 21.1832 58.1226 17.5303 54.4696C13.8773 50.8167 11.3896 46.1625 10.3818 41.0958C9.37394 36.029 9.8912 30.7771 11.8682 26.0043C13.8451 21.2315 17.193 17.1521 21.4884 14.282ZM23.7107 54.3921C27.3483 56.8227 31.625 58.12 35.9999 58.12C41.8649 58.1147 47.4881 55.7825 51.6352 51.6354C55.7824 47.4882 58.1146 41.865 58.1199 36C58.1199 31.6251 56.8226 27.3484 54.392 23.7108C51.9614 20.0732 48.5068 17.238 44.4649 15.5638C40.423 13.8896 35.9754 13.4515 31.6845 14.305C27.3936 15.1585 23.4522 17.2653 20.3587 20.3588C17.2652 23.4523 15.1584 27.3937 14.3049 31.6846C13.4514 35.9755 13.8895 40.4231 15.5637 44.465C17.2379 48.5069 20.0731 51.9615 23.7107 54.3921ZM33.1169 25.113C33.5044 25.1619 33.8697 25.3205 34.1701 25.57L45.0001 34.41C45.2447 34.5967 45.443 34.8372 45.5794 35.113C45.7159 35.3888 45.7869 35.6923 45.7869 36C45.7869 36.3077 45.7159 36.6112 45.5794 36.887C45.443 37.1628 45.2447 37.4034 45.0001 37.59L34.1901 46.43C33.8212 46.7339 33.3581 46.9001 32.8801 46.9C32.5759 46.897 32.2758 46.8288 32.0001 46.7C31.6457 46.5349 31.3456 46.2723 31.1348 45.9429C30.9241 45.6135 30.8115 45.231 30.8101 44.84V27.16C30.8076 26.7695 30.9167 26.3864 31.1245 26.0558C31.3323 25.7252 31.6302 25.4608 31.9832 25.2938C32.3362 25.1268 32.7295 25.064 33.1169 25.113Z" fill="black"/>
</svg>
