<svg width="16" height="16" viewBox="0 0 16 16" fill="none" xmlns="http://www.w3.org/2000/svg">
<path
d="M1.6 8C0.716345 8 -0.0160869 7.27668 0.159469 6.41064C0.261393 5.90784 0.411689 5.41479 0.608964 4.93853C1.011 3.96793 1.60028 3.08601 2.34315 2.34315C3.08602 1.60028 3.96793 1.011 4.93853 0.608963C5.4148 0.411689 5.90784 0.261393 6.41064 0.159469C7.27668 -0.0160866 8 0.716345 8 1.6C8 2.48365 7.26447 3.17508 6.42946 3.46421C6.33981 3.49525 6.25099 3.52898 6.16312 3.56538C5.58076 3.8066 5.05161 4.16017 4.60589 4.60589C4.16017 5.05161 3.8066 5.58076 3.56538 6.16312C3.52898 6.25099 3.49525 6.33981 3.46421 6.42946C3.17508 7.26447 2.48366 8 1.6 8Z"
fill-rule="evenodd"
fill="currentColor"
/>
</svg>