<?xml version="1.0" standalone="no"?>
<!DOCTYPE svg PUBLIC "-//W3C//DTD SVG 1.1//EN" "http://www.w3.org/Graphics/SVG/1.1/DTD/svg11.dtd">
<svg xmlns="http://www.w3.org/2000/svg">
<metadata>Copyright (C) 2024 by original authors @ fontello.com</metadata>
<defs>
<font id="solid-icon-test" horiz-adv-x="1000" >
<font-face font-family="solid-icon-test" font-weight="400" font-stretch="normal" units-per-em="1000" ascent="850" descent="-150" />
<missing-glyph horiz-adv-x="1000" />
<glyph glyph-name="rocket" unicode="&#xe800;" d="M941 774c-3 15-11 29-22 40-11 11-24 18-39 21-92 20-187 20-279-1-92-21-177-62-251-121-49 11-99 10-147-4-48-13-91-39-127-74l-61-62c-7-6-11-15-11-25 0-9 4-18 11-25l137-137c0-5-2-8-4-13-19-42-31-87-38-132-1-6 0-11 2-16 1-5 4-9 8-13l199-198c6-7 15-11 25-11h3c45 8 89 21 132 39l12 5 137-138c7-7 16-10 25-10 10 0 19 3 26 10l61 61c35 36 61 80 75 128 13 48 15 98 4 147 58 73 99 159 120 251 21 91 22 186 2 278z m-77-8c2-1 4-1 5-3 1-1 2-3 2-4 20-93 17-190-10-281-27-91-77-173-144-240-54-54-117-96-187-124-1-1-3-1-4-1-2 0-3 0-5 1l-300 303c0 2-1 3-1 5 0 1 1 3 1 4 51 123 143 225 260 287 118 62 253 81 383 53z m-717-680l-1 0-1 0c-13 0-26-6-35-15l-95-95 0 0c-10-10-15-23-15-36l0 0c0-13 5-26 15-35l0-1c9-8 21-13 34-13 12 0 24 5 33 13l96 96 0 0c9 10 14 23 14 36 0 13-5 26-14 36l-1 0 0 1c-9 7-19 11-30 13z m21-24c6-7 10-16 10-26 0-10-4-19-10-26l-96-95c-6-6-15-10-23-10-9 0-18 4-24 10 0 0-1 0-1 0 0 0 1 0 1 0 6-6 15-10 24-10 8 0 17 4 23 10l96 95c6 7 10 16 10 26 0 10-4 19-10 26z m464 302c30 0 60 9 85 26 26 17 45 41 57 69 11 28 14 59 9 89-6 29-21 57-42 78-30 28-68 44-109 44-40 0-79-16-108-44-22-21-37-49-42-78-6-30-3-61 8-89 12-28 32-52 57-69 25-17 55-26 85-26z" horiz-adv-x="1000" />

<glyph glyph-name="edit" unicode="&#xe802;" d="M315 93l122-11h8c24 0 47 9 64 26l0 0c41 41 111 108 186 180 67 63 137 131 194 186l0 0c13 13 23 28 30 45 7 17 11 35 11 53 0 18-4 36-11 53-7 17-17 32-30 45l-75 76c-13 12-28 23-45 29-17 7-35 11-53 11-18 0-36-4-53-11-17-7-32-17-44-30l-367-372 0 0-5-4 9-9-9 9c-9-10-16-21-20-33-5-13-6-26-5-39l0 0 10-122c2-21 11-41 26-56 16-15 36-25 57-26z m-77 238c4 11 10 21 18 29l4 4 368 372c11 12 25 21 40 28 6 2 12 4 18 6-6-2-12-4-18-6-15-7-29-16-40-28l-367-372-5-4c-8-8-14-18-18-29-3-10-5-22-4-33l11-122c1-18 9-35 22-48 13-13 31-21 49-23l122-10h7c6 0 13 0 19 2-6-2-13-2-19-2h-7l-122 10c-18 2-36 10-49 23-13 13-21 30-22 48l-11 122c-1 11 1 23 4 33z m404 314l146-145c13 13 27 26 39 39l0 0c5 4 9 10 11 16 3 6 4 13 4 19 0 7-1 13-4 20-2 6-6 11-11 16l0 0-75 75c-9 10-22 15-36 15-6 0-13-1-19-4-6-2-11-6-16-11l0 0-39-40z m154-154l0 0c14 13 27 26 40 39 6 5 11 12 14 20 3 8 5 16 5 24 0 9-2 17-5 24-3 8-8 15-14 21l-75 75c-12 12-28 18-45 19-5 0-10-1-15-2 5 1 10 2 15 2 17-1 33-7 45-19l75-75c6-6 11-13 14-21 3-7 5-15 5-24 0-8-2-16-5-24-3-8-8-15-14-20-13-13-26-26-40-39z m-11-574h-671c-12 0-23 5-31 13-8 8-13 20-13 31 0 12 5 23 13 31 8 8 19 13 31 13h671c12 0 23-5 31-13 8-8 13-19 13-31 0-11-5-23-13-31-8-8-19-13-31-13z m-671 13h671c3 0 5 0 8 1-3-1-5-1-8-1h-671c-8 0-16 3-22 9-6 6-9 14-9 22 0 8 3 16 9 22 4 4 9 7 14 9-5-2-10-5-14-9-6-6-9-14-9-22 0-8 3-16 9-22 6-6 13-9 22-9z" horiz-adv-x="1000" />

<glyph glyph-name="favorite" unicode="&#xe804;" d="M693-56c13-7 28-11 42-11 17 0 33 4 48 14 12 9 22 21 27 34 5 14 7 30 4 44l-51 208 169 141c11 9 20 23 24 36 3 14 3 30-2 43-4 14-13 28-25 37-11 8-26 13-42 15l-225 19-89 198c-5 14-16 26-29 33-13 7-28 12-44 12-15 0-31-5-44-14-12-9-23-21-29-34l-89-197-224-19c-15-1-30-7-42-15-11-9-20-21-26-35-5-13-5-29-2-43 4-13 13-26 24-36l170-141-52-208c-3-14-1-30 4-44 6-13 15-25 27-34 13-9 30-14 44-14 15 0 31 4 44 11l195 110 193-110z" horiz-adv-x="1000" />

<glyph glyph-name="move" unicode="&#xe805;" d="M471 738l14 14c8 8 22 8 30 0l14-14h4v-5l140-139c13-13 4-36-15-36h-125v-175h175v125c0 19 23 28 36 15l158-158c8-8 8-22 0-30l-158-158c-13-13-36-4-36 15v125h-175v-175h125c19 0 28-23 15-36l-158-158c-8-8-22-8-30 0l-158 158c-13 13-4 36 15 36h125v175h-175l0-125c0-19-23-28-36-15l-158 158c-8 8-8 22 0 30l158 158c13 13 36 4 36-15l0-125h175v175h-125c-19 0-28 23-15 36l140 139v5h4z m8-180v-175h0v175h0z m-187-229v0h175v0h-175z m187-187h0v175h0v-175z m229 187v0h-175v0h175z m-229 0h0v0h0v0z" horiz-adv-x="1000" />

<glyph glyph-name="order-elements" unicode="&#xe806;" d="M639 535c51 0 92 41 92 93 0 51-41 92-92 92-51 0-93-41-93-92 0-52 42-93 93-93z m0-277c51 0 92 41 92 92 0 51-41 93-92 93-51 0-93-42-93-93 0-51 42-92 93-92z m-185-185c0-52-42-93-93-93-51 0-92 41-92 93 0 51 41 92 92 92 51 0 93-41 93-92z m277 0c0-52-41-93-92-93-51 0-93 41-93 93 0 51 42 92 93 92 51 0 92-41 92-92z m-277 277c0-51-42-92-93-92-51 0-92 41-92 92 0 51 41 93 92 93 51 0 93-42 93-93z m0 278c0-52-42-93-93-93-51 0-92 41-92 93 0 51 41 92 92 92 51 0 93-41 93-92z" horiz-adv-x="1000" />

<glyph glyph-name="save-disk" unicode="&#xe807;" d="M878 570l-173 173c-16 15-37 24-59 24h-420c-18 0-37-4-54-11-18-7-34-18-47-31-13-13-24-29-31-46-7-18-11-36-11-55v-548c0-18 4-37 11-54 7-18 18-34 31-47 13-13 29-24 47-31 17-7 36-11 54-11h548c19 0 37 4 55 11 17 7 33 18 46 31 13 13 24 29 31 47 7 17 11 36 11 54v399c0 36-14 70-39 95z m-327 130v-114c0-4-2-8-5-11-2-3-6-4-10-4h-239c-4 0-8 1-10 4-3 3-5 7-5 11v114h269z m-269-702v269c0 13 6 26 15 36 10 10 23 15 36 15h334c13 0 26-5 36-15 9-10 15-23 15-36v-268l-436-1z" horiz-adv-x="1000" />

<glyph glyph-name="search" unicode="&#xe808;" d="M854 46l-163 136-3-2 0 0-17-17-17-16 1-1-3-3 137-162 15 15 50 50z m-116 112l-31-31-31-30 176-205 29 29 32 32 30 29-205 176z m-298-42c168 0 303 134 303 298 0 164-135 299-303 299-168 0-302-135-302-299 0-164 134-298 302-298z m357 298c0-195-159-352-357-352-197 0-357 157-357 352 0 195 160 353 357 353 198 0 357-158 357-353z m-357-222c123 0 222 100 222 222 0 123-99 222-222 222-122 0-221-99-221-222 0-122 99-222 221-222z" horiz-adv-x="1000" />

<glyph glyph-name="trash" unicode="&#xe809;" d="M845 624h-152v4c-14 40-39 74-74 99-34 25-74 39-116 40-43-2-84-16-118-42-34-25-60-60-73-101h-156c-8 0-16-3-22-9-6-6-9-14-9-22 0-8 3-16 9-22 6-6 14-9 22-9h39v-473c0-41 17-81 46-110 29-29 68-46 109-46h300c42 0 81 17 110 46 29 29 45 69 45 110v473h40c8 0 16 3 22 9 6 6 9 14 9 22 0 8-3 16-9 22-6 6-14 9-22 9z m-342 80c25-1 51-8 72-23 22-14 39-33 50-57h-245c11 24 28 43 50 57 22 15 47 22 73 23z m75-552c9 0 16 4 22 9 6 6 9 14 10 22v190c0 8-4 16-10 22-5 6-13 9-22 9-8 0-16-3-22-9-6-6-9-14-9-22v-190c0-8 4-16 9-22 6-5 14-9 22-9z m-133 9c-6-5-14-9-22-9-9 0-17 4-22 9-6 6-10 14-10 22v190c0 8 4 16 9 22 6 6 14 9 23 9 8 0 16-3 22-9 6-6 9-14 9-22v-190c0-8-4-16-9-22z" horiz-adv-x="1000" />

<glyph glyph-name="download" unicode="&#xe80a;" d="M499 487c-3 0-6 0-8-1 2 1 5 1 8 1 8 0 16-3 22-9 6-6 9-14 9-22l0-273 0 0 0 273c0 8-3 16-9 22-6 6-14 9-22 9z m216-325c-7 12-20 21-36 21l-136 0 0 273c0 11-5 23-13 31-8 8-20 13-31 13-12 0-23-5-31-13-8-8-13-20-13-31l0-273-134 0c-14 0-26-6-33-16-3-2-6-5-8-7-4-5-7-10-9-15-2-6-2-11-2-17 0-6 2-11 4-17 3-5 6-9 10-13l191-170 3 0c7-5 16-7 24-7l1 0 10 0 2 1c2 0 3 1 5 2l4 0 190 169c5 4 9 9 12 14 3 6 5 12 5 18 1 7 0 13-2 19-3 6-6 11-11 16 0 1-1 2-2 2z m3-36c0 0 0 0 0 0 0 0 0 0 0 0-1-4-2-9-4-13-2-4-6-7-9-10l-52-46 0 0 52 46c3 3 7 6 9 10 2 4 3 9 4 13 0 0 0 0 0 0z m-583 381c-4-4-9-7-14-8 5 1 10 4 14 8 6 6 9 14 9 22l0 74c1 26 12 50 31 68 11 10 25 18 40 22-15-4-29-12-40-22-19-18-30-42-31-68l0-74c0-8-3-16-9-22z m109 252c-15 1-30-1-45-5 15 4 30 6 45 5l510 0c21 1 42-3 61-11 20-7 37-19 53-33 15-15 27-32 35-51 9-19 13-40 14-61l0-74c0-8-4-16-9-22-4-4-9-7-14-8 5 1 10 4 14 8 5 6 9 14 9 22l0 74c-1 21-5 42-14 61-8 19-20 36-35 51-15 14-33 26-53 33-19 8-40 12-61 11l-510 0z m-88-156l0-74c0-12-4-23-12-31-9-8-20-13-31-13-12 0-23 5-31 13-9 8-13 19-13 31l0 74c0 23 5 45 14 66 9 21 22 39 39 55 16 16 35 28 56 36 21 8 44 12 66 12l510 0c22 0 45-4 66-12 21-8 40-20 56-36 17-16 30-34 39-55 9-21 14-43 14-66l0 0 0-74c0-12-4-23-13-31-8-8-19-13-31-13-11 0-22 5-30 13-9 8-13 19-13 31l0 74c-1 22-11 43-27 58-17 16-38 24-61 23l0 0-510 0c-23 1-44-7-61-23-16-15-26-36-27-58z" horiz-adv-x="1000" />

<glyph glyph-name="upload" unicode="&#xe80b;" d="M501 213c3 0 6 0 9 1-3-1-6-1-9-1-8 0-16 3-22 9-6 6-9 14-9 22v273h0v-273c0-8 3-16 9-22 6-6 14-9 22-9z m-216 325c7-12 20-21 36-21h137v-273c0-11 4-23 12-31 9-8 20-13 31-13 12 0 23 5 31 13 8 8 13 20 13 31v273h134c14 0 26 7 33 17 3 2 6 4 8 7 4 4 7 9 9 14 2 6 3 11 2 17 0 6-2 11-4 17-3 5-6 9-10 13l-191 170h-3c-7 5-16 7-24 7l-1 0h-10l-2-1c-2 0-3-1-5-2h-4l-189-169c-5-4-10-9-13-14-3-6-5-12-5-18-1-7 0-13 3-19 2-6 5-11 10-16 0-1 1-1 2-2z m-3 36c0 0 0 0 0 0 0 0 0 0 0 0 1 4 2 9 4 13 3 4 6 7 9 10l52 46 0 0-52-46c-3-3-6-6-9-10-2-4-3-9-4-13 0 0 0 0 0 0z m583-381c4 4 9 7 14 8-5-1-10-4-14-8-5-5-9-13-9-22v-74c-1-26-12-50-31-67-11-11-25-19-40-23 15 4 29 12 40 23 19 17 30 41 31 67v74c0 9 4 17 9 22z m-109-252c15-1 30 1 45 5-15-4-30-6-45-5h-510c-21-1-41 3-61 11-20 7-37 19-53 33-15 15-27 32-35 51-9 20-13 40-14 61v74c0 9 4 17 10 22 3 4 8 7 13 8-5-1-10-4-13-8-6-5-10-13-10-22v-74c1-21 5-41 14-61 8-19 20-36 35-51 16-14 33-26 53-33 19-8 40-12 61-11h510z m88 156v74c0 12 4 23 13 31 8 8 19 13 31 13 11 0 22-5 30-13 9-8 13-19 13-31v-74c0-23-5-45-14-66-9-20-22-39-39-55-16-16-35-28-56-36-21-8-44-12-66-12h-510c-22 0-45 4-66 12-21 8-40 20-56 36-17 16-30 35-39 55-9 21-14 43-14 66l0 0 0 74c0 12 4 23 13 31 8 8 19 13 31 13 11 0 22-5 31-13 8-8 12-19 12-31v-74c1-22 11-43 27-58 17-16 38-24 61-23l0 0 510 0c23-1 44 7 61 23 16 15 26 36 27 58z" horiz-adv-x="1000" />

<glyph glyph-name="settings-adjusments" unicode="&#xe80c;" d="M360 746c0 15-12 27-27 27-15 0-27-12-27-27v-106c-125-13-223-119-223-248 0-129 98-235 223-249v-189c0-15 12-27 27-27 15 0 27 12 27 27v189c126 14 223 120 223 249 0 129-97 235-223 248v106z m417 0c0 15-12 27-27 27-15 0-27-12-27-27v-398c-79-13-140-82-140-165 0-82 61-151 140-164v-65c0-15 12-27 27-27 15 0 27 12 27 27v65c79 13 140 82 140 164 0 83-61 152-140 165v398z" horiz-adv-x="1000" />

<glyph glyph-name="settings-builder" unicode="&#xe80d;" d="M637 463l-66 66c-4 5-4 12 0 17l148 148c5 5 4 14-2 18-63 31-227 52-321-29-142-121-100-262-66-346 2-5 1-10-2-14l-215-233c-16-17-15-44 3-60l83-71c17-14 42-13 57 4l217 235c4 4 9 5 14 3 71-26 192-47 305 66 110 110 74 260 29 341-4 6-14 8-19 2l-147-147c-5-5-13-5-18 0z" horiz-adv-x="1000" />

<glyph glyph-name="settings-general" unicode="&#xe80e;" d="M164 98l-72 153c-4 7 0 16 7 20l67 31c-3 21-4 43-3 64l-70 25c-7 2-12 11-9 19l57 159c3 7 12 11 20 9l69-25c12 17 27 32 43 47l-32 66c-3 8 0 17 7 20l153 72c7 4 16 1 20-7l31-67c21 3 43 4 64 3l25 70c2 8 11 12 19 9l159-57c7-3 11-12 9-19l-25-70c17-12 32-27 47-42l66 31c8 4 17 0 20-7l72-153c4-7 1-16-7-20l-67-31c3-21 4-43 3-64l70-25c8-2 12-11 9-19l-57-158c-3-8-12-12-19-10l-70 25c-12-16-27-32-42-47l31-66c3-8 0-17-7-20l-153-72c-7-4-16-1-20 7l-31 67c-21-3-43-4-64-3l-25-70c-2-8-11-12-19-9l-158 57c-8 3-12 12-10 20l25 69c-16 12-32 27-47 43l-66-32c-8-3-17 0-20 7z m385 147c58 28 83 97 56 154-28 58-96 83-154 56-58-28-83-96-56-154 28-58 97-83 154-56z" horiz-adv-x="1000" />

<glyph glyph-name="prioritization" unicode="&#xe80f;" d="M494 487l-1 1-125 108c-3 4-7 8-12 10-4 3-10 5-16 6-5 1-11 1-17-1-5-1-10-4-15-7-5-4-9-8-11-13-3-5-5-10-6-16-1-6-1-12 1-17 1-6 4-11 7-15l1-2 56-39h-60c-23 1-47-3-69-12-22-8-42-21-59-37-17-16-31-36-40-58-10-21-15-44-15-68l0-89 0-1c0-23 5-47 15-68 9-22 23-42 40-58 17-16 37-29 59-37 22-9 46-13 69-12h65c12 0 23 4 31 13 8 8 13 19 13 30 0 12-5 23-13 31-8 9-19 13-31 13l-65 0 0 0c-25-1-48 8-66 25-18 16-29 39-30 64v88c1 25 12 48 30 64 18 17 41 26 66 25h75l-69-53-1-1c-4-5-6-10-8-16-1-5-1-11 0-17 0-5 2-11 5-16 3-5 7-9 12-12l0-1 0 0c9-6 20-8 31-7 10 2 20 7 27 15l125 109 1 1c7 10 12 22 12 35 0 12-4 24-12 35z m-151-182c-1 0-3 0-4 0-8-1-15 0-22 5-3 2-6 5-8 9-2 3-3 7-4 11-1 4 0 8 1 12 1 4 2 8 5 11l97 74h-112c-10 1-21-1-31-3 10 2 21 4 31 3h112l-97-74c-3-3-4-7-5-11-1-4-2-8-1-12 0-4 2-8 4-11 2-4 5-7 8-9 7-5 14-6 22-5 1 0 2 0 4 0z m26-230c-2 0-5-1-8-1h-65c-22 0-44 3-64 11-21 8-39 20-55 35-16 15-29 34-38 54-9 20-14 42-14 64v89c1 22 5 43 14 63 9 21 22 39 38 54 16 15 34 27 55 35 5 2 11 3 16 5-5-2-11-3-16-5-21-8-39-20-55-35-16-15-29-34-38-54-9-20-13-41-14-63v-89c0-22 5-44 14-64 9-20 22-39 38-54 16-15 34-27 55-35 20-8 42-11 64-11h65c3 0 6 1 8 1z m-43 524c-4-1-7-3-11-5-3-3-6-6-8-9-2-4-3-8-4-12 0-4 0-8 1-12 1-4 3-8 5-11l87-60h0l-87 60c-2 3-4 7-5 11-1 4-1 8-1 12 1 4 2 8 4 12 2 3 5 6 8 9 4 2 7 4 11 5z m289-104c-18-5-32-21-32-41 0-23 19-41 42-41h250c3 0 6 0 9 1-3-1-6-1-9-1h-250c-23 0-42 18-42 41 0 20 14 36 32 41z m260 13h-250c-30 0-54-24-54-54 0-30 24-54 54-54h250c30 0 54 24 54 54 0 30-24 54-54 54z m-260-180c-18-4-32-21-32-40 0-23 19-42 42-42h250c3 0 6 0 9 1-3-1-6-1-9-1h-250c-23 0-42 19-42 42 0 19 14 35 32 40z m260 14h-250c-30 0-54-25-54-54 0-30 24-55 54-55h250c30 0 54 25 54 55 0 29-24 54-54 54z m-260-181c-18-4-32-21-32-40 0-23 19-42 42-42h250c3 0 6 1 9 1-3 0-6-1-9-1h-250c-23 0-42 19-42 42 0 19 14 36 32 40z m260 14h-250c-30 0-54-24-54-54 0-30 24-54 54-54h250c30 0 54 24 54 54 0 30-24 54-54 54z m-526 117l136 129c16 15 16 41 0 56l-136 129c-23 22-60 4-60-28l0-258c0-33 37-50 60-28z" horiz-adv-x="1000" />

<glyph glyph-name="undo" unicode="&#xe810;" d="M128 444c-18-17-18-46 0-62l129-116c3-3 6-6 9-8l19-17c27-24 69-5 69 31v101h309c24 1 48-8 66-25 18-16 28-39 29-63v-6c-1-24-11-47-29-64-18-16-42-25-66-24l-1 0-148 0c-12 0-23-5-31-13-8-8-13-19-13-31 0-11 5-23 13-31 8-8 19-13 31-13h148c24 0 47 4 69 12 22 9 42 22 59 38 18 16 31 36 41 57 9 22 14 45 15 69l0 0 0 6c-1 24-6 47-15 69-10 21-24 41-41 57-17 16-37 29-59 38-22 8-45 12-69 11h-308v93c0 36-42 55-69 31l-157-140z m226 4h308c22 1 44-3 64-11 21-8 40-20 56-35 16-15 28-33 37-53 9-20 14-42 14-64v-6c0-22-5-43-14-64-9-20-21-38-37-53-16-15-35-27-55-35-8-3-15-5-23-7 8 2 15 4 23 7 20 8 39 20 55 35 16 15 28 33 37 53 9 21 14 42 14 64v6c0 22-5 44-14 64-9 20-21 38-37 53-16 15-35 27-56 35-20 8-42 12-64 11h-308v0z m308-270c7 0 15 1 22 2-7-1-15-2-22-2h-148c-2 0-4 0-5 0 1 0 3 0 5 0h148z" horiz-adv-x="1000" />

<glyph glyph-name="redo" unicode="&#xe811;" d="M872 444c18-17 18-46 0-62l-129-116c-3-3-6-6-9-8l-19-17c-26-24-69-5-69 31v101h-309c-24 1-48-8-66-25-18-16-28-39-29-63v-6c1-24 11-47 29-64 18-16 42-25 66-24l1 0 148 0c12 0 23-5 31-13 8-8 13-19 13-31 0-11-5-23-13-31-8-8-19-13-31-13h-148c-23 0-47 4-69 12-22 9-42 22-59 38-17 16-31 36-41 57-9 22-14 45-15 69l0 0 0 6c1 24 6 47 15 69 10 21 24 41 41 57 17 16 37 29 59 38 22 8 46 12 69 11h308v93c0 36 43 55 69 31l157-140z m-226 4h-308c-22 1-44-3-64-11-21-8-40-20-56-35-15-15-28-33-37-53-9-20-14-42-14-64v-6c0-22 5-43 14-64 9-20 21-38 37-53 16-15 35-27 56-35 7-3 14-5 22-7-8 2-15 4-22 7-21 8-40 20-56 35-16 15-28 33-37 53-9 21-14 42-14 64v6c0 22 5 44 14 64 9 20 22 38 37 53 16 15 35 27 56 35 20 8 42 12 64 11h308v0z m-308-270c-7 0-15 1-22 2 7-1 15-2 22-2h148c2 0 4 0 6 0-2 0-4 0-6 0h-148z" horiz-adv-x="1000" />

<glyph glyph-name="refresh-1" unicode="&#xe812;" d="M882 382c-8 0-16-3-22-9-6-6-9-14-9-22 0-23-2-45-6-67-16-81-59-153-122-206-63-52-143-81-225-81-82 0-161 28-225 79-63 52-107 124-124 204-16 81-4 164 34 237 38 72 100 129 176 161 75 32 159 37 238 14 66-20 125-58 169-110l-33-14c-1-1-3-1-5-2-1-1-3-1-4-2l-3-1c-21-10-22-40 0-50l1-1c2-1 5-3 7-4l16-6 101-46c14-7 32 0 37 16l43 130c8 22-15 43-36 34l-11-5c-2-1-4-1-7-2-2-1-3-2-5-3l-40-18c-53 68-126 117-208 141-93 28-192 22-281-15-89-37-162-105-207-190-45-85-59-184-39-278 19-94 71-179 146-240 75-61 169-93 265-93 96 1 190 35 264 97 74 62 124 147 142 242 5 26 6 52 6 78 0 4-1 9-3 13-1 4-4 7-7 10-3 3-6 5-10 7-4 1-9 2-13 2z m-31-31c0 8 3 16 9 22 6 6 14 9 22 9 4 0 9-1 13-2 4-2 7-4 10-7 3-3 6-6 7-10 2-4 3-9 3-13 0-26-1-52-6-78-18-95-68-180-142-242-74-62-168-96-264-97-96 0-190 32-265 93-75 61-127 146-146 240-20 94-6 193 39 278 45 85 118 153 207 190 89 37 188 43 281 15 82-24 155-73 208-141l40 18c2 1 3 2 5 3 3 1 5 1 7 2l11 5c21 9 44-12 36-34l-43-130c-5-16-23-23-37-16l-101 46-16 6c-2 1-5 3-7 4l-1 1c-22 10-21 40 0 50l3 1c1 0 3 1 4 2 2 1 4 1 5 2l33 14c-3 3-5 7-8 10-44 47-99 82-161 100-79 23-163 18-238-14-76-32-138-89-176-161-38-73-50-156-34-237 17-80 61-152 124-204 64-51 143-79 225-79 82 0 162 29 225 81 63 53 106 125 122 206 4 22 6 44 6 67z m-19-65c-15-78-56-148-117-198-61-50-138-78-217-78-79-1-156 26-217 76-61 50-103 119-119 197-16 77-5 158 32 228 37 70 97 125 169 156 73 31 154 35 230 13 59-17 111-50 152-93l-16-7c-2-1-4-2-6-3-2 0-3-1-5-2l-2-1c-31-14-32-58-1-72 3-2 6-4 10-5l15-7 100-46c22-9 47 1 55 24l43 130c11 32-22 63-53 49l-10-4c-2-1-5-2-8-3-2-1-4-2-6-3l-30-13c-54 65-127 113-209 137-95 29-197 23-289-15-91-39-167-108-213-196-46-88-60-189-40-286 20-98 73-185 150-248 77-62 174-96 273-95 99 0 195 36 272 99 76 64 128 152 147 250l0 0c4 26 6 53 5 80m-95-64c4 21 6 43 6 65 0 11 5 22 13 31 8 8 19 12 31 12 6 1 12 0 17-3 6-2 11-5 15-9 4-4 8-9 10-15 2-5 3-11 3-17m-538-196l-5 3c-26 16-34 50-18 76l41 63-71-4c-31-1-57 23-57 55v6c0 32 27 56 58 54l71-4-41 64c-16 26-8 60 18 76l5 3c27 16 63 5 76-24l34-72 34 71c13 30 49 41 77 24l5-3c26-16 33-50 17-75l-40-64 70 4c31 2 58-22 58-54v-7c0-31-26-55-57-54l-72 4 41-63c16-26 8-60-18-76l-5-3c-27-16-63-5-76 24l-35 73-34-73c-13-29-49-40-76-24z" horiz-adv-x="1000" />

<glyph glyph-name="refresh" unicode="&#xe813;" d="M882 382c-8 0-16-3-22-9-6-6-9-14-9-22 0-23-2-45-6-67-16-81-59-153-122-206-63-52-143-81-225-81-82 0-161 28-225 79-63 52-107 124-124 204-16 81-4 164 34 237 38 72 100 129 176 161 75 32 159 37 238 14 66-20 125-58 169-110l-33-14c-1-1-3-1-5-2-1-1-3-1-4-2l-3-1c-21-10-22-40 0-50l1-1c2-1 5-3 7-4l16-6 101-46c14-7 32 0 37 16l43 130c8 22-15 43-36 34l-11-5c-2-1-4-1-7-2-2-1-3-2-5-3l-40-18c-53 68-126 117-208 141-93 28-192 22-281-15-89-37-162-105-207-190-45-85-59-184-39-278 19-94 71-179 146-240 75-61 169-93 265-93 96 1 190 35 264 97 74 62 124 147 142 242 5 26 6 52 6 78 0 4-1 9-3 13-1 4-4 7-7 10-3 3-6 5-10 7-4 1-9 2-13 2z m-31-31c0 8 3 16 9 22 6 6 14 9 22 9 4 0 9-1 13-2 4-2 7-4 10-7 3-3 6-6 7-10 2-4 3-9 3-13 0-26-1-52-6-78-18-95-68-180-142-242-74-62-168-96-264-97-96 0-190 32-265 93-75 61-127 146-146 240-20 94-6 193 39 278 45 85 118 153 207 190 89 37 188 43 281 15 82-24 155-73 208-141l40 18c2 1 3 2 5 3 3 1 5 1 7 2l11 5c21 9 44-12 36-34l-43-130c-5-16-23-23-37-16l-101 46-16 6c-2 1-5 3-7 4l-1 1c-22 10-21 40 0 50l3 1c1 0 3 1 4 2 2 1 4 1 5 2l33 14c-3 3-5 7-8 10-44 47-99 82-161 100-79 23-163 18-238-14-76-32-138-89-176-161-38-73-50-156-34-237 17-80 61-152 124-204 64-51 143-79 225-79 82 0 162 29 225 81 63 53 106 125 122 206 4 22 6 44 6 67z m-19-65c-15-78-56-148-117-198-61-50-138-78-217-78-79-1-156 26-217 76-61 50-103 119-119 197-16 77-5 158 32 228 37 70 97 125 169 156 73 31 154 35 230 13 59-17 111-50 152-93l-16-7c-2-1-4-2-6-3-2 0-3-1-5-2l-2-1c-31-14-32-58-1-72 3-2 6-4 10-5l15-7 100-46c22-9 47 1 55 24l43 130c11 32-22 63-53 49l-10-4c-2-1-5-2-8-3-2-1-4-2-6-3l-30-13c-54 65-127 113-209 137-95 29-197 23-289-15-91-39-167-108-213-196-46-88-60-189-40-286 20-98 73-185 150-248 77-62 174-96 273-95 99 0 195 36 272 99 76 64 128 152 147 250l0 0c4 26 6 53 5 80m-95-64c4 21 6 43 6 65 0 11 5 22 13 31 8 8 19 12 31 12 6 1 12 0 17-3 6-2 11-5 15-9 4-4 8-9 10-15 2-5 3-11 3-17" horiz-adv-x="1000" />

<glyph glyph-name="restore" unicode="&#xe814;" d="M142 383c-5 2-10 3-15 4l0 0c-11 0-22-4-30-11-8-7-12-17-13-28l0 0c-2-35 0-57 8-92 1-5 3-11 6-15 4-5 8-9 13-12 9-5 19-7 29-5l1 0 0 1c11 3 19 9 25 19 5 9 7 20 4 30-5 28-6 42-4 70l-1-7 1 7c0 5-1 11-3 16-1 5-4 9-8 13-3 4-8 8-13 10z m9-183c5 3 10 5 16 5 6 1 11 0 17-2 5-2 10-4 15-8 4-4 7-8 10-13l4-7c12-24 28-46 45-66 8-9 13-20 13-31 0-11-5-23-13-31l0 0-1 0c-8-8-18-12-29-11-6 0-12 1-18 3-5 3-10 7-14 11-26 28-47 59-64 92l0 0c-5 10-6 22-3 33 4 11 11 20 21 25l1 0z m16 240c-9 0-17 3-25 8-7 5-13 12-16 20l-38 102c-2 5-4 11-4 17 0 6 1 12 3 18 2 5 5 10 9 15 5 4 10 7 15 10 6 2 12 3 18 3 6-1 12-2 18-5 5-2 29-16 33-21 36 45 81 82 132 109 62 33 131 50 201 51 65 0 130-14 189-42 59-29 110-70 151-121 41-52 69-111 83-175 14-64 13-130-3-194-16-63-46-123-87-173-42-50-95-90-155-117-60-26-125-39-190-36-65 2-129 19-187 50-5 2-10 6-13 10-4 4-7 10-9 15-2 6-3 12-3 18 1 6 2 11 5 17 3 5 7 9 11 13 5 4 10 7 16 8 5 2 11 3 17 2 6-1 12-3 17-6 48-25 103-39 158-40 58 0 116 16 167 45 51 29 93 70 124 120 30 51 47 108 48 166 2 59-11 117-39 169-27 52-67 96-116 127-50 32-106 51-165 54-58 4-117-8-169-33-38-19-63-35-91-65 0 0 0-1-1-1 5-2 28-18 31-22 4-5 8-9 10-15 2-5 3-11 3-17-1-5-2-11-4-16-3-6-6-10-10-14-4-4-9-7-14-9l-103-42c-6-2-11-3-17-3z m318 118c27 0 48-21 48-48v-173c0-10 4-19 11-25l100-101c19-19 19-49 0-68-18-18-49-18-67 0l-101 101c-25 24-38 58-38 93v173c0 27 21 48 47 48z" horiz-adv-x="1000" />

<glyph glyph-name="transfer" unicode="&#xe815;" d="M710 470v-82c0-18 12-32 26-36 7-4 15-7 23-7l0 0c6 0 13 1 18 4 6 3 11 6 15 11l110 124 5 4c16 16 16 42 0 57l-47 44-67 76c-3 4-8 8-13 11-5 3-10 5-16 5-2 1-5 1-7 1-22 7-47-10-47-37v-87h-377c-11 0-22-5-31-13-8-9-12-20-12-31 0-12 4-23 12-31 9-8 20-13 31-13h377z m0 13v0h-377c-8 0-16 3-22 9-6 6-9 13-9 22 0 8 3 16 9 22 4 4 9 7 15 8-6-1-11-4-15-8-6-6-9-14-9-22 0-9 3-16 9-22 6-6 14-9 22-9h377z m-418-359l377 0c11 0 23 5 31 13 8 8 13 19 13 31 0 12-5 23-13 31-8 8-20 13-31 13l-377 0 0 81c0 19-12 32-26 37-7 4-15 6-23 7l0 0c-6 0-12-2-18-4-6-3-11-7-15-11l-110-125-5-4c-16-15-16-41 0-56l47-44 67-76c4-4 8-8 13-11 5-3 11-5 16-6 3 0 5 0 7 0 22-7 47 9 47 36l0 88z m384 14c6 1 11 4 15 8 6 6 9 14 9 22 0 8-3 16-9 22-6 6-14 9-22 9l-377 0 0 0 377 0c8 0 16-3 22-9 6-6 9-14 9-22 0-8-3-16-9-22-4-4-9-7-15-8z" horiz-adv-x="1000" />

<glyph glyph-name="robot" unicode="&#xe817;" d="M583 725c0-40-27-73-64-81v-33c99-3 192-24 263-82 47-38 79-89 98-151 47-14 76-50 78-122 3-73-16-98-66-108-13-79-45-140-106-180-74-49-177-56-286-56-109 0-212 7-286 56-60 40-93 101-106 180-50 10-69 35-66 108 3 72 31 108 78 122 19 62 51 113 98 151 70 58 162 79 259 81v35c-35 10-60 42-60 80 0 46 37 83 83 83 46 0 83-37 83-83z m-302-354c-15-72-22-141-17-215 5-34 38-68 74-72 108-10 215-10 324 0 34 6 71 36 74 72 5 74-2 143-17 215-13 104-427 106-438 0z m94-146c23 0 42 19 42 42 0 23-19 41-42 41-23 0-42-18-42-41 0-23 19-42 42-42z m250 0c23 0 42 19 42 42 0 23-19 41-42 41-23 0-42-18-42-41 0-23 19-42 42-42z m-84 16c11 0 21-9 21-21 0-20-16-29-26-33-11-4-23-5-33-6-11 0-22 1-29 1-22 2-34 7-31 25 0 17 20 18 34 17 7-1 16-1 24-1 9 0 16 1 20 3 2 8 10 15 20 15z" horiz-adv-x="1000" />

<glyph glyph-name="builder-carrousel" unicode="&#xe818;" d="M636 96h-272c-25 0-48 10-66 28-18 17-28 41-28 66v320c0 25 10 49 28 66 18 18 41 28 66 28h272c25 0 49-10 66-28 18-17 28-41 28-66v-320c0-25-10-49-28-66-17-18-41-28-66-28z m-272 445c-8 0-16-3-21-9-6-6-10-14-10-22v-320c1-8 4-16 10-22 6-6 13-9 22-9h271c9 0 16 3 22 9 6 6 9 14 10 22v320c-1 8-4 16-10 22-6 6-13 9-22 9h-272z m-144-15h-62c-19 1-37-5-51-18-14-12-22-29-24-48v-220c2-18 10-36 24-48 14-12 32-19 51-18h63c9 0 17 3 22 9 6 6 10 14 10 22l-3 290c0 8-3 15-9 21-5 6-13 9-21 10z m559 0h63c19 1 37-5 51-18 14-12 23-29 24-48v-220c-1-9-3-18-7-27-5-8-10-15-17-22-7-6-15-10-24-13-9-3-18-4-28-4h-62c-8 0-16 3-22 9-6 6-9 14-9 22v290c0 8 3 16 9 22 6 6 14 9 22 9z" horiz-adv-x="1000" />

<glyph glyph-name="builder-new-state" unicode="&#xe81a;" d="M208 642h584c33 0 65-13 88-37 24-23 37-55 37-88v-292c0-33-13-65-37-88-23-24-55-37-88-37h-190c-1-12-3-23-8-34-8-20-21-36-38-47-17-12-38-18-58-18-21 0-41 6-58 18-17 11-30 27-38 47-5 11-8 22-8 34h-186c-33 0-65 13-88 37-23 23-37 55-37 88v292c0 33 14 65 37 88 23 24 55 37 88 37z m252-497c8 8 17 13 28 16 11 2 22 1 33-4 10-4 19-11 25-20 6-9 9-20 9-31 0-11-3-22-9-32-6-9-15-16-25-20-11-4-22-6-33-3-11 2-20 7-28 15-11 11-16 25-16 40 0 14 5 29 16 39z m-214 264h500c10 0 19-4 26-11 7-7 11-16 11-26 0-10-4-20-11-27-7-7-16-11-26-11h-500c-10 0-20 4-27 11-7 7-11 17-11 27 0 10 4 19 11 26 7 7 17 11 27 11z" horiz-adv-x="1000" />

<glyph glyph-name="builder-quick-reply" unicode="&#xe81b;" d="M87 440c-26-23-41-56-43-90 1-17 5-34 13-50 7-16 18-30 30-41 13-12 28-21 44-27 16-5 34-8 51-7h129c17-1 35 2 51 7 2 1 5 2 8 3-3-1-6-2-8-3-16-5-34-8-51-7h-129c-17-1-34 2-51 7-16 6-31 15-44 27-12 11-23 25-30 41-8 16-12 33-13 50 2 34 17 67 43 90 11 11 23 19 37 24-14-5-26-14-37-24z m40-219c18-7 36-10 55-9h129c19-1 37 2 55 9 18 6 34 16 48 29 14 12 26 28 34 45 8 17 12 35 13 54l0 1 0 0c-1 19-5 38-13 55-8 17-20 32-34 45-14 13-30 23-48 29-18 6-36 9-55 8h-130c-38 2-75-12-103-37-28-26-44-62-46-100l0 0 0-1c1-19 5-37 13-54 9-17 20-33 34-45 14-13 30-23 48-29z m430 179c-8-16-12-33-13-50 1-17 5-34 13-50 7-16 18-30 30-41 13-12 28-21 44-27 16-5 34-8 51-7h130c18-1 35 1 51 7 3 1 6 2 9 3-3-1-6-2-8-3-17-6-34-8-52-7h-130c-17-1-34 2-51 7-16 6-31 15-44 27-12 11-23 25-30 41-8 16-12 33-13 50 1 17 5 34 13 50 7 15 18 29 30 41 11 10 24 18 37 23-14-5-26-13-37-23-12-12-23-26-30-41z m70-179c18-7 36-10 55-9h130c19-1 38 2 56 8 18 7 34 16 48 29 14 13 26 28 34 45 8 18 13 36 14 55l0 1 0 0c-1 19-6 38-14 55-8 17-20 33-34 46-14 12-30 22-48 28-18 7-37 9-56 8h-130c-19 1-37-2-55-8-18-6-34-16-48-29-14-13-25-28-34-45-8-17-12-36-13-55l0 0 0-1c1-19 5-37 13-54 9-17 20-33 34-45 14-13 30-23 48-29z" horiz-adv-x="1042" />

<glyph glyph-name="builder-test-bot" unicode="&#xe81c;" d="M861 81l-157 274c-16 29-22 63-19 96 1 1 1 3 0 4v57h8c18-1 35 1 52 7 16 6 31 16 44 28 13 12 23 26 30 42 7 16 10 34 10 51 0 18-3 35-10 51-7 16-17 31-30 43-13 12-28 21-44 27-17 6-34 9-52 8h-381c-17 1-35-2-51-8-17-6-32-15-45-27-12-12-23-27-30-43-6-16-10-33-10-51 0-17 4-35 10-51 7-16 18-30 30-42 13-12 28-22 45-28 16-6 34-8 51-7h8v-57c0-1 0-3 0-4 3-33-3-67-18-96l-157-274c-9-14-13-31-13-48 0-17 4-34 12-48 9-15 21-27 36-36 14-8 31-13 48-13h549c17 0 34 5 49 13 14 9 26 21 35 36 8 14 13 31 13 48 0 17-5 34-13 48h0z m-54-64c-3-6-7-10-13-13-5-3-11-5-17-4h-549c-6-1-12 1-17 4-5 3-9 7-12 13-3 5-5 11-5 17 0 6 2 12 5 17l140 243c27 12 90 26 178-49 98-82 177-59 205-47l85-148c3-5 4-11 4-17 0-5-1-11-4-16z m-222 411c0-14-12-26-27-26-15 0-26 12-26 26 0 15 11 27 26 27 15 0 27-12 27-27z m-114-124c22 0 41 18 41 41 0 22-19 40-41 40-23 0-41-18-41-40 0-23 18-41 41-41z m-62-219c-12 0-24 4-34 11-10 6-18 16-23 27-4 11-5 24-3 35 2 12 8 23 17 31 8 9 19 15 31 17 12 2 24 1 35-4 11-4 21-12 27-22 7-10 11-22 10-34 0-16-6-32-17-43-12-11-27-18-43-18z" horiz-adv-x="1042" />

<glyph glyph-name="builder-router" unicode="&#xe81d;" d="M825 273h34c16 0 31-6 43-18 11-11 17-27 17-43v-122c1-8-1-16-4-23-3-7-8-14-13-20-6-5-13-10-20-13-8-3-16-4-24-4h-122c-8 0-16 1-23 4-7 3-14 8-20 13-5 6-10 13-13 20-3 8-4 16-4 23v122c0 16 6 32 17 43 12 11 27 18 43 18h26v42h-231v-42h29c16 0 32-7 43-18 12-11 18-27 18-43v-122c0-16-6-31-18-43-11-11-27-17-43-17h-121c-16 0-32 6-43 17-12 12-18 27-18 43v122c0 8 1 16 5 24 3 7 7 14 13 20 6 5 13 10 20 13 8 3 16 4 24 4h29v42h-226v-42h26c16 0 31-7 43-18 11-11 17-27 17-43v-122c1-7-1-15-4-23-3-7-7-14-13-20-6-5-12-10-20-13-7-3-15-4-23-4h-122c-8 0-16 1-24 4-7 3-14 8-19 13-6 6-10 13-13 20-3 8-5 16-5 23v122c0 8 2 16 5 24 3 7 7 14 13 19 5 6 12 11 20 14 7 3 15 4 23 4h34v42c0 16 6 32 18 43 11 12 27 18 43 18h226v51h-29c-16 0-32 7-43 18-12 11-18 27-18 43v122c0 8 1 16 4 23 4 8 8 14 14 20 6 6 12 10 20 13 7 3 15 5 23 4h122c16 0 31-6 43-17 11-12 17-27 18-43v-122c-1-16-7-32-18-43-12-11-27-18-43-18h-30v-51h233c16 0 31-7 43-18 11-12 18-27 18-43v-42z" horiz-adv-x="1042" />

<glyph glyph-name="deslike-1" unicode="&#xe821;" d="M920 310l-33-201c-6-37-25-71-53-96-29-25-66-38-104-38l-182 0c-47 0-94 13-135 38l-23 14c-12-29-33-54-58-71-26-17-57-26-88-26l-2 0c-21 0-41 4-60 12-20 8-37 19-52 34-15 14-26 32-34 51-8 19-13 40-13 61l0 237c1 36 13 71 36 99 22 28 54 48 89 55 35 8 72 4 104-12 33-16 59-43 74-75 76 81 127 182 149 291 1 22 11 42 26 56 15 15 36 23 57 24l7 0c13 0 27-2 39-8 12-5 23-13 31-24 33-41 33-119 0-238l67 0c23 0 46-5 67-14 21-10 39-24 54-42 15-17 26-38 32-60 6-22 7-45 4-68l1 1z m-83 88c-9 11-21 20-33 26-13 5-27 9-41 9l-109 0c-5 0-10 1-15 4-5 3-8 7-11 11-2 4-4 9-4 13-1 5 0 10 1 14 50 164 28 208 20 218-2 3-7 10-25 9-3 0-6-1-9-2-3-1-5-3-7-5-3-2-4-4-6-7-1-3-2-6-2-9 1-2 1-4 0-6-51-220-159-325-194-347l0-233 42-26c31-19 66-29 103-29l182 0c23 0 45 8 62 23 18 15 29 36 33 58l33 201c2 14 2 28-2 42-3 13-10 26-18 36z" horiz-adv-x="1000" />

<glyph glyph-name="cart-shop" unicode="&#xe823;" d="M128 708c-10 1-24 1-45 1h-9c-17 0-31 14-31 31 0 18 14 32 31 32h9 1 0c20 0 36 0 49-1 14-1 27-4 40-9 20-9 37-24 49-42 7-12 12-24 15-38 3-13 5-29 8-48l1-3 537 0c27 0 50 0 68-1 18-2 36-5 51-15 24-14 42-36 51-63 5-17 5-35 3-53-3-18-8-40-14-67l-39-173c-3-18-7-33-10-45-4-13-9-24-17-35-12-17-29-30-48-38-12-6-24-8-38-9-12-1-28-1-46-1h-343 0c-19 0-35 0-49 1-14 1-27 4-40 9-20 9-36 24-48 42-8 12-12 24-16 38-3 13-5 29-8 48l0 0-56 354c-3 20-5 34-8 45-2 10-4 14-7 18-5 8-13 15-22 19-3 1-8 3-19 3z m203-733c0 40 32 73 73 73 40 0 73-33 73-73 0-40-33-73-73-73-41 0-73 33-73 73z m333 0c0 40 33 73 73 73 40 0 73-33 73-73 0-40-33-73-73-73-40 0-73 33-73 73z" horiz-adv-x="1000" />

<glyph glyph-name="heart" unicode="&#xe824;" d="M427 13c21-12 46-23 73-23 27 0 52 11 73 23 22 13 43 29 62 45 10 8 21 16 32 24 48 37 103 79 147 130 56 62 99 141 99 243 0 105-59 195-145 235-80 36-179 25-268-53-88 78-188 89-268 53-86-40-145-130-145-235 0-102 43-181 99-243 44-51 99-93 147-130 11-8 22-16 32-24 19-16 40-32 62-45z" horiz-adv-x="1000" />

<glyph glyph-name="notes" unicode="&#xe825;" d="M766-85h-532c-45 0-87 18-119 50-32 31-50 74-50 119v532c0 45 18 88 50 119 32 32 74 50 119 50h183c11 0 22-5 31-13 8-8 12-20 12-31 0-12-4-23-12-31-9-8-20-13-31-13h-183c-21 0-42-8-57-24-15-15-24-36-24-57v-532c0-21 9-42 24-57 15-15 36-24 57-24h532c21 0 42 9 57 24 16 15 24 36 24 57v292c0 11 5 23 13 31 8 8 19 13 31 13 11 0 23-5 31-13 8-8 13-20 13-31v-292c0-45-18-88-50-119-31-32-74-50-119-50z m-532 13h532c12 0 24 1 35 4-11-3-23-4-35-4h-532c-41 0-81 16-110 46-30 29-46 69-46 110v532c0 41 16 81 46 110 20 21 45 35 72 41-27-6-52-20-72-41-30-29-46-69-46-110v-532c0-41 16-81 46-110 29-30 69-46 110-46z m635 470c4 4 9 7 14 8-5-1-10-4-14-8-6-6-9-14-9-22v-292c0-25-10-48-28-66-12-12-26-20-42-24 16 4 30 12 42 24 18 17 28 41 28 66v292c0 8 3 16 9 22z m-635 312c-7 0-15-1-22-3 7 2 15 3 22 3h183c2 0 5 0 7 1-2-1-5-1-7-1h-183z m281-518h-6l-102 9c-17 2-33 9-44 21-12 12-19 28-20 45l-10 101c-1 10 1 20 4 30 4 9 9 18 16 25l314 316c10 10 22 19 35 24 14 6 28 9 43 9 14 0 28-3 42-9 13-5 25-13 36-24l62-63c11-10 19-22 25-36 6-13 8-27 8-42 0-15-2-29-8-43-6-13-14-25-25-35-15-15-31-31-48-48-1-1-2-2-4-4-1-1-3-2-4-4-28-26-56-53-85-80l-23-23c-56-53-120-115-154-149-7-6-15-12-24-15-9-4-18-5-28-5z m302 352c0 1 1 1-8-7l-127 127 28 31c4 5 9 8 15 11 6 2 12 3 18 3 7 0 13-1 19-3 6-3 11-6 15-11l63-63c5-4 8-10 11-16 2-5 3-12 3-18 0-6-1-13-4-18-2-6-6-11-10-16-23-23-23-21-23-20z" horiz-adv-x="1000" />

<glyph glyph-name="pin-solid" unicode="&#xe826;" d="M275 187l-177-177c-12-13-12-32 0-45 12-12 32-12 44 0l177 178 173-173c25-25 67-25 92 0l48 48c2 2 4 4 5 6 3 2 6 5 9 8 54 55 59 141 13 201l210 210c40 40 40 104 0 144l-150 150c-40 40-104 40-144 0l-210-211c-60 46-146 42-201-13-3-2-5-5-8-8-2-2-3-3-5-5l-48-48c-26-26-26-67 0-93l172-172z" horiz-adv-x="1000" />

<glyph glyph-name="save" unicode="&#xe827;" d="M672 767h-369c-18 0-36-4-52-11-17-6-32-16-44-29-13-13-23-28-30-44-7-17-10-35-10-53v-560c0-34 12-67 36-93 23-25 55-40 89-43h7c3-1 7-1 10 0 4-1 7-1 10 0 5 0 9 2 14 3l9 4c5 2 10 4 14 7l7 4c7 5 13 10 19 15l93 91c3 2 5 4 8 5h2 5c2 0 4 0 5 0h3c3-1 5-3 7-5l85-88c6-6 12-11 19-16 3 0 5-3 7-4 5-3 10-6 15-8l9-4c5-2 10-3 15-4 3 0 6 0 10 0 3 0 7 0 10 0h8c34 3 66 19 89 44 23 25 36 58 36 92v560c0 18-3 36-10 53-7 16-17 31-30 44-12 12-27 22-44 29-16 7-34 11-52 11z" horiz-adv-x="1000" />

<glyph glyph-name="unpin-solid" unicode="&#xe828;" d="M375 524l-222 221c-12 12-32 12-44 0-12-12-12-32 0-44l239-239c1-2 3-4 4-5l247-247c2-2 3-3 5-4l257-257c12-12 32-12 44 0 12 12 12 32 0 44l-239 239 207 207c39 39 39 103 0 143l-149 149c-39 39-103 39-142 0l-207-207z m-95-354l-168-169c-13-12-13-32 0-44 12-12 32-12 44 0l168 169 163-163c26-26 70-26 96 0l53 53c27 27 27 70 0 97l-381 380c-26 27-70 27-96 0l-53-52c-27-27-27-70 0-97l174-174z" horiz-adv-x="1000" />

<glyph glyph-name="mark-solid" unicode="&#xe82a;" d="M42 542c0 78 63 141 141 141l485 0c48 0 93-24 119-65l143-223c17-27 17-62 0-90l-143-223c-26-41-71-65-119-65h-485c-78 0-141 63-141 141v384z" horiz-adv-x="1000" />

<glyph glyph-name="arrow-ball-left" unicode="&#xe833;" d="M500 767c-82 0-163-25-231-71-69-45-122-110-154-186-31-77-40-160-24-241 16-81 56-155 114-214 59-58 133-98 214-114 81-16 164-8 240 24 77 32 142 85 187 154 46 68 71 149 71 231 0 111-44 217-122 295-78 78-184 122-295 122v0z m78-557c6-6 9-14 9-22 0-9-3-17-9-23-3-2-6-5-10-6-4-2-8-3-12-3-4 0-8 1-12 3-4 1-7 3-10 6l-163 163c-3 3-5 6-7 10-1 4-2 8-2 12 0 4 1 8 2 12 2 4 4 7 7 10l163 163c3 3 6 5 10 7 4 2 8 3 12 3 4 0 8-1 12-3 4-1 8-4 11-7 3-3 5-6 7-10 1-4 2-8 2-12 0-4-1-9-3-12-1-4-4-8-7-11l-140-140 140-140z" horiz-adv-x="1000" />

<glyph glyph-name="arrow-ball-right" unicode="&#xe834;" d="M795 645c-19 18-40 35-62 50-69 47-150 72-233 72-83 0-164-25-233-72-22-15-43-32-62-50-78-79-122-184-122-295 0-110 44-216 122-295 19-18 40-35 62-50 69-47 150-72 233-72 83 0 164 25 233 72 22 15 43 32 62 50 78 79 122 185 122 295 0 111-44 216-122 295z m-180-317l-162-163c-3-3-6-5-10-6-4-2-8-3-12-3-4 0-8 1-12 3-4 1-7 4-10 6-6 6-9 14-9 23 0 8 3 16 9 22l140 140-140 140c-6 6-9 14-9 22 0 8 4 16 9 22 6 6 14 9 22 9 8 0 16-3 22-8l162-163c3-3 6-6 7-10 2-4 3-8 3-12 0-4-1-8-3-12-1-4-4-7-7-10z" horiz-adv-x="1000" />

<glyph glyph-name="arrow-ball-up" unicode="&#xe835;" d="M500 767c-82 0-163-25-231-71-69-45-122-110-154-186-31-77-40-160-24-241 16-81 56-155 114-214 59-58 133-98 214-114 81-16 164-8 240 24 77 32 142 85 187 154 46 68 71 149 71 231 0 111-44 217-122 295-78 78-184 122-295 122v0z m185-489c-3-3-7-5-10-6-4-2-8-3-12-3-5 0-9 1-12 3-4 1-8 3-11 6l-140 140-140-140c-3-3-7-5-10-7-4-1-8-2-12-2-5 0-9 1-12 2-4 2-8 4-11 7-5 6-9 14-9 22 0 9 4 17 9 23l163 162c3 3 6 5 10 7 4 1 8 2 12 2 4 0 8-1 12-2 4-2 7-4 10-7l163-162c5-6 9-14 9-23 0-8-4-16-9-22z" horiz-adv-x="1000" />

<glyph glyph-name="arrow-ball-down" unicode="&#xe836;" d="M500 767c-82 0-163-25-231-71-69-45-122-110-154-186-31-77-40-160-24-241 16-81 56-155 114-214 59-58 133-98 214-114 81-16 164-8 240 24 77 32 142 85 187 154 46 68 71 149 71 231 0 111-44 217-122 295-78 78-184 122-295 122v0z m185-393l-163-163c-6-6-14-9-22-9-8 0-16 3-22 9l-163 163c-5 6-9 14-9 22 0 8 4 16 9 22 3 3 7 5 11 7 3 1 7 2 12 2 4 0 8-1 12-2 3-2 7-4 10-7l140-140 140 140c3 3 7 5 11 7 3 1 7 2 12 2 4 0 8-1 12-2 3-2 7-4 10-7 5-6 9-14 9-22 0-8-4-16-9-22z" horiz-adv-x="1000" />

<glyph glyph-name="arrow-filter-table" unicode="&#xe837;" d="M688 424h-409c-15 0-29 5-41 13-11 8-20 20-25 34-5 13-6 28-2 42 4 14 11 27 23 36l179 150c20 17 45 26 71 26 26 0 51-9 70-26l180-150c11-9 19-22 22-36 4-14 3-29-1-42-5-14-14-26-26-34-12-8-26-13-41-13z m-409-117h409c15 0 29-4 41-12 12-9 21-21 26-34 4-14 5-29 1-43-3-14-11-26-22-36l-180-150c-19-16-44-26-70-25-26 0-51 9-71 25l-179 150c-12 10-19 22-23 36-4 14-3 29 2 43 5 13 14 25 25 34 12 8 26 12 41 12z" horiz-adv-x="1000" />

<glyph glyph-name="arrow-left" unicode="&#xe838;" d="M250 744c22 0 40-18 40-40l0-646c0-21-18-39-40-39-22 0-40 18-40 39l0 646c0 22 18 40 40 40z m0-713c2 0 4 1 7 1-3 0-5-1-7-1-15 0-27 12-27 27l0 646c0 13 9 24 20 26-11-2-20-13-20-26l0-646c0-15 12-27 27-27z m427 691c17 5 35 4 51-3 16-5 31-16 41-31 10-14 15-31 15-49v-557c0-23-9-44-25-60-16-16-38-25-61-26-12 0-24 3-36 8-11 6-21 13-29 23l-205 244c-21 25-32 57-32 89 0 33 11 64 32 89l205 245c11 14 27 24 44 28z" horiz-adv-x="1000" />

<glyph glyph-name="arrow-right-1" unicode="&#xe839;" d="M731 443l-203 245c-10 15-25 27-43 33-18 6-37 5-55-1-17-6-32-18-42-34-10-15-14-34-13-53v-558c0-17 6-35 16-49 10-14 24-25 41-31 9-4 19-6 29-5 13-1 26 2 37 7 12 6 22 14 30 24l205 245c21 25 32 57 31 89 0 32-12 64-33 88z" horiz-adv-x="1000" />

<glyph glyph-name="arrow-left-1" unicode="&#xe83a;" d="M624 719c-17 7-35 8-52 3-17-4-32-14-43-28l-205-245c-21-25-32-56-32-89 0-32 11-64 32-89l205-244c8-10 18-17 29-23 11-5 24-8 36-8 23 1 44 10 60 26 16 16 25 37 26 60v557c0 18-5 35-15 49-10 15-25 26-41 31z" horiz-adv-x="1000" />

<glyph glyph-name="command" unicode="&#xe83b;" d="M253 683c-92 0-167-74-167-166v-334c0-92 75-166 167-166h500c92 0 166 74 166 166v334c0 92-74 166-166 166h-500z m41-217c0 51 42 92 93 92 51 0 93-41 93-92v-47h46v47c0 51 41 92 93 92 51 0 92-41 92-92 0-51-41-93-92-93h-47v-46h47c51 0 92-42 92-93 0-51-41-92-92-92-52 0-93 41-93 92v47h-46v-47c0-51-42-92-93-92-51 0-93 41-93 92 0 51 42 93 93 93h46v46h-46c-51 0-93 42-93 93z m186-139h46l0 46h-46v-46z m-93-139c26 0 46 21 46 46v47h-46c-25 0-46-21-46-47 0-25 21-46 46-46z m0 231h46v47c0 25-20 46-46 46-25 0-46-21-46-46 0-26 21-47 46-47z m278-185c0-25-21-46-46-46-26 0-47 21-47 46v47h47c25 0 46-21 46-47z m0 232c0-26-21-47-46-47h-47v47c0 25 21 46 47 46 25 0 46-21 46-46z" horiz-adv-x="1042" />

<glyph glyph-name="arrow-up" unicode="&#xe83d;" d="M826 321l-244 205c-25 21-57 32-90 32-32 0-64-11-89-32l-244-205c-14-11-25-26-30-43-6-18-5-36 1-53 6-17 17-31 33-41 15-10 32-15 50-14h559c18-1 35 4 50 14 15 10 27 24 33 41 6 17 7 35 1 53-5 17-16 32-30 43z" horiz-adv-x="1000" />

<glyph glyph-name="agent-rule" unicode="&#xe840;" d="M300 188c-8 3-16 8-23 14-13 11-22 27-24 45l-3 18-17-7c-8-3-17-5-27-5-13 0-25 3-37 10-11 6-20 15-27 27l-46 79c-9 16-12 34-9 51 4 17 13 33 27 44l14 11-14 12c-14 11-23 27-26 44-4 17-1 35 8 50l46 78c7 11 16 20 27 27 12 6 24 9 37 9 10 0 19-1 28-5l16-7 3 22c3 17 12 33 25 44 13 12 30 18 48 18h94c17-1 34-7 46-19 13-11 22-27 25-44v-3l2-18 17 10c9 3 18 5 28 5 13 0 25-4 36-10 12-7 21-16 27-28l49-77c5-9 8-19 9-29 63-11 123-41 169-87 59-59 91-138 91-221 0-62-18-122-52-174-35-51-83-91-140-115-58-24-120-30-181-18-61 12-116 42-160 86-44 44-73 99-86 160 0 1 0 2 0 3z m291 370l-42 72c-1 1-2 3-4 4-2 0-3 1-5 1-2 0-3 0-4 0l-58-23c-11 9-24 17-38 23l-9 60c0 3-2 6-4 7-2 2-5 3-7 3h-94c-3 0-5-1-7-3-3-1-4-4-4-7l-9-60c-14-6-27-14-39-23l-57 23c-1 0-2 0-4 0-2 0-4 0-5-1-2-1-4-3-5-4l-45-80c-2-2-2-5-2-8 1-3 2-5 4-7l49-37c-1-8-1-15 0-23-1-7-1-15 0-22l-49-38c-2-2-3-4-4-7 0-3 0-6 2-8l47-78c1-2 2-4 4-5 2-1 4-1 6-1h3l55 23c12-9 24-16 37-22 4 17 9 33 15 48 6 13 12 26 19 38-3 2-7 3-10 6-13 8-23 21-29 35-6 15-8 31-5 47 3 15 11 29 22 41 11 11 26 18 41 22 16 3 32 1 46-5 15-6 27-16 36-30 2-2 3-5 5-7 44 27 95 43 148 46z m-203-89c1 2 1 4 1 6 0 2 0 5-1 7-1 2-2 4-4 6-1 1-3 3-5 4-3 0-5 1-7 1-3 0-5 0-7-1-2-1-4-3-6-4-1-2-3-4-4-6-1-2-1-5-1-7 0-5 2-9 5-12 4-4 8-5 13-5 2 0 4 0 6 1 3 3 7 7 10 10z m412-265c10 10 15 24 16 38v35c0 12-4 24-12 33-7 10-18 16-29 19-11 36-33 67-64 90-30 22-66 34-104 34-38 0-74-12-104-34-31-23-53-54-64-90-12-3-22-9-29-19-8-9-12-21-12-33v-35c1-10 4-20 9-28 6-9 14-15 23-20v-60c0-11 2-21 6-31 4-10 10-20 18-27 7-8 16-14 27-18 10-4 20-6 31-5h37c5-5 10-9 15-11 6-3 12-4 19-4h46c11 1 21 6 29 15 8 8 12 19 12 30 0 12-4 23-12 31-8 9-18 14-29 15h-46c-7 0-15-2-21-5-6-4-12-9-16-15h-34c-3 0-7 0-10 1-3 1-6 3-9 6-2 2-4 5-5 8-1 3-2 7-1 10v82 61c0 32 12 62 35 85 22 22 53 35 85 35 32 0 63-13 85-35 23-23 35-53 35-85v-61c0-7 3-15 9-20 5-5 12-8 19-8h6c15 0 28 6 39 16z" horiz-adv-x="1042" />

<glyph glyph-name="arrow-down" unicode="&#xe842;" d="M867 503c-6 16-17 30-31 40-14 10-30 15-48 15h-539c-17 0-33-5-47-15-14-10-24-24-30-39-6-16-7-34-3-50 5-17 14-31 27-42l236-198c24-21 55-32 87-32 32 0 62 11 86 32l237 198c13 11 22 25 27 42 4 16 3 33-2 49z" horiz-adv-x="1000" />

<glyph glyph-name="barcode" unicode="&#xe843;" d="M813 683h-625c-58 0-105-46-105-104v-458c0-58 47-104 105-104h625c57 0 104 46 104 104v458c0 58-47 104-104 104z m-568-500l0 334h-37l0-334h37z m547 334v-334h-37v334h37z m-274-334l0 334h-36l0-334h36z m-78 334l0-334h-36l0 334h36z m-82-334l0 334h-73l0-334h73z m274 334l0-334h-74l0 334h74z m82-334l0 334h-37l0-334h37z" horiz-adv-x="1000" />

<glyph glyph-name="arrow-right" unicode="&#xe844;" d="M750-44c-22 0-39 18-39 40l0 646c0 22 17 39 39 39 22 0 40-17 40-39l0-646c0-22-18-40-40-40z m0 713c-2 0-4 0-6-1 2 1 4 1 6 1 15 0 27-12 27-27l0-646c0-13-9-24-20-26 11 2 20 13 20 26l0 646c0 15-12 27-27 27z m-426-691c-17-5-35-4-52 3-16 5-31 16-41 31-10 14-15 31-15 49l0 557c0 23 9 44 25 60 16 16 38 25 61 26 12 0 24-3 36-8 11-6 21-13 29-23l205-244c21-25 32-57 32-89 0-33-11-64-32-89l-205-245c-11-14-26-24-43-28z" horiz-adv-x="1000" />

<glyph glyph-name="variable" unicode="&#xe845;" d="M253 683c-92 0-167-74-167-166v-334c0-92 75-166 167-166h500c92 0 166 74 166 166v334c0 92-74 166-166 166h-500z m-42-208c0 35 28 63 63 63h41c12 0 21-10 21-21 0-12-9-21-21-21h-41c-12 0-21-9-21-21v-83c0-16-6-31-16-42 10-11 16-26 16-42v-83c0-11 9-21 21-21h41c12 0 21-9 21-21 0-11-9-20-21-20h-41c-35 0-63 28-63 62v83c0 12-9 21-21 21-11 0-21 10-21 21 0 12 10 21 21 21 12 0 21 9 21 21v83z m521 63c34 0 62-28 62-63v-83c0-12 10-21 21-21 12 0 21-9 21-21 0-11-9-21-21-21-11 0-21-9-21-21v-83c0-34-28-62-62-62h-42c-11 0-21 9-21 20 0 12 10 21 21 21h42c11 0 21 10 21 21v83c0 16 6 31 16 42-10 11-16 26-16 42v83c0 12-10 21-21 21h-42c-11 0-21 9-21 21 0 11 10 21 21 21h42z m-311-238c-12-13-12-32 0-45 12-12 32-12 44 0l44 45 44-45c13-12 32-12 45 0 12 13 12 32 0 45l-45 44 45 44c12 12 12 32 0 44-13 12-32 12-45 0l-44-44-44 44c-12 12-32 12-44 0-12-12-12-32 0-44l44-44-44-44z" horiz-adv-x="1042" />

<glyph glyph-name="redirect" unicode="&#xe846;" d="M253 683c-92 0-167-74-167-166v-334c0-92 75-166 167-166h500c92 0 166 74 166 166v334c0 92-74 166-166 166h-500z m367-137l84-86 0 0c6-8 13-18 13-30 0-23-20-41-41-41h-346c-22 0-41 18-41 41 0 23 19 42 41 42h246l-15 15c-16 17-16 43 0 59 16 17 43 16 59 0z m91-312c-8-8-18-12-29-12l-253 2 15-15c16-16 17-43 0-59-16-16-43-16-59 0 0 0-51 52-83 86-8 8-11 29-4 45 8 15 20 24 35 24h349c11 0 21-4 29-12 8-8 12-18 12-29 0-11-4-22-12-30z" horiz-adv-x="1042" />

<glyph glyph-name="attention" unicode="&#xe847;" d="M500 767c-82 0-163-25-231-71-69-45-122-110-154-186-31-77-40-160-24-241 16-81 56-155 114-214 59-58 133-98 214-114 81-16 164-8 240 24 77 32 142 85 187 154 46 68 71 149 71 231 0 55-11 109-32 160-21 50-52 96-90 135-39 38-85 69-136 90-50 21-104 32-159 32z m35-597c-5-5-10-8-16-11-7-2-13-4-20-4-6 0-13 2-19 4-6 3-12 6-17 11-9 10-14 23-14 36 0 13 5 26 14 36 10 9 23 14 36 14 14 0 26-5 36-14 9-10 15-23 15-36 0-14-6-26-15-36z m15 321l-17-183c0-8-4-17-10-23-7-6-15-9-23-9-8 0-16 3-22 9-7 6-11 15-11 23l-18 188c0 7 1 14 3 20 3 6 7 12 13 16 10 8 22 13 35 13 13 0 25-5 35-13 6-4 10-9 12-15 3-6 4-13 4-19l-1-7z" horiz-adv-x="1000" />

<glyph glyph-name="email" unicode="&#xe848;" d="M500 767c-82 0-163-25-231-71-69-45-122-110-154-186-31-77-40-160-24-241 16-81 56-155 114-214 59-58 133-98 214-114 81-16 164-8 240 24 77 32 142 85 187 154 46 68 71 149 71 231 0 55-11 109-32 160-21 50-52 96-90 135-39 38-85 69-136 90-50 21-104 32-159 32z m-179-227h358c19 0 37-7 51-19l-153-155c-21-20-48-31-77-31-29 0-56 11-77 31l-153 155c14 12 32 19 51 19z m435-303c0-21-8-40-23-54-14-15-33-23-54-23h-358c-10 0-20 2-30 6-9 4-17 10-24 17-15 15-23 34-23 55v225c0 0 0 3 0 5l139-141c16-16 34-28 54-36 20-9 41-13 63-13 22 0 43 4 63 13 20 8 38 20 54 36l138 140c0 0 0-2 0-4l1-226z" horiz-adv-x="1000" />

<glyph glyph-name="target" unicode="&#xe849;" d="M748 783l-86-49c-50 21-105 33-162 33-230 0-417-187-417-417 0-230 187-417 417-417 230 0 417 187 417 417 0 54-10 105-29 152l49 97c11 22 0 50-24 58l-80 26-25 77c-9 25-38 36-60 23z m143-156c4-4 7-9 8-14 1-5 1-11 0-16-2-4-5-9-9-12l-82-83c37-74 47-159 28-240-20-81-68-152-135-200-67-49-150-72-232-65-83 7-160 43-218 102-59 60-94 138-100 221-6 82 18 165 67 232 49 67 120 114 201 133 80 19 165 9 238-30l83 83c3 3 8 6 12 7 5 1 10 1 15 0 5-2 9-5 13-8 3-4 6-9 7-13l14-75 75-15c6-1 11-4 15-7z m-515-544c39-18 82-28 125-28l2 0c48 0 96 12 138 35 43 23 79 56 105 97 26 41 42 88 45 136 4 49-5 97-25 142h-6-5l-80 15-155-154c-2-2-5-4-9-6-3-1-7-2-11-2-3 0-7 1-10 2-4 2-7 4-9 6-3 3-5 6-7 9-1 4-2 8-2 11 0 4 1 8 2 11 2 3 4 6 7 9l114 115c-12 9-25 15-39 20-42 13-86 9-124-10-39-20-68-55-81-96-13-41-8-85 11-123 20-38 54-67 95-80 41-13 85-9 123 10 38 20 67 54 81 94 7 21 9 43 7 64-1 8 2 15 6 21 5 5 12 9 19 10 4 0 8 0 11-1 4-1 7-3 10-6 3-2 5-5 7-8 1-3 3-7 3-11 3-32-1-65-12-96-11-31-29-58-52-81-23-23-51-41-82-52-30-11-63-14-95-11-33 4-64 14-92 32-27 17-51 40-68 67-18 28-29 59-33 91-5 33-2 66 9 97 10 33 28 63 52 88 24 25 54 43 87 54 33 11 68 13 102 8 34-6 67-20 94-41l-15 78c0 4 0 8 0 12-39 18-82 26-125 26-43-1-86-12-124-32-39-19-73-47-99-81-27-35-45-75-54-117-9-43-9-87 2-129 10-42 29-82 56-115 27-34 62-61 101-80z m314 450l60-12 64 67-42 8c-5 1-10 4-14 7-4 4-7 9-8 15l-10 43-65-65 15-63z" horiz-adv-x="1000" />

<glyph glyph-name="error" unicode="&#xe84a;" d="M500 767c-82 0-163-25-231-71-69-45-122-110-154-186-31-77-40-160-24-241 16-81 56-155 114-214 59-58 133-98 214-114 81-16 164-8 240 24 77 32 142 85 187 154 46 68 71 149 71 231 0 55-11 109-32 160-21 50-52 96-90 135-39 38-85 69-136 90-50 21-104 32-159 32z m152-514c7-8 11-17 11-27 0-10-4-20-11-27-7-7-17-11-27-11-10 0-19 4-27 11l-98 98-98-99c-7-7-17-10-27-10-10 0-19 3-27 10-7 7-11 17-11 27 0 10 4 20 11 27l99 98-99 98c-6 8-9 17-8 26 0 10 4 18 11 25 7 7 15 11 25 11 9 1 18-2 26-8l98-99 98 99c8 6 17 9 26 8 10 0 18-4 25-11 7-7 11-15 11-25 1-9-2-18-8-26l-99-98 99-97z" horiz-adv-x="1000" />

<glyph glyph-name="checkball" unicode="&#xe84d;" d="M500 767c-82 0-163-25-231-71-69-45-122-110-154-186-31-77-40-160-24-241 16-81 56-155 114-214 59-58 133-98 214-114 81-16 164-8 240 24 77 32 142 85 187 154 46 68 71 149 71 231 0 111-44 217-122 295-78 78-184 122-295 122v0z m188-334l-222-213c-6-5-13-8-21-8-4 0-8 0-12 2-4 1-7 4-10 6l-111 108c-4 2-8 5-10 9-3 4-4 8-5 13 0 4 0 9 1 14 2 4 4 8 7 11 3 4 7 6 11 8 5 2 9 3 14 2 5 0 9-1 13-3 4-3 8-6 10-9l90-87 200 194c7 3 14 5 21 4 7-1 14-4 19-10 5-5 8-12 8-19 0-7-2-15-6-20l3-2z" horiz-adv-x="1000" />

<glyph glyph-name="folder" unicode="&#xe84e;" d="M805 603h-271v20c0 27-11 53-30 72-19 19-46 30-73 30h-245c-27 0-53-11-73-30-19-19-30-45-30-72v-510c0-27 11-53 30-72 20-19 46-30 73-30h619c27 0 53 11 72 30 19 19 30 45 30 72v388c0 27-11 53-30 72-19 20-45 30-72 30z" horiz-adv-x="1000" />

<glyph glyph-name="pix" unicode="&#xe84f;" d="M733 129c-32 0-63 13-86 36l-125 125c-9 9-24 9-33 0l-126-125c-23-24-53-36-86-36h-25l159-159c49-49 129-49 179 0l158 159h-15z m-456 442c33 0 63-12 86-35l126-126c9-9 24-9 33 0l125 125c23 23 54 36 86 36h15l-158 159c-50 49-130 49-179 0l-159-159h25z m603-131l-96 96c-2-1-5-2-7-2h-44c-22 0-44-9-60-25l-125-125c-12-12-27-18-43-18-15 0-30 6-42 18l-126 125c-16 16-38 26-60 26h-54c-2 0-4 0-6 1l-97-96c-49-50-49-130 0-179l97-97c2 1 4 2 6 2h54c22 0 44 9 60 25l126 125c23 23 62 23 85 0l125-125c16-16 38-25 60-25h44c2 0 5-1 7-1l96 96c49 49 49 129 0 179z" horiz-adv-x="1000" />

<glyph glyph-name="store" unicode="&#xe850;" d="M42 683c0 46 37 84 83 84h750c46 0 83-38 83-84v-46l-916 0v46z m0-108v-558c0-46 37-84 83-84h201v292c0 63 51 114 115 114h118c63 0 114-51 114-114v-292h202c46 0 83 38 83 84v558l-916 0z m569-350v-292h-223v292c0 28 24 52 53 52h118c29 0 52-24 52-52z m-507 350c0-61 50-111 111-111 62 0 111 50 111 111h63c0-61 50-111 111-111 62 0 111 50 111 111h63c0-61 50-111 111-111 62 0 111 50 111 111h63c0-96-78-174-174-174-59 0-111 30-142 75-32-45-84-75-143-75-59 0-111 30-142 75-32-45-84-75-143-75-96 0-173 78-173 174h62z" horiz-adv-x="1000" />

<glyph glyph-name="question" unicode="&#xe852;" d="M500 767c-82 0-163-25-231-71-69-45-122-110-154-186-31-77-40-160-24-241 16-81 56-155 114-214 59-58 133-98 214-114 81-16 164-8 240 24 77 32 142 85 187 154 46 68 71 149 71 231 0 55-11 109-32 160-21 50-52 96-90 135-39 38-85 69-136 90-50 21-104 32-159 32z m39-584c-5-5-11-9-18-11-6-3-13-4-21-4-7 0-14 1-20 4-7 2-13 6-17 11-10 11-16 24-16 38 0 14 6 28 16 38 10 10 23 16 37 16 15 0 28-6 38-16 5-5 9-11 12-17 3-7 4-14 4-21 0-7-1-14-4-20-2-7-6-13-11-18z m69 230c-5-10-11-19-19-26-6-7-15-15-26-24-7-6-14-13-21-20-4-4-6-8-8-13-1-9-5-16-12-21-6-5-15-8-23-8-5 0-10 1-14 3-4 2-8 5-12 9-6 7-9 17-8 27-1 15 2 29 9 42 6 11 14 22 24 31 5 5 10 11 14 17 2 4 3 8 3 13 0 1 0 2-1 4 0 1-1 2-2 3-4 2-10 3-15 3-5 0-10-1-14-3-8-3-15-6-22-10l-11-6c-26-14-43-11-56 4-7 8-10 19-10 30 0 7 2 14 5 20 3 6 8 12 14 16 14 11 31 19 48 24 36 13 75 12 110-2 16-7 30-17 40-31 10-13 15-29 15-46 1-13-2-26-8-38v2z" horiz-adv-x="1000" />

<glyph glyph-name="instagram" unicode="&#xe853;" d="M660 58h-320c-72 0-132 60-132 133v319c0 72 60 132 132 132h320c72 0 132-60 132-132v-319c0-73-59-133-132-133z m-320 526c-40 0-74-34-74-74v-319c0-41 34-74 74-74h320c40 0 74 33 74 74v319c0 40-34 74-74 74h-320z m160-386c-83 0-151 68-151 151 0 83 68 150 151 150 84 0 151-67 151-150 0-83-67-151-151-151z m0 243c-51 0-93-41-93-92 0-51 42-93 93-93 51 0 93 42 93 93 0 51-42 92-93 92z m157 95c-21 0-39-17-39-38 0-21 17-38 39-38 21 0 38 17 38 38 0 21-17 38-38 38z" horiz-adv-x="1000" />

<glyph glyph-name="folder-save" unicode="&#xe854;" d="M792 603h-258v33c0 24-10 46-26 63-17 17-40 26-63 26h-246c-31 0-60-12-82-34-21-21-34-51-34-81l0-483c0-31 13-60 34-82 22-22 51-34 82-34h593c30 0 60 12 81 34 22 22 34 51 34 82v361c0 31-12 60-34 82-21 21-51 33-81 33z m-75-219l-223-214c-7-7-16-11-26-11-10 0-19 4-26 11l-111 107c-4 3-6 7-8 12-2 4-3 9-3 14 0 5 1 10 3 15 2 4 4 8 8 12 7 7 16 11 26 11 10 0 20-4 27-11l83-84 196 189c7 7 17 11 27 11 10 0 20-4 27-11 6-7 10-16 10-25 0-10-4-19-11-26h1z" horiz-adv-x="1000" />

<glyph glyph-name="warning" unicode="&#xe855;" d="M917 149c-3 22-10 43-21 62l-129 222-128 222c-8 13-17 25-27 35-20 20-45 34-72 42-26 6-54 6-80 0-7-2-13-4-19-7-26-11-49-29-66-51-4-6-8-12-12-19l-130-222-128-222c-7-13-13-27-17-42-6-26-6-54 1-81 8-26 22-51 41-70 15-15 33-27 52-35 20-8 41-12 62-12h512c25 0 50 5 72 16 22 11 41 27 56 47 4 5 8 11 11 17 7 12 12 24 16 37 6 20 8 41 6 61z m-386-4c-9-8-19-12-31-12-11 0-22 4-30 12-8 8-12 19-12 30 0 12 4 23 12 31 4 4 9 7 14 9 5 3 11 4 16 4 6 0 12-1 17-4 5-2 10-5 14-9 7-8 12-19 12-31 0-11-5-22-12-30z m12 292l-15-167c-1-7-4-14-9-19-3-2-5-4-8-5-3-2-7-2-10-2-7 0-13 2-18 7-5 5-8 12-9 19l-16 173c0 6 1 12 3 17 2 5 6 10 10 13 9 7 19 11 30 11 11 0 22-4 30-11 5-3 8-8 10-13 2-5 3-10 3-16l-1-7z" horiz-adv-x="1000" />

<glyph glyph-name="verified" unicode="&#xe856;" d="M277 32l80-140 143 64 143-64 80 140 150 35-15 162 101 121-101 121 15 162-150 35-80 140-143-64-143 64-80-140-150-35 15-162-101-121 101-121-15-162 150-35z m404 442c15-15 15-39 0-54l-180-180c-23-23-59-23-82 0l-100 100c-15 15-15 39 0 54 15 15 39 15 54 0l87-86 167 166c15 15 39 15 54 0z" horiz-adv-x="1000" />

<glyph glyph-name="list" unicode="&#xe857;" d="M250 725h488c69 0 125-56 125-125v-92c0-69-56-125-125-125h-488c-69 0-125 56-125 125v92c0 69 56 125 125 125z m0-407h488c69 0 125-56 125-125v-92c0-69-56-125-125-125h-488c-69 0-125 56-125 125v92c0 69 56 125 125 125z" horiz-adv-x="1000" />

<glyph glyph-name="message-ballon-solid" unicode="&#xe858;" d="M537-67c-6 0-13 1-19 3-6 2-11 5-16 10-5 4-9 9-11 15-3 6-4 13-4 19v67c-91 5-205 36-266 100-63 75-98 170-96 269-4 137 42 243 130 297 73 38 154 57 235 54 52 0 104-5 155-16 55-9 105-35 145-74 39-39 66-89 76-143 28-121 8-248-58-354-29-38-63-74-100-105l-19-18c-36-33-75-67-125-112-8-6-17-10-26-11l-1-1z" horiz-adv-x="1000" />

<glyph glyph-name="message-unread-solid" unicode="&#xe85a;" d="M814 413c6 4 13 5 21 4 17-3 28-19 25-36l-4-24c-2-10-3-19-5-29l-1-2c0-2 0-3-1-4-11-51-31-100-59-145-29-38-63-74-100-105l-20-18c-34-32-72-66-120-109l-5-4c-8-6-17-10-26-10l-1-1c-6-1-13 0-19 2-6 3-11 6-16 10-5 5-9 10-11 16-3 6-4 12-5 19v67c-90 5-205 36-266 100-64 75-98 171-97 270-4 138 42 244 131 299 73 38 154 56 236 53 16 0 32 0 47-1l22-1c17-1 30-15 30-33l0 0c-1-7-3-12-6-17-18-31-26-61-26-99 0-117 95-211 211-211 23 0 44 3 65 9z m85 207c0 81-65 146-146 146-81 0-147-65-147-146 0-81 66-146 147-146 81 0 146 65 146 146z" horiz-adv-x="1000" />

<glyph glyph-name="sms" unicode="&#xe85b;" d="M267 695c68 46 148 71 231 72 54 0 109-10 160-31 51-21 97-52 136-90 39-39 70-85 91-136 21-51 32-105 32-160 0-82-25-163-70-231-46-69-111-122-187-154-76-31-160-40-240-24-81 16-155 55-214 114-58 58-98 132-114 212-17 81-9 165 22 241 32 76 85 141 153 187z m289-585c16 16 25 37 25 59l-1 64c0 7-4 14-10 19-6 5-13 8-21 8-7 0-15-3-20-8-6-5-10-12-11-19h-229v299c0 5 2 10 6 14 4 3 9 5 14 5h127c8 0 16 4 22 9 6 6 9 14 9 23 0 8-3 16-9 22-6 6-14 9-22 9h-127c-22 0-43-9-59-25-16-15-25-36-25-59v-361c0-22 9-43 25-59 16-16 37-25 59-25h189c22 0 43 9 58 25z m-131 373c6 5 9 12 10 19l0 3c0 4 0 8-2 12-1 4-4 8-7 11-3 3-6 5-10 7-4 2-8 3-12 3h-26c-8 0-16-4-22-10-6-5-9-13-9-22 0-8 3-16 9-22 6-6 14-9 22-9h26c7 0 15 3 21 8z m272-195c15 14 29 29 42 45l-1 2c29 46 39 101 27 154-4 24-16 46-34 63-18 18-40 29-64 33-22 3-44 4-66 3-35 1-71-7-102-23-21-15-37-35-47-58-10-23-14-48-11-73-1-43 14-85 42-117 30-26 68-40 108-42v-20c0-4 1-8 3-11 1-4 3-7 6-9 3-3 6-5 10-6 3-1 7-2 10-1 6 0 11 3 16 6 3 3 7 6 10 9 14 12 29 25 42 38l9 7z m-93 118c12 0 22 10 22 22 0 13-10 22-22 22-12 0-22-9-22-22 0-12 10-22 22-22z m-295-256h191c5 0 10 2 14 6 3 3 5 8 6 13h-231c1-5 3-10 6-13 4-4 9-6 14-6z m250 278c0-12-10-22-22-22-12 0-22 10-22 22 0 13 10 22 22 22 12 0 22-9 22-22z m112-22c12 0 22 10 22 22 0 13-10 22-22 22-12 0-22-9-22-22 0-12 10-22 22-22z" horiz-adv-x="1000" />

<glyph glyph-name="send" unicode="&#xe85c;" d="M889 358c-1 19-7 37-17 53-11 16-25 28-42 37l-265 138-260 134c-21 11-45 15-68 14-24-2-46-9-66-22-19-13-35-31-46-51-11-21-16-45-15-68l25-138c5-21 17-40 34-53 17-14 38-21 60-21h313c8 0 16-3 22-9 6-6 9-14 9-22 0-8-3-16-9-22-6-6-14-9-22-9h-328c-18 0-36-5-50-16-15-11-25-27-29-45l-25-137c-1-23 4-47 15-67 10-21 26-39 46-52 20-13 42-21 66-22 23-2 47 3 68 13l260 135 265 139c17 8 31 21 41 37 11 16 16 34 17 53v3l1-2z" horiz-adv-x="1000" />

<glyph glyph-name="whatsapp" unicode="&#xe85d;" d="M707 557c-55 55-128 85-206 85-160 0-290-130-290-289 0-51 13-101 39-145l-42-150 154 41c43-23 91-36 139-36h0c160 0 291 130 291 289 0 78-30 150-85 205v0z m-206-445h0c-43 0-86 12-123 34l-9 5-91-24 24 89-5 9c-24 38-37 82-37 128 0 132 108 240 241 240 65 0 125-25 171-71 46-45 71-105 71-170 0-132-109-240-242-240v0z m133 180c-8 4-43 21-50 24-7 2-11 3-16-4-5-7-19-23-23-28-4-5-9-6-16-2-7 4-31 11-58 36-22 19-36 43-41 50-4 7 0 11 4 15 3 3 7 8 10 12 4 4 5 7 8 12 2 5 1 9-1 13-2 3-16 39-22 53-6 15-12 13-17 13-4 0-9 0-14 0-4 0-12-2-19-9-7-7-25-25-25-60 0-36 26-70 29-75 4-5 51-78 124-109 18-7 31-12 42-15 17-6 33-5 45-3 14 2 43 17 49 34 6 17 6 32 5 35-2 3-7 5-14 8l0 0z" horiz-adv-x="1000" />

<glyph glyph-name="voip" unicode="&#xe85e;" d="M500 767c-82 0-163-25-231-71-69-45-122-110-154-186-31-77-40-160-24-241 16-81 56-155 114-214 59-58 133-98 214-114 81-16 164-8 240 24 77 32 142 85 187 154 46 68 71 149 71 231 0 55-11 109-32 160-21 50-52 96-90 135-39 38-85 69-136 90-50 21-104 32-159 32z m15-330c20 0 38-7 51-21 14-13 21-31 22-51 0-6-3-13-8-18-5-4-11-7-18-7-7 0-13 3-18 7-5 5-7 12-7 18 0 6-3 12-7 15-3 4-9 7-15 7-6 1-11 4-15 8-4 5-7 11-7 17 0 6 3 12 7 17 4 4 9 7 15 8z m-2 56c0 7 3 13 7 18 5 4 11 7 18 7 34 0 67-14 91-38 24-24 37-57 38-91-1-6-4-12-9-16-4-4-10-6-16-6-7 0-13 2-17 6-5 4-8 10-9 16 0 21-8 41-23 56-15 15-35 23-56 23-7 1-13 4-17 8-5 5-7 11-7 18v-1z m187-368l-22-23c-15-15-35-24-56-25-47-2-132 16-250 136-125 125-144 219-142 265 0 19 7 38 20 52l22 23c14 13 32 21 51 22 20 0 38-7 52-21l46-45c9-10 15-23 15-36 0-14-6-27-15-36l-33-33c-4-5-7-11-7-18 0-7 3-14 7-18l125-125c3-3 6-5 9-6 3-2 6-2 10-2 3 0 7 0 10 2 3 1 6 3 8 6l32 32c5 4 10 8 17 11 6 2 12 4 19 4 7 0 14-2 20-4 6-3 11-7 16-11l46-46c7-7 12-15 16-23 4-9 6-19 6-28 0-10-2-20-6-29-3-9-9-17-16-24v0z m47 238c-4 0-7 1-10 2-3 1-6 3-8 6-3 2-4 5-6 8-1 3-2 6-2 9 0 49-19 95-53 130-34 34-81 53-129 53-6 1-12 4-16 9-4 4-6 10-6 17 0 6 2 12 6 16 4 5 10 8 16 9 62 0 121-25 165-69 43-44 68-103 68-165 0-6-3-12-8-17-5-4-11-7-17-7v-1z" horiz-adv-x="1000" />

<glyph glyph-name="blocks" unicode="&#xe860;" d="M646 725h92c69 0 125-56 125-125v-92c0-69-56-125-125-125h-92c-69 0-125 56-125 125v92c0 69 56 125 125 125z m-396-1h92c69 0 125-56 125-125v-91c0-69-56-125-125-125h-92c-69 0-125 56-125 125v91c0 69 56 125 125 125z m488-406h-92c-69 0-125-56-125-125v-92c0-69 56-125 125-125h92c69 0 125 56 125 125v92c0 69-56 125-125 125z m-488-1h92c69 0 125-56 125-125v-92c0-69-56-125-125-125h-92c-69 0-125 56-125 125v92c0 69 56 125 125 125z" horiz-adv-x="1000" />

<glyph glyph-name="automation" unicode="&#xe862;" d="M604 720c11-6 16-18 13-31l-68-254 149-40c9-3 17-10 19-19 3-9 1-18-5-26l-324-364c-8-10-22-12-33-6-11 6-17 18-14 31l69 254-150 40c-9 3-16 10-19 19-2 9 0 19 6 26l323 364c9 10 23 12 34 6z" horiz-adv-x="1000" />

<glyph glyph-name="add" unicode="&#xe863;" d="M795 645c-19 18-40 35-62 50-69 47-150 72-233 72-110 0-216-44-295-122-78-78-122-184-122-295 0-110 44-216 122-295 79-78 185-122 295-122 83 0 164 25 233 72 22 15 43 32 62 50 78 79 122 185 122 295 0 111-44 216-122 295z m-128-326h-136v-136c0-8-3-16-9-22-6-6-14-9-22-9-8 0-16 3-22 9-6 6-9 14-9 22v136h-136c-8 0-16 3-22 9-6 6-9 14-9 22 0 8 3 16 9 22 6 6 14 9 22 9h136v136c0 8 3 16 9 22 6 6 14 9 22 9 8 0 16-3 22-9 6-6 9-14 9-22v-136h136c8 0 16-3 22-9 6-6 9-14 9-22 0-8-3-16-9-22-6-6-14-9-22-9z" horiz-adv-x="1000" />

<glyph glyph-name="catalog" unicode="&#xe864;" d="M191 767h174c51 0 93-42 93-94v-90c0-52-42-94-93-94h-174c-52 0-94 42-94 94v90c0 52 42 94 94 94z m472 0h146c52 0 94-42 94-94v-285c0-51-42-93-94-93h-146c-25 0-48 9-66 27-18 18-27 41-27 66v285c0 52 42 94 93 94z m0-584h146c52 0 94-42 94-93v-63c0-52-42-94-94-94h-146c-51 0-93 42-93 94v63c0 51 42 93 93 93z m-472 195h174c51 0 93-42 93-94v-257c0-52-42-94-93-94h-174c-52 0-94 42-94 94v257c0 52 42 94 94 94z" horiz-adv-x="1000" />

<glyph glyph-name="gift" unicode="&#xe868;" d="M261 694c14 14 32 21 52 21 55 0 94-39 121-88 11-20 19-40 25-57h-146c-20 0-38 7-52 21-14 14-21 32-21 51 0 20 7 38 21 52z m427-124h-147c6 17 14 37 25 57 27 49 66 88 122 88 19 0 37-7 51-21 14-14 21-32 21-52 0-19-7-37-21-51-14-14-32-21-51-21z m-176 88c-5-8-8-16-12-24-3 8-7 16-12 24-30 55-85 120-175 120-36 0-71-14-96-40-26-25-40-60-40-96 0-28 9-56 26-80-86-21-151-99-151-192v-250c0-109 89-198 198-198h500c109 0 198 89 198 198v250c0 93-64 171-151 192 17 24 26 52 26 80 0 36-14 71-40 96-25 26-60 40-95 40-91 0-146-65-176-120z m20-182c0 18-14 32-31 32-17 0-31-14-31-32v-126h-329c-18 0-32-14-32-31 0-17 14-31 32-31h329l0-283c0-17 14-31 31-31 17 0 31 14 31 31l0 283h327c18 0 32 14 32 31 0 17-14 31-32 31h-327v126z" horiz-adv-x="1000" />

<glyph glyph-name="pause" unicode="&#xe869;" d="M118 686c0 46 37 83 83 83h125c46 0 84-37 84-83v-666c0-46-38-84-84-84h-125c-46 0-83 38-83 84v666z m472 0c0 46 38 83 84 83h125c46 0 83-37 83-83v-666c0-46-37-84-83-84h-125c-46 0-84 38-84 84v666z" horiz-adv-x="1000" />

<glyph glyph-name="sale" unicode="&#xe86c;" d="M774 655c0 0 1-1 1-1 5-13 16-24 29-29l72-30c29-12 51-35 63-63 12-28 12-60 0-89l-30-72c-5-14-5-28 0-41l0 0 30-73c6-14 9-29 9-44 0-16-3-31-9-45-6-14-14-27-25-37-11-11-24-20-38-26l-72-30c-13-5-24-15-29-29l-30-72c-12-29-35-51-63-63-29-12-60-12-89 0l-72 30c-14 5-28 5-41 0l-73-30c-29-12-60-12-89 0-28 12-51 34-63 63l-30 72c-5 13-15 24-29 29l-72 30c-29 12-51 35-63 63-12 29-12 60 0 89l30 73c5 13 5 27 0 40l-30 73c-6 14-9 29-9 45 0 15 3 30 9 44 6 14 14 27 25 38 11 10 24 19 38 25l72 30c13 5 24 16 29 29l30 72c12 29 35 51 63 63 29 12 61 12 89 0l73-30c13-5 27-5 40 0l1 0 72 30c29 12 61 12 89 0 28-12 51-34 63-63l29-71z m-85-160c12 12 12 32 0 44-12 12-32 12-44 0l-334-334c-12-12-12-32 0-44 12-12 32-12 44 0l334 334z m-314 32c-29 0-52-23-52-52 0-29 23-52 52-52 29 0 52 23 52 52 0 29-23 52-52 52z m250-250c-29 0-52-23-52-52 0-29 23-52 52-52 29 0 52 23 52 52 0 29-23 52-52 52z" horiz-adv-x="1000" />

<glyph glyph-name="ticket" unicode="&#xe86d;" d="M882 411h-5l1 1c-20 0-39-7-53-21-15-14-23-32-23-52 0-19 8-38 23-51 14-14 33-22 53-22h6c4 0 8 0 12-2 4-1 8-3 11-6 3-2 6-6 7-10 2-3 3-7 3-11v-66c0-14-3-29-9-43-6-14-14-26-25-37-11-10-24-18-38-24-14-6-29-9-45-9h-599c-31 0-61 12-82 34-22 21-34 49-34 79v64c0 4 1 8 2 12 2 3 4 7 7 10 7 5 15 8 24 8h5c20 0 39 7 53 21 14 14 22 32 22 52 0 19-8 38-22 51-14 14-33 22-53 22h-7c-4-1-8 0-12 1-4 2-8 4-11 7-3 2-5 6-7 9-2 4-3 8-3 12v89c0 30 13 58 34 79 22 22 52 34 83 34h599c31 0 60-12 82-34 22-21 34-49 34-79v-88c0-4-1-8-3-12-1-4-4-7-7-10-6-5-15-8-23-8z m-413 188v-62c0-17 14-31 31-31 17 0 31 14 31 31v62l-62 0z m62-187c0 17-14 31-31 31-17 0-31-14-31-31v-125c0-17 14-31 31-31 17 0 31 14 31 31v125z m0-250c0 18-14 32-31 32-17 0-31-14-31-32l0-62h62l0 62z" horiz-adv-x="1000" />

<glyph glyph-name="wallet" unicode="&#xe86e;" d="M262 611h436v72c0 61-63 101-118 75l-318-147z m-179-229c0 92 75 167 167 167h500c92 0 167-75 167-167v-282c0-92-75-167-167-167h-500c-92 0-167 75-167 167v282z m573-101c-7-8-13-18-15-29-2-10-1-21 3-32 4-10 11-18 20-25 9-6 20-9 31-9 11 0 21 3 30 9 10 7 17 15 21 25 4 11 5 22 3 32-3 11-8 21-16 29-10 9-24 15-38 15-15 0-28-6-39-15z" horiz-adv-x="1000" />
</font>
</defs>
</svg>
