<svg width="72" height="72" viewBox="0 0 72 72" fill="none" xmlns="http://www.w3.org/2000/svg">
<path d="M60.0799 62.38H11.9199C11.3895 62.38 10.8808 62.1693 10.5057 61.7942C10.1306 61.4191 9.91992 60.9104 9.91992 60.38V11.62C9.91992 11.0896 10.1306 10.5809 10.5057 10.2058C10.8808 9.83071 11.3895 9.62 11.9199 9.62C12.4504 9.62 12.9591 9.83071 13.3341 10.2058C13.7092 10.5809 13.9199 11.0896 13.9199 11.62V58.38H60.0799C60.6104 58.38 61.1191 58.5907 61.4941 58.9658C61.8692 59.3409 62.0799 59.8496 62.0799 60.38C62.0799 60.9104 61.8692 61.4191 61.4941 61.7942C61.1191 62.1693 60.6104 62.38 60.0799 62.38Z" fill="black"/>
<path opacity="0.5" d="M20.6899 54.65C20.0269 54.65 19.391 54.3866 18.9222 53.9178C18.4533 53.4489 18.1899 52.813 18.1899 52.15V33.5C18.1899 32.837 18.4533 32.2011 18.9222 31.7322C19.391 31.2634 20.0269 31 20.6899 31C21.353 31 21.9889 31.2634 22.4577 31.7322C22.9265 32.2011 23.1899 32.837 23.1899 33.5V52.15C23.1899 52.813 22.9265 53.4489 22.4577 53.9178C21.9889 54.3866 21.353 54.65 20.6899 54.65Z" fill="black"/>
<path opacity="0.5" d="M31.6599 54.65C30.9969 54.65 30.361 54.3866 29.8921 53.9177C29.4233 53.4489 29.1599 52.813 29.1599 52.15V23.73C29.1599 23.4017 29.2246 23.0766 29.3502 22.7733C29.4759 22.47 29.66 22.1944 29.8921 21.9622C30.1243 21.7301 30.3999 21.5459 30.7032 21.4203C31.0065 21.2946 31.3316 21.23 31.6599 21.23C31.9882 21.23 32.3133 21.2946 32.6166 21.4203C32.9199 21.5459 33.1955 21.7301 33.4277 21.9622C33.6598 22.1944 33.844 22.47 33.9696 22.7733C34.0952 23.0766 34.1599 23.4017 34.1599 23.73V52.15C34.1599 52.813 33.8965 53.4489 33.4277 53.9177C32.9588 54.3866 32.323 54.65 31.6599 54.65Z" fill="black"/>
<path opacity="0.5" d="M53.6 54.65C52.9369 54.65 52.3011 54.3866 51.8322 53.9177C51.3634 53.4489 51.1 52.813 51.1 52.15V20.59C51.1 19.9269 51.3634 19.291 51.8322 18.8222C52.3011 18.3534 52.9369 18.09 53.6 18.09C54.263 18.09 54.8989 18.3534 55.3677 18.8222C55.8366 19.291 56.1 19.9269 56.1 20.59V52.15C56.1013 52.4786 56.0375 52.8043 55.9124 53.1082C55.7872 53.4121 55.6031 53.6883 55.3707 53.9207C55.1383 54.1531 54.8622 54.3372 54.5582 54.4624C54.2543 54.5875 53.9287 54.6513 53.6 54.65Z" fill="black"/>
<path opacity="0.5" d="M42.6299 54.65C41.9668 54.65 41.331 54.3866 40.8621 53.9177C40.3933 53.4489 40.1299 52.813 40.1299 52.15V29.23C40.1299 28.5669 40.3933 27.9311 40.8621 27.4622C41.331 26.9934 41.9668 26.73 42.6299 26.73C43.2929 26.73 43.9288 26.9934 44.3976 27.4622C44.8665 27.9311 45.1299 28.5669 45.1299 29.23V52.15C45.1312 52.4787 45.0674 52.8043 44.9423 53.1083C44.8171 53.4122 44.633 53.6883 44.4006 53.9207C44.1682 54.1531 43.8921 54.3372 43.5882 54.4624C43.2842 54.5875 42.9586 54.6513 42.6299 54.65Z" fill="black"/>
</svg>
