<svg width="72" height="72" viewBox="0 0 72 72" fill="none" xmlns="http://www.w3.org/2000/svg">
<path d="M60.0799 62.38H11.9199C11.3895 62.38 10.8808 62.1693 10.5057 61.7942C10.1306 61.4191 9.91992 60.9104 9.91992 60.38V11.62C9.91992 11.0896 10.1306 10.5809 10.5057 10.2058C10.8808 9.83071 11.3895 9.62 11.9199 9.62C12.4504 9.62 12.9591 9.83071 13.3341 10.2058C13.7092 10.5809 13.9199 11.0896 13.9199 11.62V58.38H60.0799C60.6104 58.38 61.1191 58.5907 61.4941 58.9658C61.8692 59.3409 62.0799 59.8496 62.0799 60.38C62.0799 60.9104 61.8692 61.4191 61.4941 61.7942C61.1191 62.1693 60.6104 62.38 60.0799 62.38Z" fill="black"/>
<path opacity="0.5" d="M32.9999 49.4201C31.7927 49.4529 30.606 49.1029 29.6099 48.4201C20.3699 41.1601 14.8199 47.7301 14.6099 48.0201C14.1795 48.4982 13.5812 48.792 12.9396 48.8403C12.298 48.8886 11.6625 48.6877 11.1653 48.2794C10.6681 47.871 10.3475 47.2867 10.2701 46.648C10.1927 46.0093 10.3646 45.3653 10.7499 44.8501C10.8399 44.7401 19.6299 34.3001 32.5899 44.3801C33.2499 44.6901 35.4699 44.3801 38.4599 39.1801C44.0199 29.5401 54.3999 23.3601 54.8399 23.1001C55.4115 22.7632 56.0934 22.6672 56.7357 22.8332C57.378 22.9992 57.9281 23.4135 58.2649 23.9851C58.6018 24.5566 58.6978 25.2385 58.5318 25.8808C58.3658 26.5232 57.9515 27.0732 57.3799 27.4101C57.2799 27.4601 47.6799 33.2101 42.7899 41.6801C40.2099 46.1501 37.3799 48.6801 34.3699 49.3301C33.9171 49.403 33.4584 49.4332 32.9999 49.4201ZM32.58 44.3601L32.6599 44.4201L32.58 44.3601Z" fill="black"/>
<path opacity="0.8" d="M12.6 48.89C12.1478 48.8885 11.7045 48.7645 11.3173 48.5311C10.93 48.2976 10.6133 47.9636 10.4009 47.5644C10.1885 47.1652 10.0883 46.7159 10.1111 46.2644C10.1338 45.8128 10.2786 45.3758 10.53 45C11.62 43.38 21.42 29.35 31 29.35H31.11C33.52 29.35 36.98 30.35 39.81 34.71C42.12 38.29 44.58 40.2 47.12 40.36C50.91 40.59 54.12 37 54.12 36.97C54.3265 36.7027 54.5852 36.4801 54.8802 36.3155C55.1752 36.1509 55.5005 36.0479 55.8365 36.0126C56.1724 35.9772 56.5121 36.0103 56.8349 36.1099C57.1577 36.2095 57.457 36.3734 57.7146 36.5919C57.9723 36.8103 58.183 37.0788 58.3341 37.3809C58.4852 37.6831 58.5734 38.0127 58.5935 38.3499C58.6137 38.6871 58.5652 39.0249 58.4512 39.3429C58.3371 39.6609 58.1598 39.9524 57.93 40.2C57.74 40.43 53.14 45.76 46.8 45.35C42.6 45.07 38.8 42.41 35.62 37.42C34.3 35.42 32.81 34.42 31.07 34.35H31C25.76 34.35 18.2 42.58 14.66 47.8C14.4316 48.1359 14.1244 48.4109 13.7654 48.6009C13.4063 48.7909 13.0062 48.8901 12.6 48.89Z" fill="black"/>
</svg>
