<svg width="72" height="72" viewBox="0 0 72 72" fill="none" xmlns="http://www.w3.org/2000/svg">
<path d="M44.74 11.54C44.2581 11.3644 43.7339 11.3411 43.2384 11.4735C42.7428 11.6059 42.3 11.8875 41.97 12.28L24.79 32.78C24.0312 33.6814 23.6151 34.8218 23.6151 36C23.6151 37.1783 24.0312 38.3187 24.79 39.22L42 59.7201C42.2346 60.0008 42.5283 60.2263 42.8603 60.3801C43.1922 60.534 43.5541 60.6125 43.92 60.6101C44.2098 60.6089 44.4973 60.5582 44.77 60.46C45.2521 60.285 45.6684 59.9652 45.9619 59.5446C46.2555 59.124 46.412 58.623 46.41 58.1101V13.89C46.4098 13.3735 46.2489 12.8698 45.9497 12.4488C45.6505 12.0277 45.2277 11.7102 44.74 11.54Z" fill="black"/>
</svg>
