<svg width="72" height="72" viewBox="0 0 72 72" fill="none" xmlns="http://www.w3.org/2000/svg">
<path fill-rule="evenodd" clip-rule="evenodd" d="M36.1599 11.21H36.4499C42.3759 11.21 47.1799 16.0139 47.1799 21.94V35.52C47.1799 41.446 42.3759 46.25 36.4499 46.25H36.1599C30.2339 46.25 25.4299 41.446 25.4299 35.52V21.94C25.4299 16.0139 30.2339 11.21 36.1599 11.21ZM50.8834 31.1133C51.2698 30.727 51.7937 30.51 52.3401 30.51C52.8838 30.51 53.4052 30.7259 53.7897 31.1104C54.1741 31.4948 54.3901 32.0163 54.3901 32.56V38.56C54.3901 47.17 47.2401 54.19 38.3101 54.56V59.93C38.3101 60.4604 38.0994 60.9691 37.7243 61.3442C37.3492 61.7192 36.8405 61.93 36.3101 61.93C35.7797 61.93 35.2709 61.7192 34.8959 61.3442C34.5208 60.9691 34.3101 60.4604 34.3101 59.93V54.57C25.3701 54.19 18.2201 47.17 18.2201 38.57V32.57C18.2004 32.288 18.239 32.0051 18.3333 31.7387C18.4277 31.4723 18.5758 31.2282 18.7686 31.0215C18.9613 30.8148 19.1946 30.65 19.4537 30.5373C19.7129 30.4247 19.9925 30.3665 20.2751 30.3665C20.5577 30.3665 20.8373 30.4247 21.0965 30.5373C21.3556 30.65 21.5888 30.8148 21.7816 31.0215C21.9743 31.2282 22.1225 31.4723 22.2169 31.7387C22.3112 32.0051 22.3498 32.288 22.3301 32.57V38.57C22.3301 45.14 28.0501 50.49 35.0501 50.49H37.5601C44.5801 50.49 50.2801 45.14 50.2801 38.57V32.57C50.2801 32.0236 50.4971 31.4996 50.8834 31.1133Z" fill="black"/>
</svg>
