<svg width="72" height="72" viewBox="0 0 72 72" fill="none" xmlns="http://www.w3.org/2000/svg">
<path d="M58.79 24.8599C57.37 17.6899 52.29 12.6899 44.86 11.1299C41.7488 10.505 38.5833 10.1901 35.41 10.1899C31.16 10.1899 25.18 10.7699 20.79 13.4799C15.22 16.9299 12.29 23.5399 12.55 32.0999C12.7 36.9799 13.88 43.8399 18.65 48.8099C22.24 52.5499 28.82 54.5199 34.26 54.9699V58.0499C34.26 59.0437 34.6534 59.9971 35.3542 60.7016C36.055 61.4062 37.0062 61.8047 38 61.8099C38.0964 61.8193 38.1936 61.8193 38.29 61.8099C39.0639 61.7475 39.7986 61.4431 40.39 60.9399C42.54 59.0999 45.3 56.6999 48 54.1899L49.17 53.1099C51.3948 51.2065 53.4065 49.0673 55.17 46.7299C59.06 41.1999 60.41 32.9999 58.79 24.8599ZM41.93 35.0499L36.19 41.8899C36.0272 42.0876 35.8225 42.2466 35.5908 42.3555C35.3591 42.4645 35.106 42.5206 34.85 42.5199C34.6415 42.5224 34.4345 42.4851 34.24 42.4099C33.9003 42.2891 33.6068 42.0651 33.4006 41.7692C33.1944 41.4734 33.0858 41.1205 33.09 40.7599V27.0799C33.1021 26.725 33.2212 26.3821 33.4318 26.0961C33.6424 25.8102 33.9346 25.5946 34.2699 25.4778C34.6053 25.3609 34.9682 25.3483 35.3108 25.4415C35.6535 25.5347 35.96 25.7294 36.19 25.9999L41.93 32.8399C42.179 33.1544 42.3145 33.5438 42.3145 33.9449C42.3145 34.3461 42.179 34.7355 41.93 35.0499Z" fill="black"/>
</svg>
