<svg width="72" height="72" viewBox="0 0 72 72" fill="none" xmlns="http://www.w3.org/2000/svg">
<path d="M45.9 20.54H26.1C24.0159 20.5096 21.9461 20.89 20.0091 21.6596C18.072 22.4291 16.3054 23.5728 14.8104 25.0251C13.3153 26.4775 12.121 28.2101 11.2956 30.1241C10.4702 32.0381 10.03 34.0959 10 36.18C10.03 38.2642 10.4702 40.322 11.2956 42.236C12.121 44.1499 13.3153 45.8826 14.8104 47.3349C16.3054 48.7873 18.072 49.9309 20.0091 50.7005C21.9461 51.47 24.0159 51.8504 26.1 51.82H45.9C47.9841 51.8504 50.0539 51.47 51.9909 50.7005C53.928 49.9309 55.6946 48.7873 57.1896 47.3349C58.6847 45.8826 59.879 44.1499 60.7044 42.236C61.5298 40.322 61.97 38.2642 62 36.18C61.97 34.0959 61.5298 32.0381 60.7044 30.1241C59.879 28.2101 58.6847 26.4775 57.1896 25.0251C55.6946 23.5728 53.928 22.4291 51.9909 21.6596C50.0539 20.89 47.9841 20.5096 45.9 20.54ZM32.62 39C32.6873 40.1385 32.3069 41.2582 31.56 42.12C30.7159 42.9307 29.5903 43.3824 28.42 43.38H27.77C26.3 43.45 25.56 42.95 25.56 41.89C25.5433 41.524 25.6687 41.1657 25.91 40.89C26.2035 40.6114 26.5954 40.4604 27 40.47H27.68C27.8521 40.473 28.0229 40.4398 28.1814 40.3727C28.3399 40.3055 28.4825 40.2058 28.6 40.08C28.8177 39.7935 28.9275 39.4394 28.91 39.08V30.8C28.9003 30.5592 28.9396 30.3189 29.0256 30.0937C29.1115 29.8685 29.2423 29.6631 29.41 29.49C29.5928 29.3222 29.8072 29.1924 30.0407 29.1083C30.2742 29.0242 30.5221 28.9874 30.77 29C31.0132 28.9886 31.2562 29.0261 31.4847 29.1102C31.7131 29.1944 31.9224 29.3235 32.1 29.49C32.2728 29.6604 32.4082 29.8648 32.4977 30.0904C32.5872 30.3159 32.6289 30.5575 32.62 30.8V39ZM45.69 41.36C45.1577 42.0682 44.4369 42.6123 43.61 42.93C42.6233 43.3169 41.5696 43.5038 40.51 43.48C39.4993 43.4883 38.4916 43.3707 37.51 43.13C36.7037 42.9322 35.9387 42.5936 35.25 42.13C35.0469 41.9835 34.8766 41.7961 34.75 41.58C34.6414 41.3561 34.5899 41.1087 34.6 40.86C34.5987 40.4696 34.741 40.0923 35 39.8C35.0968 39.6671 35.2229 39.5582 35.3686 39.4819C35.5143 39.4056 35.6756 39.3639 35.84 39.36C36.0097 39.3614 36.1783 39.3884 36.34 39.44C36.5496 39.5236 36.7506 39.6274 36.94 39.75C37.4576 40.0364 38.0084 40.258 38.58 40.41C39.1834 40.5484 39.801 40.6155 40.42 40.61C41.0397 40.6441 41.6582 40.5238 42.22 40.26C42.4033 40.165 42.5571 40.0215 42.6647 39.8452C42.7722 39.6689 42.8294 39.4665 42.83 39.26C42.8102 39.0907 42.7475 38.9292 42.6477 38.7909C42.5479 38.6526 42.4145 38.5422 42.26 38.47C41.568 38.1506 40.8339 37.9317 40.08 37.82C39.002 37.6196 37.9537 37.2836 36.96 36.82C36.3168 36.5222 35.7721 36.0469 35.39 35.45C35.0359 34.7844 34.8771 34.0323 34.9319 33.2803C34.9868 32.5283 35.253 31.8072 35.7 31.2C36.2427 30.4773 36.9673 29.9114 37.8 29.56C38.7466 29.152 39.7694 28.9509 40.8 28.97C41.6807 28.9541 42.5592 29.0619 43.41 29.29C44.1609 29.4957 44.8687 29.8344 45.5 30.29C45.7084 30.4336 45.8825 30.6214 46.01 30.84C46.1156 31.065 46.167 31.3116 46.16 31.56C46.1619 31.9237 46.0383 32.2769 45.81 32.56C45.7202 32.693 45.5997 32.8023 45.4587 32.8789C45.3177 32.9555 45.1604 32.997 45 33C44.8375 32.9993 44.6759 32.9758 44.52 32.93C44.3003 32.8436 44.0893 32.7365 43.89 32.61L43.32 32.3C42.9708 32.1229 42.6014 31.9886 42.22 31.9C41.7674 31.7968 41.3043 31.7465 40.84 31.75C40.2644 31.7242 39.6931 31.8592 39.19 32.14C39.0088 32.2387 38.8565 32.3827 38.7478 32.558C38.6391 32.7333 38.5778 32.9339 38.57 33.14C38.5594 33.3675 38.6383 33.5901 38.79 33.76C39.0286 33.976 39.312 34.1365 39.62 34.23C40.2007 34.431 40.7957 34.5881 41.4 34.7C42.4404 34.8969 43.4495 35.2333 44.4 35.7C45.0593 36.0135 45.6147 36.5099 46 37.13C46.3143 37.7016 46.4664 38.3482 46.44 39C46.4494 39.8344 46.1861 40.649 45.69 41.32V41.36Z" fill="black"/>
</svg>
