<svg width="72" height="72" viewBox="0 0 72 72" fill="none" xmlns="http://www.w3.org/2000/svg">
<path d="M56.87 20.1601H48.66V17.1001C48.6574 15.6996 48.1006 14.3571 47.1112 13.3659C46.1219 12.3747 44.7805 11.8153 43.38 11.8101H28.62C27.2196 11.8153 25.8781 12.3747 24.8888 13.3659C23.8994 14.3571 23.3426 15.6996 23.34 17.1001V20.1601H15.13C13.9993 20.1627 12.9157 20.6137 12.1171 21.4142C11.3185 22.2147 10.87 23.2993 10.87 24.4301V40.8001C10.8907 41.0176 10.982 41.2224 11.1301 41.3832C11.2782 41.5439 11.4748 41.6517 11.69 41.6901L33 43.8601C33 43.0644 33.3161 42.3013 33.8787 41.7387C34.4413 41.1761 35.2044 40.8601 36 40.8601C36.7957 40.8601 37.5587 41.1761 38.1213 41.7387C38.6839 42.3013 39 43.0644 39 43.8601L60.5 41.6801C60.6603 41.5948 60.801 41.4769 60.9129 41.3339C61.0249 41.191 61.1056 41.0261 61.15 40.8501V24.4301C61.15 23.8685 61.0392 23.3124 60.824 22.7937C60.6088 22.275 60.2934 21.8038 59.8958 21.4072C59.4982 21.0105 59.0263 20.6962 58.5071 20.4822C57.9879 20.2682 57.4316 20.1587 56.87 20.1601ZM28.2 20.1601V17.1001C28.2 16.9887 28.2443 16.8818 28.323 16.8031C28.4018 16.7243 28.5086 16.6801 28.62 16.6801H43.38C43.4914 16.6801 43.5982 16.7243 43.677 16.8031C43.7558 16.8818 43.8 16.9887 43.8 17.1001V20.1601H28.2Z" fill="black"/>
<path d="M57.48 44.37L39 46.24V46.31C39.0066 46.9357 38.8173 47.5479 38.4587 48.0607C38.1 48.5736 37.59 48.9614 37 49.17C36.545 49.3309 36.0579 49.3796 35.58 49.3121C35.1021 49.2445 34.6476 49.0627 34.255 48.782C33.8624 48.5013 33.5433 48.13 33.3248 47.6996C33.1063 47.2693 32.9949 46.7926 33 46.31L14.66 44.44C14.3993 44.4149 14.1361 44.4446 13.8875 44.5271C13.6389 44.6097 13.4103 44.7433 13.2164 44.9193C13.0224 45.0954 12.8674 45.3101 12.7613 45.5495C12.6551 45.789 12.6002 46.048 12.6 46.31V53.07C12.6 56.42 14.87 59.14 17.67 59.14H54.47C57.27 59.14 59.55 56.42 59.55 53.07V46.24C59.5499 45.9771 59.4948 45.7172 59.388 45.4769C59.2813 45.2367 59.1253 45.0215 58.9303 44.8453C58.7352 44.6691 58.5053 44.5357 58.2555 44.4539C58.0057 44.372 57.7415 44.3434 57.48 44.37Z" fill="black"/>
</svg>
