<svg width="72" height="72" viewBox="0 0 72 72" fill="none" xmlns="http://www.w3.org/2000/svg">
<path d="M36 24.0601C33.6377 24.0561 31.3272 24.753 29.3611 26.0626C27.3949 27.3722 25.8615 29.2356 24.9547 31.417C24.0479 33.5984 23.8086 35.9997 24.267 38.3172C24.7255 40.6346 25.8611 42.764 27.5301 44.4358C29.1992 46.1077 31.3266 47.2468 33.6433 47.7092C35.96 48.1715 38.3617 47.9362 40.5447 47.0331C42.7276 46.13 44.5935 44.5996 45.9064 42.6357C47.2193 40.6717 47.92 38.3624 47.92 36.0001C47.9174 32.8377 46.6613 29.8052 44.4271 27.5672C42.1928 25.3292 39.1624 24.068 36 24.0601ZM44 34.2801L35.83 42.0001C35.2417 42.5469 34.4683 42.8509 33.665 42.8509C32.8618 42.8509 32.0884 42.5469 31.5 42.0001L27.87 38.6301C27.6678 38.4541 27.503 38.2393 27.3854 37.9984C27.2678 37.7575 27.1998 37.4954 27.1855 37.2277C27.1712 36.96 27.2109 36.6921 27.3022 36.4401C27.3935 36.188 27.5345 35.9569 27.7169 35.7604C27.8993 35.5639 28.1193 35.4061 28.3639 35.2964C28.6085 35.1866 28.8727 35.1272 29.1407 35.1216C29.4087 35.1159 29.6751 35.1642 29.9241 35.2636C30.1731 35.363 30.3996 35.5114 30.59 35.7001L33.65 38.5401L41.26 31.3701C41.6499 31.0306 42.1561 30.8553 42.6724 30.881C43.1887 30.9066 43.675 31.1311 44.0294 31.5075C44.3838 31.8838 44.5787 32.3828 44.5732 32.8997C44.5677 33.4166 44.3623 33.9113 44 34.2801Z" fill="black"/>
<path d="M59.7201 24.5199V24.4099C59.7201 23.9599 59.7201 23.4699 59.7201 22.9399C59.6832 20.9736 58.9058 19.0936 57.5433 17.6755C56.1808 16.2573 54.3334 15.4054 52.3701 15.2899C47.7237 15.2209 43.2841 13.3576 39.9801 10.0899L39.8401 9.99993C38.7911 9.02503 37.4121 8.48315 35.9801 8.48315C34.5481 8.48315 33.1691 9.02503 32.1201 9.99993L32.0001 10.0999C28.6946 13.3639 24.2551 15.2236 19.6101 15.2899C17.6469 15.4054 15.7994 16.2573 14.4369 17.6755C13.0744 19.0936 12.297 20.9736 12.2601 22.9399C12.2601 23.4699 12.2601 23.9399 12.2601 24.4799V24.5799C12.1501 30.6499 12.0001 38.1999 14.6101 45.2599C16.0181 49.159 18.2878 52.69 21.2501 55.5899C24.8908 59.0191 29.2447 61.6007 34.0001 63.1499C34.2637 63.2476 34.5345 63.3245 34.8101 63.3799C35.6021 63.5399 36.4181 63.5399 37.2101 63.3799C37.4883 63.3219 37.7623 63.2451 38.0301 63.1499C42.7737 61.5943 47.1165 59.0132 50.7501 55.5899C53.7126 52.6863 55.9822 49.1519 57.3901 45.2499C60.0001 38.1699 59.8301 30.5999 59.7201 24.5199ZM36.0001 50.9399C33.0444 50.9439 30.1539 50.071 27.6944 48.4318C25.2349 46.7926 23.3169 44.4607 22.1831 41.7311C21.0493 39.0015 20.7505 35.997 21.3247 33.0976C21.8989 30.1982 23.3203 27.5342 25.4089 25.4428C27.4975 23.3514 30.1595 21.9266 33.0581 21.3485C35.9567 20.7704 38.9617 21.0651 41.6928 22.1953C44.4239 23.3254 46.7584 25.2403 48.4009 27.6976C50.0434 30.1549 50.9201 33.0442 50.9201 35.9999C50.9043 39.9539 49.328 43.7418 46.5339 46.5396C43.7399 49.3374 39.9541 50.9189 36.0001 50.9399Z" fill="black"/>
</svg>
