<svg width="72" height="72" viewBox="0 0 72 72" fill="none" xmlns="http://www.w3.org/2000/svg">
<path d="M55.89 20.21H38.31V18C38.31 16.5201 37.7221 15.1008 36.6756 14.0544C35.6292 13.0079 34.2099 12.42 32.73 12.42H18.11C15.8565 12.4227 13.696 13.3191 12.1025 14.9126C10.509 16.506 9.61263 18.6665 9.60999 20.92V51.59C9.61263 53.3131 10.2983 54.9649 11.5167 56.1833C12.7351 57.4017 14.3869 58.0874 16.11 58.09H55.89C57.6131 58.0874 59.2648 57.4017 60.4833 56.1833C61.7017 54.9649 62.3873 53.3131 62.39 51.59V26.71C62.3873 24.9869 61.7017 23.3352 60.4833 22.1168C59.2648 20.8984 57.6131 20.2127 55.89 20.21ZM50.89 32.69L36.27 46.49C35.4201 47.2968 34.2918 47.7445 33.12 47.74C31.9638 47.739 30.8502 47.3036 30 46.52L23.49 40.52C23.0033 40.0692 22.7157 39.4434 22.6904 38.7805C22.665 38.1176 22.9041 37.4717 23.355 36.985C23.8059 36.4984 24.4316 36.2107 25.0945 36.1854C25.7575 36.1601 26.4033 36.3992 26.89 36.85L33.12 42.63L47.52 29.08C48.0027 28.6252 48.6463 28.3807 49.3092 28.4004C49.9722 28.4201 50.6001 28.7023 51.055 29.185C51.5098 29.6677 51.7543 30.3113 51.7346 30.9743C51.7149 31.6372 51.4327 32.2652 50.95 32.72L50.89 32.69Z" fill="black"/>
</svg>
