<svg width="72" height="72" viewBox="0 0 72 72" fill="none" xmlns="http://www.w3.org/2000/svg">
<path fill-rule="evenodd" clip-rule="evenodd" d="M42.6668 32.3276C40.6935 33.6462 38.3734 34.35 36 34.35C32.8174 34.35 29.7652 33.0857 27.5147 30.8353C25.2643 28.5848 24 25.5326 24 22.35C24 19.9766 24.7038 17.6565 26.0224 15.6831C27.3409 13.7097 29.2151 12.1717 31.4078 11.2634C33.6005 10.3552 36.0133 10.1175 38.3411 10.5806C40.6689 11.0436 42.8071 12.1865 44.4853 13.8647C46.1635 15.5429 47.3064 17.6811 47.7694 20.0089C48.2324 22.3367 47.9948 24.7495 47.0866 26.9422C46.1783 29.1349 44.6402 31.009 42.6668 32.3276ZM34.0801 37.49H37.9201C42.4253 37.4926 46.7452 39.2835 49.9309 42.4692C53.1166 45.6548 54.9074 49.9748 54.9101 54.48V57.82C54.9074 58.8323 54.5041 59.8024 53.7883 60.5182C53.0725 61.234 52.1024 61.6373 51.0901 61.64H20.9001C19.8878 61.6373 18.9177 61.234 18.2018 60.5182C17.486 59.8024 17.0827 58.8323 17.0801 57.82V54.49C17.0801 49.9813 18.8711 45.6573 22.0593 42.4692C25.2474 39.2811 29.5714 37.49 34.0801 37.49Z" fill="black"/>
</svg>
