<svg width="72" height="72" viewBox="0 0 72 72" fill="none" xmlns="http://www.w3.org/2000/svg">
<path fill-rule="evenodd" clip-rule="evenodd" d="M65.3301 11.87C64.9565 9.83692 63.9664 7.96807 62.494 6.51718C61.0216 5.06629 59.1384 4.10366 57.1001 3.75999C55.306 3.39876 53.4802 3.21786 51.6501 3.21999C49.1801 3.21999 45.7001 3.54999 43.1301 5.14999C39.8301 7.14999 38.1301 11.07 38.2601 16.08C38.3401 18.92 39.0301 22.93 41.8301 25.85C44.0901 28.19 47.8301 29.15 50.5901 29.43V30.82C50.5901 31.1522 50.6556 31.4812 50.7827 31.7882C50.9098 32.0951 51.0962 32.374 51.3311 32.609C51.5661 32.8439 51.845 33.0303 52.1519 33.1574C52.4589 33.2845 52.7879 33.35 53.1201 33.35H53.3401C53.8643 33.3101 54.362 33.1033 54.7601 32.76C56.0501 31.65 57.5701 30.33 59.0801 28.93L59.7401 28.32C61.0318 27.2174 62.1987 25.9767 63.2201 24.62C65.4801 21.38 66.2701 16.62 65.3301 11.87ZM27.12 37.91C29.3145 37.906 31.4586 37.2516 33.2814 36.0295C35.1041 34.8075 36.5237 33.0725 37.3608 31.0439C38.1979 29.0153 38.4148 26.7841 37.9843 24.6322C37.5537 22.4803 36.495 20.5044 34.9418 18.954C33.3887 17.4037 31.4108 16.3485 29.2582 15.9218C27.1055 15.4951 24.8747 15.7161 22.8476 16.5568C20.8205 17.3975 19.0881 18.8203 17.8693 20.6452C16.6505 22.4702 16 24.6154 16 26.8099C16.0013 28.2689 16.29 29.7134 16.8495 31.0608C17.4091 32.4082 18.2285 33.6322 19.2611 34.663C20.2937 35.6937 21.5192 36.511 22.8676 37.0681C24.2161 37.6252 25.661 37.9113 27.12 37.91ZM25.38 40.41H28.87C33.019 40.4153 36.9966 42.0658 39.9304 44.9996C42.8642 47.9334 44.5147 51.911 44.52 56.06V59.06C44.52 60.0289 44.1358 60.9584 43.4515 61.6445C42.7673 62.3306 41.8389 62.7173 40.87 62.72H13.38C12.411 62.7173 11.4827 62.3306 10.7984 61.6445C10.1142 60.9584 9.72998 60.0289 9.72998 59.06V56.06C9.73527 51.911 11.3858 47.9334 14.3196 44.9996C17.2534 42.0658 21.231 40.4153 25.38 40.41Z" fill="black"/>
</svg>
