<svg width="72" height="72" viewBox="0 0 72 72" fill="none" xmlns="http://www.w3.org/2000/svg">
<path fill-rule="evenodd" clip-rule="evenodd" d="M13.06 60.5399C12.5368 60.5404 12.0342 60.3357 11.66 59.9699C11.4699 59.7835 11.3188 59.561 11.2158 59.3154C11.1128 59.0699 11.0598 58.8062 11.06 58.5399V35.5999C11.0472 30.8354 12.3994 26.1668 14.9567 22.1467C17.514 18.1266 21.1693 14.9231 25.4902 12.9153C29.8111 10.9075 34.6167 10.1795 39.3383 10.8172C44.06 11.455 48.5002 13.4319 52.1336 16.5141C55.7669 19.5963 58.4414 23.6548 59.8405 28.2093C61.2395 32.7638 61.3047 37.6238 60.0283 42.2142C58.7519 46.8046 56.1872 50.9334 52.6379 54.1119C49.0885 57.2904 44.7029 59.3857 40 60.1499C39.9036 60.1597 39.8064 60.1597 39.71 60.1499L13.14 60.5099L13.06 60.5399ZM36 14.6699C30.453 14.6857 25.1375 16.8956 21.2142 20.817C17.2909 24.7385 15.0785 30.0529 15.06 35.5999V56.5199L39.46 56.1799C44.6282 55.3099 49.2808 52.53 52.4958 48.3911C55.7108 44.2523 57.2536 39.0566 56.8182 33.8338C56.3829 28.6111 54.0013 23.7425 50.1454 20.1931C46.2896 16.6436 41.2409 14.6723 36 14.6699ZM44.24 36H26.37C25.707 36 25.0711 35.7366 24.6022 35.2678C24.1334 34.7989 23.87 34.163 23.87 33.5C23.87 32.837 24.1334 32.2011 24.6022 31.7322C25.0711 31.2634 25.707 31 26.37 31H44.24C44.903 31 45.5389 31.2634 46.0078 31.7322C46.4766 32.2011 46.74 32.837 46.74 33.5C46.74 34.163 46.4766 34.7989 46.0078 35.2678C45.5389 35.7366 44.903 36 44.24 36ZM26.37 44.52H39.21C39.873 44.52 40.5089 44.2566 40.9778 43.7878C41.4466 43.3189 41.71 42.6831 41.71 42.02C41.71 41.357 41.4466 40.7211 40.9778 40.2523C40.5089 39.7834 39.873 39.52 39.21 39.52H26.37C25.707 39.52 25.0711 39.7834 24.6022 40.2523C24.1334 40.7211 23.87 41.357 23.87 42.02C23.87 42.6831 24.1334 43.3189 24.6022 43.7878C25.0711 44.2566 25.707 44.52 26.37 44.52Z" fill="black"/>
</svg>
